<?xml version='1.0' encoding='utf-8'?>
<svg xmlns:dc="http://purl.org/dc/elements/1.1/" xmlns:cc="http://creativecommons.org/ns#" xmlns:rdf="http://www.w3.org/1999/02/22-rdf-syntax-ns#" xmlns:svg="http://www.w3.org/2000/svg" xmlns="http://www.w3.org/2000/svg" xmlns:sodipodi="http://sodipodi.sourceforge.net/DTD/sodipodi-0.dtd" xmlns:inkscape="http://www.inkscape.org/namespaces/inkscape" width="691.32104" height="715.17731" viewBox="0 0 722.04592 746.96252" version="1.2" id="svg35018" inkscape:version="0.48.4 r9939" sodipodi:docname="albero_pianta_17.svg">
  <metadata id="metadata35078">
    <rdf:RDF>
      <cc:Work rdf:about="">
        <dc:format>image/svg+xml</dc:format>
        <dc:type rdf:resource="http://purl.org/dc/dcmitype/StillImage"/>
      </cc:Work>
    </rdf:RDF>
  </metadata>
  <sodipodi:namedview pagecolor="#ffffff" bordercolor="#666666" borderopacity="1" objecttolerance="10" gridtolerance="10" guidetolerance="10" inkscape:pageopacity="0" inkscape:pageshadow="2" inkscape:window-width="1855" inkscape:window-height="1176" id="namedview35076" showgrid="false" fit-margin-top="0" fit-margin-left="0" fit-margin-right="0" fit-margin-bottom="0" inkscape:zoom="1.138488" inkscape:cx="367.77086" inkscape:cy="354.18851" inkscape:window-x="65" inkscape:window-y="24" inkscape:window-maximized="1" inkscape:current-layer="svg35018"/>
  <title id="title35020">Qt SVG Document</title>
  <desc id="desc35022">Generated with Qt</desc>
  <defs id="defs35024"/>
  <g id="g35028" font-style="normal" font-weight="400" font-size="14.3611" transform="translate(-388.38408,-94.9675)" fill="param(fill) none" stroke="param(outline) #00ff00" stroke-width="param(outline-width) 1"/>
  <g id="g35034" font-style="normal" font-weight="400" font-size="14.3611" transform="translate(-388.38408,-94.9675)" fill="param(fill) none" stroke="param(outline) #00ff00" stroke-width="param(outline-width) 1"/>
  <g id="g35036" font-style="normal" font-weight="400" font-size="14.3611" stroke-miterlimit="2" transform="translate(-388.38408,-94.9675)" fill="param(fill) none" stroke="param(outline) #00ff00" stroke-width="param(outline-width) 1"/>
  <g id="g35038" font-style="normal" font-weight="400" font-size="14.3611" transform="translate(-388.38408,-94.9675)" fill="param(fill) none" stroke="param(outline) #00ff00" stroke-width="param(outline-width) 1"/>
  <g id="g35040" font-style="normal" font-weight="400" font-size="14.3611" transform="matrix(0.911137,0.412104,-0.412104,0.911137,346.16992,391.9645)" fill="param(fill) none" stroke="param(outline) #00ff00" stroke-width="param(outline-width) 1">
    <path inkscape:connector-curvature="0" id="path35042" d="m 30.7514,0 c 0,-16.9836 -13.7678,-30.7514 -30.7514,-30.7514 -16.9836,0 -30.7514,13.7678 -30.7514,30.7514 0,16.9836 13.7678,30.7514 30.7514,30.7514 6.77434,0 13.0371,-2.1905 18.1185,-5.9018" vector-effect="non-scaling-stroke"/>
  </g>
  <polyline vector-effect="non-scaling-stroke" points="406.772,498.877 388.884,494.774 389.366,512.178 408.59,512.455 406.347,528.354 425.04,527.341 425.395,540.898 409.411,544.513 414.363,556.671 429.779,554.329 428.889,565.304 448.16,562.285 453.158,571.33 467.3,568.421 466.64,576.102 451.784,577.72 451.047,590.711 432.328,593.554 452.218,598.419 456.428,611.298 441.689,617.496 447.849,634.798 428.625,634.521 428.085,621.145 409.556,623.442 412.458,638.134 399.623,639.231 407.787,657.295 420.74,647.959 437.475,643.072 441.566,664.191 460.974,651.651 464.056,666.529 454.993,672.808 466.361,684.508 474.246,671.071 482.374,678.879 490.97,666.916 499.757,679.862 489.887,691.256 497.392,704.183 515.165,678.069 527.157,684.651 513.441,708.809 524.891,714.834 532.197,703.402 539.702,716.329 528.551,727.706 534.254,738.592 521.858,747.387 528.723,753.895 519.612,763.469 534.879,784.199 541.409,775.869 535.167,764.243 549.541,745.222 558.328,758.167 555.916,785.784 571.909,794.255 577.486,763.021 585.662,767.534 574.491,793.01 595.097,786.348 598.121,754.345 614.764,755.866 609.231,783.988 627.742,782.973 625.779,741.192 " id="polyline35046" style="font-size:14.3611002px;font-style:normal;font-weight:400;fill:none;stroke:#000000;stroke-width:1;stroke-linecap:square;stroke-linejoin:bevel;stroke-opacity:1;font-family:Ubuntu" transform="translate(-388.38408,-94.9675)" fill="param(fill) none" stroke="param(outline) #00ff00" stroke-width="param(outline-width) 1"/>
  <polyline vector-effect="non-scaling-stroke" points="674.211,137.394 658.283,137.164 660.543,158.256 645.108,161.88 644.154,177.248 628.646,185.998 620.592,173.063 629.626,168.799 625.939,157.758 616.17,162.195 609.965,148.005 595.756,155.492 601.449,167.111 589.722,180.31 597.832,189.4 609.393,187.735 613.722,205.011 598.818,209.924 593.829,200.33 579.657,205.253 573.415,193.627 555.41,197.762 566.144,215.314 555.093,219.733 550.886,206.67 535.277,209.742 531.672,193.026 514.324,202.298 523.082,217.258 510.565,234.474 515.573,242.787 501.346,251.555 498.455,236.131 489.41,241.128 493.502,223.974 486.546,211.055 474.82,224.254 460.722,224.051 450.229,240.564 467.456,252.349 453.742,263.689 454.828,277.255 450.297,286.713 467.433,292.087 458.185,311.182 444.931,303.3 440.817,321.919 455.308,332.932 448.79,340.53 434.198,336.474 427.613,348.649 412.849,343.858 409.608,352.784 397.433,346.2 394.099,361.534 407.417,365.022 403.295,384.191 416.817,386.217 421.47,368.338 436.794,372.404 439.154,386.538 458.397,385.534 457.615,401.637 436.369,401.881 433.622,414.66 412.611,411.244 410.413,424.031 393.549,437.889 412.205,439.44 411.17,460.484 428.508,464.58 423.113,483.181 407.019,481.667 " id="polyline35048" style="font-size:14.3611002px;font-style:normal;font-weight:400;fill:none;stroke:#000000;stroke-width:1;stroke-linecap:square;stroke-linejoin:bevel;stroke-opacity:1;font-family:Ubuntu" transform="translate(-388.38408,-94.9675)" fill="param(fill) none" stroke="param(outline) #00ff00" stroke-width="param(outline-width) 1"/>
  <polyline vector-effect="non-scaling-stroke" points="1061.9,416.015 1061.67,394.22 1044.14,403.673 1039.94,389.512 1048.98,385.064 1042.91,361.903 1061.47,357.043 1054.74,341.014 1041.78,351.082 1033.47,343.271 1020,350.036 1008.03,329.354 1017.16,318.681 1022.87,329.018 1033.23,321.476 1028.83,309.143 1041.82,297.244 1032.49,284.291 1033.24,270.201 1037.01,275.383 1028.96,262.448 1014,271.206 1020.99,281.562 1009.87,290.924 994.661,278.619 979.785,294.337 974.118,280.887 985.793,271.349 976.969,260.967 990.702,248.346 981.183,235.391 968.97,244.188 960.751,229.969 966.757,219.8 976.222,223.782 991.834,207.892 1002.69,217.205 1017.48,206.979 1001.66,199.793 1006.21,188.871 994.235,181.007 985.006,198.821 969.69,194.205 973.693,183.275 964.081,176.727 959.978,194.615 944.68,188.717 936.798,201.972 921.593,189.667 931.473,177.54 916.157,172.924 908.814,186.919 896.082,180.876 898.105,167.537 884.074,162.757 879.466,177.523 867.181,178.628 872.566,160.76 860.519,158.022 865.134,142.706 849.243,139.914 845.726,155.246 835.026,147.95 830.931,165.288 838.602,166.68 833.228,183.816 822.232,184.391 814.332,198.927 801.103,189.214 806.927,179.043 806.665,159.078 814.602,141.979 802.465,132.831 799.654,150.004 779.222,144.583 781.977,131.254 792.999,128.849 792.507,112.178 781.742,109.459 783.768,95.9367 751.178,95.4675 748.43,108.247 771.444,112.424 765.39,125.888 751.292,125.685 746.651,142.832 733.11,142.087 732.737,129.813 717.274,135.45 718.814,117.526 702.097,121.131 695.903,106.208 681.044,108.009 680.376,116.24 " id="polyline35050" style="font-size:14.3611002px;font-style:normal;font-weight:400;fill:none;stroke:#000000;stroke-width:1;stroke-linecap:square;stroke-linejoin:bevel;stroke-opacity:1;font-family:Ubuntu" transform="translate(-388.38408,-94.9675)" fill="param(fill) none" stroke="param(outline) #00ff00" stroke-width="param(outline-width) 1"/>
  <polyline vector-effect="non-scaling-stroke" points="1040.08,468.99 1037.14,444.592 1053.88,438.973 1056.15,459.516 1077.44,455.977 1071.78,442.527 1090.46,442.064 1091.22,427.425 1109.93,425.131 1101.75,408.348 1081.2,411.166 " id="polyline35052" style="font-size:14.3611002px;font-style:normal;font-weight:400;fill:none;stroke:#000000;stroke-width:1;stroke-linecap:square;stroke-linejoin:bevel;stroke-opacity:1;font-family:Ubuntu" transform="translate(-388.38408,-94.9675)" fill="param(fill) none" stroke="param(outline) #00ff00" stroke-width="param(outline-width) 1"/>
  <polyline vector-effect="non-scaling-stroke" points="889.54,762.386 910.955,750.425 919.219,761.532 908.197,763.937 913.9,774.823 933.235,767.411 938.103,785.427 952.301,778.673 931.215,729.658 949.323,718.382 952.344,724.835 966.087,711.481 955.368,692.831 962.638,683.963 980.937,697.594 1009.77,704.419 1002.38,683.802 1010.23,672.379 1017.07,680.901 1028.32,662.384 1014.4,650.097 1025.4,636.705 1037.52,646.585 1034.75,661.195 1053.15,667.869 1059.78,652.582 1041.46,640.232 1049.34,627.527 1035.26,626.042 1037.31,610.689 1020.72,605.323 1023.5,590.53 1014.7,578.134 1018.7,567.387 1029.59,574.502 1035.43,563.05 1049.38,573.506 1044.83,584.427 1062.72,588.531 1057.95,601.281 1080.4,606.732 1085.9,581.173 1065.5,573.188 1074.77,552.812 1088.08,556.849 1080.78,529.824 1061.5,533.392 1054.05,516.621 1068.95,511.708 1063.28,498.807 1047.85,501.699 1040.35,488.222 1024.93,491.113 1023.28,478.271 1039.18,481.064 " id="polyline35054" style="font-size:14.3611002px;font-style:normal;font-weight:400;fill:none;stroke:#000000;stroke-width:1;stroke-linecap:square;stroke-linejoin:bevel;stroke-opacity:1;font-family:Ubuntu" transform="translate(-388.38408,-94.9675)" fill="param(fill) none" stroke="param(outline) #00ff00" stroke-width="param(outline-width) 1"/>
  <polyline vector-effect="non-scaling-stroke" points="643.63,747.858 641.585,762.662 659.464,767.314 655.417,781.357 643.909,779.36 637.16,802.886 646.047,808.874 637.414,823.399 649.681,823.576 655,810.284 673.502,809.818 674.05,822.645 692.542,822.911 697.496,796.796 711.512,802.674 716.979,779.13 728.989,784.43 730.726,803.684 743.497,806.981 739.97,823.045 763.012,825.208 770.47,841.43 776.579,824.121 791.263,821.769 795.627,836.665 811.658,829.754 797.388,803.361 814.45,813.862 824.246,807.594 815.57,786.959 835.483,777.54 826.184,762.024 841.553,762.977 840.747,768.093 856.925,763.748 861.079,780.472 851.875,796.455 861.35,812.523 879.329,810.218 " id="polyline35056" style="font-size:14.3611002px;font-style:normal;font-weight:400;fill:none;stroke:#000000;stroke-width:1;stroke-linecap:square;stroke-linejoin:bevel;stroke-opacity:1;font-family:Ubuntu" transform="translate(-388.38408,-94.9675)" fill="param(fill) none" stroke="param(outline) #00ff00" stroke-width="param(outline-width) 1"/>
  <g id="g35058" font-style="normal" font-weight="400" font-size="14.3611" transform="translate(-388.38408,-94.9675)" fill="param(fill) none" stroke="param(outline) #00ff00" stroke-width="param(outline-width) 1"/>
  <g id="g35060" font-style="normal" font-weight="400" font-size="14.3611" transform="translate(-388.38408,-94.9675)" fill="param(fill) none" stroke="param(outline) #00ff00" stroke-width="param(outline-width) 1"/>
  <g id="g35062" font-style="normal" font-weight="400" font-size="14.3611" transform="translate(-388.38408,-94.9675)" fill="param(fill) none" stroke="param(outline) #00ff00" stroke-width="param(outline-width) 1"/>
  <g id="g35064" font-style="normal" font-weight="400" font-size="14.3611" stroke-miterlimit="2" transform="translate(-388.38408,-94.9675)" fill="param(fill) none" stroke="param(outline) #00ff00" stroke-width="param(outline-width) 1"/>
  <g id="g35070" font-style="normal" font-weight="400" font-size="14.3611" transform="translate(-388.38408,-94.9675)" fill="param(fill) none" stroke="param(outline) #00ff00" stroke-width="param(outline-width) 1"/>
  <g id="g35072" font-style="normal" font-weight="400" font-size="14.3611" transform="translate(-388.38408,-94.9675)" fill="param(fill) none" stroke="param(outline) #00ff00" stroke-width="param(outline-width) 1"/>
  <g id="g35074" font-style="normal" font-weight="400" font-size="14.3611" transform="translate(-388.38408,-94.9675)" fill="param(fill) none" stroke="param(outline) #00ff00" stroke-width="param(outline-width) 1"/>
</svg>