<?xml version='1.0' encoding='utf-8'?>
<svg xmlns:dc="http://purl.org/dc/elements/1.1/" xmlns:cc="http://creativecommons.org/ns#" xmlns:rdf="http://www.w3.org/1999/02/22-rdf-syntax-ns#" xmlns:svg="http://www.w3.org/2000/svg" xmlns="http://www.w3.org/2000/svg" xmlns:sodipodi="http://sodipodi.sourceforge.net/DTD/sodipodi-0.dtd" xmlns:inkscape="http://www.inkscape.org/namespaces/inkscape" width="726.91199" height="715.0636" viewBox="0 0 759.21866 746.84376" version="1.2" id="svg26034" inkscape:version="0.48.4 r9939" sodipodi:docname="albero_pianta_8.svg">
  <metadata id="metadata26100">
    <rdf:RDF>
      <cc:Work rdf:about="">
        <dc:format>image/svg+xml</dc:format>
        <dc:type rdf:resource="http://purl.org/dc/dcmitype/StillImage"/>
      </cc:Work>
    </rdf:RDF>
  </metadata>
  <sodipodi:namedview pagecolor="#ffffff" bordercolor="#666666" borderopacity="1" objecttolerance="10" gridtolerance="10" guidetolerance="10" inkscape:pageopacity="0" inkscape:pageshadow="2" inkscape:window-width="1855" inkscape:window-height="1176" id="namedview26098" showgrid="false" fit-margin-top="0" fit-margin-left="0" fit-margin-right="0" fit-margin-bottom="0" inkscape:zoom="1.138488" inkscape:cx="385.61193" inkscape:cy="354.13585" inkscape:window-x="65" inkscape:window-y="24" inkscape:window-maximized="1" inkscape:current-layer="svg26034"/>
  <title id="title26036">Qt SVG Document</title>
  <desc id="desc26038">Generated with Qt</desc>
  <defs id="defs26040"/>
  <g id="g26044" font-style="normal" font-weight="400" font-size="14.3611" transform="translate(-369.75008,-95.03125)" fill="param(fill) none" stroke="param(outline) #00ff00" stroke-width="param(outline-width) 1"/>
  <g id="g26050" font-style="normal" font-weight="400" font-size="14.3611" transform="translate(-369.75008,-95.03125)" fill="param(fill) none" stroke="param(outline) #00ff00" stroke-width="param(outline-width) 1"/>
  <g id="g26052" font-style="normal" font-weight="400" font-size="14.3611" stroke-miterlimit="2" transform="translate(-369.75008,-95.03125)" fill="param(fill) none" stroke="param(outline) #00ff00" stroke-width="param(outline-width) 1"/>
  <polyline vector-effect="non-scaling-stroke" points="1082.05,469.795 1101.66,484.414 1111.28,493.648 1120.51,489.801 1128.58,499.034 1117.82,509.421 1105.89,510.96 1097.82,526.733 1087.05,514.807 1073.98,525.579 1070.13,538.659 1097.82,545.584 1091.28,545.584 1104.36,535.966 1116.28,553.278 1111.28,565.205 1096.66,566.744 1084.74,565.205 1077.82,574.823 1071.28,565.205 1060.52,572.13 1064.75,589.057 1082.05,597.136 1085.9,607.908 1096.66,602.522 1095.13,618.295 1088.59,625.22 1075.13,622.527 1063.21,625.22 1050.13,618.295 1043.6,625.22 1042.06,635.608 1027.44,627.913 1014.37,613.294 994.373,606.369 977.067,605.215 962.454,594.443 968.992,611.755 991.681,617.141 983.605,627.913 991.681,643.687 1000.91,634.453 1019.37,652.92 1030.14,671.386 1047.44,658.306 1053.98,679.465 1040.9,682.158 1027.44,695.623 1033.98,703.317 1019.37,710.242 1011.68,700.624 1003.6,714.089 985.143,706.01 971.684,687.544 954.379,688.698 951.687,703.317 966.3,707.549 987.835,723.323 978.221,731.402 986.297,743.328 983.605,749.868 966.3,744.482 965.146,752.561 968.992,761.794 959.762,761.794 948.995,761.794 943.996,767.18 934.766,755.254 932.074,772.566 941.304,781.799 926.69,788.339 921.307,781.799 904.002,780.26 895.926,799.111 905.54,797.573 907.847,807.19 888.235,812.192 882.851,802.959 868.238,791.032 861.7,799.111 854.778,787.185 844.395,788.339 844.395,804.497 859.008,811.038 850.933,819.117 839.011,817.578 830.936,805.652 819.014,809.499 809.785,797.573 795.172,785.646 803.248,782.953 792.48,802.959 774.021,802.959 768.637,813.731 777.867,811.038 784.404,820.271 780.559,825.657 747.487,841.43 735.565,824.118 734.027,805.652 738.257,797.573 727.49,789.878 731.335,773.72 726.336,760.64 716.722,752.561 710.185,767.18 714.03,782.953 700.955,793.725 706.339,801.804 711.723,813.731 699.417,841.43 686.342,828.35 675.574,816.424 666.345,824.118 657.116,816.424 641.349,826.811 627.889,822.964 617.122,807.19 627.889,792.571 621.352,777.952 627.889,761.794 631.735,749.868 624.044,743.328 614.814,761.794 606.739,753.715 602.509,763.333 605.2,780.26 586.742,780.26 568.283,767.18 557.515,780.26 549.44,768.334 544.44,757.947 530.981,752.561 534.826,744.482 532.519,727.17 530.981,717.937 534.826,714.089 527.135,704.856 510.984,724.861 516.368,736.788 492.525,729.863 492.525,714.089 480.604,707.549 484.449,692.93 493.679,688.698 481.757,676.772 468.682,686.005 467.144,686.005 459.453,675.618 469.836,666.385 459.453,650.227 451.377,651.766 444.84,643.687 452.531,639.839 454.069,622.527 428.688,629.067 428.688,615.987 428.688,602.522 420.997,599.829 412.922,594.443 411.383,587.903 407.538,566.744 403.692,564.051 406.384,561.357 414.075,546.738 399.462,542.891 392.925,537.505 407.538,529.426 420.997,509.421 434.072,509.421 451.377,494.802 460.607,504.42 460.607,482.876 451.377,472.488 437.918,490.955 432.919,482.876 416.767,482.876 411.383,494.802 398.308,492.493 392.925,487.108 375.62,476.336 387.541,468.256 392.925,448.636 370.236,443.25 374.466,422.091 391.771,416.705 401,419.398 406.384,407.471 425.997,404.778 428.688,395.545 423.305,387.466 411.383,369 398.308,364.768 390.233,355.535 394.463,344.763 406.384,340.916 427.535,339.762 425.997,328.99 414.075,317.063 420.997,298.597 412.922,285.132 424.843,277.053 447.532,279.746 462.145,274.745 459.453,258.587 445.994,248.199 454.069,234.734 474.066,225.501 483.296,210.882 480.604,197.417 509.83,194.724 510.984,200.11 530.981,196.263 530.981,188.184 529.827,177.797 533.673,175.104 534.826,175.104 549.44,180.105 565.591,170.872 564.053,165.87 565.591,152.405 573.667,152.405 586.742,158.946 610.584,157.791 610.584,153.559 617.122,144.326 615.968,137.786 619.814,127.014 637.119,119.32 662.499,125.86 669.037,111.241 662.499,103.162 674.421,103.162 679.805,112.395 682.496,136.632 678.266,155.098 686.342,161.639 694.418,156.252 697.11,137.786 707.493,136.632 716.722,153.559 740.949,185.491 750.179,193.57 757.87,157.791 747.487,147.019 739.411,132.4 740.949,116.627 748.64,117.781 " id="polyline26056" style="font-size:14.3611002px;font-style:normal;font-weight:400;fill:none;stroke:#000000;stroke-width:1;stroke-linecap:square;stroke-linejoin:bevel;stroke-opacity:1;font-family:Ubuntu" transform="translate(-369.75008,-95.03125)" fill="param(fill) none" stroke="param(outline) #00ff00" stroke-width="param(outline-width) 1"/>
  <polyline vector-effect="non-scaling-stroke" points="748.64,117.781 755.178,102.008 768.637,95.4675 779.405,103.162 779.405,112.395 782.097,123.167 788.634,123.167 800.556,111.241 816.322,105.855 819.014,112.395 825.552,112.395 833.628,107.394 841.703,117.781 840.165,128.553 845.549,127.014 860.162,117.781 869.391,116.627 872.083,128.553 868.238,141.633 882.851,133.939 884.005,153.559 894.772,155.098 897.464,141.633 897.464,131.246 912.077,132.4 915.923,129.707 918.615,141.633 912.077,152.405 922.46,152.405 933.228,141.633 941.304,152.405 938.612,163.177 938.612,173.565 937.073,187.03 946.687,184.337 951.687,173.565 961.301,184.337 973.222,175.104 977.067,165.87 980.913,173.565 990.142,173.565 983.605,185.491 977.067,197.417 988.989,207.035 994.373,196.263 998.218,205.496 1010.14,200.11 1022.06,197.417 1024.75,209.343 1015.52,220.115 1004.76,225.501 1004.76,237.427 1010.14,252.047 1015.52,241.275 1026.29,252.047 1026.29,235.889 1036.67,232.041 1039.37,223.962 1043.6,238.582 1047.44,248.199 1039.37,255.894 1038.21,263.973 1048.6,260.126 1050.13,273.206 1050.13,281.285 1042.06,286.671 1035.52,293.211 1042.06,301.29 1050.13,293.211 1058.21,287.825 1071.28,297.058 1083.21,308.984 1077.82,313.216 1056.67,315.909 1045.9,327.835 1038.21,339.762 1015.52,331.683 1030.14,352.842 1050.13,348.995 1064.75,339.762 1082.05,347.456 1091.28,337.069 1100.51,348.995 1100.51,360.921 1084.74,358.228 1068.59,360.921 1044.75,376.694 1068.59,384.773 1082.05,379.387 1109.74,390.159 1116.28,388.62 1120.51,404.778 1105.89,412.473 1088.59,415.166 1083.21,429.785 1071.28,443.25 1084.74,451.329 1109.74,444.404 1120.51,456.33 1112.43,469.795 1099.36,463.255 1082.05,469.795 " id="polyline26058" style="font-size:14.3611002px;font-style:normal;font-weight:400;fill:none;stroke:#000000;stroke-width:1;stroke-linecap:square;stroke-linejoin:bevel;stroke-opacity:1;font-family:Ubuntu" transform="translate(-369.75008,-95.03125)" fill="param(fill) none" stroke="param(outline) #00ff00" stroke-width="param(outline-width) 1"/>
  <polyline vector-effect="non-scaling-stroke" points="553.692,469.38 567.024,454.913 580.356,447.001 588.265,441.575 605.438,435.02 625.549,433.663 629.39,428.238 645.434,420.326 658.54,421.682 681.136,417.613 694.468,416.257 714.353,418.97 707.8,411.058 691.757,405.632 674.583,400.433 661.251,389.808 637.299,389.808 628.035,392.521 613.573,383.253 626.679,371.272 642.722,377.827 650.631,365.846 670.516,371.272 675.939,383.253 694.468,392.521 698.536,397.72 714.353,392.521 730.396,396.364 726.329,381.896 731.752,372.628 752.993,365.846 760.902,352.509 774.234,343.24 774.234,321.991 778.075,310.01 783.498,295.542 779.431,290.117 787.34,282.205 799.316,277.006 799.316,265.025 800.671,254.4 819.2,243.775 818.071,238.35 828.691,233.151 835.244,239.706 833.888,254.4 819.2,259.599 818.071,266.381 821.912,270.224 829.821,279.492 828.691,298.255 818.071,307.523 809.936,312.723 799.316,316.792 800.671,326.06 800.671,339.397 799.316,352.509 808.58,362.003 812.648,371.272 825.979,373.758 820.556,392.521 829.821,397.72 844.509,392.521 857.84,392.521 867.105,401.789 889.701,406.989 897.61,423.039 910.942,430.951 938.736,424.395 949.356,449.487 952.067,480.231 929.471,474.806 905.519,474.806 873.658,457.625 849.932,460.112 859.196,474.806 833.888,474.806 820.556,465.537 814.003,474.806 816.715,488.143 799.316,491.986 784.854,484.074 780.787,500.124 792.763,510.749 795.474,523.86 786.21,535.841 790.051,550.535 795.474,567.715 790.051,588.964 775.363,586.478 760.902,575.853 754.123,561.159 764.743,554.604 768.81,539.91 760.902,525.216 771.522,522.73 762.258,512.105 744.858,505.323 752.993,493.342 756.834,484.074 750.281,481.361 735.594,484.074 726.329,476.162 710.512,473.449 698.536,480.231 681.136,490.856 661.251,481.361 656.054,469.38 663.963,462.825 683.848,462.825 693.112,469.38 707.8,462.825 715.709,453.556 727.685,462.825 736.949,458.756 735.594,449.487 727.685,442.932 717.065,435.02 705.089,440.219 695.824,436.376 674.583,429.594 651.987,430.951 644.078,440.219 628.035,437.506 614.929,445.644 616.059,458.756 600.241,465.537 589.621,461.468 565.669,468.25 559.116,476.162 553.692,469.38 " id="polyline26060" style="font-size:14.3611002px;font-style:normal;font-weight:400;fill:none;stroke:#000000;stroke-width:1;stroke-linecap:square;stroke-linejoin:bevel;stroke-opacity:1;font-family:Ubuntu" transform="translate(-369.75008,-95.03125)" fill="param(fill) none" stroke="param(outline) #00ff00" stroke-width="param(outline-width) 1"/>
  <polyline vector-effect="non-scaling-stroke" points="585.553,508.262 570.866,516.174 566.798,521.373 553.692,522.73 557.534,548.048 548.269,558.673 543.072,572.01 561.601,574.497 572.221,565.228 574.933,548.048 586.909,567.941 577.419,591.903 580.13,605.24 577.419,622.421 565.669,637.114 581.486,640.957 588.039,631.689 597.529,611.796 616.059,610.44 634.588,621.064 628.035,631.689 641.141,634.402 637.299,650.226 643.852,664.92 642.496,679.613 625.323,684.813 619.9,700.863 630.52,700.863 641.141,690.238 659.896,690.238 673.002,674.188 671.872,659.494 679.781,657.007 687.689,667.632 687.689,680.743 699.665,683.456 708.93,696.794 718.194,691.368 732.882,683.456 742.147,695.437 752.767,711.487 751.411,727.311 759.32,725.955 767.455,712.617 762.032,701.993 771.296,694.081 781.916,676.901 780.561,667.632 771.296,671.475 760.676,680.743 756.834,670.119 751.411,655.651 764.743,646.383 762.032,631.689 750.055,615.865 744.858,623.777 736.724,637.114 735.594,648.869 728.815,659.494 722.262,654.295 715.483,638.245 695.598,637.114 693.112,625.133 691.757,609.083 701.021,595.746 708.93,582.635 704.863,577.209 693.112,589.19 684.978,585.121 677.069,594.616 670.516,607.727 650.631,613.152 649.275,602.528 655.828,591.903 649.275,582.635 640.011,590.547 622.612,591.903 606.794,577.209 618.77,563.872 634.588,560.029 641.141,548.048 650.631,536.067 661.251,528.155 655.828,514.818 650.631,505.549 641.141,510.749 628.035,517.53 614.703,512.105 604.082,525.442 605.438,541.492 592.106,554.604 588.039,531.998 585.553,522.73 585.553,508.262 " id="polyline26062" style="font-size:14.3611002px;font-style:normal;font-weight:400;fill:none;stroke:#000000;stroke-width:1;stroke-linecap:square;stroke-linejoin:bevel;stroke-opacity:1;font-family:Ubuntu" transform="translate(-369.75008,-95.03125)" fill="param(fill) none" stroke="param(outline) #00ff00" stroke-width="param(outline-width) 1"/>
  <polyline vector-effect="non-scaling-stroke" points="475.283,538.78 464.662,529.511 460.595,538.78 447.489,543.979 446.133,558.673 461.951,560.029 477.994,579.922 479.35,561.385 489.97,558.673 505.788,561.385 505.788,548.048 492.456,540.136 475.283,538.78 " id="polyline26064" style="font-size:14.3611002px;font-style:normal;font-weight:400;fill:none;stroke:#000000;stroke-width:1;stroke-linecap:square;stroke-linejoin:bevel;stroke-opacity:1;font-family:Ubuntu" transform="translate(-369.75008,-95.03125)" fill="param(fill) none" stroke="param(outline) #00ff00" stroke-width="param(outline-width) 1"/>
  <polyline vector-effect="non-scaling-stroke" points="471.215,331.486 485.903,344.823 496.523,342.11 504.432,355.448 491.1,360.647 517.764,371.272 539.005,376.697 520.476,379.41 499.235,379.41 477.994,368.785 444.778,359.517 463.307,352.735 471.215,331.486 " id="polyline26066" style="font-size:14.3611002px;font-style:normal;font-weight:400;fill:none;stroke:#000000;stroke-width:1;stroke-linecap:square;stroke-linejoin:bevel;stroke-opacity:1;font-family:Ubuntu" transform="translate(-369.75008,-95.03125)" fill="param(fill) none" stroke="param(outline) #00ff00" stroke-width="param(outline-width) 1"/>
  <polyline vector-effect="non-scaling-stroke" points="764.743,413.77 771.296,397.946 779.431,393.877 781.916,404.502 787.34,416.483 805.869,420.552 799.316,412.64 811.292,408.571 833.662,419.196 844.283,428.464 843.153,440.445 832.532,447.001 828.465,441.801 813.777,445.644 799.316,456.269 796.604,448.357 781.916,448.357 774.008,458.982 771.296,473.675 759.32,468.25 752.767,451.07 760.676,443.158 744.858,433.889 739.435,413.77 764.743,413.77 " id="polyline26068" style="font-size:14.3611002px;font-style:normal;font-weight:400;fill:none;stroke:#000000;stroke-width:1;stroke-linecap:square;stroke-linejoin:bevel;stroke-opacity:1;font-family:Ubuntu" transform="translate(-369.75008,-95.03125)" fill="param(fill) none" stroke="param(outline) #00ff00" stroke-width="param(outline-width) 1"/>
  <polyline vector-effect="non-scaling-stroke" points="979.861,500.124 987.77,501.48 999.746,498.994 1011.72,490.856 1014.43,496.281 1031.61,498.994 1040.87,492.212 1052.85,494.925 1055.56,505.549 1052.85,518.887 1039.52,526.799 1022.34,525.442 1019.63,524.086 1016.92,517.53 1016.92,508.262 1001.1,514.818 987.77,509.618 979.861,500.124 " id="polyline26070" style="font-size:14.3611002px;font-style:normal;font-weight:400;fill:none;stroke:#000000;stroke-width:1;stroke-linecap:square;stroke-linejoin:bevel;stroke-opacity:1;font-family:Ubuntu" transform="translate(-369.75008,-95.03125)" fill="param(fill) none" stroke="param(outline) #00ff00" stroke-width="param(outline-width) 1"/>
  <polyline vector-effect="non-scaling-stroke" points="896.254,723.242 888.12,712.617 877.499,716.687 876.144,725.955 885.634,733.867 889.475,743.361 896.254,723.242 " id="polyline26072" style="font-size:14.3611002px;font-style:normal;font-weight:400;fill:none;stroke:#000000;stroke-width:1;stroke-linecap:square;stroke-linejoin:bevel;stroke-opacity:1;font-family:Ubuntu" transform="translate(-369.75008,-95.03125)" fill="param(fill) none" stroke="param(outline) #00ff00" stroke-width="param(outline-width) 1"/>
  <polyline vector-effect="non-scaling-stroke" points="839.085,500.124 856.259,493.568 868.235,509.618 860.326,520.243 865.523,526.799 878.855,534.711 868.235,554.604 851.061,572.01 837.73,567.941 837.73,543.979 849.706,541.492 836.374,525.442 846.994,518.887 839.085,500.124 " id="polyline26074" style="font-size:14.3611002px;font-style:normal;font-weight:400;fill:none;stroke:#000000;stroke-width:1;stroke-linecap:square;stroke-linejoin:bevel;stroke-opacity:1;font-family:Ubuntu" transform="translate(-369.75008,-95.03125)" fill="param(fill) none" stroke="param(outline) #00ff00" stroke-width="param(outline-width) 1"/>
  <polyline vector-effect="non-scaling-stroke" points="623.967,220.039 637.299,218.683 654.473,227.951 657.184,241.289 667.804,246.488 682.492,265.025 696.954,269.094 699.665,294.412 687.689,299.611 669.16,291.699 657.184,291.699 651.761,281.075 662.381,277.006 657.184,269.094 642.496,257.113 626.679,254.4 611.991,238.576 600.015,229.308 623.967,220.039 " id="polyline26076" style="font-size:14.3611002px;font-style:normal;font-weight:400;fill:none;stroke:#000000;stroke-width:1;stroke-linecap:square;stroke-linejoin:bevel;stroke-opacity:1;font-family:Ubuntu" transform="translate(-369.75008,-95.03125)" fill="param(fill) none" stroke="param(outline) #00ff00" stroke-width="param(outline-width) 1"/>
  <polyline vector-effect="non-scaling-stroke" points="880.211,221.396 892.187,211.901 904.163,213.258 904.163,201.277 898.74,189.522 905.519,189.522 914.783,198.79 926.76,217.327 925.404,234.507 918.625,232.02 908.004,237.22 889.475,238.576 870.946,246.488 873.658,237.22 888.12,229.308 880.211,221.396 " id="polyline26078" style="font-size:14.3611002px;font-style:normal;font-weight:400;fill:none;stroke:#000000;stroke-width:1;stroke-linecap:square;stroke-linejoin:bevel;stroke-opacity:1;font-family:Ubuntu" transform="translate(-369.75008,-95.03125)" fill="param(fill) none" stroke="param(outline) #00ff00" stroke-width="param(outline-width) 1"/>
  <g id="g26080" font-style="normal" font-weight="400" font-size="14.3611" transform="translate(-369.75008,-95.03125)" fill="param(fill) none" stroke="param(outline) #00ff00" stroke-width="param(outline-width) 1"/>
  <g id="g26082" font-style="normal" font-weight="400" font-size="14.3611" transform="translate(-369.75008,-95.03125)" fill="param(fill) none" stroke="param(outline) #00ff00" stroke-width="param(outline-width) 1"/>
  <g id="g26084" font-style="normal" font-weight="400" font-size="14.3611" transform="translate(-369.75008,-95.03125)" fill="param(fill) none" stroke="param(outline) #00ff00" stroke-width="param(outline-width) 1"/>
  <g id="g26086" font-style="normal" font-weight="400" font-size="14.3611" stroke-miterlimit="2" transform="translate(-369.75008,-95.03125)" fill="param(fill) none" stroke="param(outline) #00ff00" stroke-width="param(outline-width) 1"/>
  <g id="g26092" font-style="normal" font-weight="400" font-size="14.3611" transform="translate(-369.75008,-95.03125)" fill="param(fill) none" stroke="param(outline) #00ff00" stroke-width="param(outline-width) 1"/>
  <g id="g26094" font-style="normal" font-weight="400" font-size="14.3611" transform="translate(-369.75008,-95.03125)" fill="param(fill) none" stroke="param(outline) #00ff00" stroke-width="param(outline-width) 1"/>
  <g id="g26096" font-style="normal" font-weight="400" font-size="14.3611" transform="translate(-369.75008,-95.03125)" fill="param(fill) none" stroke="param(outline) #00ff00" stroke-width="param(outline-width) 1"/>
</svg>