<?xml version='1.0' encoding='utf-8'?>
<svg xmlns:dc="http://purl.org/dc/elements/1.1/" xmlns:cc="http://creativecommons.org/ns#" xmlns:rdf="http://www.w3.org/1999/02/22-rdf-syntax-ns#" xmlns:svg="http://www.w3.org/2000/svg" xmlns="http://www.w3.org/2000/svg" xmlns:sodipodi="http://sodipodi.sourceforge.net/DTD/sodipodi-0.dtd" xmlns:inkscape="http://www.inkscape.org/namespaces/inkscape" width="728.15692" height="715.17731" viewBox="0 0 760.51892 746.96252" version="1.2" id="svg59532" inkscape:version="0.48.4 r9939" sodipodi:docname="albero_pianta_22.svg">
  <metadata id="metadata59582">
    <rdf:RDF>
      <cc:Work rdf:about="">
        <dc:format>image/svg+xml</dc:format>
        <dc:type rdf:resource="http://purl.org/dc/dcmitype/StillImage"/>
      </cc:Work>
    </rdf:RDF>
  </metadata>
  <sodipodi:namedview pagecolor="#ffffff" bordercolor="#666666" borderopacity="1" objecttolerance="10" gridtolerance="10" guidetolerance="10" inkscape:pageopacity="0" inkscape:pageshadow="2" inkscape:window-width="1855" inkscape:window-height="1176" id="namedview59580" showgrid="false" fit-margin-top="0" fit-margin-left="0" fit-margin-right="0" fit-margin-bottom="0" inkscape:zoom="1.138488" inkscape:cx="386.18544" inkscape:cy="354.18851" inkscape:window-x="65" inkscape:window-y="24" inkscape:window-maximized="1" inkscape:current-layer="svg59532"/>
  <title id="title59534">Qt SVG Document</title>
  <desc id="desc59536">Generated with Qt</desc>
  <defs id="defs59538"/>
  <g id="g59542" font-style="normal" font-weight="400" font-size="14.3611" transform="translate(-369.15108,-94.9675)" fill="param(fill) none" stroke="param(outline) #00ff00" stroke-width="param(outline-width) 1"/>
  <g id="g59548" font-style="normal" font-weight="400" font-size="14.3611" transform="translate(-369.15108,-94.9675)" fill="param(fill) none" stroke="param(outline) #00ff00" stroke-width="param(outline-width) 1"/>
  <g id="g59550" font-style="normal" font-weight="400" font-size="14.3611" stroke-miterlimit="2" transform="translate(-369.15108,-94.9675)" fill="param(fill) none" stroke="param(outline) #00ff00" stroke-width="param(outline-width) 1"/>
  <polyline vector-effect="non-scaling-stroke" points="679.805,617.31 711.914,593.228 715.927,571.823 715.927,541.052 722.617,518.308 764.09,516.97 752.049,545.065 778.806,550.417 785.495,523.659 768.103,499.578 806.901,483.523 829.644,519.646 806.901,551.755 781.482,581.188 729.306,595.904 768.103,626.675 785.495,632.027 814.928,603.931 839.009,626.675 834.996,649.419 784.157,677.514 800.212,690.893 825.631,700.258 822.955,728.353 816.266,748.421 812.252,725.677 793.522,709.623 772.117,709.623 740.009,727.015 740.009,704.271 768.103,676.176 757.401,646.743 717.265,638.716 698.535,653.432 682.481,684.203 681.143,698.92 650.373,720.326 641.008,694.906 647.697,660.122 678.468,646.743 645.021,638.716 627.629,621.324 612.913,579.85 632.981,566.471 646.359,563.795 649.035,581.188 645.021,597.242 650.373,622.661 679.805,617.31 " id="polyline59554" style="font-size:14.3611002px;font-style:normal;font-weight:400;fill:none;stroke:#000000;stroke-width:1;stroke-linecap:square;stroke-linejoin:bevel;stroke-opacity:1;font-family:Ubuntu" transform="translate(-369.15108,-94.9675)" fill="param(fill) none" stroke="param(outline) #00ff00" stroke-width="param(outline-width) 1"/>
  <polyline vector-effect="non-scaling-stroke" points="638.274,321.178 621.942,310.354 566.499,309.674 592.207,276.128 616.737,266.223 634.789,277.086 666.938,289.336 669.096,309.489 690.819,327.119 696.153,356.612 677.336,363.653 702.104,411.163 716.177,431.091 686.847,449.063 673.765,418.598 665.56,375.835 628.678,372.368 613.173,412.902 628.758,439.35 607.998,490.553 583.91,486.694 566.433,452.095 592.854,414.181 591.314,385.333 557.079,393.277 523.863,413.01 480.721,419.586 459.448,404.449 436.783,389.409 460.101,378.844 479.807,389.733 509.034,389.823 534.856,375.241 549.919,384.63 578.376,370.296 614.109,357.709 638.274,321.178 " id="polyline59556" style="font-size:14.3611002px;font-style:normal;font-weight:400;fill:none;stroke:#000000;stroke-width:1;stroke-linecap:square;stroke-linejoin:bevel;stroke-opacity:1;font-family:Ubuntu" transform="translate(-369.15108,-94.9675)" fill="param(fill) none" stroke="param(outline) #00ff00" stroke-width="param(outline-width) 1"/>
  <polyline vector-effect="non-scaling-stroke" points="876.046,392.538 844.096,367.688 812.145,360.588 802.678,323.904 782.836,305.467 758.894,294.32 788.28,274.844 815.501,278.927 829.112,288.454 844.764,305.467 850.012,325.087 848.829,344.021 882.874,333.368 920.304,332.688 922.197,314.437 906.013,253.748 952.289,309.55 953.65,324.521 964.798,327.454 979.511,360.589 947.525,378.963 928.114,411.472 928.114,454.072 952.965,461.172 938.764,480.106 957.698,493.123 989.649,499.039 996.749,523.89 971.898,536.907 934.031,525.073 912.73,500.223 911.547,464.722 904.447,423.305 889.063,390.171 874.863,426.855 864.213,470.639 852.243,451.823 858.259,428.505 847.731,418.726 856.003,402.178 876.046,392.538 " id="polyline59558" style="font-size:14.3611002px;font-style:normal;font-weight:400;fill:none;stroke:#000000;stroke-width:1;stroke-linecap:square;stroke-linejoin:bevel;stroke-opacity:1;font-family:Ubuntu" transform="translate(-369.15108,-94.9675)" fill="param(fill) none" stroke="param(outline) #00ff00" stroke-width="param(outline-width) 1"/>
  <polyline vector-effect="non-scaling-stroke" points="459.513,644.476 431.2,643.245 409.042,628.474 407.811,603.855 417.659,578.004 438.586,576.773 434.893,558.309 415.197,558.309 381.961,555.847 384.422,537.383 406.58,520.149 378.268,504.147 369.651,481.989 374.575,456.139 389.754,422.651 370.882,394.591 374.575,356.431 401.656,352.738 413.966,369.972 426.276,365.048 431.2,351.507 429.969,336.736 445.972,331.812 485.363,330.581 481.67,318.272 466.898,309.655 443.51,307.193 438.586,285.036 444.741,257.954 465.667,233.335 485.363,233.335 492.749,233.335 496.442,245.645 511.214,245.645 516.138,232.104 508.752,218.564 506.29,192.713 496.442,185.328 514.907,175.48 537.065,176.711 538.296,184.097 540.758,201.33 562.915,205.023 571.532,195.175 569.07,179.173 565.377,170.556 583.842,168.094 598.614,171.787 617.079,174.249 618.31,163.17 603.538,152.092 594.921,132.396 623.234,128.703 631.85,131.165 634.312,145.937 646.622,157.016 667.549,149.63 671.242,145.937 663.856,132.396 666.318,122.549 683.552,113.932 700.786,116.394 700.786,127.472 706.94,138.551 734.022,143.475 741.408,129.934 725.405,120.087 726.636,96.6985 752.487,95.4675 763.566,110.239 764.797,125.011 775.876,139.782 794.34,136.089 796.802,125.011 807.881,112.701 817.729,97.9294 837.425,102.853 864.507,107.777 870.661,116.394 862.045,128.703 846.042,136.089 836.194,145.937 830.039,166.863 827.577,186.559 844.811,182.866 862.045,179.173 876.816,171.787 882.971,154.554 882.971,138.551 897.743,131.165 908.822,144.706 914.977,161.939 905.129,171.787 918.67,179.173 934.673,177.942 945.752,168.094 955.599,157.016 969.14,159.477 969.14,173.018 966.678,186.559 958.061,207.485 967.909,218.564 988.836,207.485 992.529,185.328 1010.99,182.866 1015.92,205.023 1015.92,222.257 1002.38,232.104 1002.38,245.645 1014.69,246.876 1030.69,246.876 1041.77,244.414 1054.08,262.878 1036.84,278.881 1019.61,282.574 1014.69,287.497 1028.23,305.962 1051.62,301.038 1071.31,308.424 1079.93,319.502 1070.08,334.274 1076.24,341.66 1088.55,353.969 1105.78,366.279 1098.39,383.512 1079.93,390.898 1071.31,395.822 1065.16,413.056 1066.39,426.596 1078.7,437.675 1088.55,437.675 1114.4,441.368 1115.63,447.522 1118.09,469.68 1103.32,486.913 1087.31,488.144 1076.24,490.606 1065.16,497.992 1041.77,500.454 1040.54,512.763 1059,512.763 1068.85,509.071 1078.7,511.532 1097.16,523.842 1103.32,532.459 1116.86,542.307 1125.48,550.923 1127.94,558.309 1129.17,578.004 1116.86,603.855 1095.93,606.317 1088.55,607.547 1079.93,614.933 1079.93,629.705 1084.85,651.862 1083.62,662.941 1072.54,671.557 1051.62,670.326 1039.31,666.634 1027,664.172 1015.92,666.634 1024.53,685.098 1030.69,704.793 1027,718.334 1015.92,724.489 1010.99,731.875 996.222,724.489 996.222,713.41 993.76,675.25 966.678,666.634 950.675,661.71 942.059,669.096 917.439,664.172 902.667,670.326 908.822,685.098 926.056,691.253 944.521,688.791 954.368,702.331 961.754,697.408 972.833,701.101 981.45,718.334 987.605,734.336 994.991,760.187 988.836,766.341 971.602,767.572 951.906,767.572 942.059,763.88 930.98,757.725 912.515,745.415 906.36,758.956 923.594,767.572 912.515,784.806 907.591,797.116 891.588,815.58 880.509,810.656 879.278,793.423 880.509,779.882 881.74,770.034 878.047,761.418 864.507,755.263 853.428,763.88 862.045,772.496 864.507,788.499 864.507,811.887 859.583,820.504 839.887,826.659 823.884,830.351 811.574,826.659 796.802,820.504 799.264,802.039 805.419,790.961 810.343,777.42 805.419,772.496 788.185,773.727 778.338,782.344 773.414,797.116 773.414,818.042 764.797,830.351 752.487,836.506 735.253,841.43 709.402,826.659 711.864,810.656 697.093,794.654 682.321,794.654 681.09,808.194 674.935,826.659 667.549,834.044 633.081,841.43 609.693,840.199 608.462,815.58 615.848,802.039 623.234,782.344 615.848,778.651 596.152,781.113 569.07,792.192 546.912,784.806 553.067,770.034 561.684,752.801 548.143,750.339 556.76,726.951 571.532,720.796 581.38,710.948 591.228,701.101 572.763,697.408 562.915,706.024 540.758,717.103 530.91,723.258 539.527,746.646 533.372,765.111 524.755,774.958 521.062,784.806 502.597,781.113 496.442,773.727 469.36,763.88 475.515,738.029 486.594,730.644 485.363,718.334 465.667,717.103 450.896,703.562 454.589,678.943 466.898,667.865 466.898,656.786 448.434,654.324 459.513,644.476 " id="polyline59560" style="font-size:14.3611002px;font-style:normal;font-weight:400;fill:none;stroke:#000000;stroke-width:1;stroke-linecap:square;stroke-linejoin:bevel;stroke-opacity:1;font-family:Ubuntu" transform="translate(-369.15108,-94.9675)" fill="param(fill) none" stroke="param(outline) #00ff00" stroke-width="param(outline-width) 1"/>
  <g id="g59562" font-style="normal" font-weight="400" font-size="14.3611" transform="translate(-369.15108,-94.9675)" fill="param(fill) none" stroke="param(outline) #00ff00" stroke-width="param(outline-width) 1"/>
  <g id="g59564" font-style="normal" font-weight="400" font-size="14.3611" transform="translate(-369.15108,-94.9675)" fill="param(fill) none" stroke="param(outline) #00ff00" stroke-width="param(outline-width) 1"/>
  <g id="g59566" font-style="normal" font-weight="400" font-size="14.3611" transform="translate(-369.15108,-94.9675)" fill="param(fill) none" stroke="param(outline) #00ff00" stroke-width="param(outline-width) 1"/>
  <g id="g59568" font-style="normal" font-weight="400" font-size="14.3611" stroke-miterlimit="2" transform="translate(-369.15108,-94.9675)" fill="param(fill) none" stroke="param(outline) #00ff00" stroke-width="param(outline-width) 1"/>
  <g id="g59574" font-style="normal" font-weight="400" font-size="14.3611" transform="translate(-369.15108,-94.9675)" fill="param(fill) none" stroke="param(outline) #00ff00" stroke-width="param(outline-width) 1"/>
  <g id="g59576" font-style="normal" font-weight="400" font-size="14.3611" transform="translate(-369.15108,-94.9675)" fill="param(fill) none" stroke="param(outline) #00ff00" stroke-width="param(outline-width) 1"/>
  <g id="g59578" font-style="normal" font-weight="400" font-size="14.3611" transform="translate(-369.15108,-94.9675)" fill="param(fill) none" stroke="param(outline) #00ff00" stroke-width="param(outline-width) 1"/>
</svg>