<?xml version='1.0' encoding='utf-8'?>
<svg xmlns:dc="http://purl.org/dc/elements/1.1/" xmlns:cc="http://creativecommons.org/ns#" xmlns:rdf="http://www.w3.org/1999/02/22-rdf-syntax-ns#" xmlns:svg="http://www.w3.org/2000/svg" xmlns="http://www.w3.org/2000/svg" xmlns:sodipodi="http://sodipodi.sourceforge.net/DTD/sodipodi-0.dtd" xmlns:inkscape="http://www.inkscape.org/namespaces/inkscape" width="722.36414" height="714.94391" viewBox="0 0 754.46868 746.71875" version="1.2" id="svg16315" inkscape:version="0.48.4 r9939" sodipodi:docname="albero_pianta_4.svg">
  <metadata id="metadata16399">
    <rdf:RDF>
      <cc:Work rdf:about="">
        <dc:format>image/svg+xml</dc:format>
        <dc:type rdf:resource="http://purl.org/dc/dcmitype/StillImage"/>
      </cc:Work>
    </rdf:RDF>
  </metadata>
  <sodipodi:namedview pagecolor="#ffffff" bordercolor="#666666" borderopacity="1" objecttolerance="10" gridtolerance="10" guidetolerance="10" inkscape:pageopacity="0" inkscape:pageshadow="2" inkscape:window-width="1855" inkscape:window-height="1176" id="namedview16397" showgrid="false" fit-margin-top="0" fit-margin-left="0" fit-margin-right="0" fit-margin-bottom="0" inkscape:zoom="1.138488" inkscape:cx="383.24823" inkscape:cy="353.98625" inkscape:window-x="65" inkscape:window-y="24" inkscape:window-maximized="1" inkscape:current-layer="svg16315"/>
  <title id="title16317">Qt SVG Document</title>
  <desc id="desc16319">Generated with Qt</desc>
  <defs id="defs16321"/>
  <g id="g16325" font-style="normal" font-weight="400" font-size="14.3611" transform="translate(-372.21883,-95)" fill="param(fill) none" stroke="param(outline) #00ff00" stroke-width="param(outline-width) 1"/>
  <g id="g16331" font-style="normal" font-weight="400" font-size="14.3611" transform="translate(-372.21883,-95)" fill="param(fill) none" stroke="param(outline) #00ff00" stroke-width="param(outline-width) 1"/>
  <g id="g16333" font-style="normal" font-weight="400" font-size="14.3611" stroke-miterlimit="2" transform="translate(-372.21883,-95)" fill="param(fill) none" stroke="param(outline) #00ff00" stroke-width="param(outline-width) 1"/>
  <polyline vector-effect="non-scaling-stroke" points="651.921,625.981 644.18,592.556 614.277,610.506 607.181,605.695 614.583,587.647 605.911,573.2 612.523,563.184 626.959,554.518 " id="polyline16337" style="font-size:14.3611002px;font-style:normal;font-weight:400;fill:none;stroke:#007f1f;stroke-width:1;stroke-linecap:square;stroke-linejoin:bevel;stroke-opacity:1;font-family:Ubuntu" transform="translate(-372.21883,-95)" fill="param(fill) none" stroke="param(outline) #00ff00" stroke-width="param(outline-width) 1"/>
  <polyline vector-effect="non-scaling-stroke" points="1043.46,500.839 1067.45,515.192 1072.64,518.8 1070.04,536.84 1111.52,544.056 1103.74,553.677 1072.64,572.919 1094.67,578.933 1077.82,588.554 1064.86,583.743 1072.64,611.404 1050.6,616.215 1060.97,624.633 1060.97,641.47 1041.53,641.47 1015.6,628.241 1025.97,647.484 1048.01,660.713 1053.19,675.145 1013.01,671.537 993.57,673.942 974.128,673.942 956.846,649.889 " id="polyline16339" style="font-size:14.3611002px;font-style:normal;font-weight:400;fill:none;stroke:#007f1f;stroke-width:1;stroke-linecap:square;stroke-linejoin:bevel;stroke-opacity:1;font-family:Ubuntu" transform="translate(-372.21883,-95)" fill="param(fill) none" stroke="param(outline) #00ff00" stroke-width="param(outline-width) 1"/>
  <polyline vector-effect="non-scaling-stroke" points="419.458,484.813 404.122,495.431 417.287,507.56 389.948,548.443 418.334,551.152 416.097,547.314 443.536,546.309 431.499,563.282 444.402,564.513 427.433,578.599 427.614,603.987 436.518,647.121 462.78,644.795 464.152,630.428 452.768,626.926 471.37,609.371 482.068,620.057 490.153,617.205 478.245,591.906 504.279,591.974 505.879,575.213 524.776,581.85 538.56,560.211 560.653,561.424 " id="polyline16341" style="font-size:14.3611002px;font-style:normal;font-weight:400;fill:none;stroke:#007f1f;stroke-width:1;stroke-linecap:square;stroke-linejoin:bevel;stroke-opacity:1;font-family:Ubuntu" transform="translate(-372.21883,-95)" fill="param(fill) none" stroke="param(outline) #00ff00" stroke-width="param(outline-width) 1"/>
  <polyline vector-effect="non-scaling-stroke" points="827.926,603.016 831.662,609.082 831.662,612.69 845.919,618.704 845.919,628.325 838.143,635.541 857.585,637.946 857.585,648.77 901.654,619.906 910.727,639.149 937.946,634.338 923.688,618.704 940.538,612.69 957.388,615.096 959.981,597.056 954.796,595.853 957.388,573.003 921.096,569.395 943.131,559.774 940.538,546.545 930.169,550.153 921.096,544.139 921.096,536.923 " id="polyline16343" style="font-size:14.3611002px;font-style:normal;font-weight:400;fill:none;stroke:#007f1f;stroke-width:1;stroke-linecap:square;stroke-linejoin:bevel;stroke-opacity:1;font-family:Ubuntu" transform="translate(-372.21883,-95)" fill="param(fill) none" stroke="param(outline) #00ff00" stroke-width="param(outline-width) 1"/>
  <polyline vector-effect="non-scaling-stroke" points="594.465,771.909 594.465,778.556 604.745,801.687 624.731,786.967 634.198,802.739 664.703,795.379 669.962,813.253 683.637,805.893 699.415,814.305 706.426,802.57 " id="polyline16345" style="font-size:14.3611002px;font-style:normal;font-weight:400;fill:none;stroke:#007f1f;stroke-width:1;stroke-linecap:square;stroke-linejoin:bevel;stroke-opacity:1;font-family:Ubuntu" transform="translate(-372.21883,-95)" fill="param(fill) none" stroke="param(outline) #00ff00" stroke-width="param(outline-width) 1"/>
  <polyline vector-effect="non-scaling-stroke" points="493.735,623.24 479.801,643.537 476.593,648.978 486.47,664.294 451.778,688.146 462.859,693.648 499.156,698.169 481.635,712.822 500.962,714.542 510.737,704.765 515.201,733.15 537.235,728.336 531.32,740.311 538.339,755.615 556.011,747.509 574.058,724.677 572.656,746.49 558.143,767.701 559.448,782.98 594.465,762.949 613.14,757.029 630.812,748.923 637.628,714.042 640.184,700.961 629.002,670.366 " id="polyline16347" style="font-size:14.3611002px;font-style:normal;font-weight:400;fill:none;stroke:#007f1f;stroke-width:1;stroke-linecap:square;stroke-linejoin:bevel;stroke-opacity:1;font-family:Ubuntu" transform="translate(-372.21883,-95)" fill="param(fill) none" stroke="param(outline) #00ff00" stroke-width="param(outline-width) 1"/>
  <polyline vector-effect="non-scaling-stroke" points="802.45,794.078 830.507,820.273 824.51,773.472 855.407,788.531 864.25,774.462 862.216,765.55 868.201,759.498 882.366,771.673 884.38,789.295 907.99,781.236 911.671,756.289 935.17,748.049 952.538,751.453 962.751,721.881 969.498,725.031 988.957,733.991 996.125,724.321 988.437,705.313 1004.49,683.257 " id="polyline16349" style="font-size:14.3611002px;font-style:normal;font-weight:400;fill:none;stroke:#007f1f;stroke-width:1;stroke-linecap:square;stroke-linejoin:bevel;stroke-opacity:1;font-family:Ubuntu" transform="translate(-372.21883,-95)" fill="param(fill) none" stroke="param(outline) #00ff00" stroke-width="param(outline-width) 1"/>
  <polyline vector-effect="non-scaling-stroke" points="759.326,622.512 732.872,622.955 719.883,637.432 746.381,639.581 734.747,663.11 710.697,663.512 708.509,676.512 727.11,709.906 697.048,710.409 722.582,726.834 712.129,749.046 701.307,749.228 684.819,770.245 692.316,786.972 710.505,795.741 720.645,826.684 739.69,814.698 751.758,817.089 769.005,841.43 779.415,816.626 777.931,799.798 792.317,796.965 790.464,758.106 773.586,755.796 763.51,728.741 754.963,721.106 " id="polyline16351" style="font-size:14.3611002px;font-style:normal;font-weight:400;fill:none;stroke:#007f1f;stroke-width:1;stroke-linecap:square;stroke-linejoin:bevel;stroke-opacity:1;font-family:Ubuntu" transform="translate(-372.21883,-95)" fill="param(fill) none" stroke="param(outline) #00ff00" stroke-width="param(outline-width) 1"/>
  <polyline vector-effect="non-scaling-stroke" points="641.257,129.875 652.683,133.952 657.868,115.913 703.233,95.4675 691.568,114.71 691.568,125.534 722.675,115.913 744.71,121.926 742.117,141.168 778.41,127.939 795.259,125.534 788.779,147.181 812.109,153.195 803.036,177.248 758.967,177.248 747.302,198.895 769.337,213.327 797.852,215.732 752.487,251.812 713.602,251.812 711.01,249.407 708.418,228.962 " id="polyline16353" style="font-size:14.3611002px;font-style:normal;font-weight:400;fill:none;stroke:#007f1f;stroke-width:1;stroke-linecap:square;stroke-linejoin:bevel;stroke-opacity:1;font-family:Ubuntu" transform="translate(-372.21883,-95)" fill="param(fill) none" stroke="param(outline) #00ff00" stroke-width="param(outline-width) 1"/>
  <polyline vector-effect="non-scaling-stroke" points="662.212,366.521 662.212,376.142 642.769,364.116 651.842,359.305 642.769,356.9 620.735,336.455 634.993,328.036 634.993,305.186 690.727,323.226 690.727,288.349 698.504,284.741 710.169,300.375 727.019,300.375 732.204,311.199 732.204,328.036 " id="polyline16355" style="font-size:14.3611002px;font-style:normal;font-weight:400;fill:none;stroke:#007f1f;stroke-width:1;stroke-linecap:square;stroke-linejoin:bevel;stroke-opacity:1;font-family:Ubuntu" transform="translate(-372.21883,-95)" fill="param(fill) none" stroke="param(outline) #00ff00" stroke-width="param(outline-width) 1"/>
  <polyline vector-effect="non-scaling-stroke" points="641.257,129.875 631.646,143.615 609.879,132.988 602.286,168.409 " id="polyline16357" style="font-size:14.3611002px;font-style:normal;font-weight:400;fill:none;stroke:#007f1f;stroke-width:1;stroke-linecap:square;stroke-linejoin:bevel;stroke-opacity:1;font-family:Ubuntu" transform="translate(-372.21883,-95)" fill="param(fill) none" stroke="param(outline) #00ff00" stroke-width="param(outline-width) 1"/>
  <polyline vector-effect="non-scaling-stroke" points="504.247,268.999 496.471,249.756 508.136,249.756 508.136,232.919 530.17,232.919 513.32,207.663 513.32,196.84 527.578,200.448 535.355,210.069 535.355,181.205 552.205,177.597 552.205,188.421 561.278,196.84 569.055,165.571 557.389,154.747 580.72,137.91 583.312,161.963 585.905,177.597 580.72,196.84 605.347,201.65 605.347,183.61 627.382,183.61 624.789,204.056 " id="polyline16359" style="font-size:14.3611002px;font-style:normal;font-weight:400;fill:none;stroke:#007f1f;stroke-width:1;stroke-linecap:square;stroke-linejoin:bevel;stroke-opacity:1;font-family:Ubuntu" transform="translate(-372.21883,-95)" fill="param(fill) none" stroke="param(outline) #00ff00" stroke-width="param(outline-width) 1"/>
  <polyline vector-effect="non-scaling-stroke" points="567.896,394.448 543.209,396.129 544.198,402.06 546.376,415.109 523.272,426.279 527.412,435.343 537.26,447.112 523.807,468.865 537.292,478.807 542.406,477.954 534.554,493.896 520.886,498.614 521.496,518.021 540.871,516.008 537.736,528.723 563.809,535.347 568.923,534.494 584.751,526.976 583.366,518.672 " id="polyline16361" style="font-size:14.3611002px;font-style:normal;font-weight:400;fill:none;stroke:#007f1f;stroke-width:1;stroke-linecap:square;stroke-linejoin:bevel;stroke-opacity:1;font-family:Ubuntu" transform="translate(-372.21883,-95)" fill="param(fill) none" stroke="param(outline) #00ff00" stroke-width="param(outline-width) 1"/>
  <polyline vector-effect="non-scaling-stroke" points="422.955,411.365 408.697,399.339 422.955,388.515 399.624,345.22 428.14,345.22 425.547,348.828 452.767,352.435 442.397,334.396 455.359,334.396 439.805,318.761 442.397,293.506 455.359,251.413 481.282,256.223 481.282,270.655 469.616,273.061 486.466,292.303 498.132,282.682 505.909,286.29 491.651,310.343 517.574,312.748 517.574,329.585 537.016,324.774 548.682,347.625 569.992,348.485 " id="polyline16363" style="font-size:14.3611002px;font-style:normal;font-weight:400;fill:none;stroke:#007f1f;stroke-width:1;stroke-linecap:square;stroke-linejoin:bevel;stroke-opacity:1;font-family:Ubuntu" transform="translate(-372.21883,-95)" fill="param(fill) none" stroke="param(outline) #00ff00" stroke-width="param(outline-width) 1"/>
  <polyline vector-effect="non-scaling-stroke" points="419.458,484.813 394.44,460.674 372.405,451.053 382.775,447.445 399.624,447.445 416.474,416.176 439.805,411.365 450.174,422.189 447.582,429.405 469.616,439.026 489.059,441.432 486.466,465.485 491.651,484.727 500.724,502.767 " id="polyline16365" style="font-size:14.3611002px;font-style:normal;font-weight:400;fill:none;stroke:#007f1f;stroke-width:1;stroke-linecap:square;stroke-linejoin:bevel;stroke-opacity:1;font-family:Ubuntu" transform="translate(-372.21883,-95)" fill="param(fill) none" stroke="param(outline) #00ff00" stroke-width="param(outline-width) 1"/>
  <polyline vector-effect="non-scaling-stroke" points="800.444,135.155 814.702,105.089 841.921,115.913 844.513,135.155 878.213,131.547 880.805,147.181 906.728,150.789 911.913,162.816 911.913,171.234 940.428,167.626 928.763,183.261 959.87,185.666 948.205,196.49 969.985,212.711 " id="polyline16367" style="font-size:14.3611002px;font-style:normal;font-weight:400;fill:none;stroke:#007f1f;stroke-width:1;stroke-linecap:square;stroke-linejoin:bevel;stroke-opacity:1;font-family:Ubuntu" transform="translate(-372.21883,-95)" fill="param(fill) none" stroke="param(outline) #00ff00" stroke-width="param(outline-width) 1"/>
  <polyline vector-effect="non-scaling-stroke" points="969.985,212.711 1007.68,205.463 977.697,241.896 1011.87,245.589 1011.87,262.206 1005.4,268.668 1007.25,276.977 1025.72,274.208 1036.81,260.36 1052.51,279.747 1042.35,302.826 1057.86,322.308 1074.37,328.669 1067.28,359.141 1074.67,360.064 1095.91,362.834 1096.84,374.835 1080.21,386.837 1080.1,395.02 " id="polyline16369" style="font-size:14.3611002px;font-style:normal;font-weight:400;fill:none;stroke:#007f1f;stroke-width:1;stroke-linecap:square;stroke-linejoin:bevel;stroke-opacity:1;font-family:Ubuntu" transform="translate(-372.21883,-95)" fill="param(fill) none" stroke="param(outline) #00ff00" stroke-width="param(outline-width) 1"/>
  <polyline vector-effect="non-scaling-stroke" points="940.937,222.667 938.344,255.138 955.194,271.975 987.099,272 996.173,288.838 1002.28,319.717 1011.35,332.946 964.443,350.645 982.413,364.579 968.156,369.39 988.559,382.758 1006.58,371.383 1020.36,376.526 " id="polyline16371" style="font-size:14.3611002px;font-style:normal;font-weight:400;fill:none;stroke:#007f1f;stroke-width:1;stroke-linecap:square;stroke-linejoin:bevel;stroke-opacity:1;font-family:Ubuntu" transform="translate(-372.21883,-95)" fill="param(fill) none" stroke="param(outline) #00ff00" stroke-width="param(outline-width) 1"/>
  <polyline vector-effect="non-scaling-stroke" points="702.421,489.686 703.074,504.507 710.55,516.647 715.308,524.372 722.476,519.958 733.36,533.044 744.271,532.414 765.775,519.171 755.852,537.459 766.02,567.731 783.429,557.01 788.232,541.875 793.742,514.126 805.64,531.154 811.123,517.122 822.098,484.486 820.05,485.747 805.423,468.877 815.691,448.854 808.188,450.43 793.851,459.259 783.973,454.686 773.09,441.6 770.371,437.186 " id="polyline16373" style="font-size:14.3611002px;font-style:normal;font-weight:400;fill:none;stroke:#007f1f;stroke-width:1;stroke-linecap:square;stroke-linejoin:bevel;stroke-opacity:1;font-family:Ubuntu" transform="translate(-372.21883,-95)" fill="param(fill) none" stroke="param(outline) #00ff00" stroke-width="param(outline-width) 1"/>
  <polyline vector-effect="non-scaling-stroke" points="817.528,269.046 838.481,255.885 841.169,261.264 847.083,273.097 872.338,268.542 874.321,278.307 873.279,293.618 896.953,303.297 891.895,319.27 887.258,321.588 902.985,329.861 916.814,325.639 927.735,341.692 910.882,351.46 920.896,359.9 903.706,380.591 899.068,382.909 881.846,386.139 878.082,378.609 " id="polyline16375" style="font-size:14.3611002px;font-style:normal;font-weight:400;fill:none;stroke:#007f1f;stroke-width:1;stroke-linecap:square;stroke-linejoin:bevel;stroke-opacity:1;font-family:Ubuntu" transform="translate(-372.21883,-95)" fill="param(fill) none" stroke="param(outline) #00ff00" stroke-width="param(outline-width) 1"/>
  <polyline vector-effect="non-scaling-stroke" points="907.364,471.976 907.364,445.517 921.622,432.288 924.214,458.747 947.545,446.72 947.545,422.667 960.506,420.262 994.206,438.301 994.206,408.235 1011.06,433.491 1033.09,422.667 1033.09,411.843 1053.83,395.006 1070.68,402.222 1079.75,420.262 1110.86,429.883 1099.19,449.125 1101.79,461.152 1126.41,477.989 1101.79,488.813 1084.94,487.61 1082.34,502.042 1043.46,500.839 1040.87,484.002 1013.65,474.381 1005.87,465.962 " id="polyline16377" style="font-size:14.3611002px;font-style:normal;font-weight:400;fill:none;stroke:#007f1f;stroke-width:1;stroke-linecap:square;stroke-linejoin:bevel;stroke-opacity:1;font-family:Ubuntu" transform="translate(-372.21883,-95)" fill="param(fill) none" stroke="param(outline) #00ff00" stroke-width="param(outline-width) 1"/>
  <g id="g16379" font-style="normal" font-weight="400" font-size="14.3611" transform="translate(-372.21883,-95)" fill="param(fill) none" stroke="param(outline) #00ff00" stroke-width="param(outline-width) 1"/>
  <g id="g16381" font-style="normal" font-weight="400" font-size="14.3611" transform="translate(-372.21883,-95)" fill="param(fill) none" stroke="param(outline) #00ff00" stroke-width="param(outline-width) 1"/>
  <g id="g16383" font-style="normal" font-weight="400" font-size="14.3611" transform="translate(-372.21883,-95)" fill="param(fill) none" stroke="param(outline) #00ff00" stroke-width="param(outline-width) 1"/>
  <g id="g16385" font-style="normal" font-weight="400" font-size="14.3611" stroke-miterlimit="2" transform="translate(-372.21883,-95)" fill="param(fill) none" stroke="param(outline) #00ff00" stroke-width="param(outline-width) 1"/>
  <g id="g16391" font-style="normal" font-weight="400" font-size="14.3611" transform="translate(-372.21883,-95)" fill="param(fill) none" stroke="param(outline) #00ff00" stroke-width="param(outline-width) 1"/>
  <g id="g16393" font-style="normal" font-weight="400" font-size="14.3611" transform="translate(-372.21883,-95)" fill="param(fill) none" stroke="param(outline) #00ff00" stroke-width="param(outline-width) 1"/>
  <g id="g16395" font-style="normal" font-weight="400" font-size="14.3611" transform="translate(-372.21883,-95)" fill="param(fill) none" stroke="param(outline) #00ff00" stroke-width="param(outline-width) 1"/>
</svg>