<?xml version="1.0" encoding="UTF-8" standalone="no"?>
<!-- 2015-10-14 08:56:53 Generated by QCAD SVG Exporter -->

<svg
   xmlns:dc="http://purl.org/dc/elements/1.1/"
   xmlns:cc="http://creativecommons.org/ns#"
   xmlns:rdf="http://www.w3.org/1999/02/22-rdf-syntax-ns#"
   xmlns:svg="http://www.w3.org/2000/svg"
   xmlns="http://www.w3.org/2000/svg"
   xmlns:sodipodi="http://sodipodi.sourceforge.net/DTD/sodipodi-0.dtd"
   xmlns:inkscape="http://www.inkscape.org/namespaces/inkscape"
   width="9.474156537844237mm"
   height="7.194023269105173mm"
   viewBox="25.26292173107788 -22.597011634552587 9.474156537844237 7.194023269105173"
   version="1.1"
   style="stroke-linecap:round;stroke-linejoin:round;fill:none"
   id="svg2"
   inkscape:version="0.91 r13725"
   sodipodi:docname="Alzado.svg">
  <metadata
     id="metadata58">
    <rdf:RDF>
      <cc:Work
         rdf:about="">
        <dc:format>image/svg+xml</dc:format>
        <dc:type
           rdf:resource="http://purl.org/dc/dcmitype/StillImage" />
      </cc:Work>
    </rdf:RDF>
  </metadata>
  <defs
     id="defs56" />
  <sodipodi:namedview
     pagecolor="#ffffff"
     bordercolor="#666666"
     borderopacity="1"
     objecttolerance="10"
     gridtolerance="10"
     guidetolerance="10"
     inkscape:pageopacity="0"
     inkscape:pageshadow="2"
     inkscape:window-width="1301"
     inkscape:window-height="744"
     id="namedview54"
     showgrid="false"
     inkscape:zoom="8.8472257"
     inkscape:cx="0.056514891"
     inkscape:cy="12.745317"
     inkscape:window-x="65"
     inkscape:window-y="24"
     inkscape:window-maximized="1"
     inkscape:current-layer="svg2" />
  <circle
     id="circle6"
     style="stroke:#ff0000;stroke-width:0.11288889;stroke-miterlimit:4;stroke-dasharray:none"
     r="0.83856362"
     cy="19.004435"
     cx="30.692707"
     transform="scale(1,-1)" />
  <path
     d="m 29.064532,-20.355055 c 0.191084,0.07778 0.382609,0.155674 0.576646,0.237417 0.110276,0.04646 0.216699,0.09357 0.305782,0.151625 0.07207,0.04697 0.12974,0.100239 0.1832,0.169036 0.05346,0.0688 0.102974,0.150866 0.155219,0.233192 0.05225,0.08233 0.104944,0.162878 0.157665,0.24267 0.0254,0.03845 0.05081,0.07672 0.07618,0.114929"
     style="stroke:#7f3f00;stroke-width:0.11288889;stroke-miterlimit:4;stroke-dasharray:none"
     id="path10"
     inkscape:connector-curvature="0" />
  <path
     d="m 29.102234,-20.447676 c 0.18547,0.0755 0.370941,0.150995 0.560543,0.230638 0.166286,0.06985 0.335749,0.142885 0.461634,0.263601 0.0921,0.08832 0.160871,0.202154 0.230816,0.313021 0.08138,0.128987 0.164342,0.253954 0.247307,0.37892"
     style="stroke:#7f3f00;stroke-width:0.11288889;stroke-miterlimit:4;stroke-dasharray:none"
     id="path12"
     inkscape:connector-curvature="0" />
  <path
     d="m 29.178533,-20.313443 -0.509451,-0.119095 m 0,0 0.225461,-0.02838 m 0,0 -0.522772,-3.75e-4 m 0,0 0.407869,-0.05542 m 0,0 -0.560315,0.0061 m 0,0 0.396459,-0.07665 m 0,0 -0.619043,0.02408 m 0,0 0.471508,-0.08967 m 0,0 -0.628827,0.0567 m 0,0 0.481603,-0.111541 m 0,0 -0.510666,0.04238 m 0,0 0.417296,-0.09885 m 0,0 -0.654886,0.08445 m 0,0 0.475712,-0.127545 m 0,0 -0.606267,0.08838 m 0,0 0.405872,-0.120055 m 0,0 -0.63235,0.116111 m 0,0 0.517795,-0.161147 m 0,0 -0.66921,0.144163 m 0,0 0.522668,-0.177462 m 0,0 -0.663677,0.149367 m 0,0 0.490705,-0.165704 m 0,0 -0.641786,0.159497 m 0,0 0.436852,-0.164074 m 0,0 -0.673425,0.181996 m 0,0 0.323266,-0.176835 m 0,0 -0.526549,0.226074 m 0,0 0.386892,-0.211071 m 0,0 -0.57972,0.249244 m 0,0 0.338273,-0.215008 m 0,0 -0.472397,0.235215 m 0,0 0.25836,-0.18563 m 0,0 -0.514132,0.27958 m 0,0 0.300754,-0.208475 m 0,0 -0.492254,0.289723 m 0,0 0.252446,-0.201656 m 0,0 -0.459609,0.299507 m 0,0 0.07447,-0.142175"
     style="stroke:#4c9900;stroke-width:0.11288889;stroke-miterlimit:4;stroke-dasharray:none"
     id="path14"
     inkscape:connector-curvature="0" />
  <path
     d="M 29.178533,-20.313443 A 3.2840226,3.2840226 0 0 0 25.425457,-20.51766"
     style="stroke:#7f3f00;stroke-width:0.11288889;stroke-miterlimit:4;stroke-dasharray:none"
     id="path16"
     inkscape:connector-curvature="0" />
  <path
     d="m 29.178533,-20.313443 -0.486962,-0.858484 m 0,0 0.223366,0.548909 m 0,0 -0.354165,-0.67195 m 0,0 0.225316,0.612356 m 0,0 -0.367599,-0.592194 m 0,0 0.222403,0.517195 m 0,0 -0.540594,-0.539337 m 0,0 0.348286,0.481634 m 0,0 -0.540593,-0.539337 m 0,0 0.348286,0.481635 m 0,0 -0.67238,-0.694114 m 0,0 0.365635,0.528761 m 0,0 -0.490568,-0.461473 m 0,0 0.281899,0.388379 m 0,0 -0.48858,-0.398017 m 0,0 0.34437,0.354753 m 0,0 -0.420229,-0.241327 m 0,0 0.246248,0.262449 m 0,0 -0.602078,-0.473976 m 0,0 0.394396,0.432617 m 0,0 -0.568377,-0.411495 m 0,0 0.378058,0.417249 m 0,0 -0.503979,-0.381695 m 0,0 0.362697,0.433577 m 0,0 -0.519329,-0.365329 m 0,0 0.329973,0.402796 m 0,0 -0.553016,-0.427825 m 0,0 0.36366,0.465291 m 0,0 -0.553016,-0.427825 m 0,0 0.36366,0.465291 m 0,0 -0.517378,-0.301881 m 0,0 0.343384,0.323017 m 0,0 -0.304781,-0.101919 m 0,0 0.227935,0.18361 m 0,0 -0.351891,-0.08462 m 0,0 0.178897,0.137481 m 0,0 -0.287456,-0.05482 m 0,0 0.178874,0.137458 m 0,0 -0.301843,-0.0067 m 0,0 0.114461,0.107672 m 0,0 -0.332601,0.02592 m 0,0 0.208645,0.07307"
     style="stroke:#4c9900;stroke-width:0.11288889;stroke-miterlimit:4;stroke-dasharray:none"
     id="path18"
     inkscape:connector-curvature="0" />
  <path
     d="m 30.382071,-19.110786 -0.486962,-0.858484 m 0,0 0.223366,0.548908 m 0,0 -0.354165,-0.67195 m 0,0 0.225316,0.612357 m 0,0 -0.367599,-0.592195 m 0,0 0.222403,0.517196 m 0,0 -0.540593,-0.539337 m 0,0 0.348285,0.481634 m 0,0 -0.540593,-0.539337 m 0,0 0.348286,0.481634 m 0,0 -0.67238,-0.694114 m 0,0 0.365635,0.528761 m 0,0 -0.490568,-0.461472 m 0,0 0.281899,0.388378 m 0,0 -0.48858,-0.398016 m 0,0 0.344371,0.354752 m 0,0 -0.42023,-0.241327 m 0,0 0.246248,0.26245 m 0,0 -0.602078,-0.473977 m 0,0 0.394396,0.432618 m 0,0 -0.568377,-0.411495 m 0,0 0.378058,0.417248 m 0,0 -0.503979,-0.381695 m 0,0 0.362697,0.433578 m 0,0 L 27.567598,-20.28 m 0,0 0.329973,0.402795 m 0,0 -0.553016,-0.427824 m 0,0 0.36366,0.46529 m 0,0 -0.553016,-0.427824 m 0,0 0.36366,0.46529 m 0,0 -0.517378,-0.301881 m 0,0 0.343384,0.323018 m 0,0 -0.304781,-0.101919 m 0,0 0.227935,0.18361 m 0,0 -0.351891,-0.08462 m 0,0 0.178897,0.13748 m 0,0 -0.287456,-0.05481 m 0,0 0.178874,0.137458 m 0,0 -0.301843,-0.0067 m 0,0 0.114462,0.107673 m 0,0 -0.332602,0.02591 m 0,0 0.208645,0.07307"
     style="stroke:#4c9900;stroke-width:0.11288889;stroke-miterlimit:4;stroke-dasharray:none"
     id="path20"
     inkscape:connector-curvature="0" />
  <path
     d="m 30.382071,-19.110786 a 3.2840226,3.2840226 0 0 0 -3.753076,-0.204218"
     style="stroke:#7f3f00;stroke-width:0.11288889;stroke-miterlimit:4;stroke-dasharray:none"
     id="path22"
     inkscape:connector-curvature="0" />
  <path
     d="m 30.382071,-19.110786 -0.509451,-0.119096 m 0,0 0.225461,-0.02838 m 0,0 -0.522772,-3.75e-4 m 0,0 0.407869,-0.05542 m 0,0 -0.560315,0.0061 m 0,0 0.396459,-0.07665 m 0,0 -0.619043,0.02408 m 0,0 0.471508,-0.08967 m 0,0 -0.628827,0.0567 m 0,0 0.481603,-0.11154 m 0,0 -0.510666,0.04238 m 0,0 0.417296,-0.09885 m 0,0 -0.654886,0.08445 m 0,0 0.475712,-0.127546 m 0,0 -0.606267,0.08838 m 0,0 0.405872,-0.120055 m 0,0 -0.63235,0.116112 m 0,0 0.517795,-0.161147 m 0,0 -0.66921,0.144162 m 0,0 0.522668,-0.177462 m 0,0 -0.663677,0.149367 m 0,0 0.490705,-0.165703 m 0,0 -0.641786,0.159496 m 0,0 0.436852,-0.164074 m 0,0 -0.673425,0.181997 m 0,0 0.323266,-0.176835 m 0,0 -0.526549,0.226073 m 0,0 0.386892,-0.211071 m 0,0 -0.57972,0.249244 m 0,0 0.338273,-0.215007 m 0,0 -0.472397,0.235214 m 0,0 0.25836,-0.185629 m 0,0 -0.514132,0.27958 m 0,0 0.300754,-0.208476 m 0,0 -0.492254,0.289724 m 0,0 0.252446,-0.201656 m 0,0 -0.459609,0.299506 m 0,0 0.07447,-0.142175"
     style="stroke:#4c9900;stroke-width:0.11288889;stroke-miterlimit:4;stroke-dasharray:none"
     id="path24"
     inkscape:connector-curvature="0" />
  <path
     d="m 30.489007,-19.116923 a 3.2840226,3.2840226 0 0 0 1.648425,-3.377866"
     style="stroke:#7f3f00;stroke-width:0.11288889;stroke-miterlimit:4;stroke-dasharray:none"
     id="path26"
     inkscape:connector-curvature="0" />
  <path
     d="m 30.489007,-19.116923 0.980308,-0.114557 m 0,0 -0.592564,-0.0078 m 0,0 0.756803,-0.0648 m 0,0 -0.651771,-0.0307 m 0,0 0.688559,-0.108212 m 0,0 -0.562975,0.0036 m 0,0 0.707178,-0.28814 m 0,0 -0.579197,0.133439 m 0,0 0.707178,-0.28814 m 0,0 -0.579196,0.133439 m 0,0 0.901035,-0.349319 m 0,0 -0.62936,0.131084 m 0,0 0.615985,-0.272354 m 0,0 -0.467459,0.108569 m 0,0 0.556756,-0.295213 m 0,0 -0.46079,0.179201 m 0,0 0.385818,-0.293215 m 0,0 -0.337581,0.124725 m 0,0 0.670891,-0.370211 m 0,0 -0.551983,0.194988 m 0,0 0.60022,-0.363478 m 0,0 -0.531468,0.185917 m 0,0 0.547712,-0.315748 m 0,0 -0.540534,0.165412 m 0,0 0.538608,-0.336257 m 0,0 -0.499445,0.147245 m 0,0 0.609287,-0.342973 m 0,0 -0.570123,0.153961 m 0,0 0.609286,-0.342973 m 0,0 -0.570123,0.153961 m 0,0 0.479401,-0.359148 m 0,0 -0.431171,0.19064 m 0,0 0.212476,-0.241107 m 0,0 -0.257829,0.138532 m 0,0 0.214873,-0.291235 m 0,0 -0.196255,0.111306 m 0,0 0.162343,-0.243475 m 0,0 -0.196225,0.111294 m 0,0 0.123651,-0.275436 m 0,0 -0.143724,0.06355 m 0,0 0.10554,-0.316476 m 0,0 -0.148496,0.163772"
     style="stroke:#4c9900;stroke-width:0.11288889;stroke-miterlimit:4;stroke-dasharray:none"
     id="path28"
     inkscape:connector-curvature="0" />
  <path
     d="m 32.877267,-18.570736 8.79e-4,-5.8e-5"
     style="stroke:#4c9900;stroke-width:0.11288889;stroke-miterlimit:4;stroke-dasharray:none"
     id="path30"
     inkscape:connector-curvature="0" />
  <path
     d="m 33.235475,-18.888819 0.52954,-0.05076 m 0,0 -0.477848,-0.04434 m 0,0 0.621434,-0.104634 m 0,0 -0.493788,0.02479 m 0,0 0.458584,-0.156628 m 0,0 -0.359688,0.01194 m 0,0 0.753393,-0.139825 m 0,0 -0.585307,0.01102 m 0,0 0.684203,-0.155714 m 0,0 -0.562979,0.0089 m 0,0 0.619325,-0.126973 m 0,0 -0.565118,-0.01343 m 0,0 0.617151,-0.149306 m 0,0 -0.520396,-0.01772 m 0,0 0.686342,-0.133398 m 0,0 -0.589587,-0.03363 m 0,0 0.686342,-0.133398 m 0,0 -0.589587,-0.03363 m 0,0 0.56818,-0.189695 m 0,0 -0.469286,0.04499 m 0,0 0.277653,-0.161826 m 0,0 -0.288355,0.05018 m 0,0 0.295732,-0.208642 m 0,0 -0.221338,0.04376 m 0,0 0.230823,-0.179878 m 0,0 -0.221305,0.04376 m 0,0 0.204179,-0.222408 m 0,0 -0.156428,0.015 m 0,0 0.199931,-0.267064 m 0,0 -0.192555,0.108605"
     style="stroke:#4c9900;stroke-width:0.11288889;stroke-miterlimit:4;stroke-dasharray:none"
     id="path32"
     inkscape:connector-curvature="0" />
  <path
     d="m 33.294821,-18.693592 0.06487,-0.0043 m 0,0 -0.137665,-0.01302"
     style="stroke:#4c9900;stroke-width:0.11288889;stroke-miterlimit:4;stroke-dasharray:none"
     id="path34"
     inkscape:connector-curvature="0" />
  <path
     d="m 30.013073,-15.573316 a 3.2840226,3.2840226 0 0 0 0.04694,-3.758335"
     style="stroke:#7f3f00;stroke-width:0.11288889;stroke-miterlimit:4;stroke-dasharray:none"
     id="path36"
     inkscape:connector-curvature="0" />
  <path
     d="m 30.060017,-19.331651 0.824038,0.543221 m 0,0 -0.532762,-0.259534 m 0,0 0.646791,0.398261 m 0,0 -0.595937,-0.265719 m 0,0 0.566316,0.406336 m 0,0 -0.501184,-0.256454 m 0,0 0.502021,0.575413 m 0,0 -0.457293,-0.379681 m 0,0 0.50202,0.575414 m 0,0 -0.457293,-0.379681 m 0,0 0.647649,0.717245 m 0,0 -0.503155,-0.40014 m 0,0 0.427671,0.520299 m 0,0 -0.36868,-0.307213 m 0,0 0.36449,0.514076 m 0,0 -0.330956,-0.367299 m 0,0 0.212717,0.435411 m 0,0 -0.245414,-0.263229 m 0,0 0.432699,0.632395 m 0,0 -0.405306,-0.422414 m 0,0 0.372608,0.594595 m 0,0 -0.391061,-0.405085 m 0,0 0.347176,0.52835 m 0,0 -0.408381,-0.39085 m 0,0 0.329822,0.542573 m 0,0 -0.379854,-0.356143 m 0,0 0.389928,0.58036 m 0,0 -0.439959,-0.393929 m 0,0 0.389927,0.580359 m 0,0 -0.439959,-0.393929 m 0,0 0.266646,0.536388 m 0,0 -0.299358,-0.364194 m 0,0 0.08133,0.310908 m 0,0 -0.167973,-0.239691 m 0,0 0.06093,0.356758 m 0,0 -0.125223,-0.187681 m 0,0 0.03549,0.290475 m 0,0 -0.125203,-0.187656 m 0,0 -0.01344,0.301618 m 0,0 -0.09979,-0.121398 m 0,0 -0.04808,0.330128 m 0,0 -0.05897,-0.213061"
     style="stroke:#4c9900;stroke-width:0.11288889;stroke-miterlimit:4;stroke-dasharray:none"
     id="path38"
     inkscape:connector-curvature="0" />
  <path
     d="m 31.739021,-18.429866 a 3.2840226,3.2840226 0 0 0 2.62928,-2.685922"
     style="stroke:#7f3f00;stroke-width:0.11288889;stroke-miterlimit:4;stroke-dasharray:none"
     id="path40"
     inkscape:connector-curvature="0" />
  <path
     d="m 31.739021,-18.429866 0.966432,0.200339 m 0,0 -0.559882,-0.194228 m 0,0 0.738639,0.177093 m 0,0 -0.608854,-0.234617 m 0,0 0.687561,0.114384"
     style="stroke:#4c9900;stroke-width:0.11288889;stroke-miterlimit:4;stroke-dasharray:none"
     id="path42"
     inkscape:connector-curvature="0" />
  <path
     d="m 30.367204,-19.086724 0.981415,0.104658 m 0,0 -0.592455,0.01379 m 0,0 0.757418,0.05716 m 0,0 -0.651428,0.03728 m 0,0 0.689616,0.101257 m 0,0 -0.562983,0.002 m 0,0 0.71005,0.280989 m 0,0 -0.580513,-0.127587 m 0,0 0.71005,0.280988 m 0,0 -0.580514,-0.127586 m 0,0 0.904515,0.340207 m 0,0 -0.630651,-0.124725 m 0,0 0.618702,0.266123 m 0,0 -0.468531,-0.103846 m 0,0 0.559707,0.289579 m 0,0 -0.462575,-0.174541 m 0,0 0.388758,0.289306 m 0,0 -0.338823,-0.121312 m 0,0 0.674593,0.363422 m 0,0 -0.553923,-0.189407 m 0,0 0.603859,0.357401 m 0,0 -0.533318,-0.180544 m 0,0 0.550871,0.310205 m 0,0 -0.542176,-0.159949 m 0,0 0.541974,0.330804 m 0,0 -0.500905,-0.142197 m 0,0 0.612717,0.336807 m 0,0 -0.571648,-0.1482 m 0,0 0.612717,0.336807 m 0,0 -0.571648,-0.148199 m 0,0 0.483001,0.354291 m 0,0 -0.433073,-0.186279 m 0,0 0.214898,0.23895 m 0,0 -0.259214,-0.135922 m 0,0 0.217802,0.289052 m 0,0 -0.197368,-0.109321 m 0,0 0.164792,0.241825 m 0,0 -0.197338,-0.109308 m 0,0 0.126424,0.274174 m 0,0 -0.144358,-0.06209 m 0,0 0.108729,0.315394 m 0,0 -0.150142,-0.162265"
     style="stroke:#4c9900;stroke-width:0.11288889;stroke-miterlimit:4;stroke-dasharray:none"
     id="path44"
     inkscape:connector-curvature="0" />
  <path
     d="m 32.049637,-15.725666 a 3.2840226,3.2840226 0 0 0 -1.682433,-3.361058"
     style="stroke:#7f3f00;stroke-width:0.11288889;stroke-miterlimit:4;stroke-dasharray:none"
     id="path46"
     inkscape:connector-curvature="0" />
  <path
     d="m 31.300941,-19.22779 0.452674,0.262318 m 0,0 -0.144778,-0.175149 m 0,0 0.381032,0.357919 m 0,0 -0.259107,-0.319833 m 0,0 0.403917,0.388383 m 0,0 -0.236254,-0.327472 m 0,0 0.434398,0.441691 m 0,0 -0.281992,-0.388383 m 0,0 0.419174,0.472157 m 0,0 -0.274364,-0.411227 m 0,0 0.342922,0.380762 m 0,0 -0.236221,-0.357918 m 0,0 0.419141,0.510223 m 0,0 -0.259106,-0.418848 m 0,0 0.381031,0.479777 m 0,0 -0.213368,-0.365539 m 0,0 0.381031,0.517844 m 0,0 -0.266735,-0.472156 m 0,0 0.38866,0.563531 m 0,0 -0.259107,-0.487379 m 0,0 0.381065,0.563532 m 0,0 -0.243883,-0.456915 m 0,0 0.358179,0.555911 m 0,0 -0.205773,-0.418829 m 0,0 0.365808,0.593978 m 0,0 -0.114297,-0.350298 m 0,0 0.228626,0.525446 m 0,0 -0.137182,-0.418828 m 0,0 0.251478,0.578754 m 0,0 -0.09907,-0.388383 m 0,0 0.18292,0.495001 m 0,0 -0.06099,-0.312231 m 0,0 0.18292,0.555911 m 0,0 -0.07622,-0.357919 m 0,0 0.160034,0.548309 m 0,0 -0.0457,-0.319852 m 0,0 0.129553,0.533067 m 0,0 0.04317,-0.154581"
     style="stroke:#4c9900;stroke-width:0.11288889;stroke-miterlimit:4;stroke-dasharray:none"
     id="path48"
     inkscape:connector-curvature="0" />
  <path
     d="m 31.300941,-19.22779 0.942906,-0.291644 m 0,0 -0.538794,0.246767 m 0,0 0.71837,-0.246767 m 0,0 -0.583688,0.291644 m 0,0 0.673509,-0.17947 m 0,0 -0.516364,0.224328 m 0,0 0.763297,-0.02244 m 0,0 -0.583688,0.112173 m 0,0 0.763297,-0.02244 m 0,0 -0.583688,0.112174 m 0,0 0.965336,-0.04488 m 0,0 -0.628614,0.134613 m 0,0 0.673509,0 m 0,0 -0.471437,0.08974 m 0,0 0.628582,0.04486 m 0,0 -0.4939,0.02244 m 0,0 0.471437,0.112154 m 0,0 -0.359185,0.02244 m 0,0 0.763297,0.0673 m 0,0 -0.583689,0.04488 m 0,0 0.69594,0.08972 m 0,0 -0.561257,0.04488 m 0,0 0.628614,0.0673 m 0,0 -0.561257,0.0673 m 0,0 0.628582,0.08974 m 0,0 -0.51633,0.0673 m 0,0 0.695939,0.0673 m 0,0 -0.583688,0.08974 m 0,0 0.695939,0.0673 m 0,0 -0.583688,0.08973 m 0,0 0.583688,0.134613 m 0,0 -0.471436,0 m 0,0 0.291828,0.134593 m 0,0 -0.291828,-0.02244 m 0,0 0.314291,0.179471 m 0,0 -0.224503,-0.02244 m 0,0 0.246934,0.157032 m 0,0 -0.224471,-0.02244 m 0,0 0.224471,0.20191 m 0,0 -0.157146,0 m 0,0 0.224503,0.246767 m 0,0 -0.20204,-0.08974"
     style="stroke:#4c9900;stroke-width:0.11288889;stroke-miterlimit:4;stroke-dasharray:none"
     id="path50"
     inkscape:connector-curvature="0" />
  <path
     d="M 34.174519,-16.805016 A 3.2840226,3.2840226 0 0 0 31.300941,-19.22779"
     style="stroke:#7f3f00;stroke-width:0.11288889;stroke-miterlimit:4;stroke-dasharray:none"
     id="path52"
     inkscape:connector-curvature="0" />
</svg>
