<?xml version="1.0" encoding="UTF-8" standalone="no"?>
<!-- 2015-10-14 09:05:35 Generated by QCAD SVG Exporter -->

<svg
   xmlns:dc="http://purl.org/dc/elements/1.1/"
   xmlns:cc="http://creativecommons.org/ns#"
   xmlns:rdf="http://www.w3.org/1999/02/22-rdf-syntax-ns#"
   xmlns:svg="http://www.w3.org/2000/svg"
   xmlns="http://www.w3.org/2000/svg"
   xmlns:sodipodi="http://sodipodi.sourceforge.net/DTD/sodipodi-0.dtd"
   xmlns:inkscape="http://www.inkscape.org/namespaces/inkscape"
   width="15.843740368072758mm"
   height="15.576104196697997mm"
   viewBox="28.07812981596362 -22.788052098349 15.843740368072758 15.576104196697997"
   version="1.1"
   style="stroke-linecap:round;stroke-linejoin:round;fill:none"
   id="svg2"
   inkscape:version="0.91 r13725"
   sodipodi:docname="Guayacan Amirillo.svg">
  <metadata
     id="metadata150">
    <rdf:RDF>
      <cc:Work
         rdf:about="">
        <dc:format>image/svg+xml</dc:format>
        <dc:type
           rdf:resource="http://purl.org/dc/dcmitype/StillImage" />
      </cc:Work>
    </rdf:RDF>
  </metadata>
  <defs
     id="defs148" />
  <sodipodi:namedview
     pagecolor="#ffffff"
     bordercolor="#666666"
     borderopacity="1"
     objecttolerance="10"
     gridtolerance="10"
     guidetolerance="10"
     inkscape:pageopacity="0"
     inkscape:pageshadow="2"
     inkscape:window-width="1301"
     inkscape:window-height="744"
     id="namedview146"
     showgrid="false"
     inkscape:zoom="4.2760657"
     inkscape:cx="28.069619"
     inkscape:cy="27.59546"
     inkscape:window-x="65"
     inkscape:window-y="24"
     inkscape:window-maximized="1"
     inkscape:current-layer="svg2" />
  <circle
     id="circle6"
     style="stroke:#ff0000;stroke-width:0.14111112;stroke-miterlimit:4;stroke-dasharray:none"
     r="0.83856362"
     cy="15.17103"
     cx="36.394581"
     transform="scale(1,-1)" />
  <path
     d="m 32.021999,-15.339762 c -0.0756,-0.06664 -0.09142,-0.178003 -0.180341,-0.242653 -0.0679,-0.04936 -0.178404,-0.07149 -0.230607,-0.01055 -0.0182,0.02125 -0.02932,0.0526 -0.0497,0.06331 -0.04761,0.02501 -0.145803,-0.06253 -0.147828,-0.116065 -0.0018,-0.04833 0.0747,-0.06894 0.141612,-0.09344 0.03346,-0.01225 0.06451,-0.02547 0.07082,-0.04673 0.01162,-0.03921 -0.06095,-0.105778 -0.05588,-0.146162 0.0056,-0.04434 0.104725,-0.05712 0.16727,-0.03918 0.0782,0.02242 0.09917,0.09286 0.168941,0.132641 0.05084,0.02899 0.127584,0.0417 0.155265,0.01957 0.0537,-0.04292 -0.07723,-0.216956 -0.0364,-0.301375 0.03063,-0.06332 0.157877,-0.07622 0.226062,-0.02713 0.08986,0.0647 0.07713,0.237062 0.128305,0.271246 0.05216,0.03484 0.170707,-0.07387 0.245545,-0.182344 0.04999,-0.07246 0.08048,-0.144806 0.05262,-0.197417 -0.01464,-0.02765 -0.0454,-0.04985 -0.08445,-0.0663 -0.09,-0.03794 -0.224058,-0.04539 -0.223148,-0.106981 4.93e-4,-0.03338 0.04063,-0.08266 0.08282,-0.105485 0.143544,-0.07765 0.310943,0.150922 0.44921,0.07985 0.04064,-0.02089 0.07877,-0.06767 0.08282,-0.105485 0.0073,-0.06811 -0.09596,-0.107126 -0.190012,-0.149185 -0.146315,-0.06543 -0.270322,-0.13824 -0.295616,-0.232097 -0.02917,-0.108225 0.07291,-0.244439 0.121785,-0.415912 0.04696,-0.164764 0.04479,-0.362082 0.16401,-0.382759 0.03436,-0.006 0.07881,0.0028 0.117585,0.0241 0.07851,0.04322 0.133754,0.138232 0.206561,0.128108 0.04098,-0.0057 0.08753,-0.04471 0.103993,-0.0889 0.05347,-0.143518 -0.210306,-0.341717 -0.200792,-0.396339 0.0083,-0.04758 0.22397,0.01379 0.385872,0.03012 0.127974,0.01291 0.222347,-0.0023 0.296901,-0.0738 0.124369,-0.119238 0.193584,-0.394991 0.293618,-0.417439 0.115748,-0.02598 0.272759,0.287185 0.464474,0.364674 0.154116,0.06229 0.330658,-0.02771 0.473218,-0.03766 0.324531,-0.02265 0.47296,0.369572 0.657746,0.857438 0.107444,0.28367 0.22718,0.599677 0.332012,0.533473 0.08055,-0.05087 0.152296,-0.327378 0.298143,-0.379736 0.116924,-0.04197 0.28147,0.06011 0.385873,0.03012 0.108528,-0.03118 0.152067,-0.205072 0.24846,-0.316455 0.0633,-0.07314 0.149385,-0.119324 0.233521,-0.123563 0.393311,-0.01982 0.743985,0.876947 0.987741,0.741398 0.116469,-0.06477 0.208528,-0.365211 0.364415,-0.464144 0.139839,-0.08875 0.33104,-0.01534 0.524593,0.07086 0.245559,0.109355 0.494903,0.239291 0.511244,0.435504 0.0083,0.09913 -0.04296,0.21517 -0.114306,0.319454 -0.169219,0.247334 -0.451695,0.428518 -0.496939,0.632934 -0.06367,0.287676 0.342494,0.621365 0.820472,0.78058 0.173319,0.05773 0.356082,0.09253 0.366412,0.185392 0.01131,0.101692 -0.184133,0.273019 -0.159465,0.420438 0.01646,0.09837 0.130937,0.186099 0.128305,0.271246 -0.0031,0.09924 -0.165206,0.194968 -0.194212,0.290827 -0.04182,0.138223 0.193152,0.27671 0.226389,0.450585 0.03187,0.16673 -0.12176,0.365999 -0.319256,0.36316 -0.103408,-0.0015 -0.218841,-0.05838 -0.25172,-0.02712 -0.0345,0.0328 0.02189,0.162633 0.03183,0.263722 0.03316,0.337086 -0.450025,0.354517 -0.848372,0.254683 -0.238039,-0.05966 -0.445783,-0.161191 -0.524551,-0.07082 -0.06972,0.07998 -0.0384,0.310304 -0.11724,0.45359 -0.06877,0.124972 -0.221344,0.183737 -0.358586,0.195921 -0.254506,0.02259 -0.456282,-0.115001 -0.731172,-0.198939 -0.172213,-0.05259 -0.37312,-0.08411 -0.473219,0.03766 -0.126491,0.153881 -0.092,0.552562 -0.120173,0.587725 -0.02726,0.03403 -0.113216,-0.272415 -0.181249,-0.551544 -0.187078,-0.767541 -0.238675,-1.328535 -0.671767,-1.448194 -0.170573,-0.04713 -0.400321,-0.0258 -0.628484,0.01809 -0.05508,0.01059 -0.110067,0.0225 -0.150702,0.01808 -0.271524,-0.02955 0.09781,-0.788255 0.01133,-1.014161 -0.07553,-0.197295 -0.498723,0.0118 -0.848371,0.254683 -0.15741,0.109346 -0.299914,0.22554 -0.337454,0.212473 -0.06329,-0.02203 0.171754,-0.411459 0.111005,-0.663065 -0.06366,-0.263669 -0.452156,-0.375985 -0.660316,-0.245636 -0.02506,0.01569 -0.04751,0.0349 -0.0708,0.04671 -0.123559,0.06262 -0.270904,-0.08315 -0.420639,-0.159708 -0.167927,-0.08586 -0.338858,-0.08465 -0.465036,-0.195875"
     style="stroke:#4c9900;stroke-width:0.14111112;stroke-miterlimit:4;stroke-dasharray:none"
     id="path10"
     inkscape:connector-curvature="0" />
  <path
     d="m 34.775204,-10.405336 0,-0.100152 m 0,0 -0.302875,0.17519 m 0,0 -0.127527,-0.254822 m 0,0 0.175349,-0.286675 m 0,0 0.127527,-0.254822 m 0,0 -0.01594,-0.270749 m 0,0 -0.239112,-0.01593 m 0,0 -0.270993,-0.04778 m 0,0 -0.111586,-0.127411 m 0,0 -0.06376,-0.143338 m 0,0 -0.159407,-0.04778 m 0,0 -0.0797,0.222969 m 0,0 -0.191289,-0.07963 m 0,0 -0.06376,-0.06371 m 0,0 -0.191289,-0.127411 m 0,0 -0.255052,-0.01593 m 0,0 -0.127526,0 m 0,0 -0.191289,0.01593 m 0,0 -0.178025,0.152837"
     style="stroke:#729900;stroke-width:0.14111112;stroke-miterlimit:4;stroke-dasharray:none"
     id="path12"
     inkscape:connector-curvature="0" />
  <path
     d="m 35.783368,-11.229554 0,-0.100151 m 0,0 -0.302874,0.17519 m 0,0 -0.127527,-0.254822 m 0,0 0.175349,-0.286675 m 0,0 0.127526,-0.254823 m 0,0 -0.01594,-0.270748 m 0,0 -0.239111,-0.01593 m 0,0 -0.270993,-0.04778 m 0,0 -0.111586,-0.127412 m 0,0 -0.06376,-0.143337 m 0,0 -0.159407,-0.04778 m 0,0 -0.0797,0.222969 m 0,0 -0.191289,-0.07963 m 0,0 -0.06376,-0.06371 m 0,0 -0.191289,-0.127411 m 0,0 -0.255053,-0.01593 m 0,0 -0.127525,0 m 0,0 -0.191289,0.01593 m 0,0 -0.178026,0.152836"
     style="stroke:#729900;stroke-width:0.14111112;stroke-miterlimit:4;stroke-dasharray:none"
     id="path14"
     inkscape:connector-curvature="0" />
  <path
     d="m 32.948343,-17.04484 0,-0.100151 m 0,0 -0.302875,0.175189 m 0,0 -0.127526,-0.254821 m 0,0 0.175348,-0.286676 m 0,0 0.127527,-0.254822 m 0,0 -0.01594,-0.270748 m 0,0 -0.239112,-0.01593 m 0,0 -0.270993,-0.04778 m 0,0 -0.111585,-0.127411 m 0,0 -0.06376,-0.143337 m 0,0 -0.159408,-0.04778 m 0,0 -0.0797,0.22297 m 0,0 -0.191289,-0.07963 m 0,0 -0.06376,-0.06371 m 0,0 -0.191289,-0.127411 m 0,0 -0.255053,-0.01593 m 0,0 -0.127526,0 m 0,0 -0.191289,0.01593 m 0,0 -0.178025,0.152837"
     style="stroke:#729900;stroke-width:0.14111112;stroke-miterlimit:4;stroke-dasharray:none"
     id="path16"
     inkscape:connector-curvature="0" />
  <path
     d="m 33.602499,-12.595305 0.03917,-0.09217 m 0,0 -0.347268,0.04277 m 0,0 -0.0177,-0.284401 m 0,0 0.273506,-0.195255 m 0,0 0.217034,-0.184644 m 0,0 0.09122,-0.255415 m 0,0 -0.213834,-0.10818 m 0,0 -0.230718,-0.149964 m 0,0 -0.05286,-0.160906 m 0,0 -0.0026,-0.156857 m 0,0 -0.128021,-0.106322 m 0,0 -0.160564,0.174033 m 0,0 -0.144904,-0.148106 m 0,0 -0.03377,-0.08357 m 0,0 -0.126217,-0.192079 m 0,0 -0.228505,-0.114414 m 0,0 -0.117367,-0.04988 m 0,0 -0.18228,-0.06016 m 0,0 -0.223621,0.07103"
     style="stroke:#729900;stroke-width:0.14111112;stroke-miterlimit:4;stroke-dasharray:none"
     id="path18"
     inkscape:connector-curvature="0" />
  <path
     d="m 35.586201,-7.8225948 -0.355584,-0.1513426 m 0,0 -0.253817,0.2914133 m 0,0 0.198717,0.3314459 m 0,0 0.37663,-0.086569 m 0,0 0.03405,-0.3849481"
     style="stroke:#ffff00;stroke-width:0.14111112;stroke-miterlimit:4;stroke-dasharray:none"
     id="path20"
     inkscape:connector-curvature="0" />
  <path
     d="m 40.999659,-20.105995 -0.355585,-0.151343 m 0,0 -0.253817,0.291414 m 0,0 0.198717,0.331446 m 0,0 0.376631,-0.08657 m 0,0 0.03405,-0.384948"
     style="stroke:#ffff00;stroke-width:0.14111112;stroke-miterlimit:4;stroke-dasharray:none"
     id="path22"
     inkscape:connector-curvature="0" />
  <path
     d="m 41.337998,-12.386612 -0.355584,-0.151342 m 0,0 -0.253817,0.291413 m 0,0 0.198716,0.331446 m 0,0 0.376631,-0.08657 m 0,0 0.03405,-0.384948"
     style="stroke:#ffff00;stroke-width:0.14111112;stroke-miterlimit:4;stroke-dasharray:none"
     id="path24"
     inkscape:connector-curvature="0" />
  <path
     d="m 37.825648,-15.754554 -0.162373,-1.251331 m 0,0 0.741907,-0.457764 m 0,0 -0.194227,-0.724865 m 0,0 -0.210158,-0.461625 m 0,0 0.03185,-0.526471 m 0,0 -0.151065,-0.563781 m 0,0 -0.210147,-0.461627 m 0,0 -0.328322,-0.25732 m 0,0 -0.220419,0.145383 m 0,0 -1.081539,-0.48711 m 0,0 -0.09658,0.284851 m 0,0 -0.386356,1.139396 m 0,0 0.210158,0.461625 m 0,0 0.511217,0.294635 m 0,0 0.349903,0.337858 m 0,0 0.500968,0.901639 m 0,0 -0.161337,0.04323 m 0,0 0.302131,1.127567 m 0,0 0.182917,0.03731 m 0,0 0.371472,0.418401"
     style="stroke:#729900;stroke-width:0.14111112;stroke-miterlimit:4;stroke-dasharray:none"
     id="path26"
     inkscape:connector-curvature="0" />
  <path
     d="m 35.529814,-15.316597 -0.355585,-0.151343 m 0,0 -0.253817,0.291413 m 0,0 0.198717,0.331446 m 0,0 0.376631,-0.08657 m 0,0 0.03405,-0.384948"
     style="stroke:#ffff00;stroke-width:0.14111112;stroke-miterlimit:4;stroke-dasharray:none"
     id="path28"
     inkscape:connector-curvature="0" />
  <path
     d="m 37.76452,-15.56759 -0.355584,-0.151342 m 0,0 -0.253817,0.291413 m 0,0 0.198716,0.331446 m 0,0 0.376631,-0.08657 m 0,0 0.03405,-0.384949"
     style="stroke:#4c9900;stroke-width:0.14111112;stroke-miterlimit:4;stroke-dasharray:none"
     id="path30"
     inkscape:connector-curvature="0" />
  <path
     d="m 39.871851,-11.372384 -0.355584,-0.151343 m 0,0 -0.253817,0.291413 m 0,0 0.198717,0.331446 m 0,0 0.376631,-0.08657 m 0,0 0.03405,-0.384948"
     style="stroke:#ffff00;stroke-width:0.14111112;stroke-miterlimit:4;stroke-dasharray:none"
     id="path32"
     inkscape:connector-curvature="0" />
  <path
     d="m 40.735051,-11.756566 -0.355584,-0.151342 m 0,0 -0.253817,0.291413 m 0,0 0.198717,0.331446 m 0,0 0.376631,-0.08657 m 0,0 0.03405,-0.384948"
     style="stroke:#4c9900;stroke-width:0.14111112;stroke-miterlimit:4;stroke-dasharray:none"
     id="path34"
     inkscape:connector-curvature="0" />
  <path
     d="m 33.725328,-9.9073916 -0.355585,-0.1513424 m 0,0 -0.253816,0.2914131 m 0,0 0.198716,0.3314459 m 0,0 0.376631,-0.086569 m 0,0 0.03405,-0.3849481"
     style="stroke:#ffff00;stroke-width:0.14111112;stroke-miterlimit:4;stroke-dasharray:none"
     id="path36"
     inkscape:connector-curvature="0" />
  <path
     d="m 40.548537,-10.921619 -0.355584,-0.151343 m 0,0 -0.253817,0.291414 m 0,0 0.198717,0.331446 m 0,0 0.37663,-0.08657 m 0,0 0.03405,-0.384948"
     style="stroke:#ffff00;stroke-width:0.14111112;stroke-miterlimit:4;stroke-dasharray:none"
     id="path38"
     inkscape:connector-curvature="0" />
  <path
     d="m 34.345619,-8.160672 -0.355584,-0.1513426 m 0,0 -0.253817,0.2914133 m 0,0 0.198716,0.3314459 m 0,0 0.376631,-0.086569 m 0,0 0.03405,-0.3849481"
     style="stroke:#ffff00;stroke-width:0.14111112;stroke-miterlimit:4;stroke-dasharray:none"
     id="path40"
     inkscape:connector-curvature="0" />
  <path
     d="m 34.232844,-10.696234 -0.355585,-0.151343 m 0,0 -0.253816,0.291413 m 0,0 0.198716,0.331446 m 0,0 0.376631,-0.08657 m 0,0 0.03405,-0.384948"
     style="stroke:#ffff00;stroke-width:0.14111112;stroke-miterlimit:4;stroke-dasharray:none"
     id="path42"
     inkscape:connector-curvature="0" />
  <path
     d="m 38.010978,-10.865273 -0.355584,-0.151342 m 0,0 -0.253817,0.291413 m 0,0 0.198717,0.331446 m 0,0 0.37663,-0.08657 m 0,0 0.03405,-0.384948"
     style="stroke:#ffff00;stroke-width:0.14111112;stroke-miterlimit:4;stroke-dasharray:none"
     id="path44"
     inkscape:connector-curvature="0" />
  <path
     d="m 35.454106,-8.6417832 -0.355585,-0.1513425 m 0,0 -0.253817,0.2914133 m 0,0 0.198717,0.3314459 m 0,0 0.376631,-0.086569 m 0,0 0.03405,-0.3849482"
     style="stroke:#4c9900;stroke-width:0.14111112;stroke-miterlimit:4;stroke-dasharray:none"
     id="path46"
     inkscape:connector-curvature="0" />
  <path
     d="m 38.571332,-9.960986 -0.355584,-0.151343 m 0,0 -0.253817,0.2914138 m 0,0 0.198717,0.3314459 m 0,0 0.37663,-0.086569 m 0,0 0.03405,-0.3849482"
     style="stroke:#4c9900;stroke-width:0.14111112;stroke-miterlimit:4;stroke-dasharray:none"
     id="path48"
     inkscape:connector-curvature="0" />
  <path
     d="m 39.451489,-9.1914482 -0.355585,-0.1513426 m 0,0 -0.253817,0.2914133 m 0,0 0.198717,0.3314459 m 0,0 0.376631,-0.086568 m 0,0 0.03405,-0.3849482"
     style="stroke:#4c9900;stroke-width:0.14111112;stroke-miterlimit:4;stroke-dasharray:none"
     id="path50"
     inkscape:connector-curvature="0" />
  <path
     d="m 40.735051,-9.960986 -0.355584,-0.151343 m 0,0 -0.253817,0.2914138 m 0,0 0.198717,0.3314459 m 0,0 0.376631,-0.086569 m 0,0 0.03405,-0.3849482"
     style="stroke:#4c9900;stroke-width:0.14111112;stroke-miterlimit:4;stroke-dasharray:none"
     id="path52"
     inkscape:connector-curvature="0" />
  <path
     d="m 39.964918,-10.693876 -0.355584,-0.151342 m 0,0 -0.253817,0.291413 m 0,0 0.198717,0.331446 m 0,0 0.37663,-0.08657 m 0,0 0.03405,-0.384949"
     style="stroke:#4c9900;stroke-width:0.14111112;stroke-miterlimit:4;stroke-dasharray:none"
     id="path54"
     inkscape:connector-curvature="0" />
  <path
     d="m 38.901387,-11.06032 -0.355584,-0.151343 m 0,0 -0.253817,0.291413 m 0,0 0.198717,0.331446 m 0,0 0.376631,-0.08657 m 0,0 0.03405,-0.384948"
     style="stroke:#4c9900;stroke-width:0.14111112;stroke-miterlimit:4;stroke-dasharray:none"
     id="path56"
     inkscape:connector-curvature="0" />
  <path
     d="m 36.150895,-9.6311853 -0.355584,-0.1513426 m 0,0 -0.253817,0.2914134 m 0,0 0.198717,0.3314459 m 0,0 0.37663,-0.086569 m 0,0 0.03405,-0.3849482"
     style="stroke:#4c9900;stroke-width:0.14111112;stroke-miterlimit:4;stroke-dasharray:none"
     id="path58"
     inkscape:connector-curvature="0" />
  <path
     d="m 40.77173,-12.965832 -0.355584,-0.151343 m 0,0 -0.253817,0.291414 m 0,0 0.198717,0.331445 m 0,0 0.376631,-0.08657 m 0,0 0.03405,-0.384948"
     style="stroke:#4c9900;stroke-width:0.14111112;stroke-miterlimit:4;stroke-dasharray:none"
     id="path60"
     inkscape:connector-curvature="0" />
  <path
     d="m 37.507809,-14.578187 -0.355585,-0.151343 m 0,0 -0.253816,0.291413 m 0,0 0.198716,0.331446 m 0,0 0.376631,-0.08657 m 0,0 0.03405,-0.384948"
     style="stroke:#4c9900;stroke-width:0.14111112;stroke-miterlimit:4;stroke-dasharray:none"
     id="path62"
     inkscape:connector-curvature="0" />
  <path
     d="m 39.781551,-19.451906 -0.355584,-0.151342 m 0,0 -0.253817,0.291413 m 0,0 0.198716,0.331446 m 0,0 0.376631,-0.08657 m 0,0 0.03405,-0.384948"
     style="stroke:#4c9900;stroke-width:0.14111112;stroke-miterlimit:4;stroke-dasharray:none"
     id="path64"
     inkscape:connector-curvature="0" />
  <path
     d="m 33.612553,-18.190237 -0.355585,-0.151342 m 0,0 -0.253817,0.291413 m 0,0 0.198717,0.331446 m 0,0 0.376631,-0.08657 m 0,0 0.03405,-0.384948"
     style="stroke:#ffff00;stroke-width:0.14111112;stroke-miterlimit:4;stroke-dasharray:none"
     id="path66"
     inkscape:connector-curvature="0" />
  <path
     d="m 38.405712,-19.035426 -0.355584,-0.151342 m 0,0 -0.253817,0.291413 m 0,0 0.198717,0.331446 m 0,0 0.37663,-0.08657 m 0,0 0.03405,-0.384949"
     style="stroke:#ffff00;stroke-width:0.14111112;stroke-miterlimit:4;stroke-dasharray:none"
     id="path68"
     inkscape:connector-curvature="0" />
  <path
     d="m 34.063667,-18.753695 -0.355584,-0.151342 m 0,0 -0.253817,0.291413 m 0,0 0.198717,0.331446 m 0,0 0.37663,-0.08657 m 0,0 0.03405,-0.384949"
     style="stroke:#ffff00;stroke-width:0.14111112;stroke-miterlimit:4;stroke-dasharray:none"
     id="path70"
     inkscape:connector-curvature="0" />
  <path
     d="m 35.529814,-16.78159 -0.355585,-0.151343 m 0,0 -0.253817,0.291413 m 0,0 0.198717,0.331446 m 0,0 0.376631,-0.08657 m 0,0 0.03405,-0.384948"
     style="stroke:#ffff00;stroke-width:0.14111112;stroke-miterlimit:4;stroke-dasharray:none"
     id="path72"
     inkscape:connector-curvature="0" />
  <path
     d="m 40.717707,-18.52831 -0.355585,-0.151342 m 0,0 -0.253816,0.291413 m 0,0 0.198716,0.331446 m 0,0 0.376631,-0.08657 m 0,0 0.03405,-0.384948"
     style="stroke:#ffff00;stroke-width:0.14111112;stroke-miterlimit:4;stroke-dasharray:none"
     id="path74"
     inkscape:connector-curvature="0" />
  <path
     d="m 40.111606,-18.499148 -0.355584,-0.151342 m 0,0 -0.253817,0.291413 m 0,0 0.198717,0.331446 m 0,0 0.37663,-0.08657 m 0,0 0.03405,-0.384948"
     style="stroke:#4c9900;stroke-width:0.14111112;stroke-miterlimit:4;stroke-dasharray:none"
     id="path76"
     inkscape:connector-curvature="0" />
  <path
     d="m 38.24127,-16.153903 -0.355584,-0.151342 m 0,0 -0.253817,0.291413 m 0,0 0.198717,0.331446 m 0,0 0.37663,-0.08657 m 0,0 0.03405,-0.384948"
     style="stroke:#4c9900;stroke-width:0.14111112;stroke-miterlimit:4;stroke-dasharray:none"
     id="path78"
     inkscape:connector-curvature="0" />
  <path
     d="m 35.637466,-16.007322 -0.355585,-0.151343 m 0,0 -0.253817,0.291413 m 0,0 0.198717,0.331446 m 0,0 0.376631,-0.08657 m 0,0 0.03405,-0.384948"
     style="stroke:#4c9900;stroke-width:0.14111112;stroke-miterlimit:4;stroke-dasharray:none"
     id="path80"
     inkscape:connector-curvature="0" />
  <path
     d="m 33.583763,-20.587884 -0.355585,-0.151343 m 0,0 -0.253817,0.291414 m 0,0 0.198717,0.331446 m 0,0 0.376631,-0.08657 m 0,0 0.03405,-0.384948"
     style="stroke:#4c9900;stroke-width:0.14111112;stroke-miterlimit:4;stroke-dasharray:none"
     id="path82"
     inkscape:connector-curvature="0" />
  <path
     d="m 38.913221,-20.500418 -0.355584,-0.151343 m 0,0 -0.253817,0.291413 m 0,0 0.198717,0.331446 m 0,0 0.37663,-0.08657 m 0,0 0.03405,-0.384948"
     style="stroke:#ffff00;stroke-width:0.14111112;stroke-miterlimit:4;stroke-dasharray:none"
     id="path84"
     inkscape:connector-curvature="0" />
  <path
     d="M 39.307955,-22.021757 38.952371,-22.1731 m 0,0 -0.253817,0.291413 m 0,0 0.198716,0.331446 m 0,0 0.376631,-0.08657 m 0,0 0.03405,-0.384948"
     style="stroke:#ffff00;stroke-width:0.14111112;stroke-miterlimit:4;stroke-dasharray:none"
     id="path86"
     inkscape:connector-curvature="0" />
  <path
     d="m 37.277912,-22.472523 -0.355584,-0.151342 m 0,0 -0.253817,0.291413 m 0,0 0.198716,0.331446 m 0,0 0.376631,-0.08657 m 0,0 0.03405,-0.384948"
     style="stroke:#ffff00;stroke-width:0.14111112;stroke-miterlimit:4;stroke-dasharray:none"
     id="path88"
     inkscape:connector-curvature="0" />
  <path
     d="m 37.277912,-21.289261 -0.355584,-0.151343 m 0,0 -0.253817,0.291414 m 0,0 0.198716,0.331446 m 0,0 0.376631,-0.08657 m 0,0 0.03405,-0.384948"
     style="stroke:#ffff00;stroke-width:0.14111112;stroke-miterlimit:4;stroke-dasharray:none"
     id="path90"
     inkscape:connector-curvature="0" />
  <path
     d="m 35.698983,-20.556765 -0.355584,-0.151342 m 0,0 -0.253817,0.291413 m 0,0 0.198717,0.331446 m 0,0 0.37663,-0.08657 m 0,0 0.03405,-0.384949"
     style="stroke:#ffff00;stroke-width:0.14111112;stroke-miterlimit:4;stroke-dasharray:none"
     id="path92"
     inkscape:connector-curvature="0" />
  <path
     d="m 38.608004,-21.137553 -0.355584,-0.151343 m 0,0 -0.253817,0.291413 m 0,0 0.198717,0.331446 m 0,0 0.376631,-0.08657 m 0,0 0.03405,-0.384948"
     style="stroke:#4c9900;stroke-width:0.14111112;stroke-miterlimit:4;stroke-dasharray:none"
     id="path94"
     inkscape:connector-curvature="0" />
  <path
     d="m 38.387965,-22.017019 -0.355584,-0.151343 m 0,0 -0.253817,0.291414 m 0,0 0.198717,0.331446 m 0,0 0.37663,-0.08657 m 0,0 0.03405,-0.384948"
     style="stroke:#4c9900;stroke-width:0.14111112;stroke-miterlimit:4;stroke-dasharray:none"
     id="path96"
     inkscape:connector-curvature="0" />
  <path
     d="m 38.167926,-20.881041 -0.355584,-0.151342 m 0,0 -0.253817,0.291413 m 0,0 0.198717,0.331446 m 0,0 0.37663,-0.08657 m 0,0 0.03405,-0.384948"
     style="stroke:#4c9900;stroke-width:0.14111112;stroke-miterlimit:4;stroke-dasharray:none"
     id="path98"
     inkscape:connector-curvature="0" />
  <path
     d="M 35.894184,-22.126955 35.5386,-22.278298 m 0,0 -0.253817,0.291413 m 0,0 0.198716,0.331446 m 0,0 0.376631,-0.08657 m 0,0 0.03405,-0.384948"
     style="stroke:#4c9900;stroke-width:0.14111112;stroke-miterlimit:4;stroke-dasharray:none"
     id="path100"
     inkscape:connector-curvature="0" />
  <path
     d="m 40.515012,-20.624528 -0.355584,-0.151343 m 0,0 -0.253817,0.291414 m 0,0 0.198717,0.331445 m 0,0 0.37663,-0.08657 m 0,0 0.03405,-0.384948"
     style="stroke:#4c9900;stroke-width:0.14111112;stroke-miterlimit:4;stroke-dasharray:none"
     id="path102"
     inkscape:connector-curvature="0" />
  <path
     d="m 43.819162,-15.65467 -0.355584,-0.151343 m 0,0 -0.253817,0.291413 m 0,0 0.198717,0.331446 m 0,0 0.376631,-0.08657 m 0,0 0.03405,-0.384948"
     style="stroke:#ffff00;stroke-width:0.14111112;stroke-miterlimit:4;stroke-dasharray:none"
     id="path104"
     inkscape:connector-curvature="0" />
  <path
     d="m 41.958289,-15.485636 -0.355584,-0.151343 m 0,0 -0.253817,0.291414 m 0,0 0.198717,0.331446 m 0,0 0.37663,-0.08657 m 0,0 0.03405,-0.384948"
     style="stroke:#ffff00;stroke-width:0.14111112;stroke-miterlimit:4;stroke-dasharray:none"
     id="path106"
     inkscape:connector-curvature="0" />
  <path
     d="m 41.789119,-11.597769 -0.355584,-0.151343 m 0,0 -0.253817,0.291413 m 0,0 0.198717,0.331446 m 0,0 0.376631,-0.08657 m 0,0 0.03405,-0.384948"
     style="stroke:#ffff00;stroke-width:0.14111112;stroke-miterlimit:4;stroke-dasharray:none"
     id="path108"
     inkscape:connector-curvature="0" />
  <path
     d="m 43.368041,-14.30237 -0.355584,-0.151343 m 0,0 -0.253817,0.291414 m 0,0 0.198716,0.331446 m 0,0 0.376631,-0.08657 m 0,0 0.03405,-0.384948"
     style="stroke:#ffff00;stroke-width:0.14111112;stroke-miterlimit:4;stroke-dasharray:none"
     id="path110"
     inkscape:connector-curvature="0" />
  <path
     d="m 42.752082,-12.819256 -0.355584,-0.151343 m 0,0 -0.253817,0.291414 m 0,0 0.198717,0.331446 m 0,0 0.376631,-0.08657 m 0,0 0.03405,-0.384948"
     style="stroke:#ffff00;stroke-width:0.14111112;stroke-miterlimit:4;stroke-dasharray:none"
     id="path112"
     inkscape:connector-curvature="0" />
  <path
     d="m 42.642066,-13.58879 -0.355584,-0.151342 m 0,0 -0.253817,0.291413 m 0,0 0.198717,0.331446 m 0,0 0.376631,-0.08657 m 0,0 0.03405,-0.384949"
     style="stroke:#4c9900;stroke-width:0.14111112;stroke-miterlimit:4;stroke-dasharray:none"
     id="path114"
     inkscape:connector-curvature="0" />
  <path
     d="m 42.752082,-14.614836 -0.355584,-0.151342 m 0,0 -0.253817,0.291413 m 0,0 0.198717,0.331446 m 0,0 0.376631,-0.08657 m 0,0 0.03405,-0.384948"
     style="stroke:#4c9900;stroke-width:0.14111112;stroke-miterlimit:4;stroke-dasharray:none"
     id="path116"
     inkscape:connector-curvature="0" />
  <path
     d="m 42.296628,-19.260806 -0.355584,-0.151343 m 0,0 -0.253817,0.291413 m 0,0 0.198717,0.331446 m 0,0 0.376631,-0.08657 m 0,0 0.03405,-0.384948"
     style="stroke:#ffff00;stroke-width:0.14111112;stroke-miterlimit:4;stroke-dasharray:none"
     id="path118"
     inkscape:connector-curvature="0" />
  <path
     d="m 41.541864,-19.122105 -0.355584,-0.151343 m 0,0 -0.253817,0.291414 m 0,0 0.198716,0.331446 m 0,0 0.376631,-0.08657 m 0,0 0.03405,-0.384948"
     style="stroke:#4c9900;stroke-width:0.14111112;stroke-miterlimit:4;stroke-dasharray:none"
     id="path120"
     inkscape:connector-curvature="0" />
  <path
     d="m 41.789119,-16.218132 -0.355584,-0.151343 m 0,0 -0.253817,0.291413 m 0,0 0.198717,0.331446 m 0,0 0.376631,-0.08657 m 0,0 0.03405,-0.384948"
     style="stroke:#ffff00;stroke-width:0.14111112;stroke-miterlimit:4;stroke-dasharray:none"
     id="path122"
     inkscape:connector-curvature="0" />
  <path
     d="m 42.825433,-16.227191 -0.355584,-0.151343 m 0,0 -0.253817,0.291414 m 0,0 0.198717,0.331446 m 0,0 0.376631,-0.08657 m 0,0 0.03405,-0.384948"
     style="stroke:#4c9900;stroke-width:0.14111112;stroke-miterlimit:4;stroke-dasharray:none"
     id="path124"
     inkscape:connector-curvature="0" />
  <path
     d="m 42.71541,-17.106661 -0.355584,-0.151343 m 0,0 -0.253817,0.291414 m 0,0 0.198717,0.331446 m 0,0 0.376631,-0.08657 m 0,0 0.03405,-0.384948"
     style="stroke:#4c9900;stroke-width:0.14111112;stroke-miterlimit:4;stroke-dasharray:none"
     id="path126"
     inkscape:connector-curvature="0" />
  <path
     d="m 43.70559,-16.63028 -0.355584,-0.151342 m 0,0 -0.253817,0.291413 m 0,0 0.198717,0.331446 m 0,0 0.37663,-0.08657 m 0,0 0.03405,-0.384948"
     style="stroke:#4c9900;stroke-width:0.14111112;stroke-miterlimit:4;stroke-dasharray:none"
     id="path128"
     inkscape:connector-curvature="0" />
  <path
     d="M 30.003581,-11.090658 29.647997,-11.242 m 0,0 -0.253817,0.291413 m 0,0 0.198717,0.331446 m 0,0 0.37663,-0.08657 m 0,0 0.03405,-0.384949"
     style="stroke:#ffff00;stroke-width:0.14111112;stroke-miterlimit:4;stroke-dasharray:none"
     id="path130"
     inkscape:connector-curvature="0" />
  <path
     d="m 30.229138,-14.471409 -0.355584,-0.151342 m 0,0 -0.253817,0.291413 m 0,0 0.198717,0.331446 m 0,0 0.37663,-0.08657 m 0,0 0.03405,-0.384949"
     style="stroke:#ffff00;stroke-width:0.14111112;stroke-miterlimit:4;stroke-dasharray:none"
     id="path132"
     inkscape:connector-curvature="0" />
  <path
     d="m 29.326895,-15.147559 -0.355584,-0.151342 m 0,0 -0.253817,0.291413 m 0,0 0.198717,0.331446 m 0,0 0.376631,-0.08657 m 0,0 0.03405,-0.384948"
     style="stroke:#ffff00;stroke-width:0.14111112;stroke-miterlimit:4;stroke-dasharray:none"
     id="path134"
     inkscape:connector-curvature="0" />
  <path
     d="m 29.769747,-13.222345 -0.355585,-0.151342 m 0,0 -0.253817,0.291413 m 0,0 0.198717,0.331446 m 0,0 0.376631,-0.08657 m 0,0 0.03405,-0.384948"
     style="stroke:#4c9900;stroke-width:0.14111112;stroke-miterlimit:4;stroke-dasharray:none"
     id="path136"
     inkscape:connector-curvature="0" />
  <path
     d="m 30.429864,-18.75566 -0.355584,-0.151343 m 0,0 -0.253817,0.291413 m 0,0 0.198717,0.331446 m 0,0 0.37663,-0.08657 m 0,0 0.03405,-0.384948"
     style="stroke:#4c9900;stroke-width:0.14111112;stroke-miterlimit:4;stroke-dasharray:none"
     id="path138"
     inkscape:connector-curvature="0" />
  <path
     d="m 31.582503,-19.993303 -0.355585,-0.151342 m 0,0 -0.253817,0.291413 m 0,0 0.198717,0.331446 m 0,0 0.376631,-0.08657 m 0,0 0.03405,-0.384948"
     style="stroke:#ffff00;stroke-width:0.14111112;stroke-miterlimit:4;stroke-dasharray:none"
     id="path140"
     inkscape:connector-curvature="0" />
  <path
     d="m 33.953696,-20.505805 0.0133,-0.219845 m 0,0 0.17935,-0.408527 m 0,0 -0.126163,-0.470848 m 0,0 -0.471575,0.126358 m 0,0 -0.328272,-0.416699 m 0,0 -0.188804,-0.165691 m 0,0 -0.606321,0.162463 m 0,0 -0.111978,0.390474 m 0,0 -0.440261,-0.02622 m 0,0 -0.471587,0.126361 m 0,0 -0.278037,0.579159 m 0,0 0.05407,0.201793 m 0,0 -0.404214,0.108309 m 0,0 -0.10342,-0.116478 m 0,0 -0.798963,0.790832 m 0,0 0.0721,0.269061 m 0,0 -0.08925,0.744848 m 0,0 -0.292225,-0.282169 m 0,0 -0.404202,0.108306 m 0,0 0.02275,0.354375 m 0,0 -0.09869,0.170633 m 0,0 0.0189,1.148439 m 0,0 0.305527,0.06232 m 0,0 1.482098,-0.397127 m 0,0 0.144188,0.538116 m 0,0 -0.372889,-0.04427 m 0,0 -0.354865,0.02299 m 0,0 -0.202107,0.05415 m 0,0 -0.215396,0.274002 m 0,0 -0.02659,0.439688 m 0,0 -0.723032,0.265827 m 0,0 -0.278933,-0.502011 m 0,0 -0.07209,-0.269055 m 0,0 0.04463,-0.372428 m 0,0 -0.489612,0.05909 m 0,0 0.270353,1.008969 m 0,0 -0.336841,0.09026 m 0,0 0.126165,0.470853 m 0,0 -0.06264,0.305158 m 0,0 -0.0133,0.219845 m 0,0 -0.246723,0.426579 m 0,0 0.247608,0.654594 m 0,0 0.144187,0.538116 m 0,0 0.22013,0.01311 m 0,0 0.22013,0.01311 m 0,0 -0.179362,0.408531 m 0,0 0.288375,1.076232 m 0,0 0.05879,0.488906 m 0,0 0.07209,0.269055 m 0,0 0.306398,1.143494 m 0,0 0.606321,-0.162463 m 0,0 0.09012,0.3363235 m 0,0 0.0854,0.049216 m 0,0 0.305514,0.062321 m 0,0 0.148036,-0.2559475 m 0,0 -0.03692,-1.215702 m 0,0 0.718298,-0.552937 m 0,0 0.578844,-0.803944 m 0,0 0.108141,0.403586 m 0,0 -0.278049,0.579162 m 0,0 -0.161328,0.47579 m 0,0 -0.246723,0.426579 m 0,0 0.130885,0.757962 m 0,0 0.180233,0.6726409 m 0,0 0.525647,0.07544 m 0,0 0.09012,0.3363176 m 0,0 0.07209,0.2690608 m 0,0 0.539831,0.9367573 m 0,0 0.655659,-0.247775 m 0,0 0.476308,0.160752 m 0,0 0.144188,0.538116 m 0,0 1.419457,-0.09197 m 0,0 0.390912,0.1115365 m 0,0 0.287502,-0.00494 m 0,0 0.741055,-0.198565 m 0,0 -0.0047,-0.2871047 m 0,0 -0.395633,-0.3986498 m 0,0 -0.03605,-0.1345248 m 0,0 0.197373,-0.3412646 m 0,0 -0.07209,-0.2690553 m 0,0 0.223979,-0.7809552 m 0,0 0.556971,-0.077148 m 0,0 0.234305,0.8744392 m 0,0 0.220131,0.013114 m 0,0 0.691705,-0.1132501 m 0,0 0.341573,0.1968483 m 0,0 0.32354,0.1295946 m 0,0 1.248676,-0.1903984 m 0,0 -0.05879,-0.4889005 m 0,0 0.803695,-0.5037278 m 0,0 0.296073,-0.511895 m 0,0 -0.333004,-0.703803 m 0,0 0.471587,-0.126362 m 0,0 0.336841,-0.09026 m 0,0 0.390911,0.111537 m 0,0 0.604177,-0.13694 m 0,0 -0.308103,-0.374955 m 0,0 -0.408936,-0.178804 m 0,0 -0.03605,-0.134525 m 0,0 0.251444,-0.139472 m 0,0 0.26948,-0.07221 m 0,0 0.16606,-0.188685 m 0,0 -0.09012,-0.336317 m 0,0 0.215397,-0.273997 m 0,0 0.03605,0.134525 m 0,0 0.26948,-0.07221 m 0,0 0.375503,-0.496419 m 0,0 -0.23692,-0.333746 m 0,0 -0.22013,-0.01311 m 0,0 -0.05407,-0.201793 m 0,0 0.111989,-0.390478 m 0,0 0.01329,-0.219842 m 0,0 -0.0721,-0.269061 m 0,0 0.233434,-0.206731 m 0,0 0.166059,-0.188685 m 0,0 0.170842,-0.453243 m 0,0 -0.436472,-0.268613 m 0,0 0.09397,-0.45774 m 0,0 0.03131,-0.15258 m 0,0 -0.139456,-0.251012 m 0,0 -0.188804,-0.165691 m 0,0 -0.0047,-0.287104 m 0,0 -0.103409,-0.116481 m 0,0 -0.44883,0.480734 m 0,0 -0.840626,-0.711976 m 0,0 0.05407,0.201792 m 0,0 -0.143303,0.543058 m 0,0 -0.31883,0.157522 m 0,0 -0.318817,0.157524 m 0,0 -0.130013,0.323209 m 0,0 -0.405087,-0.972867 m 0,0 0.570275,-0.296988 m 0,0 0.404214,-0.108309 m 0,0 0.02659,-0.439693 m 0,0 0.417505,-0.328151 m 0,0 0.502902,-0.278936 m 0,0 0.06264,-0.305162 m 0,0 -0.328258,-0.416697 m 0,0 -0.07209,-0.269061 m 0,0 -0.206839,-0.23295 m 0,0 -0.134734,0.0361 m 0,0 -0.184084,0.121416 m 0,0 -0.336841,0.09026 m 0,0 -0.139466,-0.251003 m 0,0 -0.108142,-0.403591 m 0,0 -0.188804,-0.165691 m 0,0 -0.463004,-0.380592 m 0,0 -0.193538,-0.452801 m 0,0 -0.269468,0.0722 m 0,0 0.126165,0.470853 m 0,0 -0.233434,0.206732 m 0,0 -0.166048,0.188682 m 0,0 -0.614891,0.669419 m 0,0 -0.130013,0.323209 m 0,0 0.05879,0.488906 m 0,0 -0.566415,-0.497078 m 0,0 0.241992,-0.713684 m 0,0 0.381469,-0.462685 m 0,0 0.345412,-0.597206 m 0,0 0.06264,-0.305163 m 0,0 -0.364317,-0.551224 m 0,0 -0.903266,-0.406813 m 0,0 -0.745777,-0.08855 m 0,0 -0.714449,-0.241126 m 0,0 -0.745788,-0.08854 m 0,0 -0.04462,0.372425 m 0,0 -0.606309,0.16246 m 0,0 0.10814,0.403586 m 0,0 0.05407,0.201798 m 0,0 -0.417517,0.328154 m 0,0 0.09012,0.336323 m 0,0 -0.614892,0.669414 m 0,0 -0.0086,0.506955 m 0,0 -0.332121,0.377364 m 0,0 -0.288375,-1.076232"
     style="stroke:#729900;stroke-width:0.14111112;stroke-miterlimit:4;stroke-dasharray:none"
     id="path142"
     inkscape:connector-curvature="0" />
  <path
     d="m 32.992254,-10.358161 -0.355584,-0.151343 m 0,0 -0.253817,0.291414 m 0,0 0.198717,0.3314454 m 0,0 0.376631,-0.086569 m 0,0 0.03405,-0.3849484"
     style="stroke:#ffff00;stroke-width:0.14111112;stroke-miterlimit:4;stroke-dasharray:none"
     id="path144"
     inkscape:connector-curvature="0" />
</svg>
