<?xml version="1.0" encoding="UTF-8" standalone="no"?>
<!-- 2015-11-17 19:43:12 Generated by QCAD SVG Exporter -->

<svg
   xmlns:dc="http://purl.org/dc/elements/1.1/"
   xmlns:cc="http://creativecommons.org/ns#"
   xmlns:rdf="http://www.w3.org/1999/02/22-rdf-syntax-ns#"
   xmlns:svg="http://www.w3.org/2000/svg"
   xmlns="http://www.w3.org/2000/svg"
   xmlns:sodipodi="http://sodipodi.sourceforge.net/DTD/sodipodi-0.dtd"
   xmlns:inkscape="http://www.inkscape.org/namespaces/inkscape"
   width="4.146676047894406mm"
   height="4.263842608652949mm"
   viewBox="24.926661976052817 -17.131921304326482 4.146676047894406 4.263842608652949"
   version="1.1"
   style="stroke-linecap:round;stroke-linejoin:round;fill:none"
   id="svg2"
   inkscape:version="0.91 r13725"
   sodipodi:docname="Prostrate_2_test.svg">
  <metadata
     id="metadata14">
    <rdf:RDF>
      <cc:Work
         rdf:about="">
        <dc:format>image/svg+xml</dc:format>
        <dc:type
           rdf:resource="http://purl.org/dc/dcmitype/StillImage" />
        <dc:title></dc:title>
      </cc:Work>
    </rdf:RDF>
  </metadata>
  <defs
     id="defs12" />
  <sodipodi:namedview
     pagecolor="#ffffff"
     bordercolor="#666666"
     borderopacity="1"
     objecttolerance="10"
     gridtolerance="10"
     guidetolerance="10"
     inkscape:pageopacity="0"
     inkscape:pageshadow="2"
     inkscape:window-width="704"
     inkscape:window-height="480"
     id="namedview10"
     showgrid="false"
     inkscape:zoom="15.620756"
     inkscape:cx="7.4745081"
     inkscape:cy="7.5540518"
     inkscape:window-x="75"
     inkscape:window-y="70"
     inkscape:window-maximized="0"
     inkscape:current-layer="svg2" />
  <g
     transform="scale(1,-1)"
     id="g4"
     style="stroke-width:0.05644444;stroke-miterlimit:4;stroke-dasharray:none">
    <!-- Block Reference: A$C447A6AB0 / entities: 1 -->
    <g
       id="g6"
       style="stroke-width:0.05644444;stroke-miterlimit:4;stroke-dasharray:none">
      <!-- Polyline -->
      <path
         d="M26.736246864548853,16.998074585355454 A0.19505851426454182,0.19505851426454182 0 0,0 26.66040228480491,17.002329446139612 M26.66040228480491,17.002329446139612 A0.29738708384476636,0.29738708384476636 0 0,1 26.567017063429226,17.011100810422647 M26.567017063429226,17.011100810422647 A0.7799140143898826,0.7799140143898826 0 0,1 26.49878230412613,17.003652345725584 M26.49878230412613,17.003652345725584 A1.7457545963705614,1.7457545963705614 0 0,1 26.39778726230937,16.98504836028826 M26.39778726230937,16.98504836028826 A0.6139118010798739,0.6139118010798739 0 0,1 26.290460726653315,16.951459560886548 M26.290460726653315,16.951459560886548 A0.16429883200321577,0.16429883200321577 0 0,1 26.241575138198947,16.91991723495238 M26.241575138198947,16.91991723495238 A0.06775592627042568,0.06775592627042568 0 0,1 26.224894342633284,16.89553694157297 M26.224894342633284,16.89553694157297 A0.13573257735873273,0.13573257735873273 0 0,1 26.215539784180542,16.85478610961647 M26.215539784180542,16.85478610961647 A0.1016705843155077,0.1016705843155077 0 0,1 26.223494606899827,16.807544607634554 M26.223494606899827,16.807544607634554 A0.12838206044806005,0.12838206044806005 0 0,1 26.25459281520815,16.7636025341462 M26.25459281520815,16.7636025341462 A0.12346359109914108,0.12346359109914108 0 0,1 26.33836982690203,16.731005416089175 M26.33836982690203,16.731005416089175 A0.25300538449641397,0.25300538449641397 0 0,0 26.462875647355382,16.698471408810292 M26.462875647355382,16.698471408810292 A0.7268814353953983,0.7268814353953983 0 0,0 26.542610328416764,16.64642834639926 M26.542610328416764,16.64642834639926 A0.10243613908385343,0.10243613908385343 0 0,0 26.567017063429226,16.62031405840719 M26.567017063429226,16.62031405840719 A0.09771493454069187,0.09771493454069187 0 0,0 26.582796559839686,16.567071289783662 M26.582796559839686,16.56707128978309 A0.19585520859098182,0.19585520859098182 0 0,0 26.567017063429226,16.490051807735398 M26.567017063429226,16.490051807735398 A0.518362510317237,0.518362510317237 0 0,0 26.53006909639256,16.419294430568414 M26.53006909639256,16.419294430568414 A0.1554615802880596,0.1554615802880596 0 0,0 26.50192867838299,16.385842007197937 M26.50192867838299,16.385842007197937 A0.8136990137775324,0.8136990137775324 0 0,0 26.467592622377275,16.356761495158196 M26.467592622377275,16.356761495158196 A0.5931323096312752,0.5931323096312752 0 0,0 26.436840293336978,16.33373710692922 M26.436840293336978,16.33373710692922 A0.6503527739075161,0.6503527739075161 0 0,0 26.386949606153244,16.302119706538292 M26.386949606153244,16.302119706538292 A0.3951810743979575,0.3951810743979575 0 0,0 26.345716554272563,16.281632206660504 M26.345716554272563,16.281632206660504 A0.07746140323101972,0.07746140323101972 0 0,0 26.326309957555928,16.27621065390494 M26.326309957555928,16.27621065390494 A0.9923189820218397,0.9923189820218397 0 0,0 26.25459281520815,16.26860598159331 M26.25459281520815,16.26860598159331 A0.37519041218487004,0.37519041218487004 0 0,0 26.13188277780167,16.280389669117397 M26.13188277780167,16.280389669117397 A0.17010893754221929,0.17010893754221929 0 0,0 26.059327660070117,16.320710881862027 M26.059327660070117,16.320710881862027 A0.12435467236543722,0.12435467236543722 0 0,0 26.03318800069868,16.355801571812265 M26.03318800069868,16.355801571812265 A0.018802486176665894,0.018802486176665894 0 0,0 26.033292306051713,16.372815782130772 M26.033292306051713,16.372815782130772 A0.05315371513146797,0.05315371513146797 0 0,0 26.06535132395296,16.399411714334406 M26.06535132395296,16.399411714334406 A0.20466033427061076,0.20466033427061076 0 0,1 26.13743372212533,16.437946907466653 M26.13743372212533,16.437946907466653 A0.8034457418274862,0.8034457418274862 0 0,1 26.19309204078089,16.48865109823484 M26.19309204078089,16.48865109823484 A0.17823905172853122,0.17823905172853122 0 0,1 26.215539784180542,16.516104257869756 M26.215539784180542,16.516104257869756 A0.0758976730060248,0.0758976730060248 0 0,1 26.227729791288617,16.56644037020763 M26.227729791288617,16.56644037020763 A0.14461916946735132,0.14461916946735132 0 0,1 26.20252210717134,16.633340283474382 M26.20252210717134,16.633340283474382 A0.2232647823116499,0.2232647823116499 0 0,1 26.16489078952562,16.674888038928657 M26.16489078952562,16.674888038928657 A0.29853369279159025,0.29853369279159025 0 0,1 26.111398368106926,16.711497633877457 M26.111398368106926,16.711497633877457 A0.4839941302920965,0.4839941302920965 0 0,1 26.02544511946538,16.74733637526583 M26.02544511946538,16.74733637526583 A0.40179882771203157,0.40179882771203157 0 0,1 25.9421685669873,16.7636025341462 M25.9421685669873,16.7636025341462 A0.2981417974466433,0.2981417974466433 0 0,1 25.879225511763785,16.762427793725607 M25.879225511763785,16.762427793725607 A0.13825007985154195,0.13825007985154195 0 0,1 25.838027150913682,16.75057630907901 M25.838027150913682,16.75057630907901 A0.18097915264401615,0.18097915264401615 0 0,1 25.776973129632175,16.7042460456112 M25.776973129632175,16.7042460456112 A0.8491506069476572,0.8491506069476572 0 0,1 25.68181502680303,16.568209158138473 M25.68181502680303,16.568209158138473 A1.6819527977463808,1.6819527977463808 0 0,1 25.643106175040508,16.4952749367539 M25.643106175040508,16.4952749367539 A0.982458194325736,0.982458194325736 0 0,1 25.61672664175702,16.437946907466653 M25.61672664175702,16.437946907466653 A0.4661451202745813,0.4661451202745813 0 0,1 25.587594687854185,16.34012386098925 M25.587594687854185,16.34012386098925 A0.09291985813301062,0.09291985813301062 0 0,1 25.590691287738615,16.29465843172767 M25.590691287738615,16.29465843172767 A0.10275765269276244,0.10275765269276244 0 0,1 25.61568464581577,16.253930515128218 M25.61568464581577,16.253930515128218 A0.4632610688005018,0.4632610688005018 0 0,1 25.69483270381223,16.190448631190236 M25.69483270381223,16.190448631190236 A1.109878240831567,1.109878240831567 0 0,1 25.79525572300448,16.1337097441681 M25.79525572300448,16.1337097441681 A0.7465377041853427,0.7465377041853427 0 0,0 25.877080181941288,16.086238830652775 M25.877080181941288,16.086238830652775 A0.9942759008524178,0.9942759008524178 0 0,0 25.921463548556027,16.054789859517967 M25.921463548556027,16.054789859517967 A0.0394184641123207,0.0394184641123207 0 0,0 25.929150889978096,16.047160155451223 M25.929150889978096,16.047160155451223 A0.024606997321686364,0.024606997321686364 0 0,0 25.93371141692804,16.037064841971755 M25.93371141692804,16.037064841971755 A0.6217160040343694,0.6217160040343694 0 0,0 25.9421685669873,15.982029030115312 M25.9421685669873,15.982029030115312 A0.7229170112661968,0.7229170112661968 0 0,0 25.94635546177286,15.904337171843139 M25.94635546177286,15.904337171841751 A0.5159487558356076,0.5159487558356076 0 0,0 25.9421685669873,15.838740554376328 M25.9421685669873,15.838740554376328 A0.25759234121760305,0.25759234121760305 0 0,0 25.925856701215103,15.775877024934145 M25.925856701215103,15.775877024934145 A0.35551285286389006,0.35551285286389006 0 0,0 25.89009785895049,15.708478303704537 M25.89009785895049,15.708478303704537 A0.17146033998756732,0.17146033998756732 0 0,0 25.869413215814426,15.683425815725114 M25.869413215814426,15.683425815725114 A0.27890903401619416,0.27890903401619416 0 0,0 25.838027150913682,15.656373403435792 M25.838027150913682,15.656373403435792 A0.1057910478725227,0.1057910478725227 0 0,0 25.786792109978784,15.636272317316012 M25.786792109978784,15.636272317316012 A0.1535319644535067,0.1535319644535067 0 0,0 25.720868057830863,15.643347178368627 M25.720868057830863,15.643347178368627 A0.1048635519050489,0.1048635519050489 0 0,0 25.673726876746365,15.675630334915239 M25.673726876746365,15.675630334915239 A0.07794655682892547,0.07794655682892547 0 0,0 25.655779672784625,15.721504528771701 M25.655779672784625,15.721504528771701 A0.08425478025393589,0.08425478025393589 0 0,0 25.681330985431565,15.786381574248024 M25.681330985431565,15.786381574248024 A0.13363775357997126,0.13363775357997126 0 0,1 25.720868057830863,15.864793004510686 M25.720868057830863,15.864793004510686 A0.48514751045979015,0.48514751045979015 0 0,1 25.725104308104925,15.928765394898312 M25.725104308104925,15.92876539489983 A0.08951246513305351,0.08951246513305351 0 0,1 25.720868057830863,15.955976579980954 M25.720868057830863,15.955976579980954 A0.1204642038772048,0.1204642038772048 0 0,1 25.691313929212207,16.00450936825655 M25.691313929212207,16.00450936825655 A0.12068905645442685,0.12068905645442685 0 0,1 25.642761995775423,16.03413393038406 M25.642761995775423,16.03413393038406 A0.5866908448554181,0.5866908448554181 0 0,1 25.606173681558936,16.044558536715243 M25.606173681558936,16.044558536715243 A1.9487697874343772,1.9487697874343772 0 0,1 25.538620579701806,16.060186380518417 M25.538620579701806,16.060186380518417 A1.971063300629184,1.971063300629184 0 0,1 25.407527796508326,16.083468843776814 M25.407527796508326,16.083468843776814 A0.2918087409898143,0.2918087409898143 0 0,1 25.356373101572977,16.086238830652775 M25.356373101572977,16.086238830652775 A0.07205033565166387,0.07205033565166387 0 0,1 25.32656885287073,16.07866495325197 M25.32656885287073,16.078664953251973 A0.5721185974470976,0.5721185974470976 0 0,1 25.25223168549936,16.03413393038406 M25.25223168549936,16.03413393038406 A0.6109464757448233,0.6109464757448233 0 0,1 25.140986874741508,15.932759992315424 M25.140986874741508,15.932759992315424 A0.23146295376531414,0.23146295376531414 0 0,1 25.096019561388935,15.85176677944352 M25.096019561388935,15.85176677944352 A1.000954795356053,1.000954795356053 0 0,1 25.079565911065707,15.793470598354785 M25.079565911065707,15.793470598354785 A0.6001279632753247,0.6001279632753247 0 0,1 25.06998420737053,15.74755697890606 M25.06998420737053,15.74755697890606 A0.9565431806835364,0.9565431806835364 0 0,1 25.059831627066465,15.665825601858272 M25.059831627066465,15.665825601858266 A3.3255004417527094,3.3255004417527094 0 0,0 25.043948853352127,15.513084927696806 M25.043948853352127,15.513084927696807 A0.49020369351773624,0.49020369351773624 0 0,0 25.008537392427193,15.38261717623652 M25.008537392427193,15.38261717623652 A0.39098863613652,0.39098863613652 0 0,1 24.978860468306117,15.265586651420362 M24.978860468306117,15.265586651420362 A0.11615569087358617,0.11615569087358617 0 0,1 25.075402550363684,15.140188215971364 M25.075402550363684,15.140188215971362 A0.12259402677585471,0.12259402677585471 0 0,1 25.213178654471754,15.22650797621881 M25.213178654471754,15.22650797621881 A0.07508203221113689,0.07508203221113689 0 0,1 25.20232348100634,15.291233635699397 M25.20232348100634,15.291233635699397 A0.04814624179705407,0.04814624179705407 0 0,0 25.200160977462552,15.343744001823465 M25.200160977462552,15.343744001823465 A0.0982338179291046,0.0982338179291046 0 0,0 25.21512544804576,15.363000944353272 M25.21512544804576,15.363000944353272 A0.16073099622140305,0.16073099622140305 0 0,0 25.23921400849016,15.382822677024988 M25.23921400849016,15.382822677024988 A0.1118280948328436,0.1118280948328436 0 0,0 25.325000769174572,15.399325949230073 M25.325000769174572,15.399325949230073 A0.18161028212086325,0.18161028212086325 0 0,0 25.421461486618988,15.343744001823465 M25.421461486618988,15.343744001823465 A0.18554718352058086,0.18554718352058086 0 0,0 25.460044841440855,15.277748102886504 M25.460044841440855,15.277748102886504 A0.26476997400013436,0.26476997400013436 0 0,0 25.473532194655796,15.187429301017287 M25.473532194655796,15.187429301017287 A0.3270427767699386,0.3270427767699386 0 0,0 25.448507236443298,15.069916449747181 M25.448507236443298,15.069916449747181 A0.07047335511916074,0.07047335511916074 0 0,0 25.408443809609786,15.03111460021111 M25.408443809609786,15.03111460021111 A0.19228446337436908,0.19228446337436908 0 0,0 25.355002278279777,15.019181157093753 M25.355002278279777,15.019181157093751 A0.8598482418545733,0.8598482418545733 0 0,0 25.23921400849016,15.018088375143916 M25.23921400849016,15.018088375143916 A0.2842726089347886,0.2842726089347886 0 0,0 25.15259638006713,15.036958979251379 M25.15259638006713,15.036958979251379 A0.11765297791334696,0.11765297791334696 0 0,1 25.096019561388935,15.044140825278275 M25.096019561388935,15.044140825278275 A0.08370945608091739,0.08370945608091739 0 0,1 25.03346315271468,15.002939690138389 M25.03346315271468,15.002939690138389 A0.7319530660512003,0.7319530660512003 0 0,1 24.952825114287712,14.796642549001858 M24.952825114287712,14.796642549001858 A2.044594143563779,2.044594143563779 0 0,1 24.931000596763475,14.68490307994304 M24.931000596763475,14.68490307994304 A0.3162132465164175,0.3162132465164175 0 0,1 24.92678976026931,14.64032784819568 M24.92678976026931,14.640327848195678 A0.4695506321557553,0.4695506321557553 0 0,1 24.93240048237893,14.556188600176169 M24.93240048237893,14.55618860017617 A1.8360068577679831,1.8360068577679831 0 0,1 24.965842791296915,14.392829571919235 M24.965842791296915,14.392829571919235 A0.83063351933765,0.83063351933765 0 0,1 25.020429971343752,14.240807874749093 M25.020429971343752,14.240807874749093 A0.414866050546478,0.414866050546478 0 0,1 25.083001884379733,14.145331295642789 M25.083001884379733,14.145331295642789 A0.22817296962028524,0.22817296962028524 0 0,1 25.152725531277916,14.091410710469487 M25.152725531277916,14.091410710469487 A0.23695062717464574,0.23695062717464574 0 0,1 25.23921400849016,14.067173945239714 M25.23921400849016,14.067173945239714 A0.2224868486686588,0.2224868486686588 0 0,1 25.30121711365708,14.070742622755175 M25.30121711365708,14.070742622755175 A0.29724563808546034,0.29724563808546034 0 0,1 25.36939077858218,14.093226395374073 M25.36939077858218,14.093226395374074 A0.09937358732455084,0.09937358732455084 0 0,1 25.422337520043435,14.15478577361088 M25.422337520043435,14.15478577361088 A0.08622814800842483,0.08622814800842483 0 0,0 25.473532194655796,14.210462420978699 M25.473532194655796,14.210462420978699 A0.12792204816133923,0.12792204816133923 0 0,0 25.543081298458524,14.2172062177101 M25.543081298458524,14.217206217710098 A0.17027859097012785,0.17027859097012785 0 0,0 25.61672664175702,14.18440997084434 M25.61672664175702,14.18440997084434 A0.22781269951780964,0.22781269951780964 0 0,0 25.672801277616223,14.121306234789442 M25.672801277616223,14.121306234789442 A0.15969705323133732,0.15969705323133732 0 0,0 25.69483270381223,14.054147720172521 M25.69483270381223,14.054147720172521 A0.21864400429276618,0.21864400429276618 0 0,0 25.692823785497772,13.997736585473175 M25.692823785497772,13.997736585473175 A0.040767135577246566,0.040767135577246566 0 0,0 25.68181502680303,13.975990369769447 M25.68181502680303,13.975990369769447 A0.06553557365310625,0.06553557365310625 0 0,0 25.65922029465181,13.960873055869056 M25.65922029465181,13.960873055869056 A1.1476273543114566,1.1476273543114566 0 0,0 25.55163825671101,13.923885469500702 M25.55163825671101,13.923885469500702 A0.33115563527366093,0.33115563527366093 0 0,0 25.422716182210557,13.912908437381502 M25.422716182210557,13.912908437381502 A0.1732990968761083,0.1732990968761083 0 0,1 25.330337747554573,13.897833019366344 M25.330337747554573,13.897833019366344 A0.1085018527605146,0.1085018527605146 0 0,1 25.274481117398942,13.83752143022616 M25.274481117398942,13.83752143022616 A0.3601664747096178,0.3601664747096178 0 0,1 25.25223168549936,13.68941341829145 M25.25223168549936,13.689413418291448 A0.5233106866488412,0.5233106866488412 0 0,1 25.26969596848297,13.583360785518265 M25.26969596848297,13.583360785518265 A0.08392160471790482,0.08392160471790482 0 0,1 25.291284716526967,13.546124942552465 M25.291284716526967,13.546124942552465 A0.3969225953679262,0.3969225953679262 0 0,1 25.357392125885177,13.49279349988768 M25.357392125885177,13.49279349988768 A0.9667908809125169,0.9667908809125169 0 0,1 25.473532194655796,13.42888891694781 M25.473532194655796,13.428888916947809 A3.9530477131114803,3.9530477131114803 0 0,1 25.602424863023167,13.371856005335529 M25.602424863023163,13.371856005335527 A3.234389278945262,3.234389278945262 0 0,1 25.72086805783086,13.324679116410376 M25.720868057830863,13.324679116410378 A1.1452440105240926,1.1452440105240926 0 0,1 25.831961167607083,13.289287472745853 M25.831961167607083,13.289287472745853 A1.6382676482719327,1.6382676482719327 0 0,1 25.968203921005703,13.259547991074497 M25.968203921005703,13.259547991074497 A0.36717207393763346,0.36717207393763346 0 0,1 26.113782717800937,13.263523571499205 M26.113782717800937,13.263523571499205 A0.031016302233214818,0.031016302233214818 0 0,1 26.13743372212533,13.298626666275991 M26.13743372212533,13.298626666275991 A0.1007234710084752,0.1007234710084752 0 0,1 26.123763281590605,13.335536179164135 M26.123763281590605,13.335536179164135 A1.6724303635800448,1.6724303635800448 0 0,1 26.033292306051713,13.467967592149362 M26.033292306051713,13.46796759214936 A0.42250969261812804,0.42250969261812804 0 0,1 25.977362332728113,13.528600662433572 M25.977362332728113,13.528600662433574 A0.08848864667210135,0.08848864667210135 0 0,0 25.9551862439965,13.55915116761963 M25.9551862439965,13.55915116761963 A0.023033282701704252,0.023033282701704252 0 0,0 25.96213673104679,13.586571115116666 M25.96213673104679,13.586571115116667 A0.4666669430615214,0.4666669430615214 0 0,0 26.07234533707932,13.650334743089898 M26.07234533707932,13.6503347430899 A0.5518055347908092,0.5518055347908092 0 0,0 26.15678861440923,13.677133573349463 M26.15678861440923,13.677133573349463 A0.5160000217805332,0.5160000217805332 0 0,0 26.241575138198947,13.68941341829145 M26.241575138198947,13.68941341829145 A0.3600203390952872,0.3600203390952872 0 0,0 26.370872173405438,13.673668727818038 M26.370872173405438,13.673668727818038 A0.1841474783456266,0.1841474783456266 0 0,0 26.44985797034618,13.624282292955568 M26.44985797034618,13.624282292955568 A0.21930413295891385,0.21930413295891385 0 0,0 26.486517793119752,13.571812496217488 M26.486517793119752,13.571812496217488 A0.3671918730035304,0.3671918730035304 0 0,0 26.51494635539219,13.494020042283749 M26.51494635539219,13.494020042283749 A0.407861785598456,0.407861785598456 0 0,0 26.526380308214208,13.39812317293059 M26.526380308214208,13.398123172931442 A0.1039316704398715,0.1039316704398715 0 0,0 26.51494635539219,13.350731566544765 M26.51494635539219,13.350731566544765 A0.11602985304698948,0.11602985304698948 0 0,0 26.466166752415653,13.301198226652557 M26.466166752415653,13.30119822665256 A0.4335550001738155,0.4335550001738155 0 0,1 26.358734231281765,13.220469315872947 M26.358734231281765,13.220469315872945 A1.2576051896320042,1.2576051896320042 0 0,1 26.224370694635432,13.056463430071402 M26.224370694635432,13.056463430071402 A0.05736848197737903,0.05736848197737903 0 0,1 26.215539784180542,13.012049714798023 M26.215539784180542,13.012049714798023 A0.0638561560880993,0.0638561560880993 0 0,1 26.249428255006556,12.968218670368458 M26.249428255006556,12.968218670368458 A0.7085235456791125,0.7085235456791125 0 0,1 26.423822616327776,12.907839914260592 M26.423822616327776,12.907839914260588 A2.9450704695780465,2.9450704695780465 0 0,1 26.59993314883885,12.877184483508582 M26.59993314883885,12.877184483508584 A0.8783774041715221,0.8783774041715221 0 0,1 26.697193833521247,12.868761239059038 M26.697193833521247,12.868761239059038 A1.4400837771249606,1.4400837771249606 0 0,1 26.82146013412588,12.870298822144148 M26.82146013412588,12.870298822144148 A1.141607464684164,1.141607464684164 0 0,1 26.931512019686885,12.881787464126203 M26.931512019686885,12.881787464126205 A0.31349911327872426,0.31349911327872426 0 0,1 26.99108753995923,12.897046542218618 M26.99108753995923,12.897046542218616 A0.6921150533659729,0.6921150533659729 0 0,1 27.074706466788108,12.933892364394977 M27.074706466788108,12.933892364394977 A0.23730471695977617,0.23730471695977617 0 0,1 27.165134586580358,13.01691582091854 M27.165134586580358,13.01691582091854 A0.05719756821277175,0.05719756821277175 0 0,1 27.165830205852522,13.07718084013396 M27.165830205852522,13.07718084013396 A0.20434509340678486,0.20434509340678486 0 0,1 27.12904459155137,13.12212220352012 M27.12904459155137,13.122122203520119 A1.450074809487132,1.450074809487132 0 0,1 27.009618081742097,13.220469315872945 M27.009618081742097,13.220469315872945 A0.7356325548817085,0.7356325548817085 0 0,1 26.94394071215205,13.26369340801716 M26.94394071215205,13.263693408017161 A0.46060940864543937,0.46060940864543937 0 0,0 26.89245898865928,13.298626666275993 M26.89245898865928,13.298626666275991 A0.18910120963348803,0.18910120963348803 0 0,0 26.826517075044954,13.397850886014337 M26.826517075044954,13.397850886014337 A0.46961627536697753,0.46961627536697753 0 0,0 26.814352926604066,13.585203617754017 M26.814352926604066,13.585203617754017 A0.37747109706879334,0.37747109706879334 0 0,0 26.833545263859,13.662793975418593 M26.833545263859,13.662793975418593 A0.31889542649776437,0.31889542649776437 0 0,0 26.866423634640874,13.728492093493001 M26.866423634640874,13.728492093493001 A0.22557848391064061,0.22557848391064061 0 0,0 26.95424498423366,13.806710753408082 M26.95424498423366,13.806710753408082 A0.14816561374298665,0.14816561374298665 0 0,0 27.048671112769703,13.819675668963269 M27.048671112769703,13.819675668963269 A0.14753128506023377,0.14753128506023377 0 0,0 27.125016498089813,13.779113724899501 M27.125016498089813,13.779113724899501 A0.05489471621039284,0.05489471621039284 0 0,0 27.139794851834118,13.728492093493001 M27.139794851834118,13.728492093493001 A0.05051261829653223,0.05051261829653223 0 0,0 27.10736400585082,13.691764073394891 M27.10736400585082,13.69176407339489 A0.08000976796413466,0.08000976796413466 0 0,1 27.061688789778906,13.650334743089898 M27.061688789778906,13.650334743089898 A0.2591659367717138,0.2591659367717138 0 0,1 27.037168442328344,13.540296430694218 M27.037168442328344,13.540296430694038 A0.16082019920760088,0.16082019920760088 0 0,1 27.061688789778906,13.454941367082197 M27.061688789778906,13.454941367082197 A0.3327471272529665,0.3327471272529665 0 0,1 27.10833680993104,13.396335860946463 M27.10833680993104,13.396335860946461 A0.498728350404348,0.498728350404348 0 0,1 27.178847882861724,13.337705341477541 M27.178847882861724,13.337705341477543 A0.21048415509038718,0.21048415509038718 0 0,1 27.27103182880804,13.30248291436129 M27.27103182880804,13.30248291436129 A0.07557419101294285,0.07557419101294285 0 0,0 27.322042329962947,13.272574216141662 M27.322042329962947,13.272574216141662 A0.11105486960419184,0.11105486960419184 0 0,0 27.33686113113057,13.24535461080927 M27.33686113113057,13.24535461080927 A0.7532494416910718,0.7532494416910718 0 0,0 27.361095360990554,13.168364415604229 M27.361095360990554,13.168364415604229 A0.2498530245936367,0.2498530245936367 0 0,0 27.365379290124643,13.064155198578872 M27.365379290124643,13.064155198578872 A0.14206090981453723,0.14206090981453723 0 0,1 27.374113037999756,12.985997264663693 M27.374113037999756,12.985997264663693 A0.07846399806321869,0.07846399806321869 0 0,1 27.39638208879395,12.955693371959795 M27.39638208879395,12.955693371959795 A0.24027427677107122,0.24027427677107122 0 0,1 27.452219100055196,12.920866139327755 M27.452219100055196,12.920866139327755 A0.23917467451118685,0.23917467451118685 0 0,1 27.587139028427906,12.902979506495909 M27.587139028427906,12.902979506495909 A0.20507476074069597,0.20507476074069597 0 0,1 27.699554963230035,12.959944814529306 M27.699554963230035,12.959944814529306 A0.7103619238025509,0.7103619238025509 0 0,1 27.70970658860127,12.970221291477456 M27.70970658860127,12.970221291477456 A0.05370526486900985,0.05370526486900985 0 0,0 27.712572640239237,12.972971039596471 M27.712572640239237,12.972971039596473 A1.1817973041241525,1.1817973041241525 0 0,0 27.734711597127976,12.992204932520053 M27.734711597127973,12.99220493252005 A11.309726307751424,11.309726307751424 0 0,1 27.803696379303652,13.051128389999574 M27.803696379303652,13.051128389999572 A2.9946461706981986,2.9946461706981986 0 0,1 27.864759478494612,13.105175797039692 M27.864759478494612,13.105175797039688 A5.65361836442073,5.65361836442073 0 0,1 27.946890826404875,13.181390640671394 M27.946890826404875,13.181390640671394 A0.19596402908400853,0.19596402908400853 0 0,1 28.006943991327567,13.302080884994323 M28.006943991327567,13.302080884994323 A0.15208574254245574,0.15208574254245574 0 0,1 27.97292618042328,13.415862691880646 M27.97292618042328,13.415862691880644 A0.42670372334569207,0.42670372334569207 0 0,1 27.94609605525246,13.445344550383705 M27.94609605525246,13.445344550383707 A0.3085111704058049,0.3085111704058049 0 0,1 27.92085547238647,13.467967592149362 M27.92085547238647,13.467967592149362 A0.19985351018759465,0.19985351018759465 0 0,1 27.863352504530972,13.50014677546818 M27.863352504530972,13.50014677546818 A0.2137809458116361,0.2137809458116361 0 0,0 27.803696379303652,13.5330987174853 M27.803696379303652,13.5330987174853 A0.10894412571363173,0.10894412571363173 0 0,0 27.768505926855674,13.581637078955735 M27.768505926855674,13.581637078955735 A0.28074633776796626,0.28074633776796626 0 0,0 27.751625671266844,13.676387193224283 M27.751625671266844,13.676387193224283 A0.1885840977644668,0.1885840977644668 0 0,0 27.78512288260739,13.784447519775226 M27.78512288260739,13.784447519775226 A0.15846045161994984,0.15846045161994984 0 0,0 27.868784764349662,13.845728119097627 M27.868784764349662,13.845728119097627 A0.21315391581859613,0.21315391581859613 0 0,0 27.931537287367142,13.85517461560181 M27.931537287367142,13.85517461560181 A0.24534309559710243,0.24534309559710243 0 0,0 27.998961534441683,13.845728119097627 M27.998961534441683,13.845728119097627 A0.2993142459048683,0.2993142459048683 0 0,0 28.10054147170566,13.79414432141712 M28.10054147170566,13.79414432141712 A0.04175964417770412,0.04175964417770412 0 0,0 28.116120627524502,13.75454454362736 M28.116120627524502,13.75454454362736 A0.07180818871791235,0.07180818871791235 0 0,0 28.100275835328453,13.719861352468397 M28.100275835328453,13.719861352468397 A0.11994319765794952,0.11994319765794952 0 0,1 28.077067596496896,13.676387193224285 M28.077067596496896,13.676387193224285 A0.338471004923056,0.338471004923056 0 0,1 28.065239558403697,13.615386533061665 M28.065239558403697,13.615386533061665 A0.4206652176117629,0.4206652176117629 0 0,1 28.064049919487694,13.546124942552465 M28.064049919487694,13.546124942552465 A0.14904067298958049,0.14904067298958049 0 0,1 28.092558656287643,13.467744076997006 M28.092558656287643,13.467744076997006 A0.5751553822786821,0.5751553822786821 0 0,1 28.207244366588917,13.350731566544765 M28.207244366588917,13.350731566544763 A0.454640847629891,0.454640847629891 0 0,1 28.367523884684793,13.272316416409636 M28.367523884684793,13.272316416409634 A0.1107422818920224,0.1107422818920224 0 0,1 28.454580229763984,13.285600441208826 M28.454580229763984,13.285600441208826 A0.31058180364956106,0.31058180364956106 0 0,1 28.5092028156076,13.329145355413855 M28.5092028156076,13.329145355413855 A1.8431704822060875,1.8431704822060875 0 0,1 28.62381003088361,13.454941367082197 M28.62381003088361,13.454941367082196 A2.231889789975454,2.231889789975454 0 0,1 28.77615078426887,13.661633678727409 M28.77615078426887,13.66163367872741 A0.3546049293209784,0.3546049293209784 0 0,1 28.819075186021642,13.75454454362736 M28.819075186021642,13.75454454362736 A0.1331281554071104,0.1331281554071104 0 0,1 28.821152036334375,13.82226993502172 M28.821152036334375,13.82226993502172 A0.34847256494357237,0.34847256494357237 0 0,1 28.780022154994036,13.923885469500702 M28.780022154994036,13.923885469500702 A0.14794988604992457,0.14794988604992457 0 0,1 28.662184973106683,13.995179655309611 M28.662184973106683,13.995179655309611 A0.17122930392397678,0.17122930392397678 0 0,0 28.532686291819196,14.067173945239714 M28.532686291819196,14.067173945239714 A0.3306468545653512,0.3306468545653512 0 0,0 28.48652218920764,14.161024007700858 M28.48652218920764,14.161024007700858 A0.17331167120324006,0.17331167120324006 0 0,0 28.480615583782388,14.236514871113057 M28.480615583782388,14.236514871113057 A0.1895438872926447,0.1895438872926447 0 0,0 28.5341759934416,14.343646128215566 M28.5341759934416,14.343646128215566 A0.22790800021244442,0.22790800021244442 0 0,0 28.649845384902015,14.4058557969864 M28.649845384902015,14.4058557969864 A0.29731456810186796,0.29731456810186796 0 0,0 28.709252446305605,14.411851375901191 M28.709252446305605,14.411851375901191 A0.032156994126152055,0.032156994126152055 0 0,0 28.727951446957228,14.4058557969864 M28.727951446957228,14.4058557969864 A0.04541932778071652,0.04541932778071652 0 0,0 28.74538390408346,14.357044208692853 M28.74538390408346,14.357044208692853 A0.11341418054214182,0.11341418054214182 0 0,1 28.753986800975632,14.275593546314608 M28.753986800975632,14.275593546314608 A0.2890385880742621,0.2890385880742621 0 0,1 28.791556303750973,14.219661747865755 M28.791556303750973,14.219661747865755 A0.18373725858504106,0.18373725858504106 0 0,1 28.832092863030844,14.18440997084434 M28.832092863030844,14.18440997084434 A0.11837503099975773,0.11837503099975773 0 0,1 28.930711984441892,14.170995721331309 M28.930711984441892,14.170995721331307 A0.11088168829495851,0.11088168829495851 0 0,1 29.00132266415047,14.236514871113057 M29.00132266415047,14.236514871113057 A0.5262153992709298,0.5262153992709298 0 0,1 29.026319883675193,14.320157474289514 M29.026319883675193,14.320157474289513 A1.904473763067954,1.904473763067954 0 0,1 29.05339337218728,14.484013147389502 M29.05339337218728,14.4840131473895 A2.4315678992261374,2.4315678992261374 0 0,1 29.0647469936251,14.602292507818724 M29.0647469936251,14.60229250781873 A0.7078291987772404,0.7078291987772404 0 0,1 29.066411049196482,14.666380298330033 M29.066411049196482,14.666380298330038 A0.1522753223581729,0.1522753223581729 0 0,1 29.033101711769937,14.758522735857353 M29.033101711769937,14.758522735857353 A0.40870929841470854,0.40870929841470854 0 0,1 28.910198925086057,14.861773674337739 M28.910198925086057,14.861773674337739 A0.11476668773150903,0.11476668773150903 0 0,1 28.816320157789583,14.869142202820854 M28.816320157789583,14.869142202820852 A0.054804929225460874,0.054804929225460874 0 0,0 28.753986800975632,14.887826124472124 M28.753986800975632,14.887826124472125 A0.09059553370968729,0.09059553370968729 0 0,0 28.73854482453006,14.92025693531812 M28.73854482453006,14.92025693531812 A0.369656286382848,0.369656286382848 0 0,0 28.727951446957228,14.992035925009558 M28.727951446957228,14.992035925009558 A0.3838760375806934,0.3838760375806934 0 0,0 28.749842172065733,15.139578220241814 M28.749842172065733,15.139578220241814 A0.05312317252962212,0.05312317252962212 0 0,0 28.793039832003238,15.174403075950096 M28.793039832003238,15.174403075950094 A0.049577480029691354,0.049577480029691354 0 0,0 28.836652848137497,15.157971303410816 M28.836652848137497,15.157971303410816 A0.11266860764304602,0.11266860764304602 0 0,1 28.897181248076855,15.122298175681378 M28.897181248076855,15.122298175681378 A0.3663318837572295,0.3663318837572295 0 0,1 29.031248583646708,15.118091554259873 M29.031248583646708,15.118091554259875 A0.043817315791997186,0.043817315791997186 0 0,1 29.066411049196482,15.148350625815736 M29.066411049196482,15.148350625815736 A0.15268916563549467,0.15268916563549467 0 0,1 29.073338023947223,15.19381891158659 M29.073338023947223,15.193818911584632 A2.2387895734483134,2.2387895734483134 0 0,1 29.066411049196482,15.369796451957823 M29.066411049196482,15.369796451957821 A3.319539849832951,3.319539849832951 0 0,1 29.040003114309307,15.60097376156719 M29.040003114309307,15.600973761567188 A0.06261078546302856,0.06261078546302856 0 0,1 29.027358018168876,15.630320953301434 M29.027358018168876,15.630320953301434 A0.06440148885575105,0.06440148885575105 0 0,1 29.01241463184973,15.644161651542047 M29.01241463184973,15.644161651542047 A0.8465902104796235,0.8465902104796235 0 0,1 28.949251956113663,15.68242585357015 M28.949251956113663,15.68242585357015 A0.7992108741671683,0.7992108741671683 0 0,1 28.81823785111063,15.739602030888333 M28.81823785111063,15.739602030888333 A0.025839774721517324,0.025839774721517324 0 0,1 28.793039832003238,15.734530753838895 M28.793039832003238,15.734530753838895 L28.68889841592962,15.643347178368627 M28.68889841592962,15.643347178368627 L28.584756999856005,15.552163602898359 M28.584756999856005,15.552163602898359 A0.12596490906929886,0.12596490906929886 0 0,0 28.464183033582763,15.526710909475666 M28.464183033582763,15.526710909475666 A0.13187376433066939,0.13187376433066939 0 0,0 28.37647416770877,15.61729472823424 M28.37647416770877,15.61729472823424 A0.19675742408216526,0.19675742408216526 0 0,0 28.369302472211608,15.669932504102366 M28.369302472211608,15.669932504102531 A0.10717213829491096,0.10717213829491096 0 0,0 28.37647416770877,15.708478303704537 M28.37647416770877,15.708478303704537 A0.23660490667563133,0.23660490667563133 0 0,0 28.417552286814804,15.777302549023487 M28.417552286814804,15.777302549023487 A0.06890982630329189,0.06890982630329189 0 0,0 28.454580229763984,15.799661879174804 M28.454580229763984,15.799661879174804 A0.3161493867444519,0.3161493867444519 0 0,0 28.485567178151847,15.805115602283136 M28.485567178151847,15.805115602283136 A1.7274144416489297,1.7274144416489297 0 0,0 28.5587216458376,15.81268810424197 M28.5587216458376,15.81268810424197 A0.4423899789901049,0.4423899789901049 0 0,0 28.657825018996242,15.809670500539566 M28.657825018996242,15.809670500539566 A0.14717774148059853,0.14717774148059853 0 0,1 28.714933769948026,15.81268810424197 M28.714933769948026,15.812688104241968 A0.032607890929024594,0.032607890929024594 0 0,1 28.735235767414075,15.828125783913036 M28.735235767414075,15.828125783913036 A0.33819790317460474,0.33819790317460474 0 0,1 28.767004477984834,15.903871679712237 M28.767004477984834,15.903871679712237 A0.33707048839397585,0.33707048839397585 0 0,1 28.779240471477884,16.013233773696754 M28.779240471477884,16.013233773696754 A0.54887933047543,0.54887933047543 0 0,1 28.753986800975632,16.151369955988685 M28.753986800975632,16.151369955988685 A0.4272040993170854,0.4272040993170854 0 0,1 28.70751166391559,16.250665316836603 M28.70751166391559,16.250665316836603 A0.13964288915294995,0.13964288915294995 0 0,1 28.662863061911217,16.29465843172767 M28.662863061911217,16.29465843172767 A0.1193422448425751,0.1193422448425751 0 0,1 28.611129131331687,16.311870333925356 M28.611129131331687,16.311870333925356 A0.3365320976569314,0.3365320976569314 0 0,1 28.519668614809994,16.307684656794862 M28.519668614809994,16.307684656794862 A0.3597278641736707,0.3597278641736707 0 0,1 28.399675888157923,16.262320706230497 M28.399675888157923,16.262320706230497 A0.23677508133767683,0.23677508133767683 0 0,1 28.324403459671963,16.190448631190236 M28.324403459671963,16.190448631190236 A0.0785090284356509,0.0785090284356509 0 0,1 28.311355025021918,16.150728056745095 M28.311355025021918,16.150728056745095 A0.0739305015741239,0.0739305015741239 0 0,0 28.29836810565356,16.112291280787133 M28.29836810565356,16.112291280787133 A0.07202490147205645,0.07202490147205645 0 0,0 28.220508417555344,16.08359462020414 M28.220508417555344,16.08359462020414 A0.21247690405506547,0.21247690405506547 0 0,0 28.1031029505153,16.16439618105585 M28.1031029505153,16.16439618105585 A0.25482587724709677,0.25482587724709677 0 0,0 28.059724337710655,16.263756982284804 M28.059724337710655,16.263756982284804 A0.0272225982350744,0.0272225982350744 0 0,0 28.077067596496896,16.29465843172767 M28.077067596496896,16.29465843172767 A0.2072338773326209,0.2072338773326209 0 0,0 28.14290965683525,16.307200225751018 M28.14290965683525,16.307200225751018 A0.5014956910779766,0.5014956910779766 0 0,1 28.24629739761675,16.320710881862027 M28.24629739761675,16.320710881862027 A1.7039491715308523,1.7039491715308523 0 0,1 28.34097886019284,16.34618859848061 M28.34097886019284,16.34618859848061 A0.256097323703593,0.256097323703593 0 0,1 28.37647416770877,16.35978955706358 M28.37647416770877,16.35978955706358 A0.07144201185106137,0.07144201185106137 0 0,1 28.416322288102343,16.411648883603533 M28.416322288102347,16.411648883603533 A0.14280981245050617,0.14280981245050617 0 0,1 28.402509521727175,16.503078032802563 M28.402509521727175,16.503078032802563 A0.627892391850826,0.627892391850826 0 0,1 28.35996325593313,16.573254644260828 M28.35996325593313,16.573254644260828 A0.5565827209367202,0.5565827209367202 0 0,1 28.31138578266276,16.633340283474382 M28.31138578266276,16.633340283474382 A2.063092728247001,2.063092728247001 0 0,1 28.260237997159344,16.68638323085591 M28.260237997159344,16.68638323085591 A0.12936552440501195,0.12936552440501195 0 0,1 28.24629739761675,16.698471408810292 M28.24629739761675,16.698471408810292 A0.32614636267993563,0.32614636267993563 0 0,1 28.196681068065878,16.729126889178417 M28.196681068065878,16.729126889178417 A1.3058258317849225,1.3058258317849225 0 0,1 28.090085273506098,16.776628759213366 M28.090085273506098,16.776628759213366 A2.809865283113541,2.809865283113541 0 0,1 28.02299609223163,16.80201517679697 M28.02299609223163,16.80201517679697 A3.552798623415099,3.552798623415099 0 0,1 27.946890826404875,16.82873365948211 M27.946890826404875,16.82873365948211 A0.8461646996288955,0.8461646996288955 0 0,1 27.881030009010452,16.84807975663597 M27.881030009010452,16.84807975663597 A1.5358968110883344,1.5358968110883344 0 0,1 27.79067870229445,16.867812334683634 M27.79067870229445,16.867812334683634 A0.3239957995566126,0.3239957995566126 0 0,1 27.681811638111718,16.869563232775903 M27.681811638111718,16.869563232775903 A0.12070647839419725,0.12070647839419725 0 0,1 27.621448901174823,16.841759884549276 M27.621448901174823,16.841759884549276 A7.157957980118937,7.157957980118937 0 0,1 27.57480764648684,16.801276126724957 M27.57480764648684,16.801276126724957 A11.028236676479983,11.028236676479983 0 0,1 27.517307485101206,16.75057630907901 M27.517307485101213,16.750576309079 A72.96059683186579,72.96059683186579 0 0,1 27.470311825066418,16.70881121308509 M27.470311825066418,16.708811213085127 A162.83589793644936,162.83589793644936 0 0,1 27.400148392018195,16.646366508541618 M27.40014839201816,16.646366508541576 A0.5483360284655161,0.5483360284655161 0 0,1 27.35905795387847,16.605693807278612 M27.35905795387847,16.605693807278612 A0.8291707210771203,0.8291707210771203 0 0,0 27.309024652953745,16.555182933071308 M27.309024652953745,16.555182933071308 A0.08359253657848027,0.08359253657848027 0 0,0 27.212560984249045,16.542912440543518 M27.212560984249045,16.542912440543518 A0.14142472104962703,0.14142472104962703 0 0,0 27.139794851834118,16.646366508541576 M27.139794851834118,16.646366508541576 A0.15914181983267314,0.15914181983267314 0 0,0 27.142768128430667,16.708624957382682 M27.142768128430667,16.708624957382682 A0.09387941741571655,0.09387941741571655 0 0,0 27.165830205852522,16.75057630907901 M27.165830205852522,16.75057630907901 A0.1244285906854731,0.1244285906854731 0 0,0 27.25269927646817,16.78919918826452 M27.25269927646817,16.78919918826452 A0.2244663146479793,0.2244663146479793 0 0,1 27.374113037999756,16.82873365948211 M27.374113037999756,16.82873365948211 A0.598410762975956,0.598410762975956 0 0,1 27.45792617453079,16.89853876446864 M27.45792617453079,16.89853876446864 A0.08032139511437529,0.08032139511437529 0 0,1 27.4782544540736,16.932943460019544 M27.4782544540736,16.932943460019544 A0.08897839528573404,0.08897839528573404 0 0,1 27.47411561367661,16.993844959425985 M27.47411561367661,16.993844959425985 A0.1306464266589264,0.1306464266589264 0 0,1 27.42618374603679,17.05017948562417 M27.42618374603679,17.05017948562417 A0.5944923536504242,0.5944923536504242 0 0,1 27.366984424061535,17.084181752330636 M27.366984424061535,17.084181752330636 A0.29943248073026985,0.29943248073026985 0 0,1 27.322042329962947,17.102284385892915 M27.322042329962947,17.102284385892915 A1.2233998614608734,1.2233998614608734 0 0,1 27.25515654122713,17.1210499048573 M27.25515654122713,17.1210499048573 A0.3653278084417913,0.3653278084417913 0 0,1 27.21790091388933,17.128336836027273 M27.21790091388933,17.128336836027273 A0.3602950700277918,0.3602950700277918 0 0,1 27.167204916998422,17.131921304326482 M27.167204916998422,17.131921304326482 A0.882981964579711,0.882981964579711 0 0,1 27.08772414379731,17.128336836027273 M27.08772414379731,17.128336836027273 A0.6012714203644007,0.6012714203644007 0 0,1 26.995927152273076,17.11280270041948 M26.995927152273076,17.11280270041948 A0.3262775824221184,0.3262775824221184 0 0,1 26.931512019686885,17.08925816082572 M26.931512019686885,17.08925816082572 A0.1769842737478454,0.1769842737478454 0 0,1 26.89449045298678,17.064940014249686 M26.89449045298678,17.064940014249686 A0.22191399068388734,0.22191399068388734 0 0,0 26.853405957631672,17.037153260557005 M26.853405957631672,17.037153260557005 A0.4099376075797894,0.4099376075797894 0 0,0 26.792842529241476,17.01138218853265 M26.792842529241476,17.01138218853265 A0.3198593518041072,0.3198593518041072 0 0,0 26.736246864548853,16.998074585355454 "
         style="stroke:#ffff00;stroke-width:0.05644444;stroke-miterlimit:4;stroke-dasharray:none"
         stroke="param(outline) #ffff00"
         stroke-width="param(outline-width) 0.0"
         id="path8" />
    </g>
  </g>
</svg>
