<?xml version='1.0' encoding='utf-8'?>
<svg xmlns:dc="http://purl.org/dc/elements/1.1/" xmlns:cc="http://creativecommons.org/ns#" xmlns:rdf="http://www.w3.org/1999/02/22-rdf-syntax-ns#" xmlns:svg="http://www.w3.org/2000/svg" xmlns="http://www.w3.org/2000/svg" xmlns:sodipodi="http://sodipodi.sourceforge.net/DTD/sodipodi-0.dtd" xmlns:inkscape="http://www.inkscape.org/namespaces/inkscape" width="758.46588" height="681.10797" viewBox="0 0 792.17493 711.37902" version="1.2" id="svg70913" inkscape:version="0.48.4 r9939" sodipodi:docname="palma_pianta_8.svg">
  <metadata id="metadata70991">
    <rdf:RDF>
      <cc:Work rdf:about="">
        <dc:format>image/svg+xml</dc:format>
        <dc:type rdf:resource="http://purl.org/dc/dcmitype/StillImage"/>
      </cc:Work>
    </rdf:RDF>
  </metadata>
  <sodipodi:namedview pagecolor="#ffffff" bordercolor="#666666" borderopacity="1" objecttolerance="10" gridtolerance="10" guidetolerance="10" inkscape:pageopacity="0" inkscape:pageshadow="2" inkscape:window-width="1855" inkscape:window-height="1176" id="namedview70989" showgrid="false" fit-margin-top="0" fit-margin-left="0" fit-margin-right="0" fit-margin-bottom="0" inkscape:zoom="1.138488" inkscape:cx="400.42843" inkscape:cy="335.1736" inkscape:window-x="65" inkscape:window-y="24" inkscape:window-maximized="1" inkscape:current-layer="svg70913"/>
  <title id="title70915">Qt SVG Document</title>
  <desc id="desc70917">Generated with Qt</desc>
  <defs id="defs70919"/>
  <g id="g70923" font-style="normal" font-weight="400" font-size="14.3611" transform="translate(-354.27508,-110.691)" fill="param(fill) none" stroke="param(outline) #00ff00" stroke-width="param(outline-width) 1"/>
  <g id="g70929" font-style="normal" font-weight="400" font-size="14.3611" transform="translate(-354.27508,-110.691)" fill="param(fill) none" stroke="param(outline) #00ff00" stroke-width="param(outline-width) 1"/>
  <g id="g70931" font-style="normal" font-weight="400" font-size="14.3611" stroke-miterlimit="2" transform="translate(-354.27508,-110.691)" fill="param(fill) none" stroke="param(outline) #00ff00" stroke-width="param(outline-width) 1"/>
  <polyline vector-effect="non-scaling-stroke" points="756.139,371.29 758.696,349.67 763.046,322.254 769.923,293.643 783.359,251.002 798.572,203.398 817.868,159.636 835.904,135.436 847.398,124.433 833.62,144.557 821.898,165.976 807.856,198.182 798.126,223.814 790.551,246.157 783.765,270.602 776.127,295.862 769.359,319.474 764.683,342.715 758.164,412.184 756.73,439.663 750.932,457.044 740.996,453.909 747.364,448.629 749.322,435.333 753.119,414.158 752.187,399.548 756.139,371.29 " id="polyline70935" style="font-size:14.3611002px;font-style:normal;font-weight:400;fill:none;stroke:#007f00;stroke-width:1;stroke-linecap:square;stroke-linejoin:bevel;stroke-opacity:1;font-family:Ubuntu" transform="translate(-354.27508,-110.691)" fill="param(fill) none" stroke="param(outline) #00ff00" stroke-width="param(outline-width) 1"/>
  <polyline vector-effect="non-scaling-stroke" points="750.39,443.693 742.457,425.179 736.824,415.886 726.973,389.827 722.546,363.47 734.01,392.065 740.756,407.635 746.978,409.021 738.222,390.073 730.244,373.642 725.536,360.2 733.668,369.548 742.47,386.414 748.52,395.716 739.383,375.092 729.811,355.292 726.751,342.72 723.465,321.39 732.837,350.356 741.675,365.555 749.038,371.968 736.197,349.179 726.364,322.287 722.507,308.03 718.895,282.524 717.422,254.564 726.222,290.604 732.695,318.673 739.359,337.993 744.131,348.518 750.163,358.654 743.526,338.084 737.695,318.782 733.168,297.008 730.263,277.354 728.671,254.81 727.405,236.441 725.768,215.981 730.431,231.506 734.106,254.095 737.671,281.684 740.16,301.329 744.896,313.521 750.176,319.889 743.122,299.31 736.485,278.74 736.958,257.075 735.457,230.365 733.838,209.071 733.142,202.803 733.587,182.388 737.399,198.728 740.937,227.567 743.408,248.045 745.136,264.34 748.893,283.179 747.219,264.385 746.37,246.026 744.887,218.483 744.655,190.966 744.973,176.384 748.153,164.365 749.854,181.91 750.504,209.435 753.653,237.015 754.521,254.541 758.469,264.631 757.004,236.254 758.374,211.691 760.116,189.22 762.517,174.683 766.531,162.683 772.147,153.635 769.709,169.838 765.976,188.097 765.366,216.012 766.334,228.955 769.018,201.503 772.289,185.317 778.875,170.038 788.396,153.99 794.737,149.96 788.15,165.239 781.546,181.351 779.19,193.805 778.002,210.035 783.356,193.896 790.17,168.201 796.82,150.005 797.99,134.608 801.288,117.173 800.861,136.755 800.433,156.337 803.611,163.492 803.948,148.077 807.201,132.725 813.787,117.446 818.914,111.722 816.586,122.926 812.174,134.084 814.011,145.379 819.718,132.165 829.963,121.134 851.856,111.191 829.791,129.05 825.378,140.208 821.419,149.709 842.417,123.49 857.969,117.577 851.565,124.524 838.638,143.833 851.365,133.69 860.84,119.724 855.458,137.114 845.657,146.904 837.586,153.814 853.111,149.151 859.099,142.195 851.725,155.373 842.449,160.172 833.193,164.139 828.011,172.362 843.545,167.282 847.495,158.198 844.223,174.383 827.811,181.528 819.351,187.179 814.078,199.569 823.399,192.686 831.868,186.619 837.928,176.33 836.804,189.644 824.014,202.704 815.943,209.614 808.678,217.792 804.266,228.95 812.428,217.873 821.73,211.824 828.107,206.128 835.399,196.7 841.849,187.67 844.041,182.716 838.614,202.189 827.889,216.127 821.457,224.323 809.129,235.308 798.495,245.08 809.853,240.326 819.618,232.203 832.888,216.236 839.384,205.124 843.814,193.132 840.497,211.4 836.067,223.392 828.711,235.736 813.838,248.75 802.416,256.42 792.034,273.701 800.087,267.624 809.407,260.741 819.208,250.951 827.37,239.875 835.948,228.808 842.535,213.529 845.697,202.344 842.243,226.861 835.666,241.724 821.925,260.181 805.303,276.908 793.826,287.079 787.313,299.024 799.613,289.289 808.961,281.157 817.54,270.089 829.098,256.169 838.583,241.787 843.013,229.796 836.227,254.241 826.751,268.206 817.249,283.422 801.433,301.417 789.892,314.504 785.344,331.911 795.942,323.806 818.007,305.947 821.893,299.78 826.342,286.955 827.801,277.4 826.078,299.037 819.474,315.15 802.028,331.442 787.272,339.04 780.08,343.885 776.955,353.403 791.239,348.297 807.888,330.32 812.209,323.328 804.68,343.588 790.16,359.528 779.653,363.466 776.582,370.486 792.261,358.74 786.554,371.954 779.252,381.798 781.063,394.343 772.466,406.243 770.463,421.622 762.763,430.625 750.39,443.693 " id="polyline70937" style="font-size:14.3611002px;font-style:normal;font-weight:400;fill:none;stroke:#007f00;stroke-width:1;stroke-linecap:square;stroke-linejoin:bevel;stroke-opacity:1;font-family:Ubuntu" transform="translate(-354.27508,-110.691)" fill="param(fill) none" stroke="param(outline) #00ff00" stroke-width="param(outline-width) 1"/>
  <polyline vector-effect="non-scaling-stroke" points="767.624,456.158 803.719,444.858 852.729,433.84 903.351,425.358 968.936,418.871 1013.89,421.937 1063,425.094 1092.46,431.573 1112.76,437.435 1134.27,444.991 1108.51,441.094 1070.77,432.35 1044.61,427.61 996.279,426.554 963.8,425.011 914.482,431.02 878.524,436.071 824.949,446.155 792.206,456.695 759.046,467.225 767.624,456.158 " id="polyline70939" style="font-size:14.3611002px;font-style:normal;font-weight:400;fill:none;stroke:#007f00;stroke-width:1;stroke-linecap:square;stroke-linejoin:bevel;stroke-opacity:1;font-family:Ubuntu" transform="translate(-354.27508,-110.691)" fill="param(fill) none" stroke="param(outline) #00ff00" stroke-width="param(outline-width) 1"/>
  <polyline vector-effect="non-scaling-stroke" points="761.113,448.929 776.858,415.093 788.1,396.581 799.442,373.486 813.7,350.455 826.609,331.979 836.556,315.523 858.639,296.831 876.846,283.89 904.373,264.066 952.741,244.281 1004.67,233.327 1035.98,231.093 1063.48,231.693 1020.85,236.598 989.487,241.332 970.203,246.329 940.033,253.59 915.205,264.303 893.213,278.828 870.749,295.845 848.693,313.287 834.498,333.402 816.371,361.767 802.058,387.298 780.842,423.517 766.374,456.13 761.113,448.929 " id="polyline70941" style="font-size:14.3611002px;font-style:normal;font-weight:400;fill:none;stroke:#007f00;stroke-width:1;stroke-linecap:square;stroke-linejoin:bevel;stroke-opacity:1;font-family:Ubuntu" transform="translate(-354.27508,-110.691)" fill="param(fill) none" stroke="param(outline) #00ff00" stroke-width="param(outline-width) 1"/>
  <polyline vector-effect="non-scaling-stroke" points="766.556,447.798 782.923,442.736 799.653,440.184 817.151,440.566 800.984,436.461 790.152,436.225 783.042,437.32 792.779,430.447 806.555,429.497 814.915,428.429 836.553,430.152 819.173,424.354 809.617,422.894 801.285,422.712 789.148,424.948 808.106,415.775 821.909,413.576 839.852,412.717 851.88,415.481 834.526,408.432 820.777,408.132 805.724,410.304 800.271,411.853 807.147,402.416 820.987,398.55 843.929,397.8 859.263,401.887 871.218,407.983 860.658,395.248 847,390.781 833.215,392.147 812.772,392.951 817.093,385.96 832.211,380.871 850.062,384.179 860.749,391.081 872.504,406.344 875.211,415.99 868.692,390.004 856.91,375.991 839.113,370.184 824.114,369.856 847.501,367.866 867.861,370.812 882.705,378.222 897.44,390.632 905.564,400.397 914.91,411.439 906.932,395.008 896.491,376.856 882.951,366.973 866.821,361.202 848.933,359.561 839.377,358.101 862.772,355.695 886.04,359.121 906.283,367.483 916.933,376.052 923.363,387.03 917.142,366.469 905.269,356.623 888.695,352.092 876.694,348.079 857.529,347.66 842.476,349.832 858.906,341.855 875.599,340.969 897.2,344.358 912.172,345.936 935.322,354.778 946.009,361.681 950.029,368.438 937.976,347.75 921.873,340.729 901.485,339.033 872.828,334.239 857.802,335.161 886.668,330.373 911.25,330.91 931.601,334.272 946.545,337.099 961.362,345.76 949.136,332.988 933.006,327.216 916.784,325.612 893.48,323.852 877.177,325.997 867.567,327.038 882.684,321.949 912.8,317.188 941.548,317.816 963.149,321.205 972.677,323.915 990.474,329.722 971.545,318.471 954.971,313.941 929.167,312.127 902.058,312.785 889.559,312.512 902.231,304.869 932.384,298.441 963.686,296.624 986.99,298.383 1014.01,301.891 996.664,294.426 976.303,291.481 959.702,288.2 936.787,287.7 927.168,289.157 903.754,292.397 929.849,280.879 949.078,278.381 980.381,276.564 998.269,278.205 1006.6,278.387 997.11,274.011 977.999,271.093 957.584,270.647 932.911,274.276 957.702,265.231 984.875,261.656 1004.07,260.824 1017.85,259.458 1001.28,254.928 983.779,254.546 970.03,254.245 1001.4,249.512 1034.31,250.23 1045.14,250.467 1033.15,246.037 1009.82,245.527 1046.57,242.578 1068.65,243.061 1049.52,240.975 1029.13,239.28 997.91,237.347 956.454,246.029 923.656,259.068 894.581,273.439 868.222,297.04 844.59,310.279 827.832,333.256 805.302,372.363 780.961,418.1 766.556,447.798 " id="polyline70943" style="font-size:14.3611002px;font-style:normal;font-weight:400;fill:none;stroke:#007f00;stroke-width:1;stroke-linecap:square;stroke-linejoin:bevel;stroke-opacity:1;font-family:Ubuntu" transform="translate(-354.27508,-110.691)" fill="param(fill) none" stroke="param(outline) #00ff00" stroke-width="param(outline-width) 1"/>
  <polyline vector-effect="non-scaling-stroke" points="793.879,560.638 798.867,576.235 804.049,603.506 811.792,631.895 826.518,674.108 843.17,721.227 851.196,755.026 856.532,777.282 861.975,809.547 858.749,763.812 853.674,746.551 850.636,728.348 842.104,700.835 833.854,678.732 826.328,654.504 817.926,629.488 810.465,606.509 805.063,583.005 796.096,547.168 784.824,523.137 775.435,503.18 768.279,486.027 753.389,472.617 748.504,474.959 761.204,486.397 766.785,497.372 775.125,513.211 781.93,531.634 793.879,560.638 " id="polyline70945" style="font-size:14.3611002px;font-style:normal;font-weight:400;fill:none;stroke:#007f00;stroke-width:1;stroke-linecap:square;stroke-linejoin:bevel;stroke-opacity:1;font-family:Ubuntu" transform="translate(-354.27508,-110.691)" fill="param(fill) none" stroke="param(outline) #00ff00" stroke-width="param(outline-width) 1"/>
  <polyline vector-effect="non-scaling-stroke" points="758.753,479.431 757.63,497.851 757.559,512.46 765.939,537.06 762.337,563.956 769.701,553.139 765.403,566.717 773.247,557.126 769.825,571.493 767.565,584.131 764.513,605.573 773,576.335 776.394,577.41 767.382,604.588 763.96,618.955 761.126,644.559 760.919,672.529 768.204,636.26 773.842,608.423 779.895,588.494 784.345,577.829 790.065,567.514 784.056,588.276 778.836,608.162 774.952,629.648 772.645,649.382 772.155,671.942 771.032,690.362 770.017,710.863 774.206,695.204 777.193,672.513 779.919,644.829 781.809,625.116 786.172,612.787 791.256,606.261 784.831,627.045 778.822,647.807 779.954,669.448 779.265,696.191 778.294,717.524 777.788,723.81 778.854,744.202 782.167,727.754 784.828,698.821 786.675,678.277 787.907,661.938 791.09,642.993 789.988,661.829 789.697,680.206 789.052,707.781 789.655,735.292 790.417,749.858 793.961,761.774 795.128,744.186 794.941,716.654 797.25,688.991 797.585,671.447 801.224,661.242 800.623,689.65 802.739,714.16 805.162,736.568 808.005,751.025 812.381,762.898 818.27,771.771 815.34,755.649 811.054,737.512 809.596,709.628 810.17,696.662 813.687,724.02 817.449,740.098 820.859,757.447 823.944,768.553 828.168,777.513 828.633,762.465 826.822,743.781 824.088,731.405 822.408,715.218 828.25,731.188 832.999,742.207 835.841,756.664 837.106,772.872 833.464,791.007 840.892,781.438 843.041,774.649 845.927,789.938 845.415,812.082 849.362,799.774 852.117,812.566 855.509,821.57 855.648,800.28 858.366,796.382 862.168,821.221 863.751,803.612 864.483,777.701 866.667,795.531 867.184,821.377 870.165,814.544 871.661,795.27 871.449,775.25 884.557,810.453 881.695,787.651 877.167,772.865 867.908,755.405 877.257,766.6 885.028,779.548 883.673,769.603 878.968,759.417 873.538,751.355 889.785,766.78 884.511,753.702 873.06,742.199 864.432,736.808 858.785,724.584 868.311,731.18 876.96,736.987 883.331,747.087 881.802,733.813 868.621,721.148 860.344,714.487 852.834,706.534 848.085,695.515 856.58,706.338 866.478,712.08 872.609,717.602 880.184,726.804 886.905,735.633 889.247,740.518 883.23,721.219 872.086,707.614 865.825,699.595 852.753,689.011 841.826,679.567 853.324,683.974 863.331,691.796 877.497,707.331 883.91,718.263 888.703,730.114 884.833,711.955 880.04,700.104 872.312,687.989 857.05,675.433 845.401,668.113 834.499,651.156 842.732,656.985 852.258,663.581 862.352,673.069 870.846,683.892 879.757,694.694 886.805,709.765 890.305,720.85 886.108,696.448 879.083,681.792 864.786,663.761 847.664,647.547 835.884,637.73 829.01,625.987 841.601,635.344 851.192,643.189 860.103,653.991 872.079,667.553 881.996,681.64 886.788,693.491 879.262,669.264 869.367,655.593 859.406,640.673 843.051,623.167 831.118,610.437 826.043,593.176 836.882,600.955 859.48,618.135 863.552,624.182 868.41,637.281 870.137,646.372 867.757,624.796 861.082,608.871 842.755,593.554 827.754,585.992 820.418,581.368 817.026,572.364 831.437,576.619 848.625,594.082 853.156,600.939 845.015,580.917 830.017,565.426 819.396,561.808 816.113,554.885 832.142,566.149 826.035,553.115 818.438,543.497 815.835,533.617 804.185,526.298 797.815,516.198 784.373,498.539 758.753,479.431 " id="polyline70947" style="font-size:14.3611002px;font-style:normal;font-weight:400;fill:none;stroke:#007f00;stroke-width:1;stroke-linecap:square;stroke-linejoin:bevel;stroke-opacity:1;font-family:Ubuntu" transform="translate(-354.27508,-110.691)" fill="param(fill) none" stroke="param(outline) #00ff00" stroke-width="param(outline-width) 1"/>
  <polyline vector-effect="non-scaling-stroke" points="767.288,471.573 763.321,462.316 783.536,471.928 812.057,482.972 851.3,499.252 881.804,514.924 907.995,537.171 934.975,561.52 954.138,581.113 981.008,610.462 1000.84,637.572 1012.8,662.427 1016.48,685.016 1017.57,711.3 1016.31,730.864 1012.61,709.524 1011.04,685.731 1008.53,667.335 1001.78,651.765 989.728,631.077 973.88,612.39 962.876,600.895 936.839,571.565 921.715,557.896 901.682,539.951 880.789,523.239 858.582,509.415 836.302,498.924 813.985,490.1 786.271,480.325 767.288,471.573 " id="polyline70949" style="font-size:14.3611002px;font-style:normal;font-weight:400;fill:none;stroke:#007f00;stroke-width:1;stroke-linecap:square;stroke-linejoin:bevel;stroke-opacity:1;font-family:Ubuntu" transform="translate(-354.27508,-110.691)" fill="param(fill) none" stroke="param(outline) #00ff00" stroke-width="param(outline-width) 1"/>
  <polyline vector-effect="non-scaling-stroke" points="732.36,493.485 736.668,513.161 740.773,523.843 745.227,550.795 744.937,578.009 738.736,547.273 735.039,530.712 729.101,528.587 734.225,548.437 738.969,566.075 741.066,580.163 735.244,569.539 729.684,551.726 725.493,541.452 730.179,563.34 735.943,584.179 736.584,597.103 736.206,618.757 731.956,588.866 726.221,571.868 720.604,564.271 728.929,589.07 733.121,617.244 734.227,631.972 732.889,658.109 729.165,685.44 727.708,648.475 726.543,620.097 723.312,599.373 720.517,588.546 716.587,577.049 719.644,598.587 721.246,618.962 722.091,640.878 720.84,660.641 718.163,683.082 716.359,701.448 714.118,721.852 712.051,705.64 713.098,682.85 714.785,655.082 715.629,635.232 713.271,622.367 709.691,615.207 712.34,636.658 714.989,658.109 710.449,679.299 706.899,705.814 704.484,727.033 703.99,733.32 699.712,753.287 699.449,736.609 701.398,707.619 702.416,686.954 704.191,670.713 703.958,651.91 702.154,670.276 699.128,688.38 695.403,715.711 690.369,743.187 687.4,757.042 682.016,768.248 683.558,751.104 688.592,723.628 690.28,695.861 692.724,678.484 691.152,667.919 687.165,696.472 680.879,719.844 675.35,741.674 670.257,755.5 663.65,766.444 656.839,774.361 661.874,758.818 668.976,741.587 674.738,714.693 676.309,701.391 668.509,727.849 662.252,743.13 652.91,756.897 640.54,770.869 633.962,773.721 642.897,759.867 652.414,745.284 656.984,733.904 661.291,717.779 652.909,733.03 641.471,756.578 631.925,773.285 627.472,788.1 620.953,804.603 625.056,785.451 629.072,766.707 627.384,758.674 624.153,773.751 618.071,788.217 608.728,801.984 602.529,807.049 606.923,796.483 613.356,786.354 613.675,774.915 606.079,786.5 593.535,795.319 570.57,801.054 595.193,787.577 601.625,777.448 607.621,769.356 582.067,791.158 565.767,793.632 573.364,788.014 589.284,771.394 575.285,779.05 562.944,790.896 571.821,775.324 582.968,767.058 592.195,761.789 576.477,763.536 568.881,769.154 578.602,757.599 588.614,754.629 598.452,752.475 605.408,745.868 589.283,747.527 583.288,755.619 589.545,740.338 607.329,736.903 616.381,732.45 623.89,721.273 613.353,726.687 604.389,730.733 596.094,739.61 599.703,726.745 614.721,716.325 624.355,711.144 633.028,704.478 639.46,694.349 628.953,703.605 618.679,707.797 611.257,712.599 602.409,720.08 594.376,727.735 591.291,732.189 600.692,714.172 613.44,702.412 621.298,695.572 635.473,687.102 647.755,679.505 635.705,682.037 624.995,688.266 608.55,701.365 600.081,711.057 593.387,722.409 600.575,704.77 606.774,693.739 616.728,683.086 633.289,673.422 646.037,667.629 659.891,652.698 650.432,657.064 639.983,662.07 628.836,670.337 618.329,679.593 607.822,688.849 598.974,702.296 593.357,712.6 601.681,689.664 610.616,675.81 627.497,660.674 647.463,647.051 660.648,639.222 668.884,628.627 654.972,635.875 644.261,642.104 633.754,651.36 619.784,662.857 607.763,675.198 601.157,686.142 612.42,663.41 624.353,651.476 636.548,638.32 655.466,623.621 669.262,612.938 677.004,596.697 665.071,602.664 640.447,616.141 635.063,621.38 628.194,633.547 625.459,642.337 630.813,621.322 640.331,606.74 660.85,594.515 676.451,589.333 684.425,585.928 689.199,577.574 674.296,579.496 654.563,594.02 649.004,600.074 660.209,581.592 677.876,568.755 688.529,566.776 692.865,560.46 675.664,569.134 683.26,557.549 692.37,548.846 692.865,536.593 703.633,526.114 708.901,511.474 717.749,503.993 732.36,493.485 " id="polyline70951" style="font-size:14.3611002px;font-style:normal;font-weight:400;fill:none;stroke:#007f00;stroke-width:1;stroke-linecap:square;stroke-linejoin:bevel;stroke-opacity:1;font-family:Ubuntu" transform="translate(-354.27508,-110.691)" fill="param(fill) none" stroke="param(outline) #00ff00" stroke-width="param(outline-width) 1"/>
  <polyline vector-effect="non-scaling-stroke" points="781.335,477.299 785.128,494.472 791.059,509.191 803.602,526.555 796.919,508.068 792.138,497.96 792.429,484.627 797.138,498.069 803.06,513.204 811.01,530.885 818.772,538.141 814.1,523.033 811.502,508.387 811.675,500.471 817.262,511.847 820.349,523.169 824.343,531.176 831.198,541.747 827.305,529.157 824.834,508.678 830.439,519.221 833.418,535.543 835.228,548.087 836.443,530.607 836.671,520.191 836.129,506.84 841.689,519.467 848.806,537.129 851.349,554.275 852.941,576.819 856.149,563.55 855.807,541.034 856.207,522.702 860.979,533.227 861.503,547.411 859.3,571.956 856.725,594.408 854.26,611.862 864.099,581.231 868.73,560.073 869.066,544.658 869.267,535.492 874.79,549.785 875.703,565.228 874.053,583.532 871.66,597.652 867.592,612.153 866.097,623.375 873.471,610.197 879.333,589.9 882.786,565.382 882.353,547.032 882.581,536.616 887.289,550.058 889.778,569.703 890.809,579.73 888.28,600.1 885.951,611.303 880.679,623.693 870.017,634.715 884.365,626.692 892.201,611.44 897.665,590.301 898.698,581.153 899.08,563.654 900.621,550.349 909.605,558.882 907.937,578.02 901.658,598.308 897.082,616.965 887.634,629.681 877.082,635.703 896.864,626.964 906.367,611.749 910.824,598.508 916.151,583.618 916.515,566.953 923.398,576.273 920.905,594.976 914.79,607.765 906.121,622.998 897.515,635.315 888.085,647.198 901.682,635.406 913.222,622.32 919.763,609.124 924.917,602.15 930.208,588.927 926.909,606.362 918.158,625.345 909.841,643.504 906.263,654.681 906.081,663.014 914.796,645.697 919.18,635.789 925.721,622.593 931.039,608.12 935.469,596.128 935.178,609.461 931.554,622.72 923.934,647.147 921.542,661.267 920.508,670.415 926.678,655.127 931.154,641.052 937.831,621.607 943.158,606.717 944.572,599.245 950.548,611.88 948.88,631.018 943.361,654.657 938.84,670.815 938.594,682.064 943.903,668.008 949.702,650.628 953.743,637.377 957.431,621.201 960.375,620.015 959.883,642.513 957.372,662.05 956.881,684.548 960.169,686.704 963.595,663.436 966.829,648.917 970.317,641.907 972.943,655.303 973.466,669.487 976.481,684.142 981.235,695.501 981.644,676.752 981.075,664.651 982.199,651.337 984.888,661.817 986.644,676.861 986.153,699.36 988.099,705.655 991.696,693.645 992.848,679.081 992.215,669.897 996.878,685.421 996.45,705.003 996.865,724.187 1000.02,732.592 1000.17,725.509 1002.77,701.807 1002.93,694.724 1004.49,718.518 1005.89,730.636 1011.65,753.271 1015.76,756.279 1012.16,729.94 1012.48,715.357 1018.06,746.325 1015.74,718.763 1014.9,699.987 1013.37,674.527 1009.5,661.104 993.894,631.168 971.145,603.994 949.184,578.921 923.011,555.84 895.633,530.649 877.61,516.083 846.283,499.976 826.068,490.364 781.335,477.299 " id="polyline70953" style="font-size:14.3611002px;font-style:normal;font-weight:400;fill:none;stroke:#007f00;stroke-width:1;stroke-linecap:square;stroke-linejoin:bevel;stroke-opacity:1;font-family:Ubuntu" transform="translate(-354.27508,-110.691)" fill="param(fill) none" stroke="param(outline) #00ff00" stroke-width="param(outline-width) 1"/>
  <polyline vector-effect="non-scaling-stroke" points="771.256,461.656 786.471,471.159 801.468,490.66 796.796,475.552 788.709,464.121 801.126,468.144 810.989,474.612 818.967,491.043 817.211,475.998 815.264,469.703 804.197,461.125 801.344,458.145 809.242,459.151 824.521,465.737 831.422,474.224 839.491,486.489 847.596,497.087 840.479,479.424 833.706,465.104 822.638,456.526 837.266,454.761 857.527,462.29 882.668,475.344 889.505,486.748 897.465,504.012 902.174,517.453 899.812,491.975 891.047,473.442 876.665,463.958 858.469,457.308 840.274,450.658 862.772,451.15 884.3,457.872 900.349,467.393 907.122,481.713 906.804,496.296 905.752,506.277 908.378,519.673 913.235,488.099 906.553,469.613 896.383,458.136 877.001,448.543 872.138,442.184 891.629,446.778 905.594,456.253 914.515,467.703 917.602,479.024 920.118,497.42 921.865,512.881 925.227,492.53 922.62,478.3 919.578,464.895 908.602,452.151 890.47,442.584 914.173,445.186 925.24,453.764 934.142,466.047 933.942,475.213 934.502,487.73 932.064,503.934 939.9,488.682 940.255,472.433 938.481,458.222 931.191,448.476 920.142,439.064 927.687,437.144 939.524,448.658 949.557,466.384 956.285,482.787 955.767,506.535 958.328,522.848 962.244,496.256 963.496,477.109 956.813,458.622 947.92,445.923 941.019,437.436 955.854,445.263 966.685,464.674 971.628,486.457 971.273,502.706 971.752,518.973 975.749,488.631 974.899,470.272 972.256,457.709 970.327,450.581 969.187,445.554 960.221,436.188 973.471,440.229 981.44,457.076 983.783,483.388 983.201,510.052 982.974,520.468 988.464,498.079 991.021,476.46 988.523,457.231 981.822,439.577 994.973,448.201 1001.75,462.521 1006.36,480.129 1008.09,496.424 1006.99,508.488 1011.05,494.404 1011.34,481.072 1008.86,461.426 1006.95,453.465 1002.13,445.023 993.117,437.74 1009.35,438.928 1019.52,450.405 1022.9,467.152 1022.57,482.567 1020.55,498.78 1026.76,481.409 1028.26,470.187 1029.4,456.039 1025.55,441.366 1021.93,435.451 1033.84,443.631 1037.56,464.137 1037.27,477.47 1036.87,495.802 1043.69,469.69 1042.05,449.229 1036.91,436.612 1053.28,450.308 1065.06,464.738 1069.76,478.179 1070.17,459.847 1064.51,451.387 1053.51,439.892 1080.01,447.974 1087.71,458.146 1093.73,468.699 1089.16,449.008 1083.85,443.89 1064.82,437.222 1081.86,439.678 1096.24,449.162 1109.35,459.87 1119.22,465.921 1107.46,450.658 1089.38,439.009 1119.51,452.588 1130.53,463.25 1140.77,471.81 1130.69,456.167 1120.87,447.616 1112.69,440.351 1128.76,449.039 1136.92,457.137 1145.95,463.587 1137.07,450.054 1121.04,439.7 1082.04,431.345 1060.88,427.131 1030.09,424.375 1001.34,423.747 973.039,421.878 949.245,423.443 931.655,427.227 882.754,433.245 856.859,435.598 829.197,442.496 807.405,447.856 771.256,461.656 " id="polyline70955" style="font-size:14.3611002px;font-style:normal;font-weight:400;fill:none;stroke:#007f00;stroke-width:1;stroke-linecap:square;stroke-linejoin:bevel;stroke-opacity:1;font-family:Ubuntu" transform="translate(-354.27508,-110.691)" fill="param(fill) none" stroke="param(outline) #00ff00" stroke-width="param(outline-width) 1"/>
  <polyline vector-effect="non-scaling-stroke" points="743.467,474.388 748.821,465.858 727.36,472.216 697.527,478.287 655.819,488.223 623.61,499.439 594.338,516.939 563.907,536.805 541.879,553.6 510.835,578.009 486.622,601.657 471.36,624.409 464.224,646.155 458.596,672.308 457.274,691.473 464.243,670.967 469.069,647.649 474.822,629.922 483.903,615.588 499.021,597.021 517.578,581.02 530.232,571.373 560.506,546.439 577.1,535.64 600.088,521.078 623.322,507.811 647.406,497.601 671.1,490.283 694.515,485.029 722.998,479.618 743.467,474.388 " id="polyline70957" style="font-size:14.3611002px;font-style:normal;font-weight:400;fill:none;stroke:#007f00;stroke-width:1;stroke-linecap:square;stroke-linejoin:bevel;stroke-opacity:1;font-family:Ubuntu" transform="translate(-354.27508,-110.691)" fill="param(fill) none" stroke="param(outline) #00ff00" stroke-width="param(outline-width) 1"/>
  <polyline vector-effect="non-scaling-stroke" points="728.757,477.451 722.288,494.24 714.2,507.447 698.646,523.011 708.117,505.786 714.877,496.184 716.659,482.968 709.509,495.461 701.667,509.962 691.068,526.195 681.862,532.102 689.291,517.545 694.075,503.893 695.188,495.633 687.49,505.948 683.096,516.71 677.852,524.413 669.495,533.378 675.24,521.958 680.859,502.111 673.328,511.188 668.265,526.905 664.53,539.017 666.042,521.559 667.378,511.647 669.986,498.543 662.177,509.685 652.817,526.084 647.588,543.04 642.516,565.064 641.407,551.458 645.239,529.268 647.689,511.096 641.397,520.339 638.265,534.214 637.045,558.86 636.104,581.44 635.83,599.064 630.864,567.278 629.574,545.658 631.634,530.377 632.859,521.291 624.771,534.498 621.885,549.667 620.261,567.951 620.377,582.684 622.614,597.283 622.35,608.601 616.698,594.383 614.47,573.478 614.864,548.721 618.139,530.66 619.531,520.335 612.794,532.883 607.286,551.904 604.655,562.062 603.992,582.578 604.554,594.007 607.895,606.652 616.717,619.195 603.375,608.986 598.359,593.172 596.298,571.028 596.284,561.775 598.622,544.429 599.578,531.102 589.378,538.137 587.587,557.659 591.054,578.731 592.735,597.46 600.039,611.901 609.529,619.487 591.398,607.372 584.317,591.279 581.968,577.506 579.072,561.557 581.244,545.45 572.998,553.59 572.2,571.984 576.614,586.035 582.814,602.43 589.046,615.465 596.875,629.135 585.329,614.964 575.96,600.244 571.546,586.193 567.537,578.504 563.949,564.564 564.915,582.356 570.145,602.825 575.955,622.11 577.343,633.651 576.285,641.498 570.721,623.507 567.983,612.625 563.57,598.574 560.507,583.864 558.047,570.917 556.265,584.133 557.375,597.739 561.524,623.108 561.696,637.428 561.241,647.039 557.106,630.923 554.925,615.911 551.704,596.134 548.395,580.129 548.515,572.996 540.706,584.138 539.328,603.716 541.166,627.512 543.069,644.589 541.566,655.74 538.559,640.617 535.528,622.547 533.124,609.187 532.46,592.278 529.68,591.062 526.674,613.364 526.178,632.64 523.171,654.942 519.589,656.562 519.816,633.044 518.818,618.612 516.516,610.733 511.843,623.559 508.656,637.847 503.872,651.499 497.413,661.982 499.862,643.81 502.359,631.532 503.314,618.204 498.618,628.084 494.493,643.087 491.487,665.389 489,671.361 487.366,658.525 488.433,644.372 490.484,635.398 483.523,649.597 480.907,669.008 477.051,688.252 473.102,695.709 474.049,688.689 475.101,665.282 476.048,658.261 470.865,681.111 467.186,692.809 458.397,714.332 453.822,717.079 461.515,691.204 463.408,677.162 453.149,706.476 459.714,679.608 463.403,661.603 468.92,636.275 474.363,623.973 494.891,596.464 521.527,573.563 547.114,552.203 576.552,533.464 607.095,512.772 627.628,500.822 661.076,489.773 682.538,483.415 728.757,477.451 " id="polyline70959" style="font-size:14.3611002px;font-style:normal;font-weight:400;fill:none;stroke:#007f00;stroke-width:1;stroke-linecap:square;stroke-linejoin:bevel;stroke-opacity:1;font-family:Ubuntu" transform="translate(-354.27508,-110.691)" fill="param(fill) none" stroke="param(outline) #00ff00" stroke-width="param(outline-width) 1"/>
  <polyline vector-effect="non-scaling-stroke" points="733.469,454.995 697.912,441.713 649.013,428.557 599.217,418.299 533.987,408.538 488.528,409.629 439.736,410.648 409.602,416.242 389.078,420.796 367.675,427.415 393.153,425.053 431.249,417.549 458.004,413.965 505.918,415.011 538.85,414.897 587.858,423.053 623.552,430.085 676.219,442.49 708.888,454.458 741.14,466.417 733.469,454.995 " id="polyline70961" style="font-size:14.3611002px;font-style:normal;font-weight:400;fill:none;stroke:#007f00;stroke-width:1;stroke-linecap:square;stroke-linejoin:bevel;stroke-opacity:1;font-family:Ubuntu" transform="translate(-354.27508,-110.691)" fill="param(fill) none" stroke="param(outline) #00ff00" stroke-width="param(outline-width) 1"/>
  <polyline vector-effect="non-scaling-stroke" points="741.948,448.511 727.695,414.019 717.272,395.034 706.949,371.466 693.71,347.834 682.037,328.821 672.818,311.947 651.155,292.299 633.947,278.585 606.895,257.569 559.854,235.7 508.038,222.48 476.854,218.881 449.773,218.29 491.726,225.042 522.855,231.14 541.902,236.975 571.727,245.546 596.063,257.332 617.4,272.804 639.1,290.785 660.373,309.174 673.677,329.889 690.964,359.028 703.732,385.151 723.347,422.261 736.377,455.475 741.948,448.511 " id="polyline70963" style="font-size:14.3611002px;font-style:normal;font-weight:400;fill:none;stroke:#007f00;stroke-width:1;stroke-linecap:square;stroke-linejoin:bevel;stroke-opacity:1;font-family:Ubuntu" transform="translate(-354.27508,-110.691)" fill="param(fill) none" stroke="param(outline) #00ff00" stroke-width="param(outline-width) 1"/>
  <polyline vector-effect="non-scaling-stroke" points="730.011,441.581 711.977,446.606 700.963,454.702 712.159,438.273 720.756,426.373 701.5,430.12 689.326,434.023 679.507,444.646 693.258,425.772 703.05,416.399 707.334,411.073 691.058,411.968 677.155,418.751 660.642,430.479 676.059,411.641 693.822,399.941 699.393,392.976 687.22,396.879 658.381,400.417 644.866,408.459 643.145,410.922 656.063,392.03 672.394,388.635 686.206,386.019 652.069,384.023 635.766,386.168 618.982,391.22 605.586,393.845 628.774,381.847 637.162,379.529 652.224,376.94 679.305,377.531 644.01,371.342 623.504,375.062 602.906,382.949 586.448,392.177 604.311,375.893 627.815,368.487 652.488,364.857 667.487,365.185 682.458,366.763 655.133,358.246 619.692,358.722 597.881,364.915 586.958,368.845 582.673,374.17 602.257,355.424 626.984,349.294 647.49,345.574 666.628,347.242 631.269,343.969 597.05,345.723 580.23,352.442 572.141,360.185 585.828,344.227 614.758,336.522 631.542,331.47 653.234,330.693 620.375,327.475 587.85,328.015 567.316,332.985 553.358,342.268 574.164,324.798 603.031,320.01 622.196,320.428 642.611,320.874 652.221,319.834 618.293,308.255 592.553,303.524 559.73,298.639 545.981,298.339 521.281,303.218 544.849,292.895 558.625,291.946 586.929,293.814 615.559,299.858 629.217,304.325 595.408,287.33 561.334,282.418 500.116,279.83 538.538,276.501 563.119,277.038 590.146,280.129 613.505,279.389 554.878,272.689 529.019,273.375 541.192,269.473 561.689,266.169 583.807,264.985 521.068,255.695 489.793,256.262 512.799,252.596 555.269,254.774 496.76,242.659 482.947,245.275 520.091,243.168 552.589,243.878 604.25,264.181 633.501,299 665.289,332.207 689.125,366.908 703.678,387.651 721.029,413.873 730.011,441.581 " id="polyline70965" style="font-size:14.3611002px;font-style:normal;font-weight:400;fill:none;stroke:#007f00;stroke-width:1;stroke-linecap:square;stroke-linejoin:bevel;stroke-opacity:1;font-family:Ubuntu" transform="translate(-354.27508,-110.691)" fill="param(fill) none" stroke="param(outline) #00ff00" stroke-width="param(outline-width) 1"/>
  <polyline vector-effect="non-scaling-stroke" points="713.414,564.01 706.924,584.355 697.087,610.376 684.951,637.183 664.142,676.623 639.752,720.836 612.656,759.78 590.391,780.155 577.031,788.8 594.349,771.627 609.891,752.795 629.74,723.805 644.118,700.461 655.759,679.941 666.935,657.616 679.275,633.836 690.277,612.327 699.328,589.973 718.798,522.97 725.782,496.338 734.339,480.271 743.827,485.714 736.667,489.294 731.836,501.897 724.531,522.068 722.291,536.504 713.414,564.01 " id="polyline70967" style="font-size:14.3611002px;font-style:normal;font-weight:400;fill:none;stroke:#007f00;stroke-width:1;stroke-linecap:square;stroke-linejoin:bevel;stroke-opacity:1;font-family:Ubuntu" transform="translate(-354.27508,-110.691)" fill="param(fill) none" stroke="param(outline) #00ff00" stroke-width="param(outline-width) 1"/>
  <polyline vector-effect="non-scaling-stroke" points="729.194,459.904 713.578,468.733 697.735,487.978 703.488,472.681 711.65,461.605 699.476,465.507 688.924,471.529 680.653,487.605 682.656,472.226 684.876,466.022 696.298,458.351 699.704,455.091 691.344,456.159 675.801,461.655 668.536,469.833 659.93,482.15 651.796,491.977 659.261,474.633 666.653,460.622 678.084,452.535 663.964,450.142 643.385,457.196 617.29,468.714 609.961,479.809 601.246,497.125 595.956,510.348 599.853,484.59 609.419,466.458 623.785,457.601 642.253,451.752 660.713,446.32 638.215,445.828 616.839,451.197 600.39,460.008 592.572,474.427 592.262,488.592 593.285,499.036 589.661,512.295 586.602,480.549 594.095,461.955 604.34,450.924 624.122,442.186 629.249,436.462 610.002,439.793 595.219,448.641 585.808,459.69 582.645,470.875 578.903,489.551 576.909,504.514 574.022,484.026 577.664,469.933 580.872,456.664 592.385,444.827 610.917,436.062 587.549,437.219 576.118,445.306 566.679,457.605 566.479,466.771 564.965,478.826 566.693,495.12 559.938,479.967 560.302,463.301 562.694,449.181 569.977,440.17 581.427,431.249 574.389,429.012 561.645,439.988 551.263,457.268 543.826,473.362 543.316,496.694 539.619,513.286 537.285,486.558 536.463,466.949 544.362,448.781 553.801,436.482 561.057,428.72 545.487,435.467 533.81,454.803 528.346,475.942 527.991,492.191 526.378,508.829 524.134,477.934 525.368,459.62 528.974,447.194 531.212,440.157 532.154,435.175 541.521,426.21 528.097,430.085 519.826,446.161 515.911,472.752 515.329,499.417 515.11,509.416 510.602,486.809 508.983,465.515 512.327,445.997 520.209,428.662 506.694,436.703 498.885,450.705 493.504,468.095 491.066,484.298 492.042,496.824 488.195,482.151 488.486,468.819 491.821,449.717 494.086,441.43 499.258,433.623 509.005,426.333 492.312,427.219 482.067,438.25 477.546,454.408 477.209,469.823 478.938,486.117 473.07,468.482 472.483,457.215 471.542,443.022 476.018,428.947 480.321,422.789 467.64,430.848 463.444,451.182 463.153,464.514 462.753,482.846 457.085,456.045 459.614,435.675 464.887,423.285 448.347,436.263 435.53,450.572 430.239,463.795 430.648,445.047 437.071,437.267 448.565,426.264 421.746,432.764 413.186,442.998 406.718,452.861 412.562,433.397 417.671,428.507 437.389,422.685 419.845,424.386 405.479,433.242 391.919,443.367 381.367,449.389 394.203,434.247 412.78,423.398 381.658,436.057 370.191,445.81 360.009,453.925 370.345,438.728 380.934,431.039 389.014,423.712 372.583,431.69 364.068,439.841 354.775,445.474 364.232,432.342 381.116,422.706 420.018,416.47 441.774,412.777 472.234,411.358 500.982,411.985 529.748,411.78 553.043,413.956 570.45,418.505 619.459,426.661 644.801,430.549 672.144,438.233 693.673,444.955 729.194,459.904 " id="polyline70969" style="font-size:14.3611002px;font-style:normal;font-weight:400;fill:none;stroke:#007f00;stroke-width:1;stroke-linecap:square;stroke-linejoin:bevel;stroke-opacity:1;font-family:Ubuntu" transform="translate(-354.27508,-110.691)" fill="param(fill) none" stroke="param(outline) #00ff00" stroke-width="param(outline-width) 1"/>
  <g id="g70971" font-style="normal" font-weight="400" font-size="14.3611" transform="translate(-354.27508,-110.691)" fill="param(fill) none" stroke="param(outline) #00ff00" stroke-width="param(outline-width) 1"/>
  <g id="g70973" font-style="normal" font-weight="400" font-size="14.3611" transform="translate(-354.27508,-110.691)" fill="param(fill) none" stroke="param(outline) #00ff00" stroke-width="param(outline-width) 1"/>
  <g id="g70975" font-style="normal" font-weight="400" font-size="14.3611" transform="translate(-354.27508,-110.691)" fill="param(fill) none" stroke="param(outline) #00ff00" stroke-width="param(outline-width) 1"/>
  <g id="g70977" font-style="normal" font-weight="400" font-size="14.3611" stroke-miterlimit="2" transform="translate(-354.27508,-110.691)" fill="param(fill) none" stroke="param(outline) #00ff00" stroke-width="param(outline-width) 1"/>
  <g id="g70983" font-style="normal" font-weight="400" font-size="14.3611" transform="translate(-354.27508,-110.691)" fill="param(fill) none" stroke="param(outline) #00ff00" stroke-width="param(outline-width) 1"/>
  <g id="g70985" font-style="normal" font-weight="400" font-size="14.3611" transform="translate(-354.27508,-110.691)" fill="param(fill) none" stroke="param(outline) #00ff00" stroke-width="param(outline-width) 1"/>
  <g id="g70987" font-style="normal" font-weight="400" font-size="14.3611" transform="translate(-354.27508,-110.691)" fill="param(fill) none" stroke="param(outline) #00ff00" stroke-width="param(outline-width) 1"/>
</svg>