<?xml version='1.0' encoding='utf-8'?>
<svg xmlns:dc="http://purl.org/dc/elements/1.1/" xmlns:cc="http://creativecommons.org/ns#" xmlns:rdf="http://www.w3.org/1999/02/22-rdf-syntax-ns#" xmlns:svg="http://www.w3.org/2000/svg" xmlns="http://www.w3.org/2000/svg" xmlns:sodipodi="http://sodipodi.sourceforge.net/DTD/sodipodi-0.dtd" xmlns:inkscape="http://www.inkscape.org/namespaces/inkscape" width="669.33136" height="715.17731" viewBox="0 0 699.07893 746.96252" version="1.2" id="svg60312" inkscape:version="0.48.4 r9939" sodipodi:docname="palma_pianta_2.svg">
  <metadata id="metadata60404">
    <rdf:RDF>
      <cc:Work rdf:about="">
        <dc:format>image/svg+xml</dc:format>
        <dc:type rdf:resource="http://purl.org/dc/dcmitype/StillImage"/>
      </cc:Work>
    </rdf:RDF>
  </metadata>
  <sodipodi:namedview pagecolor="#ffffff" bordercolor="#666666" borderopacity="1" objecttolerance="10" gridtolerance="10" guidetolerance="10" inkscape:pageopacity="0" inkscape:pageshadow="2" inkscape:window-width="1855" inkscape:window-height="1176" id="namedview60402" showgrid="false" fit-margin-top="0" fit-margin-left="0" fit-margin-right="0" fit-margin-bottom="0" inkscape:zoom="1.138488" inkscape:cx="356.77266" inkscape:cy="354.18851" inkscape:window-x="65" inkscape:window-y="24" inkscape:window-maximized="1" inkscape:current-layer="svg60312"/>
  <title id="title60314">Qt SVG Document</title>
  <desc id="desc60316">Generated with Qt</desc>
  <defs id="defs60318"/>
  <g id="g60322" font-style="normal" font-weight="400" font-size="14.3611" transform="translate(-399.87108,-94.9675)" fill="param(fill) none" stroke="param(outline) #00ff00" stroke-width="param(outline-width) 1"/>
  <g id="g60328" font-style="normal" font-weight="400" font-size="14.3611" transform="translate(-399.87108,-94.9675)" fill="param(fill) none" stroke="param(outline) #00ff00" stroke-width="param(outline-width) 1"/>
  <g id="g60330" font-style="normal" font-weight="400" font-size="14.3611" stroke-miterlimit="2" transform="translate(-399.87108,-94.9675)" fill="param(fill) none" stroke="param(outline) #00ff00" stroke-width="param(outline-width) 1"/>
  <polyline vector-effect="non-scaling-stroke" points="787.79,326.662 797.724,256.22 806.755,283.313 808.561,214.677 827.525,256.22 824.816,186.681 848.296,226.417 850.102,180.359 863.648,196.615 873.582,156.878 879.904,173.134 907.899,143.332 897.965,180.359 927.767,182.165 887.128,196.615 914.221,205.646 868.164,221.902 912.414,232.739 852.811,251.704 882.613,262.541 833.847,283.313 875.388,287.828 811.27,311.309 848.296,315.825 785.984,342.918 " id="polyline60334" style="font-size:14.3611002px;font-style:normal;font-weight:400;fill:none;stroke:#000000;stroke-width:1;stroke-linecap:square;stroke-linejoin:bevel;stroke-opacity:1;font-family:Ubuntu" transform="translate(-399.87108,-94.9675)" fill="param(fill) none" stroke="param(outline) #00ff00" stroke-width="param(outline-width) 1"/>
  <polyline vector-effect="non-scaling-stroke" points="813.076,296.859 893.45,166.813 " id="polyline60336" style="font-size:14.3611002px;font-style:normal;font-weight:400;fill:none;stroke:#000000;stroke-width:1;stroke-linecap:square;stroke-linejoin:bevel;stroke-opacity:1;font-family:Ubuntu" transform="translate(-399.87108,-94.9675)" fill="param(fill) none" stroke="param(outline) #00ff00" stroke-width="param(outline-width) 1"/>
  <polyline vector-effect="non-scaling-stroke" points="721.866,421.487 721.866,372.72 702.901,400.716 692.064,372.72 684.84,388.976 668.584,338.402 662.263,351.949 641.492,292.344 636.977,313.115 620.721,253.51 618.012,286.022 586.404,232.739 595.435,269.766 552.088,235.448 581.889,278.797 544.863,271.572 590.92,296.859 533.123,311.309 611.691,320.34 553.894,347.433 629.752,350.142 590.92,377.235 655.038,377.235 625.237,398.007 692.064,418.778 648.717,435.034 723.672,448.581 683.033,460.321 723.672,471.158 641.492,476.577 680.324,487.414 602.66,500.96 648.717,512.701 562.925,533.472 618.012,545.213 522.286,556.05 572.858,570.499 494.291,591.271 572.858,597.592 483.454,621.073 540.348,630.104 464.489,659.907 503.322,659.907 453.653,703.255 510.546,682.484 513.255,707.771 531.317,659.907 538.542,685.193 552.088,639.135 562.925,668.938 586.404,613.848 598.144,664.422 618.012,593.077 623.431,631.91 657.747,561.468 657.747,606.623 689.355,528.957 692.064,584.046 717.35,510.895 728.187,556.05 738.121,487.414 742.636,531.666 753.473,499.154 757.989,575.015 774.244,547.019 765.213,616.558 797.724,563.275 790.499,621.073 804.045,591.271 808.561,668.938 827.525,606.623 823.01,671.647 838.362,639.135 838.362,716.802 854.618,661.713 859.133,744.798 868.164,689.709 912.414,746.604 891.644,698.74 955.762,724.027 916.93,685.193 964.793,682.484 914.221,664.422 939.507,655.391 897.965,639.135 933.185,630.104 875.388,611.139 942.216,600.302 859.133,588.561 937.7,570.499 852.811,563.275 909.705,549.728 827.525,545.213 868.164,533.472 795.015,519.926 836.556,510.895 774.244,485.608 802.239,482.898 " id="polyline60338" style="font-size:14.3611002px;font-style:normal;font-weight:400;fill:none;stroke:#000000;stroke-width:1;stroke-linecap:square;stroke-linejoin:bevel;stroke-opacity:1;font-family:Ubuntu" transform="translate(-399.87108,-94.9675)" fill="param(fill) none" stroke="param(outline) #00ff00" stroke-width="param(outline-width) 1"/>
  <polyline vector-effect="non-scaling-stroke" points="765.213,462.127 854.618,499.154 797.724,451.29 859.133,457.612 833.847,436.84 934.991,448.581 873.582,426.003 944.022,426.003 907.899,411.553 1033.43,405.232 944.022,386.266 1008.14,377.235 958.471,366.398 1070.45,342.918 1019.88,341.111 1086.71,301.375 1015.36,320.34 1022.59,267.057 990.079,345.627 981.048,296.859 969.308,347.433 934.991,283.313 921.445,372.72 907.899,322.146 905.19,377.235 875.388,304.084 870.873,391.685 857.327,361.883 838.362,409.747 820.301,341.111 797.724,418.778 797.724,381.751 774.244,418.778 767.922,384.46 757.989,446.774 " id="polyline60340" style="font-size:14.3611002px;font-style:normal;font-weight:400;fill:none;stroke:#000000;stroke-width:1;stroke-linecap:square;stroke-linejoin:bevel;stroke-opacity:1;font-family:Ubuntu" transform="translate(-399.87108,-94.9675)" fill="param(fill) none" stroke="param(outline) #00ff00" stroke-width="param(outline-width) 1"/>
  <polyline vector-effect="non-scaling-stroke" points="747.738,463.137 912.414,698.74 " id="polyline60342" style="font-size:14.3611002px;font-style:normal;font-weight:400;fill:none;stroke:#000000;stroke-width:1;stroke-linecap:square;stroke-linejoin:bevel;stroke-opacity:1;font-family:Ubuntu" transform="translate(-399.87108,-94.9675)" fill="param(fill) none" stroke="param(outline) #00ff00" stroke-width="param(outline-width) 1"/>
  <polyline vector-effect="non-scaling-stroke" points="747.738,463.137 1073.16,315.825 " id="polyline60344" style="font-size:14.3611002px;font-style:normal;font-weight:400;fill:none;stroke:#000000;stroke-width:1;stroke-linecap:square;stroke-linejoin:bevel;stroke-opacity:1;font-family:Ubuntu" transform="translate(-399.87108,-94.9675)" fill="param(fill) none" stroke="param(outline) #00ff00" stroke-width="param(outline-width) 1"/>
  <polyline vector-effect="non-scaling-stroke" points="533.123,350.142 485.26,345.627 508.74,336.596 446.428,336.596 485.26,322.146 434.688,315.825 467.199,306.793 416.626,271.572 469.005,283.313 458.168,260.735 492.485,296.859 503.322,269.766 513.255,311.309 517.771,283.313 535.832,341.111 " id="polyline60346" style="font-size:14.3611002px;font-style:normal;font-weight:400;fill:none;stroke:#000000;stroke-width:1;stroke-linecap:square;stroke-linejoin:bevel;stroke-opacity:1;font-family:Ubuntu" transform="translate(-399.87108,-94.9675)" fill="param(fill) none" stroke="param(outline) #00ff00" stroke-width="param(outline-width) 1"/>
  <polyline vector-effect="non-scaling-stroke" points="517.771,333.887 458.168,287.828 " id="polyline60348" style="font-size:14.3611002px;font-style:normal;font-weight:400;fill:none;stroke:#000000;stroke-width:1;stroke-linecap:square;stroke-linejoin:bevel;stroke-opacity:1;font-family:Ubuntu" transform="translate(-399.87108,-94.9675)" fill="param(fill) none" stroke="param(outline) #00ff00" stroke-width="param(outline-width) 1"/>
  <polyline vector-effect="non-scaling-stroke" points="744.443,427.809 767.922,347.433 739.927,375.429 778.759,286.022 738.121,320.34 790.499,239.964 733.606,278.797 763.407,211.968 733.606,244.479 753.473,182.165 714.641,219.193 728.187,156.878 705.61,175.844 701.095,109.014 693.87,134.301 659.554,95.4675 684.84,152.363 643.298,143.332 687.549,175.844 643.298,186.681 689.355,201.13 648.717,207.452 701.095,239.964 648.717,232.739 708.32,276.991 664.069,262.541 687.549,287.828 666.778,287.828 701.095,320.34 653.232,317.631 714.641,356.464 673.1,354.658 710.126,381.751 " id="polyline60350" style="font-size:14.3611002px;font-style:normal;font-weight:400;fill:none;stroke:#000000;stroke-width:1;stroke-linecap:square;stroke-linejoin:bevel;stroke-opacity:1;font-family:Ubuntu" transform="translate(-399.87108,-94.9675)" fill="param(fill) none" stroke="param(outline) #00ff00" stroke-width="param(outline-width) 1"/>
  <polyline vector-effect="non-scaling-stroke" points="747.738,463.137 588.211,276.991 " id="polyline60352" style="font-size:14.3611002px;font-style:normal;font-weight:400;fill:none;stroke:#000000;stroke-width:1;stroke-linecap:square;stroke-linejoin:bevel;stroke-opacity:1;font-family:Ubuntu" transform="translate(-399.87108,-94.9675)" fill="param(fill) none" stroke="param(outline) #00ff00" stroke-width="param(outline-width) 1"/>
  <polyline vector-effect="non-scaling-stroke" points="747.738,463.137 692.663,159.469 " id="polyline60354" style="font-size:14.3611002px;font-style:normal;font-weight:400;fill:none;stroke:#000000;stroke-width:1;stroke-linecap:square;stroke-linejoin:bevel;stroke-opacity:1;font-family:Ubuntu" transform="translate(-399.87108,-94.9675)" fill="param(fill) none" stroke="param(outline) #00ff00" stroke-width="param(outline-width) 1"/>
  <g id="g60356" font-style="normal" font-weight="400" font-size="14.3611" transform="translate(-399.87108,-94.9675)" fill="param(fill) none" stroke="param(outline) #00ff00" stroke-width="param(outline-width) 1">
    <path inkscape:connector-curvature="0" id="path60358" d="m 675.398,113.029 1,0 0,1 -1,0 0,-1" vector-effect="none" fill="param(fill) none" stroke="param(outline) #00ff00" stroke-width="param(outline-width) 1"/>
  </g>
  <polyline vector-effect="non-scaling-stroke" points="726.381,579.53 693.87,591.271 730.896,595.786 683.033,611.139 728.187,609.333 650.523,636.426 717.35,630.104 653.232,666.228 719.156,648.166 673.1,691.515 702.901,677.969 662.263,735.767 714.641,698.74 653.232,780.922 710.126,735.767 678.518,810.725 701.095,783.632 714.641,838.721 723.672,801.694 760.698,841.43 742.636,788.147 772.438,792.663 747.152,753.829 790.499,767.376 744.443,724.027 799.53,749.314 747.152,698.74 795.015,710.48 751.667,677.969 795.015,680.678 751.667,636.426 772.438,646.36 751.667,613.848 " id="polyline60362" style="font-size:14.3611002px;font-style:normal;font-weight:400;fill:none;stroke:#000000;stroke-width:1;stroke-linecap:square;stroke-linejoin:bevel;stroke-opacity:1;font-family:Ubuntu" transform="translate(-399.87108,-94.9675)" fill="param(fill) none" stroke="param(outline) #00ff00" stroke-width="param(outline-width) 1"/>
  <polyline vector-effect="non-scaling-stroke" points="742.636,575.015 721.866,788.147 " id="polyline60364" style="font-size:14.3611002px;font-style:normal;font-weight:400;fill:none;stroke:#000000;stroke-width:1;stroke-linecap:square;stroke-linejoin:bevel;stroke-opacity:1;font-family:Ubuntu" transform="translate(-399.87108,-94.9675)" fill="param(fill) none" stroke="param(outline) #00ff00" stroke-width="param(outline-width) 1"/>
  <polyline vector-effect="non-scaling-stroke" points="517.771,464.836 485.26,473.867 497,478.383 458.168,485.608 473.52,491.93 425.657,496.445 458.168,506.379 418.433,521.732 439.203,524.441 413.917,545.213 443.719,545.213 437.397,563.275 464.489,533.472 469.005,556.05 480.745,515.41 494.291,545.213 497,500.96 510.546,528.957 519.577,487.414 528.608,500.96 528.608,476.577 " id="polyline60366" style="font-size:14.3611002px;font-style:normal;font-weight:400;fill:none;stroke:#000000;stroke-width:1;stroke-linecap:square;stroke-linejoin:bevel;stroke-opacity:1;font-family:Ubuntu" transform="translate(-399.87108,-94.9675)" fill="param(fill) none" stroke="param(outline) #00ff00" stroke-width="param(outline-width) 1"/>
  <polyline vector-effect="non-scaling-stroke" points="641.492,451.29 607.175,407.038 607.175,439.55 572.858,391.685 581.889,423.294 528.608,368.204 540.348,409.747 483.454,361.883 498.806,400.716 448.234,366.398 467.199,398.007 413.917,375.429 421.142,393.491 400.371,400.716 437.397,407.038 407.596,423.294 476.229,423.294 446.428,435.034 515.062,427.809 478.036,451.29 553.894,436.84 515.062,453.096 579.18,451.29 553.894,471.158 620.721,455.805 598.144,473.867 632.461,464.836 " id="polyline60368" style="font-size:14.3611002px;font-style:normal;font-weight:400;fill:none;stroke:#000000;stroke-width:1;stroke-linecap:square;stroke-linejoin:bevel;stroke-opacity:1;font-family:Ubuntu" transform="translate(-399.87108,-94.9675)" fill="param(fill) none" stroke="param(outline) #00ff00" stroke-width="param(outline-width) 1"/>
  <polyline vector-effect="non-scaling-stroke" points="522.286,466.643 443.719,533.472 " id="polyline60370" style="font-size:14.3611002px;font-style:normal;font-weight:400;fill:none;stroke:#000000;stroke-width:1;stroke-linecap:square;stroke-linejoin:bevel;stroke-opacity:1;font-family:Ubuntu" transform="translate(-399.87108,-94.9675)" fill="param(fill) none" stroke="param(outline) #00ff00" stroke-width="param(outline-width) 1"/>
  <polyline vector-effect="non-scaling-stroke" points="598.144,439.55 437.397,400.716 " id="polyline60372" style="font-size:14.3611002px;font-style:normal;font-weight:400;fill:none;stroke:#000000;stroke-width:1;stroke-linecap:square;stroke-linejoin:bevel;stroke-opacity:1;font-family:Ubuntu" transform="translate(-399.87108,-94.9675)" fill="param(fill) none" stroke="param(outline) #00ff00" stroke-width="param(outline-width) 1"/>
  <polyline vector-effect="non-scaling-stroke" points="747.738,463.137 473.52,701.449 " id="polyline60374" style="font-size:14.3611002px;font-style:normal;font-weight:400;fill:none;stroke:#000000;stroke-width:1;stroke-linecap:square;stroke-linejoin:bevel;stroke-opacity:1;font-family:Ubuntu" transform="translate(-399.87108,-94.9675)" fill="param(fill) none" stroke="param(outline) #00ff00" stroke-width="param(outline-width) 1"/>
  <polyline vector-effect="non-scaling-stroke" points="964.793,469.352 997.303,432.325 999.11,462.127 1045.17,436.84 1033.43,455.805 1093.03,441.356 1082.19,460.321 1098.45,469.352 1047.88,469.352 1084,490.123 1010.85,482.898 " id="polyline60376" style="font-size:14.3611002px;font-style:normal;font-weight:400;fill:none;stroke:#000000;stroke-width:1;stroke-linecap:square;stroke-linejoin:bevel;stroke-opacity:1;font-family:Ubuntu" transform="translate(-399.87108,-94.9675)" fill="param(fill) none" stroke="param(outline) #00ff00" stroke-width="param(outline-width) 1"/>
  <polyline vector-effect="non-scaling-stroke" points="859.133,471.158 933.185,471.158 912.414,481.092 964.793,481.092 948.537,491.93 1010.85,503.67 972.017,506.379 1040.65,526.247 1006.33,528.957 1082.19,551.534 1052.39,556.05 1073.16,579.53 1022.59,563.275 1031.62,584.046 1001.82,549.728 994.594,570.499 969.308,533.472 960.277,575.015 937.7,526.247 933.185,556.05 916.93,515.41 905.19,537.988 879.904,496.445 870.873,519.926 868.164,494.639 " id="polyline60378" style="font-size:14.3611002px;font-style:normal;font-weight:400;fill:none;stroke:#000000;stroke-width:1;stroke-linecap:square;stroke-linejoin:bevel;stroke-opacity:1;font-family:Ubuntu" transform="translate(-399.87108,-94.9675)" fill="param(fill) none" stroke="param(outline) #00ff00" stroke-width="param(outline-width) 1"/>
  <polyline vector-effect="non-scaling-stroke" points="982.854,476.577 1070.45,455.805 " id="polyline60380" style="font-size:14.3611002px;font-style:normal;font-weight:400;fill:none;stroke:#000000;stroke-width:1;stroke-linecap:square;stroke-linejoin:bevel;stroke-opacity:1;font-family:Ubuntu" transform="translate(-399.87108,-94.9675)" fill="param(fill) none" stroke="param(outline) #00ff00" stroke-width="param(outline-width) 1"/>
  <polyline vector-effect="non-scaling-stroke" points="884.419,485.608 1043.36,556.05 " id="polyline60382" style="font-size:14.3611002px;font-style:normal;font-weight:400;fill:none;stroke:#000000;stroke-width:1;stroke-linecap:square;stroke-linejoin:bevel;stroke-opacity:1;font-family:Ubuntu" transform="translate(-399.87108,-94.9675)" fill="param(fill) none" stroke="param(outline) #00ff00" stroke-width="param(outline-width) 1"/>
  <g id="g60384" font-style="normal" font-weight="400" font-size="14.3611" transform="translate(-399.87108,-94.9675)" fill="param(fill) none" stroke="param(outline) #00ff00" stroke-width="param(outline-width) 1"/>
  <g id="g60386" font-style="normal" font-weight="400" font-size="14.3611" transform="translate(-399.87108,-94.9675)" fill="param(fill) none" stroke="param(outline) #00ff00" stroke-width="param(outline-width) 1"/>
  <g id="g60388" font-style="normal" font-weight="400" font-size="14.3611" transform="translate(-399.87108,-94.9675)" fill="param(fill) none" stroke="param(outline) #00ff00" stroke-width="param(outline-width) 1"/>
  <g id="g60390" font-style="normal" font-weight="400" font-size="14.3611" stroke-miterlimit="2" transform="translate(-399.87108,-94.9675)" fill="param(fill) none" stroke="param(outline) #00ff00" stroke-width="param(outline-width) 1"/>
  <g id="g60396" font-style="normal" font-weight="400" font-size="14.3611" transform="translate(-399.87108,-94.9675)" fill="param(fill) none" stroke="param(outline) #00ff00" stroke-width="param(outline-width) 1"/>
  <g id="g60398" font-style="normal" font-weight="400" font-size="14.3611" transform="translate(-399.87108,-94.9675)" fill="param(fill) none" stroke="param(outline) #00ff00" stroke-width="param(outline-width) 1"/>
  <g id="g60400" font-style="normal" font-weight="400" font-size="14.3611" transform="translate(-399.87108,-94.9675)" fill="param(fill) none" stroke="param(outline) #00ff00" stroke-width="param(outline-width) 1"/>
</svg>