<?xml version="1.0" standalone="no"?>
<!DOCTYPE svg PUBLIC "-//W3C//DTD SVG 1.1//EN"
"http://www.w3.org/Graphics/SVG/1.1/DTD/svg11.dtd">
<!-- 2015-11-17 19:20:12 Generated by QCAD SVG Exporter -->
<svg xmlns="http://www.w3.org/2000/svg" width="7.395676667886391mm" height="7.501017210470836mm" viewBox="13.302161666056865 -22.750508605235414 7.395676667886391 7.501017210470836" version="1.1" style="stroke-linecap:round;stroke-linejoin:round;fill:none">
    <g transform="scale(1,-1)">
        <!-- Block Reference: A$C4CD164FD / entities: 30 -->
        <g>
            <!-- Polyline -->
            <path d="M17.750760634364454,20.957696697249354 A0.9041273519205307,0.9041273519205307 0 0,1 18.029687324375608,22.087046007499886 M18.029687324375608,22.087046007499886 A0.8361668193560764,0.8361668193560764 0 0,1 17.74764049239515,20.965475725598253 " style="stroke:#ffff00;stroke-width:1e-9;" stroke="param(outline) #ffff00" stroke-width="param(outline-width) 0.0"/>
            <!-- Polyline -->
            <path d="M18.93650718184269,22.135190787188968 A0.4689126922833052,0.4689126922833052 0 0,1 18.48060223874813,21.54917381762099 M18.480602238748126,21.54917381762099 A0.6277784679179084,0.6277784679179084 0 0,1 18.936507181842693,22.13519078718896 " style="stroke:#ffff00;stroke-width:1e-9;" stroke="param(outline) #ffff00" stroke-width="param(outline-width) 0.0"/>
            <!-- Polyline -->
            <path d="M19.57009694519293,21.636651642326765 A0.8976394564838737,0.8976394564838737 0 0,1 18.752884329453735,20.833006794665 M18.75288432945373,20.833006794664996 A1.1462232483734736,1.1462232483734736 0 0,1 19.570096945192933,21.63665164232677 " style="stroke:#ffff00;stroke-width:1e-9;" stroke="param(outline) #ffff00" stroke-width="param(outline-width) 0.0"/>
            <!-- Polyline -->
            <path d="M19.7364322563605,20.656381553420715 A1.1001889432669278,1.1001889432669278 0 0,1 18.738420389352292,19.985205636692204 M18.738420389352292,19.985205636692204 A1.2523918375981822,1.2523918375981822 0 0,1 19.7364322563605,20.656381553420715 " style="stroke:#ffff00;stroke-width:1e-9;" stroke="param(outline) #ffff00" stroke-width="param(outline-width) 0.0"/>
            <!-- Polyline -->
            <path d="M20.496181987165127,20.17203393913608 A0.6740151621687364,0.6740151621687364 0 0,1 19.82432207102636,19.96692799978729 M19.82432207102636,19.966927999787295 A0.7818692552418095,0.7818692552418095 0 0,1 20.496181987165127,20.172033939136078 " style="stroke:#ffff00;stroke-width:1e-9;" stroke="param(outline) #ffff00" stroke-width="param(outline-width) 0.0"/>
            <!-- Polyline -->
            <path d="M20.697838333943256,19.40703135507491 A0.8530382425614838,0.8530382425614838 0 0,1 19.47866410808951,19.303477606670384 M19.47866410808951,19.303477606670384 A1.5604106974115515,1.5604106974115515 0 0,1 20.697838333943256,19.407031355074906 " style="stroke:#ffff00;stroke-width:1e-9;" stroke="param(outline) #ffff00" stroke-width="param(outline-width) 0.0"/>
            <!-- Polyline -->
            <path d="M20.11475500853476,18.565657149288256 A1.020904876627457,1.020904876627457 0 0,1 18.93798684271098,18.630378242041132 M18.93798684271098,18.63037824204113 A0.9232620861193381,0.9232620861193381 0 0,1 20.11475500853476,18.565657149288256 " style="stroke:#ffff00;stroke-width:1e-9;" stroke="param(outline) #ffff00" stroke-width="param(outline-width) 0.0"/>
            <!-- Polyline -->
            <path d="M20.448191993154918,17.74006351542876 A0.5288052491949745,0.5288052491949745 0 0,1 19.728342083006634,18.062372848691176 M19.728342083006634,18.062372848691176 A0.8019975424311165,0.8019975424311165 0 0,1 20.448191993154918,17.74006351542876 " style="stroke:#ffff00;stroke-width:1e-9;" stroke="param(outline) #ffff00" stroke-width="param(outline-width) 0.0"/>
            <!-- Polyline -->
            <path d="M17.18535083319294,21.574999729096106 A0.9238000043230196,0.9238000043230196 0 0,1 17.286451153104583,22.72241431275448 M17.286451153104586,22.722414312754484 A0.8438705094136785,0.8438705094136785 0 0,1 17.18496152028426,21.568852633508836 " style="stroke:#ffff00;stroke-width:1e-9;" stroke="param(outline) #ffff00" stroke-width="param(outline-width) 0.0"/>
            <!-- Polyline -->
            <path d="M16.584997475356307,22.193792484145824 A0.3813018219686689,0.3813018219686689 0 0,1 16.345047505306646,22.750508605235414 M16.34504750530665,22.750508605235414 A0.5911732342579539,0.5911732342579539 0 0,1 16.58499747535631,22.193792484145828 " style="stroke:#ffff00;stroke-width:1e-9;" stroke="param(outline) #ffff00" stroke-width="param(outline-width) 0.0"/>
            <!-- Polyline -->
            <path d="M16.534258373498744,21.1989549624074 A0.6970900459079656,0.6970900459079656 0 0,1 16.17513651711631,22.11412561538225 M16.175136517116314,22.11412561538225 A0.7058847511935397,0.7058847511935397 0 0,1 16.534258373498744,21.1989549624074 " style="stroke:#ffff00;stroke-width:1e-9;" stroke="param(outline) #ffff00" stroke-width="param(outline-width) 0.0"/>
            <!-- Polyline -->
            <path d="M19.976935313438084,16.934685611917303 A0.685356057875819,0.685356057875819 0 0,1 19.075806537807658,17.620729195097166 M19.075806537807658,17.620729195097166 A0.8942222486340891,0.8942222486340891 0 0,1 19.976935313438084,16.934685611917303 " style="stroke:#ffff00;stroke-width:1e-9;" stroke="param(outline) #ffff00" stroke-width="param(outline-width) 0.0"/>
            <!-- Polyline -->
            <path d="M18.25703196349833,17.435560711914373 A0.8566731043614159,0.8566731043614159 0 0,1 19.054603507792677,16.662857022355464 M19.054603507792677,16.662857022355457 A0.7866971594874436,0.7866971594874436 0 0,1 18.248888367228275,17.43951013538924 " style="stroke:#ffff00;stroke-width:1e-9;" stroke="param(outline) #ffff00" stroke-width="param(outline-width) 0.0"/>
            <!-- Polyline -->
            <path d="M19.032487169862414,15.894110061289412 A0.42483560978737533,0.42483560978737533 0 0,1 18.64856721778282,16.480127030857474 M18.64856721778282,16.480127030857474 A0.8819262721531054,0.8819262721531054 0 0,1 19.032487169862414,15.894110061289412 " style="stroke:#ffff00;stroke-width:1e-9;" stroke="param(outline) #ffff00" stroke-width="param(outline-width) 0.0"/>
            <!-- Polyline -->
            <path d="M18.225811780417416,15.781693318814165 A0.8204970721913665,0.8204970721913665 0 0,1 17.915586082769728,16.80048118421059 M17.915586082769728,16.800481184210586 A0.6665675567628838,0.6665675567628838 0 0,1 18.225811780417416,15.781693318814165 " style="stroke:#ffff00;stroke-width:1e-9;" stroke="param(outline) #ffff00" stroke-width="param(outline-width) 0.0"/>
            <!-- Polyline -->
            <path d="M17.712762334589634,15.308093091721437 A0.7677770893024428,0.7677770893024428 0 0,1 17.520802358550185,16.12851684911667 M17.520802358550185,16.12851684911667 A0.6210886643095371,0.6210886643095371 0 0,1 17.712762334589634,15.308093091721437 " style="stroke:#ffff00;stroke-width:1e-9;" stroke="param(outline) #ffff00" stroke-width="param(outline-width) 0.0"/>
            <!-- Polyline -->
            <path d="M17.04909361692611,15.912307147711193 A0.7339357772509957,0.7339357772509957 0 0,1 16.87793461132758,16.98334054466636 M16.87793461132758,16.98334054466636 A0.7823979556542263,0.7823979556542263 0 0,1 17.04909361692611,15.912307147711195 " style="stroke:#ffff00;stroke-width:1e-9;" stroke="param(outline) #ffff00" stroke-width="param(outline-width) 0.0"/>
            <!-- Polyline -->
            <path d="M16.27306251429168,15.249491394764577 A0.5154411240906293,0.5154411240906293 0 0,1 16.393037499316854,15.923410909767885 M16.393037499316854,15.923410909767883 A0.41795960527731113,0.41795960527731113 0 0,1 16.27306251429168,15.24949139476458 " style="stroke:#ffff00;stroke-width:1e-9;" stroke="param(outline) #ffff00" stroke-width="param(outline-width) 0.0"/>
            <!-- Polyline -->
            <path d="M15.433780501588222,15.755570553034797 A0.7551324713632076,0.7551324713632076 0 0,1 15.968652394084332,16.774358418431216 M15.968652394084332,16.774358418431216 A0.7974740208028782,0.7974740208028782 0 0,1 15.433780501588224,15.755570553034795 " style="stroke:#ffff00;stroke-width:1e-9;" stroke="param(outline) #ffff00" stroke-width="param(outline-width) 0.0"/>
            <!-- Polyline -->
            <path d="M14.931000922642184,16.669867355313645 A0.7297098011243884,0.7297098011243884 0 0,1 15.583544631487634,17.53191862603367 M15.583544631487634,17.53191862603367 A0.7357880219003803,0.7357880219003803 0 0,1 14.931000922642182,16.669867355313645 " style="stroke:#ffff00;stroke-width:1e-9;" stroke="param(outline) #ffff00" stroke-width="param(outline-width) 0.0"/>
            <!-- Polyline -->
            <path d="M14.11351278384544,16.392224485422318 A0.48800932068302527,0.48800932068302527 0 0,1 14.617407720949519,16.831737212598277 M14.617407720949517,16.831737212598277 A0.5605440950341843,0.5605440950341843 0 0,1 14.11351278384544,16.392224485422318 " style="stroke:#ffff00;stroke-width:1e-9;" stroke="param(outline) #ffff00" stroke-width="param(outline-width) 0.0"/>
            <!-- Polyline -->
            <path d="M13.679400694201869,17.401304797136635 A0.9336554376159658,0.9336554376159658 0 0,1 14.738447041343834,17.936821495614264 M14.738447041343834,17.936821495614264 A0.8835405712372947,0.8835405712372947 0 0,1 13.67940069420187,17.40130479713664 " style="stroke:#ffff00;stroke-width:1e-9;" stroke="param(outline) #ffff00" stroke-width="param(outline-width) 0.0"/>
            <!-- Polyline -->
            <path d="M13.302161666056866,17.881461345373467 A0.5855080598126441,0.5855080598126441 0 0,1 14.036019372577153,18.186518229698475 M14.036019372577154,18.18651822969848 A0.6195564867782315,0.6195564867782315 0 0,1 13.302161666056865,17.881461345373467 " style="stroke:#ffff00;stroke-width:1e-9;" stroke="param(outline) #ffff00" stroke-width="param(outline-width) 0.0"/>
            <!-- Polyline -->
            <path d="M13.817423459996332,18.472509058753083 A0.9593329650380381,0.9593329650380381 0 0,1 14.972858997922838,18.815698053618714 M14.972858997922836,18.815698053618714 A0.9826342076821317,0.9826342076821317 0 0,1 13.817423459996332,18.472509058753083 " style="stroke:#ffff00;stroke-width:1e-9;" stroke="param(outline) #ffff00" stroke-width="param(outline-width) 0.0"/>
            <!-- Polyline -->
            <path d="M13.302161666056865,19.044490716862384 A0.6230638680704719,0.6230638680704719 0 0,1 14.114089341356365,19.15888704848426 M14.114089341356365,19.15888704848426 A0.5829818860733975,0.5829818860733975 0 0,1 13.302161666056866,19.044490716862384 " style="stroke:#ffff00;stroke-width:1e-9;" stroke="param(outline) #ffff00" stroke-width="param(outline-width) 0.0"/>
            <!-- Polyline -->
            <path d="M13.41145962234693,19.997793480377858 A0.7851152050743953,0.7851152050743953 0 0,1 14.535667172761888,19.749934761863877 M14.535667172761888,19.749934761863877 A0.9178574122160401,0.9178574122160401 0 0,1 13.41145962234693,19.997793480377858 " style="stroke:#ffff00;stroke-width:1e-9;" stroke="param(outline) #ffff00" stroke-width="param(outline-width) 0.0"/>
            <!-- Polyline -->
            <path d="M14.254615285157975,20.912964133352705 A0.6839116197051465,0.6839116197051465 0 0,1 15.25391088552675,20.51257697267622 M15.25391088552675,20.51257697267622 A0.9064134007257716,0.9064134007257716 0 0,1 14.254615285157975,20.912964133352705 " style="stroke:#ffff00;stroke-width:1e-9;" stroke="param(outline) #ffff00" stroke-width="param(outline-width) 0.0"/>
            <!-- Polyline -->
            <path d="M14.660579122807377,21.675606344165136 A0.7558014592672823,0.7558014592672823 0 0,1 15.44127881059533,20.98922835443396 M15.44127881059533,20.98922835443396 A0.8135332592123985,0.8135332592123985 0 0,1 14.660579122807377,21.675606344165136 " style="stroke:#ffff00;stroke-width:1e-9;" stroke="param(outline) #ffff00" stroke-width="param(outline-width) 0.0"/>
            <!-- Polyline -->
            <path d="M15.673187589167878,21.54917381762099 A0.5380530102395197,0.5380530102395197 0 0,1 16.03311254424202,20.8459534541393 M16.03311254424202,20.8459534541393 A0.5521841177868256,0.5521841177868256 0 0,1 15.673187589167878,21.54917381762099 " style="stroke:#ffff00;stroke-width:1e-9;" stroke="param(outline) #ffff00" stroke-width="param(outline-width) 0.0"/>
            <!-- Polyline -->
            <path d="M15.25391088552675,22.41918249970717 A0.4973451226023899,0.4973451226023899 0 0,1 15.566190760641515,21.86626689686818 M15.566190760641515,21.86626689686818 A0.3885333628954876,0.3885333628954876 0 0,1 15.25391088552675,22.41918249970717 " style="stroke:#ffff00;stroke-width:1e-9;" stroke="param(outline) #ffff00" stroke-width="param(outline-width) 0.0"/>
        </g>
    </g>
</svg>
