<?xml version='1.0' encoding='utf-8'?>
<svg xmlns:dc="http://purl.org/dc/elements/1.1/" xmlns:cc="http://creativecommons.org/ns#" xmlns:rdf="http://www.w3.org/1999/02/22-rdf-syntax-ns#" xmlns:svg="http://www.w3.org/2000/svg" xmlns="http://www.w3.org/2000/svg" xmlns:sodipodi="http://sodipodi.sourceforge.net/DTD/sodipodi-0.dtd" xmlns:inkscape="http://www.inkscape.org/namespaces/inkscape" width="775.89142" height="715.15332" viewBox="0 0 810.37492 746.93747" version="1.2" id="svg16088" inkscape:version="0.48.4 r9939" sodipodi:docname="albero_pianta_3.svg">
  <metadata id="metadata16172">
    <rdf:RDF>
      <cc:Work rdf:about="">
        <dc:format>image/svg+xml</dc:format>
        <dc:type rdf:resource="http://purl.org/dc/dcmitype/StillImage"/>
      </cc:Work>
    </rdf:RDF>
  </metadata>
  <sodipodi:namedview pagecolor="#ffffff" bordercolor="#666666" borderopacity="1" objecttolerance="10" gridtolerance="10" guidetolerance="10" inkscape:pageopacity="0" inkscape:pageshadow="2" inkscape:window-width="1855" inkscape:window-height="1176" id="namedview16170" showgrid="false" fit-margin-top="0" fit-margin-left="0" fit-margin-right="0" fit-margin-bottom="0" inkscape:zoom="1.138488" inkscape:cx="410.02684" inkscape:cy="354.19569" inkscape:window-x="65" inkscape:window-y="24" inkscape:window-maximized="1" inkscape:current-layer="svg16088"/>
  <title id="title16090">Qt SVG Document</title>
  <desc id="desc16092">Generated with Qt</desc>
  <defs id="defs16094"/>
  <g id="g16098" font-style="normal" font-weight="400" font-size="14.3611" transform="translate(-344.25008,-95)" fill="param(fill) none" stroke="param(outline) #00ff00" stroke-width="param(outline-width) 1"/>
  <g id="g16104" font-style="normal" font-weight="400" font-size="14.3611" transform="translate(-344.25008,-95)" fill="param(fill) none" stroke="param(outline) #00ff00" stroke-width="param(outline-width) 1"/>
  <g id="g16106" font-style="normal" font-weight="400" font-size="14.3611" stroke-miterlimit="2" transform="translate(-344.25008,-95)" fill="param(fill) none" stroke="param(outline) #00ff00" stroke-width="param(outline-width) 1"/>
  <polyline vector-effect="non-scaling-stroke" points="728.002,275.122 708.977,359.927 " id="polyline16110" style="font-size:14.3611002px;font-style:normal;font-weight:400;fill:none;stroke:#000000;stroke-width:1;stroke-linecap:square;stroke-linejoin:bevel;stroke-opacity:1;font-family:Ubuntu" transform="translate(-344.25008,-95)" fill="param(fill) none" stroke="param(outline) #00ff00" stroke-width="param(outline-width) 1"/>
  <polyline vector-effect="non-scaling-stroke" points="680.44,279.085 717.697,325.054 " id="polyline16112" style="font-size:14.3611002px;font-style:normal;font-weight:400;fill:none;stroke:#000000;stroke-width:1;stroke-linecap:square;stroke-linejoin:bevel;stroke-opacity:1;font-family:Ubuntu" transform="translate(-344.25008,-95)" fill="param(fill) none" stroke="param(outline) #00ff00" stroke-width="param(outline-width) 1"/>
  <polyline vector-effect="non-scaling-stroke" points="650.318,280.67 648.732,329.809 " id="polyline16114" style="font-size:14.3611002px;font-style:normal;font-weight:400;fill:none;stroke:#000000;stroke-width:1;stroke-linecap:square;stroke-linejoin:bevel;stroke-opacity:1;font-family:Ubuntu" transform="translate(-344.25008,-95)" fill="param(fill) none" stroke="param(outline) #00ff00" stroke-width="param(outline-width) 1"/>
  <polyline vector-effect="non-scaling-stroke" points="648.732,329.809 673.306,368.645 " id="polyline16116" style="font-size:14.3611002px;font-style:normal;font-weight:400;fill:none;stroke:#000000;stroke-width:1;stroke-linecap:square;stroke-linejoin:bevel;stroke-opacity:1;font-family:Ubuntu" transform="translate(-344.25008,-95)" fill="param(fill) none" stroke="param(outline) #00ff00" stroke-width="param(outline-width) 1"/>
  <polyline vector-effect="non-scaling-stroke" points="648.732,329.809 609.097,331.394 " id="polyline16118" style="font-size:14.3611002px;font-style:normal;font-weight:400;fill:none;stroke:#000000;stroke-width:1;stroke-linecap:square;stroke-linejoin:bevel;stroke-opacity:1;font-family:Ubuntu" transform="translate(-344.25008,-95)" fill="param(fill) none" stroke="param(outline) #00ff00" stroke-width="param(outline-width) 1"/>
  <polyline vector-effect="non-scaling-stroke" points="631.293,330.602 613.061,303.654 " id="polyline16120" style="font-size:14.3611002px;font-style:normal;font-weight:400;fill:none;stroke:#000000;stroke-width:1;stroke-linecap:square;stroke-linejoin:bevel;stroke-opacity:1;font-family:Ubuntu" transform="translate(-344.25008,-95)" fill="param(fill) none" stroke="param(outline) #00ff00" stroke-width="param(outline-width) 1"/>
  <polyline vector-effect="non-scaling-stroke" points="807.271,518.44 845.32,554.106 " id="polyline16122" style="font-size:14.3611002px;font-style:normal;font-weight:400;fill:none;stroke:#000000;stroke-width:1;stroke-linecap:square;stroke-linejoin:bevel;stroke-opacity:1;font-family:Ubuntu" transform="translate(-344.25008,-95)" fill="param(fill) none" stroke="param(outline) #00ff00" stroke-width="param(outline-width) 1"/>
  <polyline vector-effect="non-scaling-stroke" points="845.32,554.106 890.504,557.276 " id="polyline16124" style="font-size:14.3611002px;font-style:normal;font-weight:400;fill:none;stroke:#000000;stroke-width:1;stroke-linecap:square;stroke-linejoin:bevel;stroke-opacity:1;font-family:Ubuntu" transform="translate(-344.25008,-95)" fill="param(fill) none" stroke="param(outline) #00ff00" stroke-width="param(outline-width) 1"/>
  <polyline vector-effect="non-scaling-stroke" points="867.516,556.484 884.955,577.091 " id="polyline16126" style="font-size:14.3611002px;font-style:normal;font-weight:400;fill:none;stroke:#000000;stroke-width:1;stroke-linecap:square;stroke-linejoin:bevel;stroke-opacity:1;font-family:Ubuntu" transform="translate(-344.25008,-95)" fill="param(fill) none" stroke="param(outline) #00ff00" stroke-width="param(outline-width) 1"/>
  <polyline vector-effect="non-scaling-stroke" points="831.845,542.218 846.906,595.32 " id="polyline16128" style="font-size:14.3611002px;font-style:normal;font-weight:400;fill:none;stroke:#000000;stroke-width:1;stroke-linecap:square;stroke-linejoin:bevel;stroke-opacity:1;font-family:Ubuntu" transform="translate(-344.25008,-95)" fill="param(fill) none" stroke="param(outline) #00ff00" stroke-width="param(outline-width) 1"/>
  <polyline vector-effect="non-scaling-stroke" points="846.906,595.32 880.199,608.793 " id="polyline16130" style="font-size:14.3611002px;font-style:normal;font-weight:400;fill:none;stroke:#000000;stroke-width:1;stroke-linecap:square;stroke-linejoin:bevel;stroke-opacity:1;font-family:Ubuntu" transform="translate(-344.25008,-95)" fill="param(fill) none" stroke="param(outline) #00ff00" stroke-width="param(outline-width) 1"/>
  <polyline vector-effect="non-scaling-stroke" points="762.087,565.995 760.502,665.066 " id="polyline16132" style="font-size:14.3611002px;font-style:normal;font-weight:400;fill:none;stroke:#000000;stroke-width:1;stroke-linecap:square;stroke-linejoin:bevel;stroke-opacity:1;font-family:Ubuntu" transform="translate(-344.25008,-95)" fill="param(fill) none" stroke="param(outline) #00ff00" stroke-width="param(outline-width) 1"/>
  <polyline vector-effect="non-scaling-stroke" points="762.087,604.038 777.149,653.97 " id="polyline16134" style="font-size:14.3611002px;font-style:normal;font-weight:400;fill:none;stroke:#000000;stroke-width:1;stroke-linecap:square;stroke-linejoin:bevel;stroke-opacity:1;font-family:Ubuntu" transform="translate(-344.25008,-95)" fill="param(fill) none" stroke="param(outline) #00ff00" stroke-width="param(outline-width) 1"/>
  <polyline vector-effect="non-scaling-stroke" points="777.149,653.97 801.722,674.577 " id="polyline16136" style="font-size:14.3611002px;font-style:normal;font-weight:400;fill:none;stroke:#000000;stroke-width:1;stroke-linecap:square;stroke-linejoin:bevel;stroke-opacity:1;font-family:Ubuntu" transform="translate(-344.25008,-95)" fill="param(fill) none" stroke="param(outline) #00ff00" stroke-width="param(outline-width) 1"/>
  <polyline vector-effect="non-scaling-stroke" points="760.502,625.437 731.172,654.762 " id="polyline16138" style="font-size:14.3611002px;font-style:normal;font-weight:400;fill:none;stroke:#000000;stroke-width:1;stroke-linecap:square;stroke-linejoin:bevel;stroke-opacity:1;font-family:Ubuntu" transform="translate(-344.25008,-95)" fill="param(fill) none" stroke="param(outline) #00ff00" stroke-width="param(outline-width) 1"/>
  <polyline vector-effect="non-scaling-stroke" points="723.273,188.119 743.073,198.414 762.082,192.87 777.922,184.951 767.626,162.778 733.569,152.484 739.905,127.143 760.498,113.681 805.643,95.4675 836.531,115.265 865.044,116.849 872.172,146.149 863.46,159.611 867.42,171.489 890.389,177.824 910.981,171.489 929.99,161.195 948.206,142.189 1003.65,152.484 1024.24,169.113 1032.95,192.87 1028.2,210.292 1025.03,249.095 984.639,247.511 952.166,253.054 965.63,271.268 987.807,277.603 1015.53,277.603 1041.66,260.973 1064.63,253.054 1082.06,276.019 1101.86,293.441 1098.69,316.405 1108.99,348.873 1082.85,353.624 1063.05,397.97 1036.12,408.265 1047.21,424.895 1063.05,450.235 1089.98,447.068 1117.7,436.773 1138.29,458.946 1131.16,470.824 1154.13,492.206 1147,527.841 1132.75,538.135 1112.15,579.314 1095.52,540.511 1070.97,553.973 1071.76,565.852 1104.23,626.827 1097.9,650.584 1081.27,660.087 1079.68,683.844 1043.25,683.844 1016.32,673.549 1005.23,653.752 977.511,660.087 974.343,687.803 950.582,694.93 966.422,711.56 1014.74,721.062 1009.19,760.657 998.103,806.587 977.511,806.587 952.166,820.049 919.693,805.003 926.822,756.698 897.517,758.281 887.221,773.327 866.628,788.373 884.053,803.419 865.044,839.054 827.819,839.054 812.771,820.841 756.538,841.43 728.817,841.43 732.777,805.795 752.578,798.668 743.865,771.744 705.056,779.663 705.848,767.784 643.279,764.617 636.943,791.541 614.766,793.125 612.39,816.09 564.869,827.968 549.029,804.211 568.037,792.333 553.781,772.535 505.468,772.535 514.972,702.057 504.676,676.717 478.539,687.011 423.89,685.427 420.722,639.498 451.611,626.827 460.323,591.192 450.819,584.065 394.585,591.192 371.617,570.603 380.329,555.557 366.865,513.587 392.209,513.587 407.258,497.749 412.802,485.079 364.489,484.287 344.688,449.443 361.32,428.854 398.545,405.889 431.018,416.184 452.403,407.473 447.65,376.589 408.842,367.087 428.642,260.181 527.644,257.014 531.604,246.719 488.043,233.257 492.796,188.119 484.875,170.697 513.388,167.53 566.453,164.362 583.878,187.327 615.558,179.408 620.31,150.9 625.063,107.346 665.456,114.473 708.224,139.813 697.136,164.362 723.273,188.119 " id="polyline16140" style="font-size:14.3611002px;font-style:normal;font-weight:400;fill:none;stroke:#000000;stroke-width:1;stroke-linecap:square;stroke-linejoin:bevel;stroke-opacity:1;font-family:Ubuntu" transform="translate(-344.25008,-95)" fill="param(fill) none" stroke="param(outline) #00ff00" stroke-width="param(outline-width) 1"/>
  <polyline vector-effect="non-scaling-stroke" points="661.495,266.516 701.888,283.938 737.529,273.643 777.13,288.689 792.97,315.614 767.626,327.492 737.529,369.462 686.048,356 664.663,378.173 659.119,399.554 617.142,420.143 601.302,391.635 595.758,336.203 612.39,293.441 647.239,278.395 661.495,266.516 " id="polyline16142" style="font-size:14.3611002px;font-style:normal;font-weight:400;fill:none;stroke:#000000;stroke-width:1;stroke-linecap:square;stroke-linejoin:bevel;stroke-opacity:1;font-family:Ubuntu" transform="translate(-344.25008,-95)" fill="param(fill) none" stroke="param(outline) #00ff00" stroke-width="param(outline-width) 1"/>
  <polyline vector-effect="non-scaling-stroke" points="766.834,561.892 818.315,506.46 849.204,509.627 884.845,465.281 918.901,432.814 946.622,444.692 935.534,489.83 902.269,491.414 887.221,527.049 891.181,589.608 870.588,626.827 825.443,655.335 793.762,679.884 751.786,659.295 712.977,649 669.416,635.538 655.159,603.862 663.871,562.684 731.985,593.568 766.834,561.892 " id="polyline16144" style="font-size:14.3611002px;font-style:normal;font-weight:400;fill:none;stroke:#000000;stroke-width:1;stroke-linecap:square;stroke-linejoin:bevel;stroke-opacity:1;font-family:Ubuntu" transform="translate(-344.25008,-95)" fill="param(fill) none" stroke="param(outline) #00ff00" stroke-width="param(outline-width) 1"/>
  <g id="g16146" font-style="normal" font-weight="400" font-size="14.3611" transform="translate(411.09992,376.283)" fill="param(fill) none" stroke="param(outline) #00ff00" stroke-width="param(outline-width) 1">
    <path inkscape:connector-curvature="0" id="path16148" d="m 19.6648,0 c 0,-10.8606 -8.8042,-19.6648 -19.6648,-19.6648 -10.8606,0 -19.6648,8.8042 -19.6648,19.6648 0,10.8606 8.8042,19.6648 19.6648,19.6648 10.8606,0 19.6648,-8.8042 19.6648,-19.6648" vector-effect="non-scaling-stroke"/>
  </g>
  <g id="g16150" font-style="normal" font-weight="400" font-size="14.3611" transform="translate(-344.25008,-95)" fill="param(fill) none" stroke="param(outline) #00ff00" stroke-width="param(outline-width) 1"/>
  <g id="g16152" font-style="normal" font-weight="400" font-size="14.3611" transform="translate(-344.25008,-95)" fill="param(fill) none" stroke="param(outline) #00ff00" stroke-width="param(outline-width) 1"/>
  <g id="g16154" font-style="normal" font-weight="400" font-size="14.3611" transform="translate(-344.25008,-95)" fill="param(fill) none" stroke="param(outline) #00ff00" stroke-width="param(outline-width) 1"/>
  <g id="g16156" font-style="normal" font-weight="400" font-size="14.3611" transform="translate(-344.25008,-95)" fill="param(fill) none" stroke="param(outline) #00ff00" stroke-width="param(outline-width) 1"/>
  <g id="g16158" font-style="normal" font-weight="400" font-size="14.3611" stroke-miterlimit="2" transform="translate(-344.25008,-95)" fill="param(fill) none" stroke="param(outline) #00ff00" stroke-width="param(outline-width) 1"/>
  <g id="g16164" font-style="normal" font-weight="400" font-size="14.3611" transform="translate(-344.25008,-95)" fill="param(fill) none" stroke="param(outline) #00ff00" stroke-width="param(outline-width) 1"/>
  <g id="g16166" font-style="normal" font-weight="400" font-size="14.3611" transform="translate(-344.25008,-95)" fill="param(fill) none" stroke="param(outline) #00ff00" stroke-width="param(outline-width) 1"/>
  <g id="g16168" font-style="normal" font-weight="400" font-size="14.3611" transform="translate(-344.25008,-95)" fill="param(fill) none" stroke="param(outline) #00ff00" stroke-width="param(outline-width) 1"/>
</svg>