<?xml version='1.0' encoding='utf-8'?>
<!-- Created with Inkscape (http://www.inkscape.org/) --><svg xmlns:dc="http://purl.org/dc/elements/1.1/" xmlns:cc="http://creativecommons.org/ns#" xmlns:rdf="http://www.w3.org/1999/02/22-rdf-syntax-ns#" xmlns:svg="http://www.w3.org/2000/svg" xmlns="http://www.w3.org/2000/svg" xmlns:sodipodi="http://sodipodi.sourceforge.net/DTD/sodipodi-0.dtd" xmlns:inkscape="http://www.inkscape.org/namespaces/inkscape" width="45.868855" height="48.949444" id="svg225786" version="1.1" inkscape:version="0.48.4 r9939" sodipodi:docname="New document 16">
  <defs id="defs225788"/>
  <sodipodi:namedview id="base" pagecolor="#ffffff" bordercolor="#666666" borderopacity="1.0" inkscape:pageopacity="0.0" inkscape:pageshadow="2" inkscape:zoom="10.587432" inkscape:cx="22.931701" inkscape:cy="24.48604" inkscape:document-units="px" inkscape:current-layer="layer1" showgrid="false" fit-margin-top="0" fit-margin-left="0" fit-margin-right="0" fit-margin-bottom="0" inkscape:window-width="1920" inkscape:window-height="1176" inkscape:window-x="1920" inkscape:window-y="24" inkscape:window-maximized="1"/>
  <metadata id="metadata225791">
    <rdf:RDF>
      <cc:Work rdf:about="">
        <dc:format>image/svg+xml</dc:format>
        <dc:type rdf:resource="http://purl.org/dc/dcmitype/StillImage"/>
        <dc:title/>
      </cc:Work>
    </rdf:RDF>
  </metadata>
  <g inkscape:label="Layer 1" inkscape:groupmode="layer" id="layer1" transform="translate(-514.21116,-513.61306)">
    <g id="g29651" font-style="normal" font-weight="400" font-size="14.3611" transform="matrix(-0.83940848,-0.46054176,0.46054176,-0.83940848,569.40522,530.20929)" fill="param(fill) none" stroke="param(outline) #00ff00" stroke-width="param(outline-width) 1">
      <path inkscape:connector-curvature="0" id="path29653" d="m 34.6366,0 c 0,-9.07354 -3.489,-17.3322 -9.1985,-23.5076" vector-effect="non-scaling-stroke"/>
    </g>
    <g id="g29657" font-style="normal" font-weight="400" font-size="14.3611" transform="matrix(0.77857131,0.55725352,-0.55725352,0.77857131,519.66391,524.53642)" fill="param(fill) none" stroke="param(outline) #00ff00" stroke-width="param(outline-width) 1">
      <path inkscape:connector-curvature="0" id="path29659" d="m 24.1069,0 c 0,-9.22741 -5.1843,-17.2439 -12.7991,-21.2957" vector-effect="non-scaling-stroke"/>
    </g>
    <g id="g29663" font-style="normal" font-weight="400" font-size="14.3611" transform="matrix(0.89758298,0.33324147,-0.33324147,0.89758298,489.44687,520.64056)" fill="param(fill) none" stroke="param(outline) #00ff00" stroke-width="param(outline-width) 1">
      <path inkscape:connector-curvature="0" id="path29665" d="m 53.3205,0 c 0,-8.82333 -2.1431,-17.1461 -5.9372,-24.4762" vector-effect="non-scaling-stroke"/>
    </g>
    <g id="g29669" font-style="normal" font-weight="400" font-size="14.3611" transform="matrix(0.58094173,0.7610596,-0.7610596,0.58094173,539.36148,525.90269)" fill="param(fill) none" stroke="param(outline) #00ff00" stroke-width="param(outline-width) 1">
      <path inkscape:connector-curvature="0" id="path29671" d="m 7.57525,0 c 0,-4.05053 -3.17909,-7.35854 -7.178245,-7.56502" vector-effect="non-scaling-stroke"/>
    </g>
    <g id="g29675" font-style="normal" font-weight="400" font-size="14.3611" transform="matrix(0.87693658,0.38430023,-0.38430023,0.87693658,439.17035,488.0998)" fill="param(fill) none" stroke="param(outline) #00ff00" stroke-width="param(outline-width) 1">
      <path inkscape:connector-curvature="0" id="path29677" d="m 116.21,0 c 0,-4.17267 -0.22,-8.29398 -0.649,-12.353" vector-effect="non-scaling-stroke"/>
    </g>
    <g id="g29681" font-style="normal" font-weight="400" font-size="14.3611" transform="matrix(0.63615963,0.71554542,-0.71554542,0.63615963,530.27434,523.18833)" fill="param(fill) none" stroke="param(outline) #00ff00" stroke-width="param(outline-width) 1">
      <path inkscape:connector-curvature="0" id="path29683" d="m 15.7018,0 c 0,-5.22102 -2.5482,-9.84687 -6.46881,-12.7017" vector-effect="non-scaling-stroke"/>
    </g>
    <g id="g29687" font-style="normal" font-weight="400" font-size="14.3611" transform="matrix(-0.86062647,0.41955631,-0.41955631,-0.86062647,554.20861,533.90312)" fill="param(fill) none" stroke="param(outline) #00ff00" stroke-width="param(outline-width) 1">
      <path inkscape:connector-curvature="0" id="path29689" d="m 19.0843,0 c 0,-5.4917 -2.3196,-10.4416 -6.0324,-13.9235" vector-effect="non-scaling-stroke"/>
    </g>
    <g id="g29693" font-style="normal" font-weight="400" font-size="14.3611" transform="matrix(-0.78371568,0.54999607,-0.54999607,-0.78371568,573.18235,517.73471)" fill="param(fill) none" stroke="param(outline) #00ff00" stroke-width="param(outline-width) 1">
      <path inkscape:connector-curvature="0" id="path29695" d="m 43.3721,0 c 0,-4.95409 -0.8306,-9.71419 -2.3602,-14.1486" vector-effect="non-scaling-stroke"/>
    </g>
    <g id="g29699" font-style="normal" font-weight="400" font-size="14.3611" transform="matrix(-0.87104828,0.39746704,-0.39746704,-0.87104828,547.64723,542.34494)" fill="param(fill) none" stroke="param(outline) #00ff00" stroke-width="param(outline-width) 1">
      <path inkscape:connector-curvature="0" id="path29701" d="m 9.6115,0 c 0,-4.35851 -2.90109,-8.03943 -6.87759,-9.2171" vector-effect="non-scaling-stroke"/>
    </g>
    <g id="g29705" font-style="normal" font-weight="400" font-size="14.3611" transform="matrix(0.25167845,-0.92377682,0.92377682,0.25167845,541.32999,583.33422)" fill="param(fill) none" stroke="param(outline) #00ff00" stroke-width="param(outline-width) 1">
      <path inkscape:connector-curvature="0" id="path29707" d="m 46.6163,0 c 0,-5.57493 -0.9786,-10.9213 -2.7734,-15.8767" vector-effect="non-scaling-stroke"/>
    </g>
    <g id="g29711" font-style="normal" font-weight="400" font-size="14.3611" transform="matrix(0.52834914,-0.79846898,0.79846898,0.52834914,543.81361,554.78218)" fill="param(fill) none" stroke="param(outline) #00ff00" stroke-width="param(outline-width) 1">
      <path inkscape:connector-curvature="0" id="path29713" d="m 18.1103,0 c 0,-6.23348 -3.1493,-11.7314 -7.9436,-14.9895" vector-effect="non-scaling-stroke"/>
    </g>
    <g id="g29717" font-style="normal" font-weight="400" font-size="14.3611" transform="matrix(-0.49947827,0.81683953,-0.81683953,-0.49947827,546.92722,523.78865)" fill="param(fill) none" stroke="param(outline) #00ff00" stroke-width="param(outline-width) 1">
      <path inkscape:connector-curvature="0" id="path29719" d="m 18.5373,0 c 0,-6.02301 -2.8725,-11.3751 -7.3222,-14.7611" vector-effect="non-scaling-stroke"/>
    </g>
    <g id="g29723" font-style="normal" font-weight="400" font-size="14.3611" transform="matrix(-0.50600998,0.81280963,-0.81280963,-0.50600998,568.70819,489.0314)" fill="param(fill) none" stroke="param(outline) #00ff00" stroke-width="param(outline-width) 1">
      <path inkscape:connector-curvature="0" id="path29725" d="m 61.531,0 c 0,-8.39705 -1.682,-16.4012 -4.7275,-23.694" vector-effect="non-scaling-stroke"/>
    </g>
    <g id="g29729" font-style="normal" font-weight="400" font-size="14.3611" transform="matrix(-0.77103716,0.56763225,-0.56763225,-0.77103716,554.46138,525.77727)" fill="param(fill) none" stroke="param(outline) #00ff00" stroke-width="param(outline-width) 1">
      <path inkscape:connector-curvature="0" id="path29731" d="m 23.0322,0 c 0,-9.4664 -5.711,-17.5989 -13.87557,-21.1402" vector-effect="non-scaling-stroke"/>
    </g>
    <g id="g29735" font-style="normal" font-weight="400" font-size="14.3611" transform="matrix(-0.10254549,-0.95194014,0.95194014,-0.10254549,561.73989,566.3941)" fill="param(fill) none" stroke="param(outline) #00ff00" stroke-width="param(outline-width) 1">
      <path inkscape:connector-curvature="0" id="path29737" d="m 38.57,0 c 0,-8.04484 -2.4629,-15.5144 -6.676,-21.6958" vector-effect="non-scaling-stroke"/>
    </g>
    <g id="g29741" font-style="normal" font-weight="400" font-size="14.3611" transform="matrix(0.33633499,-0.8964283,0.8964283,0.33633499,553.05872,545.91143)" fill="param(fill) none" stroke="param(outline) #00ff00" stroke-width="param(outline-width) 1">
      <path inkscape:connector-curvature="0" id="path29743" d="m 17.7941,0 c 0,-9.61962 -7.6334,-17.4564 -17.173307,-17.7835" vector-effect="non-scaling-stroke"/>
    </g>
    <g id="g29747" font-style="normal" font-weight="400" font-size="14.3611" transform="matrix(0.19156607,0.93808779,-0.93808779,0.19156607,527.66721,488.88682)" fill="param(fill) none" stroke="param(outline) #00ff00" stroke-width="param(outline-width) 1">
      <path inkscape:connector-curvature="0" id="path29749" d="m 53.1545,0 c 0,-8.24323 -1.8764,-16.0482 -5.2255,-23.0111" vector-effect="non-scaling-stroke"/>
    </g>
    <g id="g29753" font-style="normal" font-weight="400" font-size="14.3611" transform="matrix(0.68485732,-0.66908625,0.66908625,0.68485732,513.1054,547.37441)" fill="param(fill) none" stroke="param(outline) #00ff00" stroke-width="param(outline-width) 1">
      <path inkscape:connector-curvature="0" id="path29755" d="m 26.9436,0 c 0,-5.06875 -1.3996,-9.8106 -3.8335,-13.8601" vector-effect="non-scaling-stroke"/>
    </g>
    <g id="g29759" font-style="normal" font-weight="400" font-size="14.3611" transform="matrix(-0.86995105,0.39986258,-0.39986258,-0.86995105,579.40001,502.52757)" fill="param(fill) none" stroke="param(outline) #00ff00" stroke-width="param(outline-width) 1">
      <path inkscape:connector-curvature="0" id="path29761" d="m 53.6525,0 c 0,-2.46661 -0.1664,-4.89434 -0.4887,-7.27258" vector-effect="non-scaling-stroke"/>
    </g>
    <g transform="matrix(0.95744738,0,0,0.95744738,-132.51095,56.389651)" id="g29765" font-style="normal" font-weight="400" font-size="14.3611" fill="param(fill) none" stroke="param(outline) #00ff00" stroke-width="param(outline-width) 1">
      <path inkscape:connector-curvature="0" id="path29767" d="m 699.002,502.241 1,0 0,1 -1,0 0,-1" vector-effect="none" fill="param(fill) none" stroke="param(outline) #00ff00" stroke-width="param(outline-width) 1"/>
    </g>
    <g id="g29771" font-style="normal" font-weight="400" font-size="14.3611" transform="matrix(0.95442471,0.07601404,-0.07601404,0.95442471,453.37791,554.86835)" fill="param(fill) none" stroke="param(outline) #00ff00" stroke-width="param(outline-width) 1">
      <path inkscape:connector-curvature="0" id="path29773" d="m 88.1548,0 c 0,-8.06263 -1.0824,-15.8724 -3.1098,-23.2921" vector-effect="non-scaling-stroke"/>
    </g>
    <g id="g29777" font-style="normal" font-weight="400" font-size="14.3611" transform="matrix(-0.86148625,-0.41778791,0.41778791,-0.86148625,558.79383,549.56409)" fill="param(fill) none" stroke="param(outline) #00ff00" stroke-width="param(outline-width) 1">
      <path inkscape:connector-curvature="0" id="path29779" d="m 25.6432,0 c 0,-8.8527 -4.486,-16.6577 -11.3087,-21.2657" vector-effect="non-scaling-stroke"/>
    </g>
    <g id="g29783" font-style="normal" font-weight="400" font-size="14.3611" transform="matrix(0.84726912,0.44591484,-0.44591484,0.84726912,518.02285,551.61111)" fill="param(fill) none" stroke="param(outline) #00ff00" stroke-width="param(outline-width) 1">
      <path inkscape:connector-curvature="0" id="path29785" d="m 23.0617,0 c 0,-8.46154 -4.5571,-15.8587 -11.3508,-19.8712" vector-effect="non-scaling-stroke"/>
    </g>
    <g id="g29789" font-style="normal" font-weight="400" font-size="14.3611" transform="matrix(-0.74284799,0.60405451,-0.60405451,-0.74284799,531.28541,531.60908)" fill="param(fill) none" stroke="param(outline) #00ff00" stroke-width="param(outline-width) 1">
      <path inkscape:connector-curvature="0" id="path29791" d="m 7.67999,0 c 0,-2.35401 -1.05909,-4.46066 -2.72677,-5.86944" vector-effect="non-scaling-stroke"/>
    </g>
    <g id="g29795" font-style="normal" font-weight="400" font-size="14.3611" transform="matrix(-0.75895609,-0.58368673,0.58368673,-0.75895609,545.76776,556.43569)" fill="param(fill) none" stroke="param(outline) #00ff00" stroke-width="param(outline-width) 1">
      <path inkscape:connector-curvature="0" id="path29797" d="m 19.9946,0 c 0,-2.75722 -0.5581,-5.3841 -1.5674,-7.77382" vector-effect="non-scaling-stroke"/>
    </g>
    <g id="g29801" font-style="normal" font-weight="400" font-size="14.3611" transform="matrix(0.01420354,-0.95734206,0.95734206,0.01420354,537.05786,572.27761)" fill="param(fill) none" stroke="param(outline) #00ff00" stroke-width="param(outline-width) 1">
      <path inkscape:connector-curvature="0" id="path29803" d="m 35.0275,0 c 0,-9.06555 -3.4439,-17.3267 -9.0948,-23.5466" vector-effect="non-scaling-stroke"/>
    </g>
    <g id="g29807" font-style="normal" font-weight="400" font-size="14.3611" transform="matrix(0.14274966,0.94674599,-0.94674599,0.14274966,506.61965,490.76629)" fill="param(fill) none" stroke="param(outline) #00ff00" stroke-width="param(outline-width) 1">
      <path inkscape:connector-curvature="0" id="path29809" d="m 59.4818,0 c 0,-8.55226 -1.8049,-16.683 -5.0545,-24.032" vector-effect="non-scaling-stroke"/>
    </g>
    <g id="g29813" font-style="normal" font-weight="400" font-size="14.3611" transform="matrix(-0.19827299,0.93669279,-0.93669279,-0.19827299,519.66391,524.53642)" fill="param(fill) none" stroke="param(outline) #00ff00" stroke-width="param(outline-width) 1">
      <path inkscape:connector-curvature="0" id="path29815" d="m 24.1069,0 c 0,-8.41014 -4.3066,-15.8144 -10.8349,-20.1278" vector-effect="non-scaling-stroke"/>
    </g>
    <g id="g29819" font-style="normal" font-weight="400" font-size="14.3611" transform="matrix(0.7324798,0.61658654,-0.61658654,0.7324798,412.38385,454.49531)" fill="param(fill) none" stroke="param(outline) #00ff00" stroke-width="param(outline-width) 1">
      <path inkscape:connector-curvature="0" id="path29821" d="m 157.08,0 c 0,-4.25052 -0.169,-8.4616 -0.5,-12.6269" vector-effect="non-scaling-stroke"/>
    </g>
    <g id="g29825" font-style="normal" font-weight="400" font-size="14.3611" transform="matrix(0.4306694,0.85511923,-0.85511923,0.4306694,519.74721,536.67781)" fill="param(fill) none" stroke="param(outline) #00ff00" stroke-width="param(outline-width) 1">
      <path inkscape:connector-curvature="0" id="path29827" d="m 17.4228,0 c 0,-4.33723 -1.5848,-8.30431 -4.207,-11.3537" vector-effect="non-scaling-stroke"/>
    </g>
    <g id="g29831" font-style="normal" font-weight="400" font-size="14.3611" transform="matrix(-0.73086267,0.61850239,-0.61850239,-0.73086267,584.14703,467.66213)" fill="param(fill) none" stroke="param(outline) #00ff00" stroke-width="param(outline-width) 1">
      <path inkscape:connector-curvature="0" id="path29833" d="m 88.2425,0 c 0,-8.38437 -1.1693,-16.4956 -3.3538,-24.1796" vector-effect="non-scaling-stroke"/>
    </g>
    <g id="g29837" font-style="normal" font-weight="400" font-size="14.3611" transform="matrix(-0.89832021,0.33124998,-0.33124998,-0.89832021,543.43924,513.65598)" fill="param(fill) none" stroke="param(outline) #00ff00" stroke-width="param(outline-width) 1">
      <path inkscape:connector-curvature="0" id="path29839" d="m 26.4707,0 c 0,-9.0638 -4.5554,-17.0636 -11.5017,-21.8348" vector-effect="non-scaling-stroke"/>
    </g>
    <g id="g29843" font-style="normal" font-weight="400" font-size="14.3611" transform="matrix(0.31938434,-0.9026067,0.9026067,0.31938434,522.85125,578.51347)" fill="param(fill) none" stroke="param(outline) #00ff00" stroke-width="param(outline-width) 1">
      <path inkscape:connector-curvature="0" id="path29845" d="m 44.269,0 c 0,-4.10784 -0.5595,-8.08499 -1.6064,-11.8594" vector-effect="non-scaling-stroke"/>
    </g>
    <g id="g29849" font-style="normal" font-weight="400" font-size="14.3611" transform="matrix(-0.04739479,-0.95627354,0.95627354,-0.04739479,529.86455,541.93802)" fill="param(fill) none" stroke="param(outline) #00ff00" stroke-width="param(outline-width) 1">
      <path inkscape:connector-curvature="0" id="path29851" d="m 7.4389,0 c 0,-1.5478 -0.47271,-2.98518 -1.28164,-4.17567" vector-effect="non-scaling-stroke"/>
    </g>
    <g id="g29855" font-style="normal" font-weight="400" font-size="14.3611" transform="matrix(-0.94790833,-0.13481434,0.13481434,-0.94790833,548.11829,526.4245)" fill="param(fill) none" stroke="param(outline) #00ff00" stroke-width="param(outline-width) 1">
      <path inkscape:connector-curvature="0" id="path29857" d="m 16.44,0 c 0,-5.39377 -2.5975,-10.1809 -6.60984,-13.1786" vector-effect="non-scaling-stroke"/>
    </g>
    <g id="g29861" font-style="normal" font-weight="400" font-size="14.3611" transform="matrix(-0.84083603,-0.4579308,0.4579308,-0.84083603,541.64594,528.83918)" fill="param(fill) none" stroke="param(outline) #00ff00" stroke-width="param(outline-width) 1">
      <path inkscape:connector-curvature="0" id="path29863" d="m 10.6097,0 c 0,-5.83244 -4.70626,-10.5657 -10.5283946,-10.6094" vector-effect="non-scaling-stroke"/>
    </g>
    <g id="g29867" font-style="normal" font-weight="400" font-size="14.3611" transform="matrix(0.63789357,-0.71400106,0.71400106,0.63789357,537.05786,572.27761)" fill="param(fill) none" stroke="param(outline) #00ff00" stroke-width="param(outline-width) 1">
      <path inkscape:connector-curvature="0" id="path29869" d="m 35.0275,0 c 0,-4.13492 -0.7165,-8.10251 -2.032,-11.7854" vector-effect="non-scaling-stroke"/>
    </g>
  </g>
</svg>