<?xml version="1.0" standalone="no"?>
<!DOCTYPE svg PUBLIC "-//W3C//DTD SVG 1.1//EN"
"http://www.w3.org/Graphics/SVG/1.1/DTD/svg11.dtd">
<!-- 2015-11-17 13:18:12 Generated by QCAD SVG Exporter -->
<svg xmlns="http://www.w3.org/2000/svg" width="9.979816517095397mm" height="9.979816517095395mm" viewBox="18.010091741452307 -21.989908258547707 9.979816517095397 9.979816517095395" version="1.1" style="stroke-linecap:round;stroke-linejoin:round;fill:none">
    <g transform="scale(1,-1)">
        <!-- Block Reference: A$C5F5E22D0 / entities: 100 -->
        <g>
            <!-- Polyline -->
            <path d="M22.586527758015325,13.373685167539547 L22.483535558033964,13.291662712993784 M22.483535558033964,13.291662712993784 L22.416366731959165,13.165894949356945 M22.416366731959165,13.165894949356945 L22.282029079809565,12.63001491299128 M22.282029079809565,12.63001491299128 L22.17903687982821,12.547992458445513 M22.17903687982821,12.547992458445513 L22.067437534758405,12.13461500363735 " style="stroke:#00ff00;stroke-width:1e-9;" stroke="param(outline) #00ff00" stroke-width="param(outline-width) 0.0"/>
            <!-- Polyline -->
            <path d="M20.589374662724612,13.537730076631078 L20.553551288818056,13.41196231299424 M20.553551288818056,13.41196231299424 L20.48638246274325,13.291662712993784 M20.48638246274325,13.291662712993784 L20.419213636668456,13.165894949356945 M20.419213636668456,13.165894949356945 L20.419213636668456,13.040127185720102 M20.419213636668456,13.040127185720102 L20.352044810593657,12.919827585719647 M20.352044810593657,12.919827585719647 L20.352044810593657,12.876082276628575 " style="stroke:#00ff00;stroke-width:1e-9;" stroke="param(outline) #00ff00" stroke-width="param(outline-width) 0.0"/>
            <!-- Polyline -->
            <path d="M22.04469922767861,13.909565203905212 L21.941707027697248,13.871288058450522 M21.941707027697248,13.871288058450522 L21.807369375547648,13.82754274935945 M21.807369375547648,13.82754274935945 L21.704377175566293,13.789265603904756 M21.704377175566293,13.789265603904756 L21.570039523416693,13.701774985722608 M21.570039523416693,13.701774985722608 L21.534216149510133,13.58147538572215 M21.534216149510133,13.58147538572215 L21.467047323435327,13.455707622085313 M21.467047323435327,13.455707622085313 L21.43570187126709,13.329939858448473 M21.43570187126709,13.329939858448473 L21.399878497360532,13.209640258448017 M21.399878497360532,13.209640258448017 L21.301364219117488,13.083872494811178 M21.301364219117488,13.083872494811178 L21.198372019136134,13.040127185720102 M21.198372019136134,13.040127185720102 L20.992387619173417,12.876082276628575 M20.992387619173417,12.876082276628575 L20.92521879309861,12.750314512991736 M20.92521879309861,12.750314512991736 L20.826704514855567,12.63001491299128 M20.826704514855567,12.63001491299128 L20.75505776704245,12.586269603900202 " style="stroke:#00ff00;stroke-width:1e-9;" stroke="param(outline) #00ff00" stroke-width="param(outline-width) 0.0"/>
            <!-- Polyline -->
            <path d="M20.489656666101453,13.993415797496327 L20.557102687657945,13.872619739428675 L20.59302554822721,13.70263590451251 L20.624470114892862,13.581955916495073 L20.624470114892862,13.456008718122803 L20.69163894096766,13.040428281757565 L20.691638940967657,12.918533731740744 L20.593124662724613,12.792765968103907 L20.593124662724613,12.750314512991736 L20.585624662724612,12.750314512991736 L20.585624662724612,12.795353676061703 L20.684138940967657,12.921121439698545 L20.684138940967657,13.039826089682595 L20.61697011489286,13.455406526047808 L20.61697011489286,13.580994854949237 L20.585723777222043,13.700914066932587 L20.549999889978164,13.869956377472379 L20.483108259385048,13.989759519405629 Z" style="fill:#00ff00;fill-rule:evenodd;" fill="param(fill) #00ff00"/>
            <!-- Polyline -->
            <path d="M22.47038355722897,16.3583687542355 L22.501104881006203,16.23510518902393 L22.57393230584709,16.107264880381344 L22.57393230584709,15.940029214538274 L22.605277758015326,15.77598430544675 L22.605277758015326,14.701673981349757 L22.67244658409012,14.575906217712907 L22.67244658409012,14.45353168409641 L22.70826995799669,14.327763920459565 L22.70826995799669,14.163402088743199 L22.740188983959737,14.03533296754206 L22.70826995799669,13.90726384634091 L22.70826995799669,13.742902014624537 L22.671787359278643,13.614819861771041 L22.640441907110464,13.494520261770798 L22.605277758015326,13.3710668873504 L22.605277758015326,13.132311017707448 L22.73728392006637,12.885141002126803 L22.811262157978046,12.75528057127774 L22.811262157978046,12.627396632802139 L22.774172315043693,12.49718258284518 L22.70423291569201,12.366227162591594 L22.603183243879194,12.285751727416594 L22.57183779171096,12.159983963779759 L22.463870867318153,12.073999664482747 L22.440509344413297,12.103333761495707 L22.538526819983222,12.18139437129023 L22.569872272151457,12.307162134927072 L22.674807000301367,12.390731608843597 L22.73920525309928,12.511311715863693 L22.773762157978044,12.632633193180427 L22.773762157978044,12.745348454705733 L22.704446900263417,12.867023551130469 L22.56777775801533,13.122924590097053 L22.567777758015325,13.3763034477287 L22.604260356733366,13.504385600582207 L22.635605808901555,13.6246852005825 L22.67076995799669,13.748138575002827 L22.67076995799669,13.911866561469514 L22.70154183637011,14.035332967542047 L22.670769957996686,14.158799373614594 L22.67076995799669,14.322527360081292 L22.63494658409012,14.448295123718124 L22.63494658409012,14.566519790102522 L22.56777775801532,14.692287553739371 L22.567777758015325,15.772433702377816 L22.53643230584709,15.936478611469333 L22.53643230584709,16.097332763809337 L22.46596623506172,16.221027982440415 L22.43399665450248,16.349299944502526 Z" style="fill:#00ff00;fill-rule:evenodd;" fill="param(fill) #00ff00"/>
            <!-- Polyline -->
            <path d="M22.024253216620476,15.303926236801853 L21.886262795507406,15.17473872764865 L21.751035342031052,15.130703666329175 L21.54802846797563,14.969030043446056 L21.38234536365781,14.843262279809231 L21.178632305742013,14.681026255757883 L21.083509664160587,14.559588408206386 L21.011150594084246,14.393912541053517 L20.87012657474403,14.261884957962026 L20.762463421948592,14.221871848615814 L20.62812576979901,14.17812653952474 L20.531522459329583,14.142223830708812 L20.436776069328566,14.021266322867215 L20.334893727806254,13.896853850372542 L20.26880037893962,13.778480433774611 L20.20286402170415,13.655020360456811 L20.16780213049753,13.531925990355425 L20.135744480806657,13.403300667376065 L20.062667930358373,13.280600334748653 L19.994706110344957,13.153347759182443 L19.961961776410394,13.113362385033017 L19.927146088402676,13.141873222771487 L19.957092658804605,13.178442139531446 L20.023468490940793,13.302725091238926 L20.09368543611873,13.420623958612408 L20.124318690764326,13.543534162906637 L20.160903547370854,13.671975320079026 L20.229304842285064,13.800050774035073 L20.29754914556793,13.922276557437856 L20.40165120400831,14.04939961221685 L20.503933370493407,14.17997763164897 L20.61331445998676,14.220629213742443 L20.747652112136326,14.26437452283351 L20.845973359303603,14.300915704396669 L20.973624644262582,14.420423648578854 L21.044559069812486,14.582837599609062 L21.146464984717145,14.71293527933124 L21.354720726726736,14.87878907346291 L21.520403831044632,15.004556837099793 L21.729365756914646,15.170973032399743 L21.862813607737497,15.214428589262416 L21.99349849092363,15.336776607382895 Z" style="fill:#00ff00;fill-rule:evenodd;" fill="param(fill) #00ff00"/>
            <!-- Polyline -->
            <path d="M22.76728632750855,16.851699935416722 L22.672502400642337,16.735955611935537 L22.607721537531894,16.614659100503395 L22.533487811455146,16.484350189072362 L22.43513343983792,16.358786569434514 L22.37364417490664,16.248659083101536 L22.340247576689315,16.131411180047344 L22.30503008467171,15.970140767843018 L22.27327812245573,15.798429329402694 L22.237454748549176,15.678129729402258 L22.20556470160328,15.505671542542466 L22.13802707977987,15.340725931911383 L22.10419110714382,15.185781870260952 L22.068875853772052,14.738361827177448 L22.068875853772052,13.879666555055788 L22.104699227678605,13.753898791418964 L22.10469922767861,13.358666883362922 L22.02461186622882,13.208710289899496 L21.904421621543783,13.112991401640897 L21.798700777113407,13.073700152977537 L21.689413837557545,13.002524412237856 L21.665862897323247,12.912139093352843 L21.665862897323247,12.801424166288612 L21.69912586493038,12.667962730625781 L21.66061052655697,12.520146078457689 L21.54524512902058,12.37926892415034 L21.43725693400831,12.293267685042174 L21.362500060712755,12.387136795483642 L21.460496265663203,12.465180465467002 L21.55111526808953,12.575838838433336 L21.57529083405259,12.668621386266164 L21.545862897323254,12.786695477876988 L21.54586289732325,12.927516078086445 L21.585002861425423,13.077729959202346 L21.744391226168762,13.181535454826964 L21.844654781701117,13.21879849707299 L21.930448936978785,13.287124517905916 L21.98469922767861,13.388703451716172 L21.98469922767861,13.737141798208409 L21.948875853772055,13.862909561845257 L21.948875853772055,14.743090326093823 L21.985207348213404,15.203385446650143 L22.023018123390468,15.376531203182743 L22.08981815371665,15.53967541073473 L22.120619011107244,15.706243369330748 L22.156442385013804,15.826542969331209 L22.18738132713434,15.99385767634689 L22.223810582929804,16.160677082325424 L22.262060732525615,16.29496470654496 L22.334909119743948,16.425436420212904 L22.433583304612775,16.551408327848723 L22.50264307416229,16.672634943691378 L22.57219986320142,16.802873959532885 L22.6744444928213,16.927728836052633 Z" style="fill:#00ff00;fill-rule:evenodd;" fill="param(fill) #00ff00"/>
            <!-- Polyline -->
            <path d="M24.191263850633046,14.280398062780542 L24.191263850633046,14.146734724201934 L24.229540996087742,14.04374252422058 L24.229540996087746,13.263386004387936 L24.19126385063305,13.129048352238327 L24.191263850633046,12.19048289648921 L24.183763850633046,12.19048289648921 L24.183763850633046,13.130095999826295 L24.222040996087745,13.2644336519759 L24.222040996087745,14.04239389707858 L24.183763850633046,14.145386097059953 L24.183763850633046,14.280398062780542 Z" style="fill:#00ff00;fill-rule:evenodd;" fill="param(fill) #00ff00"/>
            <!-- Polyline -->
            <path d="M24.805416341544486,13.640055254200783 L24.805416341544486,13.331078654256707 M24.805416341544486,13.331078654256707 L24.723393886998714,13.196741002107105 M24.723393886998714,13.196741002107105 L24.723393886998714,12.381759245732873 " style="stroke:#00ff00;stroke-width:1e-9;" stroke="param(outline) #00ff00" stroke-width="param(outline-width) 0.0"/>
            <!-- Polyline -->
            <path d="M23.520397886994164,13.469894228144625 L23.607888505176316,13.263909828181909 M23.607888505176316,13.263909828181909 L23.646165650631005,13.129572176032305 M23.646165650631005,13.129572176032305 L23.689910959722077,13.02657997605095 M23.689910959722077,13.02657997605095 L23.689910959722077,12.892242323901346 M23.689910959722077,12.892242323901346 L23.728188105176766,12.789250123919992 M23.728188105176766,12.789250123919992 L23.728188105176766,12.654912471770388 M23.728188105176766,12.654912471770388 L23.771933414267842,12.551920271789033 M23.771933414267842,12.551920271789033 L23.771933414267842,12.31459041965807 M23.771933414267842,12.31459041965807 L23.81021055972253,12.18025276750847 M23.81021055972253,12.18025276750847 L23.853955868813607,12.148907315340232 " style="stroke:#00ff00;stroke-width:1e-9;" stroke="param(outline) #00ff00" stroke-width="param(outline-width) 0.0"/>
            <!-- Polyline -->
            <path d="M25.478314141546985,15.131203193061335 L25.478314141546985,14.689674506380412 L25.52143511919247,14.557254116271153 L25.55925382554799,14.455495436993088 L25.642359050638518,14.319384406399678 L25.642359050638515,14.211657765323773 L25.604081905183833,14.077320113174187 L25.60408190518383,13.942263758515725 L25.560336596092753,13.839271558534378 L25.560336596092753,13.740355097856582 L25.6034575737382,13.607934707747441 L25.641218610186904,13.506331200713914 L25.728709228369066,13.371993548564301 L25.7663152645104,13.270807100390947 L25.89208302814724,13.17229282214791 L25.9314669921741,13.066322508768227 L25.910376454559675,13.058484191146785 L25.873206127677157,13.158498277729821 L25.747438364040306,13.257012555972869 L25.708490109272283,13.3618105077622 L25.62099949109012,13.496148159911819 L25.58220623662945,13.600529052841031 L25.537836596092752,13.73678396703108 L25.537836596092752,13.843851906315978 L25.581581905183825,13.946844106297341 L25.58158190518383,14.080463055938113 L25.619859050638514,14.214800708087711 L25.619859050638514,14.313058466974528 L25.538919366637504,14.445622740680326 L25.500183782083656,14.549848461364933 L25.45581414154698,14.686103375554925 L25.455814141546984,15.131203193061335 Z" style="fill:#00ff00;fill-rule:evenodd;" fill="param(fill) #00ff00"/>
            <path d="M25.909671723366888,13.062403349957506 L25.909671723366888,13.093748802125749 L25.93217172336689,13.093748802125749 L25.93217172336689,13.062403349957506 Z" style="fill:#00ff00;fill-rule:evenodd;" fill="param(fill) #00ff00"/>
            <!-- Polyline -->
            <path d="M23.86821870683315,14.920574285414459 L23.824378117795096,14.785944037678272 L23.785489720208172,14.681307143425832 L23.703286876254122,14.546674046696864 L23.661165650631006,14.447505523648958 L23.661165650631006,14.040972915473626 L23.622888505176316,13.906635263324029 L23.622888505176316,13.803357604634952 L23.57914319608524,13.669019952485355 L23.57914319608524,13.566027752503993 L23.53539788699417,13.431690100354405 L23.535397886994165,13.32686136130661 L23.45069098128503,13.188127073277302 L23.369956369803536,13.086751964507792 L23.33307583244794,12.957315854800193 L23.33307583244794,12.85851424517074 L23.37135297790263,12.724176593021134 L23.371352977902628,12.377541952782769 L23.28804899823023,12.24110539884297 L23.24558521426579,12.110703187550007 L23.245585214265787,12.010091741452312 L23.215585214265786,12.010091741452312 L23.215585214265786,12.115464695317343 L23.260612048483498,12.25373778832357 L23.34135297790263,12.38597653868298 L23.341352977902627,12.719986002669234 L23.303075832447938,12.854323654818828 L23.303075832447938,12.961506445152102 L23.342749586001712,13.10074563974369 L23.42605988361177,13.205354930936918 L23.50539788699416,13.335295947206802 L23.505397886994164,13.43645160812175 L23.549143196085243,13.570789260271345 L23.54914319608524,13.673781460252702 L23.592888505176315,13.808119112402295 L23.592888505176315,13.910825853675943 L23.631165650631,14.045163505825531 L23.631165650631004,14.453612654024452 L23.67653504319004,14.560428530939271 L23.758377108327526,14.694470738509516 L23.796043001649977,14.795818244219808 L23.839693030794063,14.92986330078278 Z" style="fill:#00ff00;fill-rule:evenodd;" fill="param(fill) #00ff00"/>
            <!-- Polyline -->
            <path d="M23.065104381231535,17.00101680721396 L23.103024788090046,16.80138834620607 L23.435682075599527,15.684930803334582 L23.471440149770928,15.588716660867526 L23.538472174088582,15.504547323435336 L23.667206674224758,15.504547323435336 L23.76162789650687,15.349902776588738 L23.807359676461726,15.242233709333831 L23.844049318175973,15.113467567879093 L23.928179193296167,15.014431567187609 L24.01361439730125,14.874504460878432 L24.05189154275593,14.771512260897094 L24.133463023781026,14.637913220195847 L24.177208332872087,14.534921020214497 L24.2565798681793,14.404925084836451 L24.338602322725073,14.301932884855084 L24.423275696509386,14.16325351593393 L24.468733797307067,14.056228787902395 L24.50972038646342,13.930362900306958 L24.61890384628285,13.836887570976382 L24.873666096887558,13.700826621759662 L24.961972977272897,13.5899433284622 L25.047097324577887,13.450525348092695 L25.085182237009718,13.348050388926922 L25.16942207138709,13.218704159549876 L25.255005257661974,13.111240896170624 L25.293282403116663,12.976903244021017 L25.371744125933272,12.87838210743761 L25.391286996092294,12.848374966695257 L25.391286996092294,12.757904671751747 L25.466286996092297,12.757904671751747 L25.466286996092297,12.59578762899512 L25.310848629886998,12.834455792551996 L25.225265443612106,12.941919055931265 L25.186988298157413,13.076256708080875 L25.108526575340758,13.174777844664339 L25.017785173353833,13.314106919586505 L24.97931579487629,13.41761636038344 L24.90039523308976,13.546873684313134 L24.824657204383556,13.64197479097838 L24.576348400440885,13.774589146060878 L24.44493266025942,13.887098216693012 L24.39842863123364,14.029907633396745 L24.35639611384917,14.12886730532793 L24.277024578541965,14.258863240705972 L24.19500212399619,14.361855440687348 L24.110328750211867,14.50053480960851 L24.066583441120812,14.603527009589836 L23.984110013054323,14.738603273187852 L23.94583286759965,14.841595473169185 L23.86722316251319,14.97034367115923 L23.776371801269086,15.077292070430465 L23.736507152073955,15.217201233274931 L23.694748313846645,15.315516565982767 L23.625124627037252,15.429547323435335 L23.502323599899746,15.429547323435337 L23.405310715125875,15.551362385965856 L23.3645144983879,15.661132643461512 L23.03005582225848,16.783635969750016 L22.99142193820761,16.987020465190934 Z" style="fill:#00ff00;fill-rule:evenodd;" fill="param(fill) #00ff00"/>
            <!-- Polyline -->
            <path d="M23.31807583244794,12.789250123919992 L23.274330523356863,12.654912471770388 M23.274330523356863,12.654912471770388 L23.230585214265787,12.551920271789033 M23.230585214265787,12.551920271789033 L23.1923080688111,12.417582619639429 M23.1923080688111,12.417582619639429 L23.148562759720026,12.31459041965807 M23.148562759720026,12.31459041965807 L23.148562759720026,12.18025276750847 M23.148562759720026,12.18025276750847 L23.110285614265337,12.113083941433672 " style="stroke:#00ff00;stroke-width:1e-9;" stroke="param(outline) #00ff00" stroke-width="param(outline-width) 0.0"/>
            <!-- Polyline -->
            <path d="M22.17903687982821,12.504247149354438 L22.04469922767861,12.460501840263364 M22.04469922767861,12.460501840263364 L21.941707027697248,12.378479385717597 M21.941707027697248,12.378479385717597 L21.87453820162245,12.258179785717143 M21.87453820162245,12.258179785717143 L21.843192749454214,12.214434476626069 " style="stroke:#00ff00;stroke-width:1e-9;" stroke="param(outline) #00ff00" stroke-width="param(outline-width) 0.0"/>
            <!-- Polyline -->
            <path d="M21.570039523416693,12.63001491299128 L21.60586289732325,12.504247149354438 M21.60586289732325,12.504247149354438 L21.673031723398054,12.378479385717597 M21.673031723398054,12.378479385717597 L21.637208349491488,12.258179785717143 " style="stroke:#00ff00;stroke-width:1e-9;" stroke="param(outline) #00ff00" stroke-width="param(outline-width) 0.0"/>
            <!-- Polyline -->
            <path d="M21.265540845210932,12.95810473117434 L21.265540845210932,12.586269603900202 M21.265540845210932,12.586269603900202 L21.229717471304372,12.460501840263364 M21.229717471304372,12.460501840263364 L21.198372019136134,12.422224694808675 " style="stroke:#00ff00;stroke-width:1e-9;" stroke="param(outline) #00ff00" stroke-width="param(outline-width) 0.0"/>
            <!-- Polyline -->
            <path d="M22.720865410164926,12.340202240262908 L22.720865410164926,12.088666712989227 M22.720865410164926,12.088666712989227 L22.68951995799669,12.088666712989227 " style="stroke:#00ff00;stroke-width:1e-9;" stroke="param(outline) #00ff00" stroke-width="param(outline-width) 0.0"/>
            <!-- Polyline -->
            <path d="M24.67964857790764,12.690735845676949 L24.67964857790764,12.58774364569559 M24.67964857790764,12.58774364569559 L24.515603668816112,12.381759245732873 M24.515603668816112,12.381759245732873 L24.515603668816112,12.35041379356463 " style="stroke:#00ff00;stroke-width:1e-9;" stroke="param(outline) #00ff00" stroke-width="param(outline-width) 0.0"/>
            <!-- Polyline -->
            <path d="M24.187513850633046,12.789250123919992 L24.26953630517882,12.654912471770388 M24.26953630517882,12.654912471770388 L24.30781345063351,12.551920271789033 M24.30781345063351,12.551920271789033 L24.30781345063351,12.417582619639429 M24.30781345063351,12.417582619639429 L24.351558759724583,12.31459041965807 " style="stroke:#00ff00;stroke-width:1e-9;" stroke="param(outline) #00ff00" stroke-width="param(outline-width) 0.0"/>
            <!-- Polyline -->
            <path d="M25.341296377910144,12.959411149976146 L25.467064141546985,12.928065697807908 M25.467064141546985,12.928065697807908 L25.59283190518383,12.959411149976146 M25.59283190518383,12.959411149976146 L25.718599668820666,12.928065697807908 M25.718599668820666,12.928065697807908 L25.756876814275355,12.928065697807908 " style="stroke:#00ff00;stroke-width:1e-9;" stroke="param(outline) #00ff00" stroke-width="param(outline-width) 0.0"/>
            <!-- Polyline -->
            <path d="M24.761671032453403,12.928065697807908 L24.805416341544486,12.825073497826548 M24.805416341544486,12.825073497826548 L24.88743879609024,12.722081297845188 M24.88743879609024,12.722081297845188 L24.931184105181327,12.619089097863831 M24.931184105181327,12.619089097863831 L25.051483705181777,12.551920271789033 " style="stroke:#00ff00;stroke-width:1e-9;" stroke="param(outline) #00ff00" stroke-width="param(outline-width) 0.0"/>
            <!-- Polyline -->
            <path d="M22.998983192786056,17.06510438123154 L23.19861165379395,17.10302478809005 L24.315069196665437,17.435682075599527 L24.411283339132485,17.47144014977093 L24.495452676564675,17.538472174088586 L24.495452676564675,17.66720667422475 L24.650097223411294,17.76162789650689 L24.757766290666154,17.807359676461715 L24.88653243212092,17.844049318175976 L24.985568432812386,17.92817919329616 L25.125495539121598,18.01361439730126 L25.228487739102956,18.05189154275595 L25.362086779804166,18.13346302378102 L25.465078979785517,18.177208332872087 L25.59507491516355,18.256579868179294 L25.698067115144898,18.33860232272505 L25.83674648406609,18.423275696509393 L25.943771212097605,18.468733797307067 L26.069637099693054,18.509720386463425 L26.16311242902362,18.618903846282844 L26.29917337824035,18.873666096887565 L26.410056671537784,18.961972977272872 L26.549474651907353,19.047097324577912 L26.651949611073093,19.08518223700972 L26.781295840450124,19.169422071387082 L26.888759103829393,19.25500525766198 L27.023096755978997,19.293282403116667 L27.121617892562437,19.3717441259333 L27.151625033304768,19.391286996092305 L27.24209532824827,19.3912869960923 L27.24209532824827,19.466286996092304 L27.40421237100489,19.466286996092304 L27.16554420744802,19.310848629887 L27.05808094406875,19.22526544361211 L26.923743291919138,19.186988298157416 L26.8252221553357,19.108526575340786 L26.68589308041351,19.017785173353836 L26.582383639616566,18.979315794876293 L26.453126315686895,18.900395233089764 L26.35802520902163,18.824657204383556 L26.225410853939152,18.57634840044092 L26.112901783307013,18.444932660259433 L25.970092366603247,18.398428631233635 L25.871132694672063,18.356396113849165 L25.741136759294037,18.277024578541965 L25.638144559312664,18.19500212399619 L25.49946519039151,18.110328750211874 L25.396472990410157,18.0665834411208 L25.26139672681217,17.984110013054334 L25.158404526830797,17.94583286759964 L25.0296563288408,17.867223162513213 L24.92270792956956,17.776371801269093 L24.78279876672507,17.736507152073955 L24.684483434017267,17.694748313846663 L24.570452676564678,17.62512462703726 L24.570452676564678,17.502323599899754 L24.448637614034162,17.40531071512588 L24.338867356538447,17.364514498387884 L23.216364030249974,17.030055822258475 L23.012979534809084,16.991421938207612 Z" style="fill:#00ff00;fill-rule:evenodd;" fill="param(fill) #00ff00"/>
            <!-- Polyline -->
            <path d="M23.23271367249146,17.148300064583296 L23.327497599357677,17.26404438806448 L23.392278462468134,17.38534089949665 L23.466512188544865,17.515649810927655 L23.5648665601621,17.641213430565514 L23.626355825093377,17.751340916898503 L23.659752423310668,17.868588819952567 L23.694969915328326,18.029859232157094 L23.726721877544286,18.20157067059733 L23.76254525145084,18.321870270597778 L23.794435298396728,18.494328457457566 L23.861972920220143,18.65927406808863 L23.89580889285619,18.814218129739068 L23.931124146227965,19.261638172822607 L23.931124146227962,20.120333444944226 L23.895300772321406,20.246101208581052 L23.895300772321402,20.641333116637092 L23.97538813377118,20.791289710100518 L24.095578378456224,20.887008598359117 L24.20129922288659,20.926299847022477 L24.31058616244245,20.99747558776216 L24.334137102676763,21.087860906647183 L24.334137102676763,21.198575833711406 L24.30087413506962,21.33203726937425 L24.33938947344304,21.47985392154232 L24.454754870979432,21.620731075849676 L24.562743065991707,21.706732314957843 L24.637499939287256,21.612863204516376 L24.539503734336808,21.534819534533018 L24.44888473191048,21.42416116156668 L24.424709165947412,21.33137861373385 L24.454137102676757,21.21330452212302 L24.45413710267676,21.07248392191356 L24.41499713857458,20.922270040797677 L24.255608773831252,20.818464545173057 L24.155345218298898,20.781201502927033 L24.069551063021212,20.7128754820941 L24.0153007723214,20.61129654828385 L24.0153007723214,20.262858201791584 L24.051124146227956,20.137090438154775 L24.05112414622796,19.256909673906247 L24.01479265178661,18.79661455334989 L23.97698187660955,18.6234687968173 L23.910181846283347,18.46032458926528 L23.879380988892756,18.29375663066921 L23.843557614986207,18.173457030668796 L23.812618672865668,18.00614232365309 L23.776189417070217,17.839322917674632 L23.737939267474378,17.705035293455037 L23.665090880256074,17.57456357978713 L23.566416695387236,17.448591672151295 L23.497356925837753,17.32736505630869 L23.427800136798588,17.19712604046712 L23.32555550717871,17.072271163947384 Z" style="fill:#00ff00;fill-rule:evenodd;" fill="param(fill) #00ff00"/>
            <!-- Polyline -->
            <path d="M23.52961644277104,17.641631245764522 L23.49889511899382,17.764894810976067 L23.426067694152923,17.89273511961868 L23.426067694152923,18.059970785461736 L23.394722241984685,18.224015694553273 L23.394722241984685,19.29832601865027 L23.32755341590989,19.42409378228711 L23.32755341590989,19.54646831590361 L23.291730042003323,19.672236079540443 L23.291730042003323,19.83659791125682 L23.25981101604027,19.964667032457974 L23.291730042003323,20.092736153659114 L23.291730042003323,20.257097985375484 L23.328212640721354,20.385180138228925 L23.359558092889575,20.505479738229322 L23.39472224198468,20.628933112649605 L23.394722241984685,20.867688982292563 L23.262716079933536,21.114858997873416 L23.188737842021965,21.244719428722288 L23.18873784202197,21.372603367197883 L23.225827684956325,21.502817417154844 L23.295767084308,21.63377283740842 L23.39681675612082,21.71424827258343 L23.428162208289052,21.84001603622026 L23.536129132681857,21.92600033551727 L23.559490655586714,21.896666238504313 L23.461473180016796,21.818605628709793 L23.430127727848557,21.692837865072956 L23.32519299969864,21.609268391156416 L23.26079474690074,21.48868828413633 L23.226237842021973,21.36736680681961 L23.22623784202197,21.25465154529429 L23.295553099736566,21.1329764488696 L23.432222241984686,20.877075409902965 L23.432222241984686,20.62369655227133 L23.39573964326675,20.495614399418177 L23.364394191098487,20.375314799417648 L23.329230042003324,20.25186142499719 L23.329230042003324,20.088133438530495 L23.2984581636299,19.964667032457974 L23.329230042003324,19.84120062638543 L23.329230042003324,19.677472639918737 L23.365053415909895,19.551704876281896 L23.36505341590989,19.4334802098975 L23.432222241984686,19.307712446260652 L23.432222241984686,18.2275662976222 L23.46356769415293,18.063521388530656 L23.463567694152925,17.90266723619069 L23.53403376493828,17.778972017559628 L23.56600334549753,17.650700055497488 Z" style="fill:#00ff00;fill-rule:evenodd;" fill="param(fill) #00ff00"/>
            <!-- Polyline -->
            <path d="M18.504247149354438,17.82096312017181 L18.460501840263362,17.955300772321408 M18.460501840263362,17.955300772321408 L18.378479385717597,18.058292972302766 M18.378479385717597,18.058292972302766 L18.258179785717147,18.125461798377568 M18.258179785717147,18.125461798377568 L18.21443447662607,18.156807250545807 " style="stroke:#00ff00;stroke-width:1e-9;" stroke="param(outline) #00ff00" stroke-width="param(outline-width) 0.0"/>
            <!-- Polyline -->
            <path d="M19.90956520390521,17.955300772321404 L19.871288058450524,18.058292972302766 M19.871288058450524,18.058292972302766 L19.82754274935945,18.192630624452363 M19.82754274935945,18.192630624452363 L19.78926560390476,18.29562282443372 M19.78926560390476,18.29562282443372 L19.701774985722608,18.429960476583325 M19.701774985722608,18.429960476583325 L19.581475385722147,18.46578385048988 M19.581475385722147,18.46578385048988 L19.455707622085306,18.532952676564683 M19.455707622085306,18.532952676564683 L19.32993985844847,18.564298128732922 M19.32993985844847,18.564298128732922 L19.20964025844802,18.60012150263948 M19.20964025844802,18.60012150263948 L19.083872494811178,18.698635780882526 M19.083872494811178,18.698635780882526 L19.040127185720102,18.80162798086388 M19.040127185720102,18.80162798086388 L18.876082276628576,19.0076123808266 M18.876082276628576,19.0076123808266 L18.750314512991736,19.074781206901402 M18.750314512991736,19.074781206901402 L18.630014912991275,19.173295485144447 M18.630014912991275,19.173295485144447 L18.5862696039002,19.244942232957563 " style="stroke:#00ff00;stroke-width:1e-9;" stroke="param(outline) #00ff00" stroke-width="param(outline-width) 0.0"/>
            <!-- Polyline -->
            <path d="M22.851699935416722,17.232713672491464 L22.735955611935562,17.32749759935766 L22.61465910050327,17.39227846246819 L22.48435018907236,17.46651218854487 L22.358786569434514,17.564866560162095 L22.24865908310154,17.62635582509337 L22.13141118004738,17.659752423310685 L21.970140767842864,17.694969915328336 L21.798429329402683,17.726721877544286 L21.67812972940224,17.762545251450845 L21.50567154254246,17.79443529839673 L21.340725931911383,17.86197292022015 L21.185781870260943,17.8958088928562 L20.73836182717747,17.93112414622797 L19.87966655505579,17.93112414622797 L19.753898791418955,17.895300772321406 L19.35866688336293,17.895300772321406 L19.2087102898995,17.975388133771187 L19.112991401640897,18.09557837845623 L19.073700152977548,18.201299222886583 L19.002524412237854,18.310586162442462 L18.91213909335285,18.334137102676763 L18.801424166288616,18.334137102676767 L18.66796273062579,18.300874135069634 L18.520146078457696,18.339389473443042 L18.37926892415035,18.454754870979432 L18.293267685042174,18.56274306599171 L18.38713679548364,18.63749993928726 L18.46518046546701,18.539503734336797 L18.575838838433338,18.44888473191048 L18.668621386266164,18.424709165947423 L18.786695477877004,18.454137102676764 L18.927516078086462,18.45413710267676 L19.07772995920234,18.414997138574588 L19.18153545482697,18.25560877383124 L19.218798497072985,18.155345218298905 L19.287124517905905,18.06955106302123 L19.38870345171617,18.015300772321403 L19.737141798208416,18.015300772321403 L19.86290956184526,18.05112414622797 L20.743090326093835,18.051124146227966 L21.203385446650096,18.014792651786617 L21.376531203182747,17.976981876609546 L21.53967541073473,17.910181846283358 L21.70624336933081,17.87938098889276 L21.826542969331232,17.843557614986203 L21.99385767634704,17.812618672865646 L22.160677082325424,17.776189417070206 L22.294964706544967,17.737939267474395 L22.425436420212886,17.665090880256077 L22.551408327848726,17.566416695387232 L22.672634943691502,17.497356925837657 L22.80287395953286,17.42780013679861 L22.927728836052633,17.325555507178713 Z" style="fill:#00ff00;fill-rule:evenodd;" fill="param(fill) #00ff00"/>
            <!-- Polyline -->
            <path d="M22.934895618768476,16.998983192786056 L22.896975211909965,17.198611653793947 L22.564317924400488,18.315069196665462 L22.528559850229097,18.41128333913248 L22.461527825911432,18.495452676564682 L22.332793325775263,18.495452676564682 L22.238372103493116,18.650097223411315 L22.192640323538303,18.757766290666154 L22.155950681824034,18.88653243212093 L22.071820806703858,18.985568432812393 L21.98638560269874,19.12549553912162 L21.948108457244075,19.22848773910293 L21.866536976219017,19.362086779804148 L21.822791667127916,19.46507897978556 L21.74342013182073,19.59507491516355 L21.66139767727498,19.698067115144884 L21.57672430349065,19.836746484066047 L21.531266202692954,19.9437712120976 L21.49027961353659,20.069637099693054 L21.38109615371717,20.163112429023627 L21.126333903112457,20.299173378240354 L21.038027022727142,20.410056671537795 L20.952902675422113,20.549474651907342 L20.91481776299029,20.651949611073114 L20.83057792861294,20.781295840450113 L20.744994742338037,20.888759103829397 L20.706717596883355,21.02309675597899 L20.628255874066728,21.121617892562423 L20.608713003907713,21.151625033304764 L20.608713003907717,21.24209532824827 L20.533713003907714,21.24209532824827 L20.533713003907714,21.404212371004903 L20.689151370113045,21.165544207447972 L20.774734556387912,21.058080944068752 L20.813011701842598,20.923743291919155 L20.89147342465922,20.825222155335712 L20.98221482664618,20.68589308041351 L21.020684205123732,20.582383639616552 L21.09960476691026,20.453126315686887 L21.17534279561647,20.358025209021626 L21.42365159955912,20.22541085393914 L21.555067339740592,20.112901783307002 L21.601571368766376,19.97009236660327 L21.64360388615085,19.871132694672067 L21.722975421458052,19.741136759294033 L21.80499787600384,19.638144559312657 L21.88967124978815,19.499465190391508 L21.933416558879223,19.396472990410164 L22.015889986945663,19.2613967268122 L22.05416713240038,19.158404526830793 L22.132776837486812,19.029656328840797 L22.22362819873093,18.92270792956955 L22.263492847926063,18.78279876672507 L22.305251686153362,18.684483434017253 L22.37487537296276,18.57045267656468 L22.49767640010026,18.570452676564685 L22.59468928487415,18.448637614034162 L22.635485501612113,18.33886735653852 L22.96994417774153,17.21636403024999 L23.008578061792402,17.012979534809084 Z" style="fill:#00ff00;fill-rule:evenodd;" fill="param(fill) #00ff00"/>
            <!-- Polyline -->
            <path d="M23.148300064583292,16.767286327508554 L23.26404438806447,16.67250240064234 L23.385340899496576,16.607721537531916 L23.51564981092763,16.533487811455164 L23.64121343056549,16.435133439837937 L23.751340916898474,16.373644174906644 L23.868588819952645,16.34024757668933 L24.02985923215705,16.3050300846717 L24.20157067059733,16.27327812245573 L24.32187027059779,16.237454748549165 L24.49432845745757,16.205564701603283 L24.659274068088635,16.13802707977987 L24.814218129739068,16.104191107143823 L25.261638172822593,16.068875853772045 L26.120333444944226,16.06887585377205 L26.24610120858106,16.104699227678612 L26.641333116637092,16.104699227678612 L26.791289710100504,16.024611866228838 L26.88700859835911,15.904421621543797 L26.926299847022484,15.798700777113398 L26.99747558776216,15.689413837557556 L27.08786090664718,15.665862897323253 L27.198575833711406,15.665862897323253 L27.332037269374236,15.699125864930386 L27.479853921542325,15.660610526556972 L27.62073107584965,15.545245129020595 L27.706732314957843,15.43725693400831 L27.612863204516376,15.362500060712755 L27.534819534532993,15.46049626566322 L27.424161161566676,15.551115268089532 L27.33137861373385,15.575290834052597 L27.213304522123003,15.545862897323252 L27.072483921913562,15.545862897323255 L26.922270040797667,15.585002861425432 L26.818464545173057,15.744391226168759 L26.781201502927033,15.844654781701104 L26.7128754820941,15.930448936978797 L26.611296548283846,15.984699227678611 L26.2628582017916,15.984699227678613 L26.137090438154758,15.948875853772051 L25.256909673906215,15.94887585377205 L24.796614553349894,15.985207348213404 L24.62346879681728,16.023018123390468 L24.46032458926529,16.089818153716653 L24.29375663066924,16.12061901110725 L24.173457030668764,16.15644238501382 L24.006142323653066,16.187381327134354 L23.839322917674544,16.22381058292982 L23.70503529345504,16.262060732525626 L23.574563579787096,16.334909119743962 L23.44859167215131,16.433583304612768 L23.32736505630881,16.502643074162187 L23.1971260404671,16.572199863201433 L23.07227116394738,16.674444492821305 Z" style="fill:#00ff00;fill-rule:evenodd;" fill="param(fill) #00ff00"/>
            <!-- Polyline -->
            <path d="M23.001016807213954,16.93489561876848 L22.80138834620608,16.89697521190997 L21.68493080333453,16.564317924400477 L21.58871666086753,16.52855985022909 L21.50454732343533,16.461527825911432 L21.50454732343533,16.332793325775263 L21.349902776588735,16.238372103493138 L21.24223370933384,16.192640323538296 L21.113467567879095,16.155950681824045 L21.014431567187618,16.071820806703858 L20.874504460878427,15.986385602698764 L20.77151226089706,15.948108457244071 L20.637913220195873,15.866536976219011 L20.534921020214504,15.822791667127934 L20.40492508483645,15.74342013182072 L20.301932884855084,15.661397677274945 L20.163253515933953,15.576724303490643 L20.056228787902388,15.531266202692947 L19.930362900306964,15.490279613536599 L19.836887570976376,15.381096153717152 L19.700826621759656,15.126333903112455 L19.5899433284622,15.03802702272713 L19.450525348092672,14.952902675422116 L19.348050388926897,14.914817762990287 L19.21870415954988,14.830577928612927 L19.11124089617062,14.744994742338037 L18.97690324402103,14.706717596883351 L18.878382107437556,14.628255874066706 L18.84837496669525,14.608713003907717 L18.75790467175174,14.608713003907717 L18.75790467175174,14.533713003907717 L18.59578762899512,14.533713003907717 L18.834455792552017,14.689151370113038 L18.941919055931272,14.774734556387914 L19.076256708080876,14.813011701842603 L19.17477784466432,14.891473424659242 L19.314106919586497,14.98221482664618 L19.417616360383445,15.020684205123729 L19.546873684313113,15.099604766910252 L19.64197479097838,15.175342795616462 L19.774589146060872,15.42365159955912 L19.887098216692987,15.555067339740583 L20.029907633396775,15.60157136876639 L20.128867305327944,15.643603886150851 L20.258863240706003,15.722975421458072 L20.361855440687343,15.80499787600383 L20.50053480960849,15.889671249788138 L20.603527009589854,15.933416558879216 L20.73860327318784,16.015889986945687 L20.841595473169217,16.05416713240038 L20.97034367115921,16.132776837486812 L21.077292070430452,16.22362819873093 L21.21720123327493,16.26349284792606 L21.315516565982737,16.30525168615335 L21.42954732343533,16.374875372962766 L21.429547323435326,16.49767640010027 L21.551362385965856,16.594689284874143 L21.66113264346157,16.635485501612138 L22.783635969750033,16.96994417774154 L22.987020465190927,17.008578061792406 Z" style="fill:#00ff00;fill-rule:evenodd;" fill="param(fill) #00ff00"/>
            <!-- Polyline -->
            <path d="M21.131203193061328,14.521685858453026 L20.68967450638041,14.521685858453026 L20.557254116271096,14.478564880807522 L20.455495436993086,14.440746174452023 L20.31938440639967,14.357640949361494 L20.211657765323753,14.357640949361498 L20.077320113174157,14.39591809481619 L19.942263758515725,14.395918094816189 L19.839271558534374,14.439663403907263 L19.740355097856575,14.439663403907264 L19.607934707747276,14.396542426261764 L19.50633120071392,14.358781389813112 L19.371993548564323,14.271290771630968 L19.27080710039096,14.233684735489623 L19.17229282214791,14.107916971852777 L19.06632250876822,14.068533007825916 L19.05848419114678,14.08962354544034 L19.15849827772982,14.126793872322857 L19.257012555972864,14.2525616359597 L19.3618105077622,14.291509890727733 L19.496148159911804,14.379000508909881 L19.600529052841186,14.417793763370627 L19.73678396703106,14.462163403907264 L19.843851906315994,14.462163403907265 L19.946844106297352,14.418418094816188 L20.08046305593811,14.41841809481619 L20.214800708087704,14.380140949361499 L20.313058466974525,14.380140949361499 L20.445622740680324,14.46108063336251 L20.54984846136501,14.499816217916385 L20.686103375554897,14.544185858453027 L21.131203193061328,14.544185858453027 Z" style="fill:#00ff00;fill-rule:evenodd;" fill="param(fill) #00ff00"/>
            <path d="M19.0624033499575,14.090328276633128 L19.09374880212575,14.090328276633128 L19.09374880212575,14.067828276633128 L19.0624033499575,14.067828276633128 Z" style="fill:#00ff00;fill-rule:evenodd;" fill="param(fill) #00ff00"/>
            <!-- Polyline -->
            <path d="M18.959411149976148,14.65870362208987 L18.9280656978079,14.532935858453026 M18.9280656978079,14.532935858453026 L18.959411149976148,14.407168094816189 M18.959411149976148,14.407168094816189 L18.9280656978079,14.281400331179348 M18.9280656978079,14.281400331179348 L18.9280656978079,14.24312318572466 " style="stroke:#00ff00;stroke-width:1e-9;" stroke="param(outline) #00ff00" stroke-width="param(outline-width) 0.0"/>
            <!-- Polyline -->
            <path d="M19.944553932406535,14.407168094816189 L19.87738510633174,14.281400331179348 M19.87738510633174,14.281400331179348 L19.774392906350375,14.281400331179348 M19.774392906350375,14.281400331179348 L19.67140070636902,14.199377876633584 M19.67140070636902,14.199377876633584 L19.604231880294215,14.079078276633128 M19.604231880294215,14.079078276633128 L19.56840850638766,13.953310512996289 M19.56840850638766,13.953310512996289 L19.53706305421942,13.82754274935945 M19.53706305421942,13.82754274935945 L19.53706305421942,13.701774985722608 M19.53706305421942,13.701774985722608 L19.501239680312864,13.58147538572215 " style="stroke:#00ff00;stroke-width:1e-9;" stroke="param(outline) #00ff00" stroke-width="param(outline-width) 0.0"/>
            <!-- Polyline -->
            <path d="M19.53706305421942,13.953310512996289 L19.434070854238065,13.871288058450522 M19.434070854238065,13.871288058450522 L19.331078654256704,13.82754274935945 M19.331078654256704,13.82754274935945 L19.26390982818191,13.789265603904756 " style="stroke:#00ff00;stroke-width:1e-9;" stroke="param(outline) #00ff00" stroke-width="param(outline-width) 0.0"/>
            <!-- Polyline -->
            <path d="M20.28039806278054,13.909565203905212 L20.1818837845375,13.789265603904756 M20.1818837845375,13.789265603904756 L20.078891584556136,13.745520294813684 M20.078891584556136,13.745520294813684 L20.01172275848134,13.619752531176845 M20.01172275848134,13.619752531176845 L19.908730558499975,13.58147538572215 M19.908730558499975,13.58147538572215 L19.84156173242518,13.455707622085313 M19.84156173242518,13.455707622085313 L19.73856953244382,13.373685167539547 M19.73856953244382,13.373685167539547 L19.70722408027558,13.373685167539547 " style="stroke:#00ff00;stroke-width:1e-9;" stroke="param(outline) #00ff00" stroke-width="param(outline-width) 0.0"/>
            <!-- Polyline -->
            <path d="M19.640055254200785,15.194583658455532 L19.331078654256704,15.194583658455532 M19.331078654256704,15.194583658455532 L19.196741002107103,15.276606113001298 M19.196741002107103,15.276606113001298 L18.381759245732873,15.276606113001298 " style="stroke:#00ff00;stroke-width:1e-9;" stroke="param(outline) #00ff00" stroke-width="param(outline-width) 0.0"/>
            <!-- Polyline -->
            <path d="M18.690735845676944,15.320351422092374 L18.587743645695582,15.320351422092374 M18.587743645695582,15.320351422092374 L18.381759245732873,15.484396331183902 M18.381759245732873,15.484396331183902 L18.350413793564627,15.484396331183902 " style="stroke:#00ff00;stroke-width:1e-9;" stroke="param(outline) #00ff00" stroke-width="param(outline-width) 0.0"/>
            <!-- Polyline -->
            <path d="M18.9280656978079,15.238328967546607 L18.825073497826544,15.194583658455532 M18.825073497826544,15.194583658455532 L18.722081297845182,15.112561203909769 M18.722081297845182,15.112561203909769 L18.619089097863828,15.068815894818693 M18.619089097863828,15.068815894818693 L18.551920271789033,14.948516294818237 " style="stroke:#00ff00;stroke-width:1e-9;" stroke="param(outline) #00ff00" stroke-width="param(outline-width) 0.0"/>
            <!-- Polyline -->
            <path d="M22.358368754235496,17.529616442771044 L22.23510518902394,17.49889511899381 L22.10726488038134,17.42606769415293 L21.94002921453827,17.426067694152927 L21.775984305446745,17.394722241984688 L20.70167398134975,17.394722241984688 L20.575906217712912,17.327553415909886 L20.45353168409641,17.327553415909886 L20.327763920459574,17.29173004200333 L20.163402088743204,17.29173004200333 L20.03533296754205,17.259811016040278 L19.9072638463409,17.29173004200333 L19.74290201462454,17.29173004200333 L19.61481986177132,17.328212640721286 L19.494520261770703,17.359558092889575 L19.371066887350413,17.394722241984685 L19.132311017707448,17.394722241984688 L18.885141002126684,17.26271607993358 L18.75528057127774,17.188737842021972 L18.627396632802114,17.188737842021972 L18.497182582845202,17.22582768495632 L18.36622716259159,17.295767084308018 L18.285751727416592,17.396816756120828 L18.159983963779755,17.428162208289063 L18.073999664482752,17.536129132681857 L18.10333376149571,17.55949065558672 L18.181394371290235,17.461473180016796 L18.30716213492707,17.43012772784856 L18.3907316088436,17.325192999698658 L18.511311715863673,17.260794746900753 L18.632633193180418,17.226237842021973 L18.74534845470574,17.226237842021973 L18.867023551130465,17.295553099736594 L19.122924590097057,17.43222224198469 L19.37630344772868,17.43222224198469 L19.50438560058203,17.395739643266698 L19.624685200582526,17.364394191098445 L19.748138575002827,17.32923004200333 L19.911866561469527,17.32923004200333 L20.035332967542047,17.2984581636299 L20.158799373614585,17.32923004200333 L20.322527360081292,17.32923004200333 L20.448295123718133,17.36505341590989 L20.56651979010253,17.365053415909887 L20.692287553739362,17.43222224198469 L21.772433702377807,17.43222224198469 L21.936478611469344,17.46356769415293 L22.097332763809334,17.46356769415293 L22.221027982440415,17.534033764938286 L22.349299944502523,17.566003345497535 Z" style="fill:#00ff00;fill-rule:evenodd;" fill="param(fill) #00ff00"/>
            <!-- Polyline -->
            <path d="M20.92057428541445,16.131781293166863 L20.785944037678153,16.175621882204958 L20.681307143425823,16.214510279791845 L20.546674046696857,16.296713123745896 L20.44750552364895,16.338834349369016 L20.04097291547362,16.338834349369012 L19.906635263324024,16.3771114948237 L19.803357604634957,16.3771114948237 L19.669019952485346,16.420856803914777 L19.56602775250398,16.420856803914777 L19.431690100354388,16.46460211300585 L19.326861361306598,16.46460211300585 L19.18812707327732,16.549309018714972 L19.086751964507805,16.630043630196468 L18.957315854800175,16.666924167552075 L18.858514245170745,16.66692416755207 L18.724176593021134,16.628647022097383 L18.37754195278277,16.628647022097383 L18.241105398842965,16.71195100176978 L18.110703187550005,16.754414785734216 L18.010091741452307,16.75441478573422 L18.010091741452307,16.78441478573422 L18.115464695317346,16.78441478573422 L18.25373778832358,16.73938795151651 L18.38597653868298,16.65864702209738 L18.719986002669224,16.658647022097384 L18.85432365481883,16.696924167552076 L18.961506445152096,16.696924167552073 L19.100745639743693,16.657250413998298 L19.205354930936927,16.573940116388236 L19.335295947206802,16.494602113005854 L19.436451608121743,16.49460211300585 L19.57078926027134,16.450856803914775 L19.6737814602527,16.45085680391478 L19.808119112402302,16.407111494823702 L19.910825853675934,16.407111494823702 L20.045163505825528,16.368834349369017 L20.453612654024457,16.368834349369013 L20.560428530939276,16.323464956809975 L20.694470738509523,16.24162289167248 L20.7958182442198,16.203956998350044 L20.929863300782774,16.16030696920595 Z" style="fill:#00ff00;fill-rule:evenodd;" fill="param(fill) #00ff00"/>
            <!-- Polyline -->
            <path d="M18.789250123919988,16.681924167552072 L18.654912471770388,16.725669476643148 M18.654912471770388,16.725669476643148 L18.551920271789033,16.76941478573422 M18.551920271789033,16.76941478573422 L18.417582619639422,16.807691931188913 M18.417582619639422,16.807691931188913 L18.314590419658067,16.85143724027999 M18.314590419658067,16.85143724027999 L18.180252767508467,16.85143724027999 M18.180252767508467,16.85143724027999 L18.113083941433672,16.889714385734678 " style="stroke:#00ff00;stroke-width:1e-9;" stroke="param(outline) #00ff00" stroke-width="param(outline-width) 0.0"/>
            <!-- Polyline -->
            <path d="M20.28039806278054,15.808736149366963 L20.14673472420194,15.808736149366963 L20.043742524220576,15.770459003912276 L19.26338600438792,15.770459003912276 L19.12904835223832,15.808736149366961 L18.190482896489208,15.808736149366963 L18.190482896489208,15.816236149366963 L19.130095999826285,15.816236149366963 L19.264433651975892,15.777959003912278 L20.042393897078586,15.777959003912276 L20.14538609705994,15.816236149366961 L20.28039806278054,15.816236149366963 Z" style="fill:#00ff00;fill-rule:evenodd;" fill="param(fill) #00ff00"/>
            <!-- Polyline -->
            <path d="M19.469894228144625,16.47960211300585 L19.26390982818191,16.392111494823702 M19.26390982818191,16.392111494823702 L19.129572176032305,16.353834349369013 M19.129572176032305,16.353834349369013 L19.026579976050943,16.31008904027794 M19.026579976050943,16.31008904027794 L18.892242323901343,16.31008904027794 M18.892242323901343,16.31008904027794 L18.789250123919988,16.271811894823244 M18.789250123919988,16.271811894823244 L18.654912471770388,16.271811894823244 M18.654912471770388,16.271811894823244 L18.551920271789033,16.228066585732172 M18.551920271789033,16.228066585732172 L18.314590419658067,16.228066585732172 M18.314590419658067,16.228066585732172 L18.180252767508467,16.189789440277487 M18.180252767508467,16.189789440277487 L18.148907315340228,16.146044131186407 " style="stroke:#00ff00;stroke-width:1e-9;" stroke="param(outline) #00ff00" stroke-width="param(outline-width) 0.0"/>
            <!-- Polyline -->
            <path d="M18.789250123919988,15.812486149366963 L18.654912471770388,15.730463694821196 M18.654912471770388,15.730463694821196 L18.551920271789033,15.692186549366507 M18.551920271789033,15.692186549366507 L18.417582619639422,15.692186549366507 M18.417582619639422,15.692186549366507 L18.314590419658067,15.648441240275435 " style="stroke:#00ff00;stroke-width:1e-9;" stroke="param(outline) #00ff00" stroke-width="param(outline-width) 0.0"/>
            <!-- Polyline -->
            <path d="M19.373685167539545,17.41347224198469 L19.29166271299378,17.516464441966047 M19.29166271299378,17.516464441966047 L19.165894949356943,17.58363326804085 M19.165894949356943,17.58363326804085 L18.630014912991275,17.71797092019045 M18.630014912991275,17.71797092019045 L18.54799245844551,17.82096312017181 M18.54799245844551,17.82096312017181 L18.134615003637347,17.932562465241613 " style="stroke:#00ff00;stroke-width:1e-9;" stroke="param(outline) #00ff00" stroke-width="param(outline-width) 0.0"/>
            <!-- Polyline -->
            <path d="M18.340202240262908,17.279134589835092 L18.08866671298923,17.279134589835092 M18.08866671298923,17.279134589835092 L18.08866671298923,17.310480042003334 " style="stroke:#00ff00;stroke-width:1e-9;" stroke="param(outline) #00ff00" stroke-width="param(outline-width) 0.0"/>
            <!-- Polyline -->
            <path d="M26.0904347960948,16.044699227678613 L26.128711941549494,15.941707027697253 M26.128711941549494,15.941707027697253 L26.172457250640562,15.807369375547655 M26.172457250640562,15.807369375547655 L26.21073439609526,15.704377175566297 M26.21073439609526,15.704377175566297 L26.298225014277406,15.570039523416696 M26.298225014277406,15.570039523416696 L26.418524614277864,15.534216149510135 M26.418524614277864,15.534216149510135 L26.544292377914704,15.467047323435336 M26.544292377914704,15.467047323435336 L26.670060141551545,15.435701871267096 M26.670060141551545,15.435701871267096 L26.790359741551995,15.399878497360536 M26.790359741551995,15.399878497360536 L26.916127505188832,15.301364219117493 M26.916127505188832,15.301364219117493 L26.959872814279912,15.198372019136137 M26.959872814279912,15.198372019136137 L27.12391772337144,14.992387619173419 M27.12391772337144,14.992387619173419 L27.24968548700828,14.925218793098615 M27.24968548700828,14.925218793098615 L27.369985087008736,14.826704514855573 M27.369985087008736,14.826704514855573 L27.41373039609981,14.755057767042455 " style="stroke:#00ff00;stroke-width:1e-9;" stroke="param(outline) #00ff00" stroke-width="param(outline-width) 0.0"/>
            <!-- Polyline -->
            <path d="M24.696073763198157,16.024253216620473 L24.825261272351366,15.886262795507415 L24.86929633367084,15.751035342031045 L25.03096995655407,15.548028467975488 L25.156737720190765,15.382345363657835 L25.318973744242115,15.17863230574203 L25.440411591793644,15.083509664160578 L25.606087458946494,15.01115059408425 L25.738115042037983,14.870126574744042 L25.778128151384248,14.762463421948471 L25.821873460475256,14.628125769799057 L25.857776169291203,14.531522459329587 L25.97873367713289,14.436776069328499 L26.103146149627445,14.334893727806278 L26.221519566225492,14.268800378939575 L26.344979639543183,14.202864021704158 L26.46807400964454,14.167802130497549 L26.59669933262395,14.135744480806665 L26.719399665251473,14.062667930358309 L26.84665224081758,13.994706110344953 L26.886637614966997,13.961961776410401 L26.85812677722853,13.927146088402683 L26.82155786046857,13.957092658804612 L26.697274908761116,14.023468490940783 L26.579376041387608,14.093685436118735 L26.456465837093294,14.124318690764346 L26.328024679921,14.16090354737085 L26.19994922596508,14.229304842284995 L26.07772344256216,14.297549145567931 L25.950600387783037,14.401651204008417 L25.82002236835104,14.503933370493412 L25.779370786257555,14.613314459986803 L25.735625477166522,14.747652112136276 L25.699084295603345,14.845973359303606 L25.579576351421146,14.9736246442626 L25.417162400390943,15.044559069812491 L25.28706472066879,15.146464984717133 L25.121210926536826,15.354720726727098 L24.995443162900216,15.520403831044641 L24.829026967600264,15.729365756914657 L24.7855714107376,15.862813607737502 L24.66322339261712,15.993498490923626 Z" style="fill:#00ff00;fill-rule:evenodd;" fill="param(fill) #00ff00"/>
            <!-- Polyline -->
            <path d="M25.59283190518383,13.944553932406542 L25.718599668820666,13.877385106331742 M25.718599668820666,13.877385106331742 L25.718599668820666,13.774392906350382 M25.718599668820666,13.774392906350382 L25.80062212336643,13.671400706369026 M25.80062212336643,13.671400706369026 L25.920921723366888,13.604231880294224 M25.920921723366888,13.604231880294224 L26.046689487003725,13.568408506387666 M26.046689487003725,13.568408506387666 L26.172457250640562,13.537063054219423 M26.172457250640562,13.537063054219423 L26.298225014277406,13.537063054219423 M26.298225014277406,13.537063054219423 L26.418524614277864,13.501239680312867 " style="stroke:#00ff00;stroke-width:1e-9;" stroke="param(outline) #00ff00" stroke-width="param(outline-width) 0.0"/>
            <!-- Polyline -->
            <path d="M26.0904347960948,14.280398062780542 L26.21073439609526,14.1818837845375 M26.21073439609526,14.1818837845375 L26.254479705186334,14.078891584556144 M26.254479705186334,14.078891584556144 L26.38024746882317,14.01172275848134 M26.38024746882317,14.01172275848134 L26.418524614277864,13.908730558499984 M26.418524614277864,13.908730558499984 L26.544292377914704,13.841561732425182 M26.544292377914704,13.841561732425182 L26.626314832460466,13.738569532443826 M26.626314832460466,13.738569532443826 L26.626314832460466,13.707224080275584 " style="stroke:#00ff00;stroke-width:1e-9;" stroke="param(outline) #00ff00" stroke-width="param(outline-width) 0.0"/>
            <!-- Polyline -->
            <path d="M26.046689487003725,13.537063054219423 L26.128711941549494,13.434070854238067 M26.128711941549494,13.434070854238067 L26.172457250640562,13.331078654256707 M26.172457250640562,13.331078654256707 L26.21073439609526,13.263909828181909 " style="stroke:#00ff00;stroke-width:1e-9;" stroke="param(outline) #00ff00" stroke-width="param(outline-width) 0.0"/>
            <!-- Polyline -->
            <path d="M27.041895268825673,15.265540845210937 L27.41373039609981,15.265540845210934 M27.41373039609981,15.265540845210934 L27.539498159736652,15.229717471304374 M27.539498159736652,15.229717471304374 L27.577775305191338,15.198372019136134 " style="stroke:#00ff00;stroke-width:1e-9;" stroke="param(outline) #00ff00" stroke-width="param(outline-width) 0.0"/>
            <!-- Polyline -->
            <path d="M26.00658420250369,14.489656666101462 L26.127380260571357,14.557102687657961 L26.29736409548751,14.593025548227219 L26.41804408350494,14.624470114892862 L26.543991281877194,14.624470114892862 L26.95957171824242,14.691638940967662 L27.081466268259266,14.69163894096766 L27.207234031896107,14.593124662724614 L27.24968548700828,14.593124662724614 L27.24968548700828,14.585624662724614 L27.204646323938306,14.585624662724614 L27.078878560301465,14.68413894096766 L26.960173910317412,14.68413894096766 L26.544593473952215,14.616970114892862 L26.41900514505078,14.616970114892862 L26.299085933067254,14.585723777222006 L26.130043622527637,14.549999889978167 L26.010240480594383,14.483108259385054 Z" style="fill:#00ff00;fill-rule:evenodd;" fill="param(fill) #00ff00"/>
            <!-- Polyline -->
            <path d="M26.462269923368936,14.589374662724618 L26.588037687005773,14.553551288818062 M26.588037687005773,14.553551288818062 L26.70833728700623,14.486382462743258 M26.70833728700623,14.486382462743258 L26.83410505064307,14.41921363666846 M26.83410505064307,14.41921363666846 L26.959872814279912,14.41921363666846 M26.959872814279912,14.41921363666846 L27.080172414280366,14.352044810593659 M27.080172414280366,14.352044810593659 L27.12391772337144,14.352044810593659 " style="stroke:#00ff00;stroke-width:1e-9;" stroke="param(outline) #00ff00" stroke-width="param(outline-width) 0.0"/>
            <!-- Polyline -->
            <path d="M25.07942571458556,17.868218706833154 L25.214055962321776,17.82437811779509 L25.31869285657422,17.78548972020816 L25.453325953303164,17.703286876254115 L25.552494476351065,17.661165650631006 L25.95902708452639,17.661165650631006 L26.093364736675994,17.62288850517632 L26.196642395365057,17.62288850517632 L26.330980047514664,17.57914319608524 L26.433972247496026,17.57914319608524 L26.56830989964561,17.535397886994172 L26.67313863869341,17.53539788699417 L26.811872926722746,17.450690981285018 L26.913248035492206,17.369956369803553 L27.042684145199836,17.333075832447943 L27.141485754829258,17.333075832447946 L27.275823406978873,17.37135297790264 L27.622458047217243,17.371352977902635 L27.758894601157046,17.288048998230238 L27.889296812450013,17.245585214265798 L27.989908258547704,17.245585214265798 L27.989908258547704,17.215585214265797 L27.884535304682668,17.215585214265797 L27.74626221167645,17.2606120484835 L27.614023461317043,17.34135297790263 L27.28001399733078,17.341352977902634 L27.145676345181183,17.303075832447945 L27.038493554847918,17.303075832447945 L26.89925436025631,17.34274958600172 L26.794645069063122,17.426059883611753 L26.66470405279321,17.505397886994167 L26.56354839187828,17.505397886994167 L26.42921073972867,17.54914319608524 L26.326218539747334,17.54914319608524 L26.191880887597712,17.59288850517632 L26.08917414632407,17.59288850517632 L25.954836494174472,17.631165650631004 L25.546387345975564,17.631165650631004 L25.439571469060766,17.676535043190032 L25.305529261490495,17.758377108327533 L25.204181755780148,17.796043001650002 L25.070136699217237,17.839693030794066 Z" style="fill:#00ff00;fill-rule:evenodd;" fill="param(fill) #00ff00"/>
            <!-- Polyline -->
            <path d="M23.64163124576452,16.470383557228978 L23.764894810976077,16.50110488100621 L23.89273511961867,16.57393230584709 L24.059970785461754,16.57393230584709 L24.224015694553287,16.60527775801533 L25.29832601865025,16.60527775801533 L25.424093782287102,16.67244658409013 L25.546468315903613,16.67244658409013 L25.67223607954045,16.708269957996688 L25.836597911256803,16.708269957996688 L25.964667032457967,16.740188983959744 L26.09273615365912,16.708269957996684 L26.25709798537547,16.708269957996688 L26.385180138228737,16.67178735927872 L26.50547973822912,16.640441907110493 L26.628933112649623,16.605277758015326 L26.867688982292577,16.60527775801533 L27.114858997873327,16.737283920066435 L27.24471942872227,16.811262157978042 L27.372603367197883,16.811262157978046 L27.50281741715484,16.77417231504369 L27.63377283740843,16.704232915692 L27.714248272583415,16.603183243879197 L27.840016036220256,16.57183779171096 L27.926000335517262,16.463870867318157 L27.896666238504306,16.4405093444133 L27.818605628709786,16.53852681998322 L27.69283786507296,16.569872272151454 L27.609268391156416,16.674807000301367 L27.488688284136337,16.73920525309927 L27.367366806819586,16.773762157978044 L27.25465154529428,16.773762157978044 L27.132976448869574,16.704446900263434 L26.877075409902957,16.56777775801533 L26.623696552271326,16.56777775801533 L26.495614399418123,16.60426035673328 L26.3753147994176,16.635605808901545 L26.25186142499718,16.67076995799669 L26.088133438530498,16.670769957996686 L25.964667032457957,16.70154183637012 L25.841200626385426,16.670769957996686 L25.677472639918744,16.670769957996686 L25.5517048762819,16.63494658409013 L25.433480209897493,16.63494658409013 L25.30771244626065,16.56777775801533 L24.22756629762222,16.56777775801533 L24.063521388530674,16.53643230584709 L23.902667236190684,16.53643230584709 L23.778972017559614,16.465966235061735 L23.65070005549749,16.433996654502486 Z" style="fill:#00ff00;fill-rule:evenodd;" fill="param(fill) #00ff00"/>
            <!-- Polyline -->
            <path d="M26.626314832460466,16.58652775801533 L26.70833728700623,16.48353555803397 M26.70833728700623,16.48353555803397 L26.83410505064307,16.416366731959172 M26.83410505064307,16.416366731959172 L27.369985087008736,16.28202907980957 M27.369985087008736,16.28202907980957 L27.4520075415545,16.17903687982821 M27.4520075415545,16.17903687982821 L27.865384996362668,16.067437534758405 " style="stroke:#00ff00;stroke-width:1e-9;" stroke="param(outline) #00ff00" stroke-width="param(outline-width) 0.0"/>
            <!-- Polyline -->
            <path d="M27.65979775973711,16.720865410164926 L27.911333287010784,16.720865410164926 M27.911333287010784,16.720865410164926 L27.911333287010784,16.689519957996687 " style="stroke:#00ff00;stroke-width:1e-9;" stroke="param(outline) #00ff00" stroke-width="param(outline-width) 0.0"/>
            <!-- Polyline -->
            <path d="M27.495752850645577,16.17903687982821 L27.539498159736652,16.04469922767861 M27.539498159736652,16.04469922767861 L27.621520614282417,15.941707027697252 M27.621520614282417,15.941707027697252 L27.74182021428287,15.87453820162245 M27.74182021428287,15.87453820162245 L27.785565523373947,15.843192749454213 " style="stroke:#00ff00;stroke-width:1e-9;" stroke="param(outline) #00ff00" stroke-width="param(outline-width) 0.0"/>
            <!-- Polyline -->
            <path d="M27.369985087008736,15.570039523416693 L27.495752850645577,15.605862897323252 M27.495752850645577,15.605862897323252 L27.621520614282417,15.67303172339805 M27.621520614282417,15.67303172339805 L27.74182021428287,15.637208349491491 " style="stroke:#00ff00;stroke-width:1e-9;" stroke="param(outline) #00ff00" stroke-width="param(outline-width) 0.0"/>
            <!-- Polyline -->
            <path d="M26.530105771855393,17.520397886994168 L26.736090171818105,17.60788850517632 M26.736090171818105,17.60788850517632 L26.87042782396771,17.646165650631005 M26.87042782396771,17.646165650631005 L26.973420023949064,17.689910959722077 M26.973420023949064,17.689910959722077 L27.107757676098664,17.689910959722077 M27.107757676098664,17.689910959722077 L27.210749876080023,17.728188105176773 M27.210749876080023,17.728188105176773 L27.345087528229627,17.728188105176773 M27.345087528229627,17.728188105176773 L27.448079728210985,17.771933414267846 M27.448079728210985,17.771933414267846 L27.685409580341943,17.771933414267846 M27.685409580341943,17.771933414267846 L27.819747232491544,17.810210559722535 M27.819747232491544,17.810210559722535 L27.851092684659783,17.85395586881361 " style="stroke:#00ff00;stroke-width:1e-9;" stroke="param(outline) #00ff00" stroke-width="param(outline-width) 0.0"/>
            <!-- Polyline -->
            <path d="M27.210749876080023,17.318075832447946 L27.345087528229627,17.27433052335687 M27.345087528229627,17.27433052335687 L27.448079728210985,17.230585214265798 M27.448079728210985,17.230585214265798 L27.582417380360585,17.19230806881111 M27.582417380360585,17.19230806881111 L27.685409580341943,17.14856275972003 M27.685409580341943,17.14856275972003 L27.819747232491544,17.14856275972003 M27.819747232491544,17.14856275972003 L27.886916058566342,17.11028561426534 " style="stroke:#00ff00;stroke-width:1e-9;" stroke="param(outline) #00ff00" stroke-width="param(outline-width) 0.0"/>
            <!-- Polyline -->
            <path d="M21.808736149366965,19.719601937219476 L21.808736149366965,19.85326527579808 L21.770459003912276,19.95625747577943 L21.770459003912276,20.7366139956121 L21.808736149366965,20.87095164776171 L21.808736149366965,21.80951710351081 L21.816236149366965,21.80951710351081 L21.816236149366965,20.869904000173733 L21.777959003912276,20.73556634802412 L21.777959003912276,19.95760610292143 L21.81623614936696,19.854613902940084 L21.816236149366965,19.719601937219476 Z" style="fill:#00ff00;fill-rule:evenodd;" fill="param(fill) #00ff00"/>
            <!-- Polyline -->
            <path d="M20.40716809481619,20.055446067593476 L20.281400331179352,20.122614893668278 M20.281400331179352,20.122614893668278 L20.281400331179352,20.225607093649636 M20.281400331179352,20.225607093649636 L20.199377876633587,20.328599293630994 M20.199377876633587,20.328599293630994 L20.079078276633126,20.395768119705792 M20.079078276633126,20.395768119705792 L19.953310512996286,20.431591493612352 M19.953310512996286,20.431591493612352 L19.82754274935945,20.462936945780594 M19.82754274935945,20.462936945780594 L19.701774985722608,20.462936945780594 M19.701774985722608,20.462936945780594 L19.581475385722147,20.49876031968715 " style="stroke:#00ff00;stroke-width:1e-9;" stroke="param(outline) #00ff00" stroke-width="param(outline-width) 0.0"/>
            <!-- Polyline -->
            <path d="M21.194583658455535,20.359944745799236 L21.194583658455535,20.668921345743314 M21.194583658455535,20.668921345743314 L21.276606113001296,20.80325899789291 M21.276606113001296,20.80325899789291 L21.276606113001296,21.61824075426715 " style="stroke:#00ff00;stroke-width:1e-9;" stroke="param(outline) #00ff00" stroke-width="param(outline-width) 0.0"/>
            <!-- Polyline -->
            <path d="M20.52168585845303,18.868796806938683 L20.52168585845303,19.31032549361962 L20.478564880807525,19.44274588372891 L20.440746174452023,19.54450456300693 L20.357640949361503,19.68061559360033 L20.3576409493615,19.788342234676243 L20.39591809481619,19.92267988682585 L20.39591809481619,20.057736241484285 L20.439663403907268,20.16072844146565 L20.439663403907264,20.259644902143435 L20.396542426261753,20.392065292252774 L20.35878138981311,20.493668799286105 L20.271290771630973,20.628006451435688 L20.233684735489625,20.72919289960906 L20.107916971852774,20.82770717785211 L20.068533007825913,20.93367749123179 L20.08962354544034,20.941515808853232 L20.126793872322857,20.841501722270195 L20.252561635959715,20.742987444027147 L20.291509890727742,20.638189492237807 L20.379000508909897,20.503851840088192 L20.417793763370565,20.399470947158996 L20.462163403907265,20.263216032968952 L20.462163403907265,20.156148093684042 L20.418418094816193,20.05315589370268 L20.41841809481619,19.919536944061914 L20.3801409493615,19.78519929191231 L20.3801409493615,19.686941533025493 L20.4610806333625,19.55437725931971 L20.49981621791636,19.450151538635073 L20.544185858453034,19.313896624445103 L20.54418585845303,18.868796806938683 Z" style="fill:#00ff00;fill-rule:evenodd;" fill="param(fill) #00ff00"/>
            <path d="M20.090328276633127,20.93759665004251 L20.090328276633127,20.90625119787427 L20.067828276633126,20.90625119787427 L20.067828276633126,20.93759665004251 Z" style="fill:#00ff00;fill-rule:evenodd;" fill="param(fill) #00ff00"/>
            <!-- Polyline -->
            <path d="M22.131781293166863,19.07942571458556 L22.17562188220492,19.21405596232176 L22.214510279791842,19.318692856574184 L22.29671312374591,19.453325953303175 L22.338834349369005,19.552494476351054 L22.33883434936901,19.959027084526387 L22.377111494823698,20.09336473667599 L22.377111494823698,20.196642395365057 L22.42085680391478,20.330980047514664 L22.42085680391478,20.43397224749603 L22.464602113005842,20.56830989964561 L22.464602113005846,20.67313863869341 L22.549309018714993,20.811872926722724 L22.630043630196468,20.913248035492213 L22.66692416755207,21.042684145199832 L22.66692416755207,21.141485754829265 L22.62864702209738,21.27582340697888 L22.628647022097383,21.622458047217243 L22.711951001769783,21.758894601157053 L22.754414785734223,21.889296812450027 L22.754414785734223,21.989908258547707 L22.784414785734224,21.989908258547707 L22.784414785734224,21.884535304682686 L22.739387951516512,21.74626221167645 L22.658647022097387,21.614023461317053 L22.658647022097384,21.28001399733078 L22.696924167552076,21.145676345181172 L22.696924167552073,21.038493554847925 L22.657250413998298,20.899254360256325 L22.573940116388247,20.794645069063098 L22.494602113005847,20.664704052793212 L22.494602113005847,20.56354839187829 L22.450856803914785,20.4292107397287 L22.450856803914782,20.32621853974731 L22.407111494823702,20.19188088759773 L22.4071114948237,20.08917414632407 L22.36883434936901,19.954836494174472 L22.36883434936901,19.546387345975578 L22.32346495680998,19.439571469060745 L22.24162289167249,19.3055292614905 L22.20395699835004,19.204181755780237 L22.16030696920595,19.070136699217237 Z" style="fill:#00ff00;fill-rule:evenodd;" fill="param(fill) #00ff00"/>
            <!-- Polyline -->
            <path d="M21.30392623680185,17.975746783379545 L21.174738727648652,18.113737204492608 L21.130703666329175,18.24896465796896 L20.969030043446026,18.45197153202442 L20.843262279809203,18.617654636342237 L20.68102625575789,18.821367694257994 L20.55958840820638,18.91649033583943 L20.3939125410535,18.98884940591578 L20.26188495796204,19.129873425255973 L20.22187184861581,19.23753657805144 L20.178126539524733,19.371874230201048 L20.14222383070881,19.468477540670435 L20.021266322867092,19.563223930671548 L19.89685385037254,19.665106272193757 L19.778480433774504,19.73119962106046 L19.655020360456813,19.79713597829587 L19.531925990355504,19.832197869502462 L19.40330066737607,19.864255519193353 L19.280600334748673,19.937332069641627 L19.153347759182452,20.005293889655054 L19.11336238503302,20.038038223589616 L19.141873222771487,20.072853911597335 L19.17844213953144,20.04290734119541 L19.302725091238898,19.976531509059235 L19.420623958612413,19.906314563881278 L19.54353416290664,19.875681309235688 L19.671975320079024,19.839096452629164 L19.800050774035128,19.770695157714922 L19.922276557437858,19.70245085443208 L20.049399612216938,19.598348795991633 L20.179977631648967,19.496066629506608 L20.220629213742406,19.386685540013374 L20.26437452283349,19.25234788786375 L20.30091570439667,19.15402664069642 L20.420423648578858,19.026375355737432 L20.582837599609064,18.955440930187525 L20.712935279331237,18.853535015282873 L20.878789073462848,18.645279273273346 L21.004556837099752,18.479596168955432 L21.170973032399747,18.27063424308536 L21.214428589262415,18.137186392262528 L21.336776607382895,18.00650150907639 Z" style="fill:#00ff00;fill-rule:evenodd;" fill="param(fill) #00ff00"/>
            <!-- Polyline -->
            <path d="M18.630014912991275,18.429960476583325 L18.504247149354438,18.394137102676765 M18.504247149354438,18.394137102676765 L18.378479385717597,18.326968276601967 M18.378479385717597,18.326968276601967 L18.258179785717147,18.362791650508527 " style="stroke:#00ff00;stroke-width:1e-9;" stroke="param(outline) #00ff00" stroke-width="param(outline-width) 0.0"/>
            <!-- Polyline -->
            <path d="M18.958104731174338,18.73445915478908 L18.5862696039002,18.734459154789086 M18.5862696039002,18.734459154789086 L18.460501840263362,18.770282528695645 M18.460501840263362,18.770282528695645 L18.422224694808673,18.801627980863884 " style="stroke:#00ff00;stroke-width:1e-9;" stroke="param(outline) #00ff00" stroke-width="param(outline-width) 0.0"/>
            <!-- Polyline -->
            <path d="M19.53773007663108,19.410625337275402 L19.41196231299424,19.446448711181958 M19.41196231299424,19.446448711181958 L19.29166271299378,19.51361753725676 M19.29166271299378,19.51361753725676 L19.165894949356943,19.580786363331562 M19.165894949356943,19.580786363331562 L19.040127185720102,19.580786363331562 M19.040127185720102,19.580786363331562 L18.919827585719652,19.64795518940636 M18.919827585719652,19.64795518940636 L18.876082276628576,19.64795518940636 " style="stroke:#00ff00;stroke-width:1e-9;" stroke="param(outline) #00ff00" stroke-width="param(outline-width) 0.0"/>
            <!-- Polyline -->
            <path d="M19.993415797496322,19.510343333898557 L19.872619739428675,19.44289731234207 L19.702635904512597,19.40697445177282 L19.581955916495062,19.375529885107156 L19.456008718122778,19.37552988510716 L19.040428281757574,19.308361059032354 L18.918533731740744,19.308361059032357 L18.79276596810391,19.406875337275405 L18.750314512991736,19.406875337275405 L18.750314512991736,19.414375337275406 L18.79535367606172,19.414375337275406 L18.921121439698553,19.315861059032354 L19.039826089682595,19.315861059032358 L19.455406526047824,19.383029885107163 L19.580994854949207,19.38302988510716 L19.700914066932675,19.414276222777993 L19.869956377472377,19.45000011002185 L19.989759519405627,19.516891740614962 Z" style="fill:#00ff00;fill-rule:evenodd;" fill="param(fill) #00ff00"/>
            <!-- Polyline -->
            <path d="M19.90956520390521,19.719601937219476 L19.78926560390476,19.818116215462517 M19.78926560390476,19.818116215462517 L19.745520294813684,19.921108415443875 M19.745520294813684,19.921108415443875 L19.619752531176843,19.988277241518677 M19.619752531176843,19.988277241518677 L19.581475385722147,20.09126944150003 M19.581475385722147,20.09126944150003 L19.455707622085306,20.158438267574837 M19.455707622085306,20.158438267574837 L19.373685167539545,20.261430467556195 M19.373685167539545,20.261430467556195 L19.373685167539545,20.292775919724434 " style="stroke:#00ff00;stroke-width:1e-9;" stroke="param(outline) #00ff00" stroke-width="param(outline-width) 0.0"/>
            <!-- Polyline -->
            <path d="M20.658703622089867,21.040588850023873 L20.53293585845303,21.071934302192112 M20.53293585845303,21.071934302192112 L20.40716809481619,21.040588850023873 M20.40716809481619,21.040588850023873 L20.281400331179352,21.071934302192112 M20.281400331179352,21.071934302192112 L20.243123185724663,21.071934302192112 " style="stroke:#00ff00;stroke-width:1e-9;" stroke="param(outline) #00ff00" stroke-width="param(outline-width) 0.0"/>
            <!-- Polyline -->
            <path d="M19.953310512996286,20.462936945780594 L19.871288058450524,20.56592914576195 M19.871288058450524,20.56592914576195 L19.82754274935945,20.668921345743314 M19.82754274935945,20.668921345743314 L19.78926560390476,20.736090171818113 " style="stroke:#00ff00;stroke-width:1e-9;" stroke="param(outline) #00ff00" stroke-width="param(outline-width) 0.0"/>
            <!-- Polyline -->
            <path d="M22.681924167552072,21.21074987608003 L22.725669476643148,21.345087528229627 M22.725669476643148,21.345087528229627 L22.769414785734224,21.44807972821099 M22.769414785734224,21.44807972821099 L22.807691931188913,21.58241738036059 M22.807691931188913,21.58241738036059 L22.85143724027999,21.685409580341947 M22.85143724027999,21.685409580341947 L22.85143724027999,21.81974723249155 M22.85143724027999,21.81974723249155 L22.889714385734678,21.88691605856635 " style="stroke:#00ff00;stroke-width:1e-9;" stroke="param(outline) #00ff00" stroke-width="param(outline-width) 0.0"/>
            <!-- Polyline -->
            <path d="M21.812486149366965,21.21074987608003 L21.7304636948212,21.345087528229627 M21.7304636948212,21.345087528229627 L21.692186549366504,21.44807972821099 M21.692186549366504,21.44807972821099 L21.692186549366504,21.58241738036059 M21.692186549366504,21.58241738036059 L21.64844124027544,21.685409580341947 " style="stroke:#00ff00;stroke-width:1e-9;" stroke="param(outline) #00ff00" stroke-width="param(outline-width) 0.0"/>
            <!-- Polyline -->
            <path d="M21.320351422092372,21.30926415432307 L21.320351422092372,21.412256354304432 M21.320351422092372,21.412256354304432 L21.484396331183902,21.61824075426715 M21.484396331183902,21.61824075426715 L21.484396331183902,21.649586206435387 " style="stroke:#00ff00;stroke-width:1e-9;" stroke="param(outline) #00ff00" stroke-width="param(outline-width) 0.0"/>
            <!-- Polyline -->
            <path d="M22.479602113005846,20.530105771855396 L22.3921114948237,20.736090171818113 M22.3921114948237,20.736090171818113 L22.35383434936901,20.870427823967717 M22.35383434936901,20.870427823967717 L22.310089040277944,20.973420023949068 M22.310089040277944,20.973420023949068 L22.310089040277944,21.10775767609867 M22.310089040277944,21.10775767609867 L22.271811894823244,21.21074987608003 M22.271811894823244,21.21074987608003 L22.271811894823244,21.345087528229627 M22.271811894823244,21.345087528229627 L22.228066585732172,21.44807972821099 M22.228066585732172,21.44807972821099 L22.228066585732172,21.685409580341947 M22.228066585732172,21.685409580341947 L22.18978944027748,21.81974723249155 M22.18978944027748,21.81974723249155 L22.146044131186407,21.851092684659786 " style="stroke:#00ff00;stroke-width:1e-9;" stroke="param(outline) #00ff00" stroke-width="param(outline-width) 0.0"/>
            <!-- Polyline -->
            <path d="M21.23832896754661,21.071934302192112 L21.194583658455535,21.17492650217347 M21.194583658455535,21.17492650217347 L21.11256120390977,21.277918702154828 M21.11256120390977,21.277918702154828 L21.068815894818695,21.380910902136186 M21.068815894818695,21.380910902136186 L20.948516294818234,21.44807972821099 " style="stroke:#00ff00;stroke-width:1e-9;" stroke="param(outline) #00ff00" stroke-width="param(outline-width) 0.0"/>
            <!-- Polyline -->
            <path d="M23.975746783379538,18.696073763198168 L24.113737204492605,18.825261272351373 L24.248964657968962,18.869296333670846 L24.451971532024444,19.030969956554014 L24.617654636342163,19.156737720190755 L24.821367694257997,19.318973744242133 L24.91649033583942,19.44041159179363 L24.98884940591577,19.606087458946508 L25.129873425255976,19.73811504203799 L25.23753657805149,19.77812815138423 L25.371874230201048,19.821873460475295 L25.46847754067043,19.85777616929121 L25.563223930671494,19.978733677132862 L25.665106272193743,20.103146149627456 L25.731199621060465,20.221519566225535 L25.797135978295863,20.344979639543197 L25.832197869502437,20.468074009644436 L25.86425551919335,20.596699332623945 L25.937332069641627,20.719399665251355 L26.00529388965505,20.846652240817566 L26.038038223589613,20.886637614967 L26.07285391159733,20.858126777228534 L26.04290734119541,20.821557860468584 L25.976531509059203,20.69727490876107 L25.90631456388128,20.57937604138761 L25.875681309235688,20.456465837093397 L25.83909645262916,20.32802467992099 L25.770695157715053,20.199949225965135 L25.702450854432062,20.077723442562124 L25.59834879599168,19.95060038778314 L25.4960666295066,19.820022368351044 L25.38668554001331,19.779370786257598 L25.252347887863767,19.735625477166536 L25.154026640696422,19.699084295603353 L25.026375355737418,19.579576351421153 L24.955440930187525,19.417162400390964 L24.853535015282873,19.287064720668784 L24.645279273273218,19.121210926537064 L24.47959616895543,18.99544316290027 L24.270634243085365,18.829026967600278 L24.137186392262517,18.785571410737603 L24.006501509076383,18.663223392617123 Z" style="fill:#00ff00;fill-rule:evenodd;" fill="param(fill) #00ff00"/>
            <!-- Polyline -->
            <path d="M25.51034333389855,20.006584202503692 L25.442897312342065,20.12738026057135 L25.40697445177281,20.297364095487467 L25.375529885107152,20.41804408350494 L25.375529885107152,20.543991281877187 L25.30836105903235,20.959571718242437 L25.308361059032354,21.08146626825927 L25.4068753372754,21.207234031896114 L25.406875337275398,21.249685487008286 L25.4143753372754,21.249685487008286 L25.4143753372754,21.204646323938316 L25.315861059032358,21.078878560301472 L25.315861059032354,20.960173910317412 L25.383029885107156,20.544593473952183 L25.383029885107153,20.419005145050793 L25.414276222778007,20.29908593306729 L25.45000011002185,20.130043622527648 L25.516891740614955,20.010240480594387 Z" style="fill:#00ff00;fill-rule:evenodd;" fill="param(fill) #00ff00"/>
            <!-- Polyline -->
            <path d="M23.9553007723214,20.090434796094804 L24.058292972302766,20.128711941549497 M24.058292972302766,20.128711941549497 L24.192630624452356,20.17245725064057 M24.192630624452356,20.17245725064057 L24.29562282443372,20.210734396095262 M24.29562282443372,20.210734396095262 L24.42996047658332,20.298225014277413 M24.42996047658332,20.298225014277413 L24.465783850489878,20.41852461427787 M24.465783850489878,20.41852461427787 L24.532952676564676,20.544292377914708 M24.532952676564676,20.544292377914708 L24.564298128732922,20.670060141551545 M24.564298128732922,20.670060141551545 L24.60012150263948,20.790359741552003 M24.60012150263948,20.790359741552003 L24.698635780882523,20.91612750518884 M24.698635780882523,20.91612750518884 L24.801627980863877,20.95987281427992 M24.801627980863877,20.95987281427992 L25.007612380826593,21.123917723371445 M25.007612380826593,21.123917723371445 L25.0747812069014,21.249685487008286 M25.0747812069014,21.249685487008286 L25.173295485144436,21.369985087008743 M25.173295485144436,21.369985087008743 L25.24494223295756,21.413730396099815 " style="stroke:#00ff00;stroke-width:1e-9;" stroke="param(outline) #00ff00" stroke-width="param(outline-width) 0.0"/>
            <!-- Polyline -->
            <path d="M26.055446067593472,19.59283190518383 L26.122614893668274,19.71859966882067 M26.122614893668274,19.71859966882067 L26.225607093649632,19.71859966882067 M26.225607093649632,19.71859966882067 L26.32859929363099,19.800622123366438 M26.32859929363099,19.800622123366438 L26.395768119705792,19.920921723366888 M26.395768119705792,19.920921723366888 L26.43159149361235,20.04668948700373 M26.43159149361235,20.04668948700373 L26.46293694578059,20.17245725064057 M26.46293694578059,20.17245725064057 L26.46293694578059,20.298225014277413 M26.46293694578059,20.298225014277413 L26.49876031968715,20.41852461427787 " style="stroke:#00ff00;stroke-width:1e-9;" stroke="param(outline) #00ff00" stroke-width="param(outline-width) 0.0"/>
            <!-- Polyline -->
            <path d="M25.719601937219473,20.090434796094804 L25.818116215462513,20.210734396095262 M25.818116215462513,20.210734396095262 L25.92110841544387,20.254479705186334 M25.92110841544387,20.254479705186334 L25.988277241518674,20.380247468823175 M25.988277241518674,20.380247468823175 L26.09126944150003,20.41852461427787 M26.09126944150003,20.41852461427787 L26.15843826757483,20.544292377914708 M26.15843826757483,20.544292377914708 L26.26143046755619,20.626314832460473 M26.26143046755619,20.626314832460473 L26.292775919724434,20.626314832460473 " style="stroke:#00ff00;stroke-width:1e-9;" stroke="param(outline) #00ff00" stroke-width="param(outline-width) 0.0"/>
            <!-- Polyline -->
            <path d="M24.868796806938683,19.478314141546992 L25.31032549361959,19.478314141546992 L25.4427458837289,19.52143511919249 L25.544504563006928,19.559253825547994 L25.680615593600333,19.642359050638518 L25.78834223467624,19.642359050638518 L25.922679886825843,19.60408190518383 L26.057736241484267,19.60408190518383 L26.160728441465636,19.560336596092757 L26.25964490214344,19.560336596092757 L26.392065292252692,19.60345757373824 L26.49366879928609,19.641218610186904 L26.628006451435684,19.728709228369052 L26.729192899609053,19.766315264510393 L26.827707177852105,19.892083028147244 L26.933677491231787,19.9314669921741 L26.94151580885323,19.910376454559675 L26.84150172227019,19.87320612767716 L26.742987444027154,19.747438364040324 L26.638189492237817,19.70849010927229 L26.503851840088217,19.620999491090135 L26.39947094715899,19.58220623662945 L26.26321603296895,19.53783659609276 L26.156148093684028,19.537836596092756 L26.053155893702666,19.58158190518383 L25.919536944061903,19.58158190518383 L25.785199291912303,19.619859050638517 L25.68694153302549,19.619859050638517 L25.554377259319697,19.53891936663751 L25.450151538634977,19.500183782083624 L25.31389662444511,19.45581414154699 L24.868796806938683,19.45581414154699 Z" style="fill:#00ff00;fill-rule:evenodd;" fill="param(fill) #00ff00"/>
            <path d="M26.937596650042508,19.909671723366888 L26.906251197874262,19.909671723366888 L26.906251197874262,19.93217172336689 L26.937596650042508,19.93217172336689 Z" style="fill:#00ff00;fill-rule:evenodd;" fill="param(fill) #00ff00"/>
            <!-- Polyline -->
            <path d="M25.719601937219473,18.191263850633057 L25.853265275798076,18.191263850633057 L25.956257475779434,18.22954099608775 L26.7366139956121,18.229540996087746 L26.870951647761697,18.191263850633057 L27.809517103510807,18.191263850633057 L27.809517103510807,18.183763850633056 L26.869904000173726,18.183763850633056 L26.73556634802411,18.222040996087745 L25.95760610292143,18.222040996087745 L25.854613902940056,18.183763850633053 L25.719601937219473,18.183763850633056 Z" style="fill:#00ff00;fill-rule:evenodd;" fill="param(fill) #00ff00"/>
            <!-- Polyline -->
            <path d="M26.359944745799233,18.805416341544486 L26.668921345743307,18.805416341544486 M26.668921345743307,18.805416341544486 L26.80325899789291,18.72339388699872 M26.80325899789291,18.72339388699872 L27.61824075426714,18.72339388699872 " style="stroke:#00ff00;stroke-width:1e-9;" stroke="param(outline) #00ff00" stroke-width="param(outline-width) 0.0"/>
            <!-- Polyline -->
            <path d="M27.07193430219211,18.76167103245341 L27.174926502173467,18.805416341544486 M27.174926502173467,18.805416341544486 L27.277918702154825,18.88743879609025 M27.277918702154825,18.88743879609025 L27.380910902136186,18.931184105181323 M27.380910902136186,18.931184105181323 L27.448079728210985,19.05148370518178 " style="stroke:#00ff00;stroke-width:1e-9;" stroke="param(outline) #00ff00" stroke-width="param(outline-width) 0.0"/>
            <!-- Polyline -->
            <path d="M27.210749876080023,18.187513850633056 L27.345087528229627,18.26953630517882 M27.345087528229627,18.26953630517882 L27.448079728210985,18.30781345063351 M27.448079728210985,18.30781345063351 L27.582417380360585,18.30781345063351 M27.582417380360585,18.30781345063351 L27.685409580341943,18.351558759724583 " style="stroke:#00ff00;stroke-width:1e-9;" stroke="param(outline) #00ff00" stroke-width="param(outline-width) 0.0"/>
            <!-- Polyline -->
            <path d="M27.309264154323067,18.679648577907646 L27.412256354304425,18.679648577907646 M27.412256354304425,18.679648577907646 L27.61824075426714,18.515603668816116 M27.61824075426714,18.515603668816116 L27.649586206435387,18.515603668816116 " style="stroke:#00ff00;stroke-width:1e-9;" stroke="param(outline) #00ff00" stroke-width="param(outline-width) 0.0"/>
            <!-- Polyline -->
            <path d="M27.04058885002387,19.341296377910147 L27.07193430219211,19.46706414154699 M27.07193430219211,19.46706414154699 L27.04058885002387,19.59283190518383 M27.04058885002387,19.59283190518383 L27.07193430219211,19.71859966882067 M27.07193430219211,19.71859966882067 L27.07193430219211,19.75687681427536 " style="stroke:#00ff00;stroke-width:1e-9;" stroke="param(outline) #00ff00" stroke-width="param(outline-width) 0.0"/>
            <!-- Polyline -->
            <path d="M26.46293694578059,20.04668948700373 L26.565929145761945,20.128711941549497 M26.565929145761945,20.128711941549497 L26.668921345743307,20.17245725064057 M26.668921345743307,20.17245725064057 L26.736090171818105,20.210734396095262 " style="stroke:#00ff00;stroke-width:1e-9;" stroke="param(outline) #00ff00" stroke-width="param(outline-width) 0.0"/>
            <!-- Polyline -->
            <path d="M24.734459154789082,21.041895268825677 L24.734459154789082,21.413730396099815 M24.734459154789082,21.413730396099815 L24.77028252869564,21.539498159736652 M24.77028252869564,21.539498159736652 L24.801627980863877,21.577775305191345 " style="stroke:#00ff00;stroke-width:1e-9;" stroke="param(outline) #00ff00" stroke-width="param(outline-width) 0.0"/>
            <!-- Polyline -->
            <path d="M24.42996047658332,21.369985087008743 L24.394137102676762,21.49575285064558 M24.394137102676762,21.49575285064558 L24.32696827660196,21.62152061428242 M24.32696827660196,21.62152061428242 L24.362791650508516,21.741820214282875 " style="stroke:#00ff00;stroke-width:1e-9;" stroke="param(outline) #00ff00" stroke-width="param(outline-width) 0.0"/>
            <!-- Polyline -->
            <path d="M23.8209631201718,21.49575285064558 L23.9553007723214,21.539498159736652 M23.9553007723214,21.539498159736652 L24.058292972302766,21.62152061428242 M24.058292972302766,21.62152061428242 L24.12546179837756,21.741820214282875 M24.12546179837756,21.741820214282875 L24.1568072505458,21.78556552337395 " style="stroke:#00ff00;stroke-width:1e-9;" stroke="param(outline) #00ff00" stroke-width="param(outline-width) 0.0"/>
            <!-- Polyline -->
            <path d="M23.413472241984685,20.626314832460473 L23.51646444196605,20.708337287006234 M23.51646444196605,20.708337287006234 L23.583633268040845,20.834105050643075 M23.583633268040845,20.834105050643075 L23.717970920190446,21.369985087008743 M23.717970920190446,21.369985087008743 L23.8209631201718,21.452007541554504 M23.8209631201718,21.452007541554504 L23.932562465241606,21.86538499636267 " style="stroke:#00ff00;stroke-width:1e-9;" stroke="param(outline) #00ff00" stroke-width="param(outline-width) 0.0"/>
            <!-- Polyline -->
            <path d="M25.4106253372754,20.46226992336894 L25.446448711181958,20.58803768700578 M25.446448711181958,20.58803768700578 L25.513617537256753,20.708337287006234 M25.513617537256753,20.708337287006234 L25.58078636333156,20.834105050643075 M25.58078636333156,20.834105050643075 L25.58078636333156,20.95987281427992 M25.58078636333156,20.95987281427992 L25.647955189406353,21.08017241428037 M25.647955189406353,21.08017241428037 L25.647955189406353,21.123917723371445 " style="stroke:#00ff00;stroke-width:1e-9;" stroke="param(outline) #00ff00" stroke-width="param(outline-width) 0.0"/>
            <!-- Polyline -->
            <path d="M23.279134589835085,21.65979775973711 L23.279134589835085,21.91133328701079 M23.279134589835085,21.91133328701079 L23.310480042003324,21.91133328701079 " style="stroke:#00ff00;stroke-width:1e-9;" stroke="param(outline) #00ff00" stroke-width="param(outline-width) 0.0"/>
        </g>
    </g>
</svg>
