<?xml version="1.0" standalone="no"?>
<!DOCTYPE svg PUBLIC "-//W3C//DTD SVG 1.1//EN"
"http://www.w3.org/Graphics/SVG/1.1/DTD/svg11.dtd">
<!-- 2015-11-17 20:02:56 Generated by QCAD SVG Exporter -->
<svg xmlns="http://www.w3.org/2000/svg" width="11.141009629672705mm" height="11.665409842404596mm" viewBox="22.42949518516365 -19.832704921202296 11.141009629672705 11.665409842404596" version="1.1" style="stroke-linecap:round;stroke-linejoin:round;fill:none">
    <g transform="scale(1,-1)">
        <!-- Block Reference: A$C43B07201 / entities: 1 -->
        <g>
            <!-- Block Reference: ARB3 / entities: 29 -->
            <g>
                <!-- Polyline -->
                <path d="M26.208465796431025,11.801834034483504 L26.210135693891957,11.800443492074379 " style="stroke:#000000;stroke-width:0.25;" stroke="param(outline) #000000" stroke-width="param(outline-width) 0.25"/>
                <!-- Polyline -->
                <path d="M23.84755356009681,13.312807473095852 L24.2010778384433,13.70203863238478 M24.2010778384433,13.70203863238478 L24.79193813761583,13.792558920514772 M24.79193813761583,13.792558920514772 L25.17818807882246,13.764947363375779 M25.17818807882246,13.764947363375779 L25.771053356765385,13.919393032487068 M25.771053356765385,13.919393032487068 L26.26381682320069,14.078354540564943 M26.26381682320069,14.078354540564943 L26.901914733646105,14.154454992021828 M26.901914733646105,14.154454992021828 L27.1515593353584,14.194585238977895 M27.1515593353584,14.194585238977895 L27.628077249028145,14.225232649047502 M27.628077249028145,14.225232649047502 L27.91470487612738,13.855302208057516 M27.91470487612738,13.855302208057516 L27.877523122201822,13.371431107812427 M27.877523122201822,13.371431107812427 L27.25775256347813,13.065598410476985 M27.25775256347813,13.065598410476985 L26.816435054557456,13.01972420831527 M26.816435054557456,13.01972420831527 L26.231453868338008,12.898357660290444 M26.231453868338008,12.898357660290444 L26.204779595677365,12.885575520110198 " style="stroke:#000000;stroke-width:0.25;" stroke="param(outline) #000000" stroke-width="param(outline-width) 0.25"/>
                <!-- Polyline -->
                <path d="M29.322299909341687,9.697954638440493 L29.25773039692871,10.107391303694687 M29.25773039692871,10.107391303694687 L28.93761097026907,10.966256850275398 M28.93761097026907,10.966256850275398 L28.520880731271596,11.519189212838715 M28.520880731271596,11.519189212838715 L28.127319791986853,11.89719495896427 M28.127319791986853,11.89719495896427 L27.966646004732695,12.24288822801273 M27.966646004732695,12.24288822801273 L27.982495876219904,12.586495347909592 M27.982495876219904,12.586495347909592 L27.982107392659202,12.857501284019866 M27.982107392659202,12.857501284019866 L27.72935184519832,13.024953671271764 M27.72935184519832,13.024953671271764 L27.466373015220043,12.873122772992632 M27.466373015220043,12.873122772992632 L27.008298056590082,12.754805846781842 M27.008298056590082,12.754805846781842 L26.58956297505741,12.805354583647931 M26.58956297505741,12.805354583647931 L26.344835909072465,12.621910702804549 M26.344835909072465,12.621910702804549 L26.05144469520193,12.285751269505772 M26.05144469520193,12.285751269505772 L26.050379927620817,12.280130001304393 " style="stroke:#000000;stroke-width:0.25;" stroke="param(outline) #000000" stroke-width="param(outline-width) 0.25"/>
                <!-- Polyline -->
                <path d="M28.389093921256187,16.9103256612565 L28.336833084969,16.79950658783881 M28.336833084969,16.79950658783881 L28.36511001526093,16.210604020790587 M28.36511001526093,16.210604020790587 L28.69228229497751,16.420114187104232 M28.69228229497751,16.420114187104232 L28.940508654016902,16.563427742315582 M28.940508654016902,16.563427742315582 L29.464782041120017,16.803349317540036 M29.464782041120017,16.803349317540036 L29.826566757038737,17.054376464065 M29.826566757038737,17.054376464065 L29.726464809323467,17.497350547763435 M29.726464809323467,17.497350547763435 L29.649456089709805,17.766270413382145 M29.649456089709805,17.766270413382145 L29.754673689418475,18.05655556585706 " style="stroke:#000000;stroke-width:0.25;" stroke="param(outline) #000000" stroke-width="param(outline-width) 0.25"/>
                <!-- Polyline -->
                <path d="M27.647036633226588,16.96946858405994 L27.793210397061397,16.694566463049497 M27.793210397061397,16.694566463049497 L28.02901010604893,16.455014971103793 M28.02901010604893,16.455014971103793 L28.212852920525776,16.81131157501971 M28.212852920525776,16.81131157501971 L28.27333768662588,16.951496318849927 " style="stroke:#000000;stroke-width:0.25;" stroke="param(outline) #000000" stroke-width="param(outline-width) 0.25"/>
                <!-- Polyline -->
                <path d="M27.823199459858444,16.463778137021862 L27.83773397634106,16.448583777171677 M27.83773397634106,16.448583777171677 L28.114557971561766,16.003179924966375 M28.114557971561766,16.003179924966375 L28.19719328011764,15.758583893697562 M28.19719328011764,15.758583893697562 L28.154164151357236,15.462052628246136 M28.154164151357236,15.462052628246136 L28.095824563365095,14.933353307909798 M28.095824563365095,14.933353307909798 L27.67860950979828,14.643800893967436 M27.67860950979828,14.643800893967436 L27.225976067641685,14.571547792559352 M27.225976067641685,14.571547792559352 L26.774046792587733,14.477396240945037 M26.774046792587733,14.477396240945037 L26.505242848640385,14.740043372371275 M26.505242848640385,14.740043372371275 L26.312991363039092,15.27596767002877 M26.312991363039092,15.27596767002877 L26.287982404354185,15.475366353611204 " style="stroke:#000000;stroke-width:0.25;" stroke="param(outline) #000000" stroke-width="param(outline-width) 0.25"/>
                <!-- Polyline -->
                <path d="M24.623784262125568,14.835875863626951 L24.872888764545774,14.79959740198457 M24.872888764545774,14.79959740198457 L25.231250395276017,14.651424231097309 M25.231250395276017,14.651424231097309 L25.62874673216762,14.086137057614298 M25.62874673216762,14.086137057614298 L25.19223136031127,14.04428548292227 M25.19223136031127,14.04428548292227 L24.836461580640638,13.985034479323147 M24.836461580640638,13.985034479323147 L24.504692471113664,13.91902310654431 M24.504692471113664,13.91902310654431 L24.22534453873194,13.862201792792023 M24.22534453873194,13.862201792792023 L24.079423358679474,13.777954160208267 M24.079423358679474,13.777954160208267 L23.830167240527892,13.466817977141933 " style="stroke:#000000;stroke-width:0.25;" stroke="param(outline) #000000" stroke-width="param(outline-width) 0.25"/>
                <!-- Polyline -->
                <path d="M25.82092060000484,15.371367276396123 L26.01209076238158,15.290546045103682 M26.01209076238158,15.290546045103682 L26.272355696629443,14.772355849478094 M26.272355696629443,14.772355849478094 L26.458592109700202,14.483113653565038 M26.458592109700202,14.483113653565038 L26.08980880768053,14.312347158290322 M26.08980880768053,14.312347158290322 L25.65632125520896,14.354378552088624 M25.65632125520896,14.354378552088624 L25.460836642996572,14.658898460267245 M25.460836642996572,14.658898460267245 L25.175595955229284,14.849288027275957 M25.175595955229284,14.849288027275957 L24.69687577028281,14.969664638744586 M24.69687577028281,14.969664638744586 L24.46536594420457,14.977745503982355 " style="stroke:#000000;stroke-width:0.25;" stroke="param(outline) #000000" stroke-width="param(outline-width) 0.25"/>
                <!-- Polyline -->
                <path d="M26.107739702018012,15.637549146788299 L26.11530338332779,15.5169058165835 M26.11530338332779,15.5169058165835 L25.892750963222717,15.545987539586042 " style="stroke:#000000;stroke-width:0.25;" stroke="param(outline) #000000" stroke-width="param(outline-width) 0.25"/>
                <!-- Polyline -->
                <path d="M24.880658303144305,15.404852787756738 A0.3767373308222283,0.3767373308222283 0 0,0 24.881130223268908,15.376805530748841 M24.881130223268908,15.376805530748838 A0.3137605379417511,0.3137605379417511 0 0,0 24.8313328236725,15.21349366121183 M24.8313328236725,15.21349366121183 A0.14977894382022944,0.14977894382022944 0 0,0 24.61971941954145,15.17162866857435 M24.61971941954145,15.171628668574352 A0.12335740713800426,0.12335740713800426 0 0,1 24.433158507699076,15.11230442206163 M24.433158507699076,15.11230442206163 A0.12597945602859603,0.12597945602859603 0 0,1 24.522116958023307,14.947065662911495 M24.522116958023307,14.947065662911497 A0.13471063523292362,0.13471063523292362 0 0,0 24.62020709913675,14.779624414714775 M24.620207099136746,14.779624414714775 A0.2945366627725771,0.2945366627725771 0 0,0 24.392329792060625,14.570166956689336 M24.392329792060625,14.570166956689334 A0.22898867731892328,0.22898867731892328 0 0,0 24.146387249074543,14.688457840227564 M24.146387249074543,14.688457840227564 A4.991724655905473,4.991724655905473 0 0,0 24.08448434339116,14.810196745829373 M24.08448434339116,14.810196745829371 A5.145961554035831,5.145961554035831 0 0,0 24.025011528989587,14.935463040625322 M24.025011528989587,14.935463040625322 A5.400068998071469,5.400068998071469 0 0,0 23.936472904609904,15.139629976495154 M23.936472904609907,15.139629976495154 A6.183893771899207,6.183893771899207 0 0,1 23.84793428023022,15.343796912364937 M23.84793428023022,15.343796912364937 A0.19991936779731795,0.19991936779731795 0 1,1 23.66180500349894,15.061094195530083 M23.66180500349894,15.061094195530083 A0.18528407261802737,0.18528407261802737 0 0,0 23.810964795688555,14.771388395112547 M23.810964795688555,14.771388395112547 A0.29547012696505015,0.29547012696505015 0 0,0 23.622757891219862,14.647824546713117 M23.622757891219862,14.647824546713117 A0.18062702189378493,0.18062702189378493 0 0,0 23.455599578127444,14.703013894773868 M23.455599578127448,14.703013894773868 A0.1146112660808512,0.1146112660808512 0 0,0 23.43566728315537,14.827958913799215 M23.435667283155368,14.827958913799216 A0.09463218243271229,0.09463218243271229 0 0,1 23.40986939213127,14.939996430508542 M23.40986939213127,14.939996430508542 A0.09633569134669566,0.09633569134669566 0 0,1 23.256138431807045,14.838169091088442 M23.256138431807045,14.838169091088442 A0.10666729304208211,0.10666729304208211 0 0,0 23.11020570324464,14.710293258827914 M23.11020570324464,14.71029325882791 A0.16530842437792326,0.16530842437792326 0 0,0 23.02963817454617,14.788155360333645 M23.02963817454617,14.788155360333645 A0.3986624546370925,0.3986624546370925 0 0,0 22.98882998315974,14.957298459225607 M22.98882998315974,14.957298459225603 A0.1548943394171198,0.1548943394171198 0 0,0 23.144516227442324,15.114784212860515 M23.144516227442324,15.114784212860517 A0.09810895134514745,0.09810895134514745 0 0,1 23.222820800693533,15.272676437855406 M23.22282080069353,15.272676437855404 A0.19935800730831255,0.19935800730831255 0 0,1 23.10063073905837,15.347296665414012 M23.10063073905837,15.347296665414014 L22.9820081158601,15.327289023216565 M22.9820081158601,15.327289023216565 L22.905175262818247,15.300752088917028 M22.905175262818247,15.300752088917026 A0.33631062213591684,0.33631062213591684 0 0,0 22.821162182074,15.269899974857882 M22.821162182074,15.269899974857886 A0.3032498995074245,0.3032498995074245 0 0,0 22.553366005388362,15.339821897056225 M22.553366005388362,15.339821897056225 A0.3916032006578654,0.3916032006578654 0 0,0 22.444342168528788,15.503445725803276 M22.444342168528788,15.503445725803276 A0.26867449623054535,0.26867449623054535 0 0,0 22.44009655227302,15.666250649098638 M22.44009655227302,15.666250649098638 A0.3952279068210613,0.3952279068210613 0 0,0 22.529220490140695,15.824297010075668 M22.529220490140695,15.82429701007567 A0.680566378882897,0.680566378882897 0 0,0 22.71877974809929,15.968370481183253 M22.71877974809929,15.968370481183252 A0.260252882634,0.260252882634 0 0,0 22.91726292449296,15.984575592290254 M22.91726292449296,15.984575592290254 A0.17463549117554591,0.17463549117554591 0 0,1 23.07790680150097,16.012949284036452 M23.07790680150097,16.012949284036452 A0.22204694938031375,0.22204694938031375 0 0,1 23.163217624229606,16.20251014940908 M23.16321762422961,16.20251014940908 A0.3142036369923783,0.3142036369923783 0 0,1 23.051524951767398,16.423123111544943 M23.051524951767398,16.423123111544943 A0.15414165776317643,0.15414165776317643 0 0,1 22.947243446121796,16.459053476218152 M22.947243446121796,16.45905347621815 A0.1409387719190214,0.1409387719190214 0 0,0 22.84814824630542,16.495160646101233 M22.848148246305428,16.49516064610124 A0.24798214027637308,0.24798214027637308 0 0,0 22.766586693755503,16.66355166480355 M22.7665866937555,16.66355166480355 A0.4356766538221237,0.4356766538221237 0 0,0 22.821767121040647,16.90533651893336 M22.821767121040647,16.90533651893336 A0.37673733082207944,0.37673733082207944 0 0,0 22.95118438560664,17.040439086461536 M22.95118438560664,17.040439086461536 A0.3137605379416897,0.3137605379416897 0 0,0 23.11525107884913,17.087690201863193 M23.11525107884913,17.087690201863197 A0.14977894382026777,0.14977894382026777 0 0,0 23.265679694747572,16.933080558129788 M23.26567969474757,16.933080558129788 A0.12335740713800489,0.12335740713800489 0 0,1 23.417093527037032,16.808991108766925 M23.417093527037032,16.808991108766925 A0.1259794560286271,0.1259794560286271 0 0,1 23.5071552286477,16.97363115041103 M23.5071552286477,16.97363115041103 A0.13471063523291743,0.13471063523291743 0 0,0 23.539209403449828,17.11406862038322 M23.539209403449828,17.11406862038322 L23.61969660551733,17.198742774185543 M23.61969660551733,17.198742774185543 L23.716170602317018,17.305507773458324 M23.716170602317018,17.305507773458324 L23.83257320412683,17.39952574929281 M23.83257320412683,17.39952574929281 L23.769641559689568,17.53605337964347 M23.769641559689568,17.53605337964347 A0.33631062213591273,0.33631062213591273 0 0,0 23.67071249429658,17.605907386899712 M23.67071249429658,17.605907386899712 A0.30324989950743503,0.30324989950743503 0 0,0 23.588638720996283,17.870232495785746 M23.588638720996283,17.870232495785746 A0.3916032006578424,0.3916032006578424 0 0,0 23.669991347415134,18.049231670398864 M23.669991347415134,18.049231670398864 A0.2686744962305344,0.2686744962305344 0 0,0 23.80599110598368,18.138828176892673 M23.80599110598368,18.138828176892673 A0.3952279068210623,0.3952279068210623 0 0,0 23.987266814647338,18.146628559422496 M23.987266814647338,18.146628559422496 A0.6805663788828887,0.6805663788828887 0 0,0 24.20972637413169,18.061766189971557 M24.20972637413169,18.06176618997156 A0.2602528826340143,0.2602528826340143 0 0,0 24.328322811298218,17.90178787260098 M24.328322811298218,17.90178787260098 A0.17463549117552365,0.17463549117552365 0 0,1 24.4372657086245,17.78036725357101 M24.4372657086245,17.78036725357101 A0.22204694938031752,0.22204694938031752 0 0,1 24.64328723138086,17.808051009035328 M24.643287231380864,17.808051009035324 A0.31420363699237247,0.31420363699237247 0 0,1 24.7716212890973,18.019417283010483 M24.771621289097304,18.019417283010483 A0.15414165776318364,0.15414165776318364 0 0,1 24.74705064248537,18.12694359072323 M24.74705064248537,18.12694359072323 A0.14093877191903564,0.14093877191903564 0 0,0 24.725369465157435,18.230159446546303 M24.725369465157435,18.230159446546303 A0.24798214027634685,0.24798214027634685 0 0,0 24.825275266530838,18.388357590928237 M24.825275266530838,18.388357590928237 A0.43567665382214904,0.43567665382214904 0 0,0 25.059727165026985,18.469209941132206 M25.059727165026985,18.46920994113221 A0.3767373308220751,0.3767373308220751 0 0,0 25.168603618322287,18.45803340732523 M25.168603618322287,18.458033407325228 L25.266596908615846,18.495548624186473 M25.266596908615846,18.495548624186473 L25.32360718088274,18.60750050755692 M25.32360718088274,18.60750050755692 L25.356338965839562,18.714266880733867 M25.35633896583956,18.714266880733867 A0.39160320065781845,0.39160320065781845 0 0,0 25.376763851996877,18.775180990368955 M25.376763851996877,18.775180990368955 A0.2686744962305385,0.2686744962305385 0 0,0 25.48336223511668,18.898307969633628 M25.48336223511668,18.898307969633628 A0.39522790682106246,0.39522790682106246 0 0,0 25.65572607827658,18.95498630844373 M25.65572607827658,18.95498630844373 A0.6805663788829199,0.6805663788829199 0 0,0 25.892864229616603,18.933646802033284 M25.892864229616603,18.933646802033287 A0.2602528826340113,0.2602528826340113 0 0,0 26.050408029108674,18.811834946374994 M26.050408029108674,18.811834946374994 A0.1746354911755416,0.1746354911755416 0 0,1 26.18820156171386,18.724516769712544 M26.18820156171386,18.724516769712544 A0.22204694938031788,0.22204694938031788 0 0,1 26.37899020220652,18.80704526669644 M26.37899020220652,18.80704526669644 A0.31420363699235615,0.31420363699235615 0 0,1 26.44518065451,19.04529756189622 M26.445180654510004,19.04529756189622 A0.1541416577631869,0.1541416577631869 0 0,1 26.392365033526524,19.142127999803908 M26.39236503352652,19.142127999803904 A0.14093877191902496,0.14093877191902496 0 0,0 26.343499750205577,19.23559334327183 M26.343499750205577,19.23559334327183 A0.24798214027636656,0.24798214027636656 0 0,0 26.396749390170058,19.414959722166003 M26.396749390170054,19.414959722166003 A0.43567665382213305,0.43567665382213305 0 0,0 26.600480756772832,19.556375158042414 M26.600480756772832,19.55637515804241 A0.3767373308220888,0.3767373308220888 0 0,0 26.787144909643192,19.568946003425367 M26.787144909643192,19.568946003425367 A0.3137605379416867,0.3137605379416867 0 0,0 26.94019076768827,19.493265668638376 M26.94019076768827,19.493265668638376 A0.14977894382026774,0.14977894382026774 0 0,0 26.94710278653592,19.277661553622124 M26.94710278653592,19.277661553622124 A0.123357407138008,0.123357407138008 0 0,1 26.97531397917489,19.08393889448889 M26.97531397917489,19.083938894488895 A0.12597945602862887,0.12597945602862887 0 0,1 27.1528148643562,19.144855962453747 M27.152814864356202,19.144855962453747 A0.13471063523290958,0.13471063523290958 0 0,0 27.271151967691164,19.226992939928707 M27.271151967691164,19.22699293992871 L27.387681051877017,19.235292009611626 M27.387681051877017,19.235292009611626 L27.53090950293974,19.249134261393486 M27.53090950293974,19.249134261393486 L27.68026755958143,19.24012779680806 M27.68026755958143,19.24012779680806 L27.72580253150306,19.383399399203107 M27.725802531503057,19.383399399203107 A0.33631062213587315,0.33631062213587315 0 0,0 27.699806198796214,19.501681828139432 M27.69980619879622,19.501681828139432 A0.303249899507437,0.303249899507437 0 0,0 27.817339471188635,19.752260752496795 M27.817339471188635,19.752260752496795 A0.39160320065782966,0.39160320065782966 0 0,0 27.99808531184946,19.829655167161107 M27.99808531184946,19.829655167161107 A0.26867449623053763,0.26867449623053763 0 0,0 28.15893976552091,19.80417354553574 M28.15893976552091,19.80417354553574 A0.3952279068210728,0.3952279068210728 0 0,0 28.29810726752106,19.687751318679513 M28.29810726752106,19.687751318679513 A0.6805663788828926,0.6805663788828926 0 0,0 28.405240567346283,19.47511939863137 M28.405240567346283,19.47511939863137 A0.26025288263401825,0.26025288263401825 0 0,0 28.38501927344612,19.27700509775857 M28.38501927344612,19.27700509775857 A0.17463549117552524,0.17463549117552524 0 0,1 28.38365569912613,19.113880414560285 M28.383655699126127,19.113880414560285 A0.22204694938031683,0.22204694938031683 0 0,1 28.554505034544885,18.99546689023798 M28.554505034544885,18.995466890237985 A0.3142036369923694,0.3142036369923694 0 0,1 28.79177268936707,19.065104467157983 M28.79177268936707,19.065104467157983 A0.15414165776318267,0.15414165776318267 0 0,1 28.846097615313777,19.16109626861076 M28.846097615313774,19.16109626861076 A0.1409387719190156,0.1409387719190156 0 0,0 28.89965166172673,19.251956328353263 M28.899651661726732,19.25195632835326 A0.24798214027636425,0.24798214027636425 0 0,0 29.080082461356987,19.3014795408777 M29.080082461356987,19.3014795408777 A0.435676653822151,0.435676653822151 0 0,0 29.307770531103877,19.20317929603117 M29.30777053110388,19.203179296031173 A0.3767373308220829,0.3767373308220829 0 0,0 29.41703835718995,19.051317272131598 M29.41703835718995,19.051317272131598 A0.3137605379417,0.3137605379417 0 0,0 29.433612880716876,18.88138836667969 M29.433612880716876,18.88138836667969 A0.14977894382026333,0.14977894382026333 0 0,0 29.254188203036666,18.761639899232957 M29.254188203036666,18.761639899232954 A0.12335740713800435,0.12335740713800435 0 0,1 29.104593630187978,18.63536320373462 M29.104593630187985,18.63536320373462 A0.12597945602862307,0.12597945602862307 0 0,1 29.2500736747948,18.516817811454793 M29.2500736747948,18.516817811454793 A0.13471063523291305,0.13471063523291305 0 0,0 29.404832430044618,18.399736749558123 M29.404832430044618,18.399736749558123 A0.2945366627725554,0.2945366627725554 0 0,0 29.274596877648513,18.118953568625198 M29.274596877648513,18.118953568625198 A0.22898867731889125,0.22898867731889125 0 0,0 29.002100119179666,18.133986339582854 M29.002100119179662,18.133986339582854 A4.9917246559041315,4.9917246559041315 0 0,0 28.89827765533441,18.222717545312644 M28.89827765533441,18.222717545312648 A5.14596155403681,5.14596155403681 0 0,0 28.846499996573556,18.26883107157339 M28.846499996573556,18.26883107157339 L28.792817985572036,18.273479756331604 M28.792817985572036,18.273479756331604 L28.690774936592458,18.246173787947505 M28.690774936592458,18.246173787947505 L28.599038273210176,18.151330665500467 M28.599038273210176,18.151330665500467 L28.54036821419761,18.049711142407634 M28.54036821419761,18.049711142407634 L28.582387557834785,17.874531380105076 M28.582387557834785,17.874531380105076 A0.3767373308221,0.3767373308221 0 0,0 28.60277718270961,17.855266527867528 M28.60277718270961,17.855266527867528 A0.31376053794175524,0.31376053794175524 0 0,0 28.684776490305367,17.705511189758816 M28.68477649030537,17.705511189758816 A0.1497789438202152,0.1497789438202152 0 0,0 28.56682120180893,17.52490260654035 M28.56682120180893,17.524902606540348 A0.12335740713800701,0.12335740713800701 0 0,1 28.478862339508783,17.350009557522885 M28.478862339508787,17.350009557522885 A0.1259794560286007,0.1259794560286007 0 0,1 28.659216983185544,17.298147664828953 M28.659216983185544,17.298147664828953 A0.1347106352329232,0.1347106352329232 0 0,0 28.847529065354045,17.25127755611674 M28.847529065354042,17.25127755611674 A0.2945366627725832,0.2945366627725832 0 0,0 28.83807136565468,16.941905537797137 M28.83807136565468,16.941905537797137 A0.22898867731892864,0.22898867731892864 0 0,0 28.58157749837623,16.848678054578595 M28.581577498376227,16.848678054578595 A4.9917246559054025,4.9917246559054025 0 0,0 28.4512438322943,16.889488180219356 M28.451243832294296,16.889488180219352 A5.145961554035322,5.145961554035322 0 0,0 28.320085730902314,16.93450165269144 M28.320085730902314,16.934501652691445 A5.400068998071632,5.400068998071632 0 0,0 28.112182519749354,17.013870919424946 M28.112182519749354,17.013870919424942 A6.183893771899199,6.183893771899199 0 0,1 27.904279308596436,17.09324018615841 M27.904279308596436,17.093240186158415 A0.19991936779732095,0.19991936779732095 0 1,1 27.976385579643974,16.76253545465622 M27.976385579643974,16.76253545465622 A0.1852840726180174,0.1852840726180174 0 0,0 28.287835858910107,16.66673974521863 M28.28783585891011,16.66673974521863 A0.2954701269650361,0.2954701269650361 0 0,0 28.244671681241844,16.445772061411287 M28.244671681241844,16.445772061411287 A0.18062702189377822,0.18062702189377822 0 0,0 28.088371645109074,16.364790183931408 M28.088371645109074,16.36479018393141 A0.11461126608084125,0.11461126608084125 0 0,0 27.985078402827344,16.43785905733879 M27.98507840282734,16.43785905733879 A0.09463218243273107,0.09463218243273107 0 0,1 27.886917293816424,16.49771165134636 M27.886917293816424,16.497711651346357 A0.09633569134669809,0.09633569134669809 0 0,1 27.852302275213667,16.31659341454311 M27.852302275213667,16.316593414543114 A0.10666729304207868,0.10666729304207868 0 0,0 27.841767734847423,16.122847154704992 M27.841767734847423,16.122847154704996 A0.16530842437791035,0.16530842437791035 0 0,0 27.729770579829292,16.119642345925858 M27.729770579829292,16.119642345925858 A0.3986624546370822,0.3986624546370822 0 0,0 27.580275967373577,16.208670752817817 M27.580275967373577,16.208670752817817 A0.15489433941712238,0.15489433941712238 0 0,0 27.57644985424955,16.43008739653535 M27.57644985424955,16.43008739653535 A0.09810895134514722,0.09810895134514722 0 0,1 27.518250567971133,16.596443652752463 M27.518250567971133,16.596443652752463 A0.19935800730829822,0.19935800730829822 0 0,1 27.366385391227453,16.551092497207513 M27.366385391227453,16.551092497207513 A0.3300818637867945,0.3300818637867945 0 0,0 27.24423679022209,16.48626008633682 M27.24423679022209,16.48626008633682 L27.046604016997435,16.473833938609854 M27.046604016997435,16.473833938609854 L26.872159844157824,16.65406693090792 M26.872159844157824,16.65406693090792 L26.70046025926168,16.42751799333204 M26.70046025926168,16.42751799333204 A0.37673733082220756,0.37673733082220756 0 0,0 26.709771983568704,16.40105739763389 M26.709771983568704,16.40105739763389 A0.31376053794175746,0.31376053794175746 0 0,0 26.714139583018248,16.230377955950694 M26.714139583018245,16.230377955950694 A0.149778943820218,0.149778943820218 0 0,0 26.5266029988557,16.123780863977675 M26.5266029988557,16.123780863977675 A0.12335740713800551,0.12335740713800551 0 0,1 26.368352665173166,16.008536896928952 M26.368352665173166,16.008536896928952 A0.12597945602860128,0.12597945602860128 0 0,1 26.504973377980942,15.879881410293276 M26.504973377980942,15.879881410293276 A0.13471063523292454,0.13471063523292454 0 0,0 26.65095382121159,15.752022278528997 M26.65095382121159,15.752022278528997 A0.29453666277258067,0.29453666277258067 0 0,0 26.500952457913677,15.481282394486186 M26.500952457913677,15.481282394486188 A0.22898867731893055,0.22898867731893055 0 0,0 26.23023091835689,15.515783345179235 M26.230230918356888,15.515783345179235 A4.991724655905521,4.991724655905521 0 0,0 26.13302665741418,15.611719065970574 M26.133026657414185,15.611719065970576 A5.145961554035437,5.145961554035437 0 0,0 26.037013149254953,15.711769385888628 M26.037013149254957,15.71176938588863 A5.400068998071686,5.400068998071686 0 0,0 25.88848797194678,15.877490529425302 M25.88848797194678,15.877490529425302 A6.183893771899019,6.183893771899019 0 0,1 25.73996279463865,16.04321167296193 M25.73996279463865,16.04321167296193 A0.19991936779732147,0.19991936779732147 0 1,1 25.652717999965056,15.71617455035246 M25.652717999965056,15.71617455035246 A0.18528407261802776,0.18528407261802776 0 0,0 25.88579081462255,15.488457275054232 M25.885790814622545,15.488457275054232 A0.2954701269650444,0.2954701269650444 0 0,0 25.746280989521885,15.311746007101831 M25.746280989521885,15.31174600710183 A0.1806270218937874,0.1806270218937874 0 0,0 25.570248188318743,15.311278379205671 M25.570248188318743,15.31127837920567 A0.11461126608084887,0.11461126608084887 0 0,0 25.51185014956215,15.423520186173848 M25.51185014956215,15.423520186173848 A0.09463218243271744,0.09463218243271744 0 0,1 25.451966404226425,15.521662294242969 M25.451966404226425,15.521662294242969 A0.0963356913467011,0.0963356913467011 0 0,1 25.33829595743324,15.376469165130652 M25.33829595743324,15.376469165130652 A0.10666729304207981,0.10666729304207981 0 0,0 25.24025636343706,15.209027152030435 M25.24025636343706,15.209027152030433 A0.16530842437792165,0.16530842437792165 0 0,0 25.139210830460208,15.257436178016214 M25.139210830460208,15.257436178016214 A0.3986624546370828,0.3986624546370828 0 0,0 25.047038594335184,15.40501319273977 M25.047038594335177,15.40501319273977 A0.15489433941711586,0.15489433941711586 0 0,0 25.038684112059794,15.467880986824285 " style="stroke:#000000;stroke-width:0.25;" stroke="param(outline) #000000" stroke-width="param(outline-width) 0.25"/>
                <!-- Polyline -->
                <path d="M27.971021640764338,10.094268072170644 A0.3767373308221303,0.3767373308221303 0 0,0 27.964181764100985,10.067063524361485 M27.964181764100985,10.067063524361485 A0.3137605379417444,0.3137605379417444 0 0,0 27.873618428937387,9.922326417639391 M27.873618428937387,9.922326417639393 A0.14977894382022075,0.14977894382022075 0 0,0 27.658399565616115,9.936946653176536 M27.658399565616115,9.936946653176536 A0.12335740713801284,0.12335740713801284 0 0,1 27.462829380648017,9.92819206561861 M27.462829380648017,9.92819206561861 A0.12597945602860197,0.12597945602860197 0 0,1 27.505744323558574,9.745501723551625 M27.505744323558574,9.745501723551627 A0.134710635232922,0.134710635232922 0 0,0 27.55690371590195,9.558309405449663 M27.556903715901946,9.558309405449664 A0.29453666277257523,0.29453666277257523 0 0,0 27.282387246053297,9.415336675236603 M27.282387246053297,9.4153366752366 A0.2289886773189305,0.2289886773189305 0 0,0 27.075680119523696,9.593529355839918 M27.075680119523696,9.59352935583992 A4.991724655905175,4.991724655905175 0 0,0 27.047574369284042,9.727179637069089 M27.047574369284046,9.727179637069087 A5.145961554035563,5.145961554035563 0 0,0 27.022732591770723,9.863603778461753 M27.02273259177072,9.86360377846175 A5.400068998071731,5.400068998071731 0 0,0 26.990348881102943,10.083773079212133 M26.990348881102943,10.083773079212135 A6.1838937718991565,6.1838937718991565 0 0,1 26.957965170435195,10.303942379962471 M26.957965170435195,10.303942379962468 A0.19991936779732067,0.19991936779732067 0 1,1 26.70470735513529,10.079386345191992 M26.70470735513529,10.079386345191994 A0.18528407261801833,0.18528407261801833 0 0,0 26.77337542407748,9.760854100812628 M26.77337542407748,9.760854100812628 A0.2954701269650321,0.2954701269650321 0 0,0 26.559506130970117,9.690499364037366 M26.559506130970117,9.690499364037366 A0.18062702189378566,0.18062702189378566 0 0,0 26.41245752012642,9.787269565154304 M26.412457520126424,9.787269565154306 A0.11461126608084089,0.11461126608084089 0 0,0 26.42571160001198,9.913098351719553 M26.42571160001198,9.913098351719555 A0.09463218243273472,0.09463218243273472 0 0,1 26.42994454046228,10.027989685365021 M26.42994454046228,10.027989685365021 A0.09633569134670569,0.09633569134670569 0 0,1 26.25501845795587,9.969655468351743 M26.25501845795587,9.969655468351743 A0.10666729304207631,0.10666729304207631 0 0,0 26.08084653009376,9.88414097082774 M26.08084653009376,9.88414097082774 A0.16530842437793314,0.16530842437793314 0 0,0 26.023305567181197,9.980279782545821 M26.023305567181197,9.980279782545821 A0.3986624546370617,0.3986624546370617 0 0,0 26.02789900234078,10.154215393449501 M26.02789900234078,10.154215393449501 A0.1548943394171288,0.1548943394171288 0 0,0 26.219190729871556,10.265783508227292 M26.219190729871556,10.265783508227294 A0.09810895134514139,0.09810895134514139 0 0,1 26.33587020520829,10.397872345533976 M26.33587020520829,10.397872345533976 A0.19935800730831346,0.19935800730831346 0 0,1 26.222073322779455,10.508190198876637 M26.222073322779455,10.508190198876637 A0.33008186378680926,0.33008186378680926 0 0,0 26.105806864548935,10.583060973664978 M26.105806864548935,10.583060973664978 A0.33008186378676474,0.33008186378676474 0 0,1 25.98858604924366,10.656428559737012 M25.98858604924366,10.656428559737012 A0.19935800730830092,0.19935800730830092 0 0,0 25.87337820807891,10.765272082974777 M25.87337820807891,10.765272082974777 A0.09810895134514126,0.09810895134514126 0 0,0 25.98834730890218,10.898852271482566 M25.98834730890218,10.898852271482564 A0.15489433941712058,0.15489433941712058 0 0,1 26.17818669062024,11.012874104504483 M26.178186690620237,11.012874104504483 A0.39866245463708916,0.39866245463708916 0 0,1 26.18054024641928,11.186854440066025 M26.180540246419284,11.186854440066025 A0.16530842437791918,0.16530842437791918 0 0,1 26.121766223093204,11.282244417073741 M26.121766223093204,11.282244417073743 A0.10666729304207632,0.10666729304207632 0 0,1 25.948709770002054,11.194494466729044 M25.94870977000205,11.194494466729044 A0.0963356913466973,0.0963356913466973 0 0,0 25.774549266540415,11.133912833789882 M25.77454926654042,11.133912833789884 A0.094632182432728,0.094632182432728 0 0,0 25.777302578927905,11.248849144860772 M25.777302578927902,11.248849144860774 A0.1146112660808485,0.1146112660808485 0 0,1 25.78893545838375,11.374838153419711 M25.78893545838375,11.374838153419711 A0.18062702189377666,0.18062702189377666 0 0,1 25.640653077173635,11.469707016583177 M25.640653077173635,11.469707016583177 A0.2954701269650494,0.2954701269650494 0 0,1 25.427707360746926,11.396604449073683 M25.427707360746926,11.396604449073683 A0.18528407261801821,0.18528407261801821 0 0,1 25.500470982433498,11.078982740494661 M25.500470982433498,11.078982740494663 A0.19991936779732078,0.19991936779732078 0 1,0 25.25012541932465,10.851184512244235 M25.250125419324647,10.851184512244238 A6.183893771899071,6.183893771899071 0 0,0 25.214909615019124,11.070918607997756 M25.214909615019124,11.070918607997754 A5.400068998071751,5.400068998071751 0 0,1 25.179693810713584,11.290652703751325 M25.179693810713587,11.290652703751332 A5.145961554035438,5.145961554035438 0 0,1 25.15309757069098,11.426745687704976 M25.15309757069098,11.42674568770497 A4.991724655905436,4.991724655905436 0 0,1 25.123273343186536,11.56002301632066 M25.123273343186536,11.560023016320661 A0.2289886773189271,0.2289886773189271 0 0,1 24.914289040749175,11.735539479689452 M24.914289040749175,11.73553947968945 A0.294536662772583,0.294536662772583 0 0,1 24.641636163814653,11.58904407873066 M24.641636163814653,11.58904407873066 A0.13471063523292773,0.13471063523292773 0 0,1 24.695201500075996,11.402525977377085 M24.695201500075996,11.402525977377085 A0.12597945602859645,0.12597945602859645 0 0,0 24.74046510535308,11.220403327915559 M24.740465105353078,11.22040332791556 A0.12335740713799839,0.12335740713799839 0 0,0 24.545023850808576,11.20913141264673 M24.545023850808576,11.20913141264673 A0.14977894382022738,0.14977894382022738 0 0,1 24.329634585351634,11.22097939738614 M24.329634585351634,11.220979397386138 A0.3137605379417444,0.3137605379417444 0 0,1 24.240942311995042,11.075088244861128 M24.240942311995042,11.075088244861128 A0.3767373308221246,0.3767373308221246 0 0,1 24.234453272994585,11.04779788562712 " style="stroke:#000000;stroke-width:0.25;" stroke="param(outline) #000000" stroke-width="param(outline-width) 0.25"/>
                <!-- Polyline -->
                <path d="M28.285742272835044,10.700610232693737 A0.3767373308220274,0.3767373308220274 0 0,0 28.30979594984804,10.715042556014142 M28.30979594984804,10.715042556014144 A0.31376053794177433,0.31376053794177433 0 0,0 28.476126877404838,10.753572677689757 M28.476126877404838,10.753572677689759 A0.14977894382022902,0.14977894382022902 0 0,0 28.618189726623662,10.591242590249701 M28.618189726623662,10.591242590249701 A0.12335740713800555,0.12335740713800555 0 0,1 28.762846487085238,10.459338224497378 M28.762846487085238,10.459338224497376 A0.12597945602859717,0.12597945602859717 0 0,1 28.861468225036955,10.618997881934526 M28.861468225036955,10.618997881934526 A0.1347106352329153,0.1347106352329153 0 0,0 28.957431529059953,10.787667060097924 M28.957431529059953,10.787667060097924 A0.2945366627725807,0.2945366627725807 0 0,0 29.25276566226016,10.695048252236727 M29.25276566226016,10.695048252236727 A0.22898867731892553,0.22898867731892553 0 0,0 29.273294023573005,10.422910320370319 M29.273294023573,10.422910320370317 A4.991724655905452,4.991724655905452 0 0,0 29.198816491534615,10.308431378679535 M29.198816491534615,10.308431378679533 A5.145961554035511,5.145961554035511 0 0,0 29.12006910520416,10.194293263175247 M29.12006910520416,10.19429326317525 A5.400068998071452,5.400068998071452 0 0,0 28.9875246643179,10.015533097311396 M28.987524664317903,10.0155330973114 A6.183893771899194,6.183893771899194 0 0,1 28.85498022343168,9.836772931447573 M28.85498022343168,9.836772931447573 A0.19991936779732195,0.19991936779732195 0 1,1 29.19287259629519,9.816931607827678 M29.19287259629519,9.816931607827678 A0.18528407261802662,0.18528407261802662 0 0,0 29.36918528298567,10.090960677295861 M29.36918528298567,10.090960677295861 A0.2954701269650409,0.2954701269650409 0 0,0 29.57029816692328,9.989750641058052 M29.57029816692328,9.989750641058052 A0.18062702189378688,0.18062702189378688 0 0,0 29.606081946030592,9.817392621435891 M29.606081946030592,9.817392621435891 A0.11461126608084572,0.11461126608084572 0 0,0 29.50784253296435,9.737658238121677 M29.50784253296435,9.737658238121679 A0.09463218243272423,0.09463218243272423 0 0,1 29.423714142829184,9.659297850776081 M29.423714142829184,9.659297850776081 A0.09633569134670379,0.09633569134670379 0 0,1 29.588764685728897,9.577076603497169 M29.588764685728897,9.577076603497169 A0.10666729304208362,0.10666729304208362 0 0,0 29.7724747692778,9.514633069448816 M29.7724747692778,9.514633069448816 A0.1653084243779224,0.1653084243779224 0 0,0 29.74532797573103,9.405928492122943 M29.74532797573103,9.405928492122943 A0.3986624546370921,0.3986624546370921 0 0,0 29.619249850908986,9.286016012253818 M29.619249850908986,9.286016012253818 A0.15489433941712172,0.15489433941712172 0 0,0 29.40502006538572,9.342101378004873 M29.40502006538572,9.342101378004873 A0.09810895134515075,0.09810895134515075 0 0,1 29.229129100854486,9.330969015175476 M29.22912910085449,9.330969015175476 A0.19935800730831232,0.19935800730831232 0 0,1 29.22560111897015,9.187839203930135 M29.22560111897015,9.187839203930135 L29.302239556982105,9.095112819875608 M29.302239556982105,9.095112819875608 L29.363637642745,9.041842084445893 M29.363637642745,9.041842084445893 A0.33631062213585294,0.33631062213585294 0 0,0 29.432362897652776,8.984510679300756 M29.432362897652776,8.984510679300756 A0.3032498995074309,0.3032498995074309 0 0,0 29.505706825090403,8.717631426155473 M29.5057068250904,8.717631426155473 A0.39160320065785414,0.39160320065785414 0 0,0 29.418516351160775,8.54140209944351 M29.418516351160775,8.54140209944351 A0.26867449623053846,0.26867449623053846 0 0,0 29.279645959853703,8.456322826263616 M29.279645959853703,8.456322826263616 A0.39522790682106534,0.39522790682106534 0 0,0 29.09821182733807,8.454483240053813 M29.09821182733807,8.454483240053815 A0.6805663788829049,0.6805663788829049 0 0,0 28.878660912368197,8.546609637414694 M28.878660912368197,8.546609637414694 A0.260252882634007,0.260252882634007 0 0,0 28.76538528628155,8.710398554841944 M28.76538528628155,8.710398554841944 A0.17463549117554542,0.17463549117554542 0 0,1 28.660491009926183,8.8353333874202 M28.660491009926183,8.8353333874202 A0.2220469493803165,0.2220469493803165 0 0,1 28.453671073585802,8.814434294434648 M28.453671073585802,8.814434294434648 A0.3142036369923673,0.3142036369923673 0 0,1 28.318460980203128,8.607399121597869 M28.318460980203128,8.607399121597869 A0.1541416577631778,0.1541416577631778 0 0,1 28.33948512445169,8.499123506227281 M28.33948512445169,8.499123506227281 A0.1409387719190206,0.1409387719190206 0 0,0 28.35776299798236,8.395250960851666 M28.35776299798236,8.395250960851666 A0.24798214027635374,0.24798214027635374 0 0,0 28.252712874291998,8.24042107502018 M28.252712874291998,8.24042107502018 A0.4356766538221594,0.4356766538221594 0 0,0 28.01573083472267,8.167316299775893 M28.01573083472267,8.16731629977589 A0.3767373308220725,0.3767373308220725 0 0,0 27.834019946843775,8.211843654814244 M27.834019946843775,8.211843654814247 A0.31376053794171077,0.31376053794171077 0 0,0 27.711065933927532,8.330304021376326 M27.711065933927536,8.330304021376328 A0.1497789438202662,0.1497789438202662 0 0,0 27.769747505121522,8.537883846067203 M27.769747505121522,8.537883846067201 A0.12335740713800648,0.12335740713800648 0 0,1 27.801505204466636,8.731056795995672 M27.801505204466636,8.731056795995672 A0.12597945602862148,0.12597945602862148 0 0,1 27.613891895117387,8.726732496676512 M27.613891895117387,8.726732496676513 A0.1347106352329054,0.1347106352329054 0 0,0 27.476242391077204,8.684273491366412 M27.476242391077204,8.684273491366412 L27.362668821806682,8.71164037613524 M27.362668821806682,8.71164037613524 L27.221970621801578,8.741806808531994 M27.221970621801578,8.741806808531994 L27.08234736541162,8.79560543084866 M27.08234736541162,8.79560543084866 L26.995576791428086,8.672841212888732 M26.995576791428086,8.672841212888732 A0.33631062213591645,0.33631062213591645 0 0,0 26.984545979284537,8.55223912545763 M26.984545979284537,8.55223912545763 A0.30324989950743186,0.30324989950743186 0 0,0 26.796670606781294,8.348998598352113 M26.796670606781294,8.348998598352113 A0.39160320065783455,0.39160320065783455 0 0,0 26.600976461100466,8.329952452188868 M26.600976461100466,8.329952452188866 A0.2686744962305365,0.2686744962305365 0 0,0 26.455383731102216,8.402933444770875 M26.455383731102216,8.402933444770873 A0.39522790682106956,0.39522790682106956 0 0,0 26.35799054734032,8.55602262229772 M26.357990547340325,8.556022622297721 A0.6805663788829065,0.6805663788829065 0 0,0 26.320253735368,8.791109436851341 M26.320253735367995,8.791109436851338 A0.2602528826340144,0.2602528826340144 0 0,0 26.39950080368235,8.973806122921161 M26.39950080368235,8.973806122921161 A0.17463549117551885,0.17463549117551885 0 0,1 26.450182695642376,9.128863749082587 M26.45018269564238,9.128863749082587 A0.22204694938032637,0.22204694938032637 0 0,1 26.32319709875994,9.293441743783799 M26.32319709875994,9.2934417437838 A0.31420363699236864,0.31420363699236864 0 0,1 26.075981507135975,9.298899160949398 M26.075981507135975,9.298899160949397 A0.15414165776317246,0.15414165776317246 0 0,1 25.995146316387572,9.223857202939678 M25.99514631638757,9.22385720293968 A0.14093877191903,0.14093877191903 0 0,0 25.91659935183541,9.1534728246782 M25.91659935183541,9.1534728246782 A0.24798214027635915,0.24798214027635915 0 0,0 25.729642839282384,9.160894714462044 M25.729642839282384,9.160894714462044 A0.435676653822146,0.435676653822146 0 0,0 25.542396700802,9.323509839423215 M25.542396700802,9.323509839423215 A0.3767373308220888,0.3767373308220888 0 0,0 25.497637636357453,9.423387880754388 M25.49763763635745,9.423387880754388 L25.41615186038034,9.489494951118413 M25.41615186038034,9.489494951118413 L25.290693549246566,9.482891353492988 M25.290693549246566,9.482891353492988 L25.181865265326998,9.457854724188328 M25.181865265326998,9.457854724188326 A0.39160320065783616,0.39160320065783616 0 0,0 25.118899655855436,9.445086139652433 M25.118899655855436,9.445086139652435 A0.2686744962305587,0.2686744962305587 0 0,0 24.95896937236108,9.47583955780419 M24.95896937236108,9.475839557804191 A0.395227906821047,0.395227906821047 0 0,0 24.823702569527292,9.596771855269534 M24.823702569527292,9.596771855269534 A0.6805663788829203,0.6805663788829203 0 0,0 24.723614048512932,9.812809271741688 M24.72361404851293,9.812809271741688 A0.26025288263402135,0.26025288263402135 0 0,0 24.750334310249112,10.010152132139696 M24.750334310249116,10.010152132139694 A0.1746354911755342,0.1746354911755342 0 0,1 24.75705730314833,10.173143920184202 M24.757057303148333,10.173143920184204 A0.22204694938031738,0.22204694938031738 0 0,1 24.590191207977806,10.297107481112402 M24.590191207977806,10.297107481112402 A0.3142036369923656,0.3142036369923656 0 0,1 24.3507634416731,10.235303946695314 M24.3507634416731,10.235303946695314 A0.15414165776317976,0.15414165776317976 0 0,1 24.293313633077215,10.14114905825313 M24.29331363307721,10.14114905825313 A0.14093877191902895,0.14093877191902895 0 0,0 24.236802912921014,10.052097809800111 M24.236802912921014,10.052097809800111 A0.2479821402763557,0.2479821402763557 0 0,0 24.054842252231605,10.008530161304634 M24.054842252231605,10.008530161304632 A0.43567665382214665,0.43567665382214665 0 0,0 23.830507208973998,10.114258982392167 M23.830507208973998,10.114258982392165 A0.37673733082207367,0.37673733082207367 0 0,0 23.72628846109014,10.269629458062317 M23.72628846109014,10.269629458062317 A0.31376053794169123,0.31376053794169123 0 0,0 23.71530662456004,10.44001122646684 M23.715306624560036,10.44001122646684 A0.1497789438202674,0.1497789438202674 0 0,0 23.89856925590075,10.553799267888461 M23.89856925590075,10.553799267888461 A0.12335740713800501,0.12335740713800501 0 0,1 24.052232403679316,10.675092206951476 M24.052232403679316,10.675092206951476 A0.12597945602862123,0.12597945602862123 0 0,1 23.910726232707045,10.798353948730286 M23.910726232707045,10.798353948730286 A0.13471063523292456,0.13471063523292456 0 0,0 23.78042497195616,10.859768397691152 M23.78042497195616,10.859768397691154 L23.714973224690034,10.956536010034386 M23.714973224690034,10.956536010034386 L23.631371257470008,11.073654361308478 M23.631371257470008,11.073654361308478 L23.564492056278418,11.20750546491276 M23.564492056278418,11.20750546491276 L23.41764772300261,11.175304106159981 M23.41764772300261,11.175304106159981 A0.3363106221358932,0.3363106221358932 0 0,0 23.328210301075835,11.093649407162461 M23.328210301075835,11.093649407162463 A0.303249899507435,0.303249899507435 0 0,0 23.05243595073317,11.07014674466556 M23.05243595073317,11.07014674466556 A0.3916032006576468,0.3916032006576468 0 0,0 22.89503750119248,11.18798002697396 M22.89503750119248,11.187980026973959 A0.26867449623069617,0.26867449623069617 0 0,0 22.836678006013894,11.340024880978069 M22.836678006013898,11.34002488097807 A0.3952279068210301,0.3952279068210301 0 0,0 22.867918861036458,11.518758586519517 M22.867918861036458,11.518758586519517 A0.6805663788829422,0.6805663788829422 0 0,0 22.99849685554102,11.717854705783493 M22.99849685554102,11.717854705783493 A0.26025288263399,0.26025288263399 0 0,0 23.180179519899923,11.799399702004953 M23.180179519899923,11.799399702004955 A0.17463549117553911,0.17463549117553911 0 0,1 23.322131426693936,11.879781153603034 M23.322131426693936,11.879781153603034 A0.22204694938032085,0.22204694938032085 0 0,1 23.339255879199293,12.08694778045652 M23.339255879199293,12.08694778045652 A0.3142036369923532,0.3142036369923532 0 0,1 23.160314141117507,12.25760880856889 M23.160314141117507,12.257608808568888 A0.1541416577631972,0.1541416577631972 0 0,1 23.050020339531006,12.256659673771058 M23.050020339531006,12.25665967377106 A0.1409387719190133,0.1409387719190133 0 0,0 22.944556196398153,12.257608808568884 M22.944556196398153,12.257608808568886 A0.24798214027636697,0.24798214027636697 0 0,0 22.81145243645984,12.389104858411605 M22.81145243645984,12.389104858411605 A0.4356766538221525,0.4356766538221525 0 0,0 22.78273891082171,12.63543863337432 M22.782738910821706,12.63543863337432 A0.37673733082207833,0.37673733082207833 0 0,0 22.859621368345824,12.805998358530942 M22.859621368345827,12.80599835853094 A0.3137605379417097,0.3137605379417097 0 0,0 22.998496855541003,12.905316769686841 M22.998496855541003,12.905316769686841 A0.14977894382026377,0.14977894382026377 0 0,0 23.19191440925423,12.809804674473307 M23.19191440925423,12.809804674473307 A0.12335740713800608,0.12335740713800608 0 0,1 23.376070521886085,12.743390321867222 M23.376070521886085,12.743390321867224 A0.1259794560286237,0.1259794560286237 0 0,1 23.40599382079861,12.928652432380334 M23.40599382079861,12.928652432380334 A0.1347106352329132,0.1347106352329132 0 0,0 23.43000961707826,13.121217976833071 M23.43000961707826,13.121217976833073 A0.294536662772556,0.294536662772556 0 0,0 23.738292760919627,13.14882227044861 M23.738292760919627,13.148822270448612 A0.2289886773189069,0.2289886773189069 0 0,0 23.861522378615465,12.905316769686836 M23.861522378615465,12.905316769686836 A4.991724655904111,4.991724655904111 0 0,0 23.83659013226766,12.771038275648458 M23.83659013226766,12.771038275648458 A5.145961554036875,5.145961554036875 0 0,0 23.8225434764482,12.7031407446827 M23.822543476448203,12.703140744682704 L23.845358602854162,12.654326417050052 M23.845358602854162,12.654326417050052 L23.92002778963952,12.579607528546166 M23.92002778963952,12.579607528546166 L24.048032674744043,12.547582808822199 M24.048032674744043,12.547582808822199 L24.165372792769165,12.547582808822204 M24.165372792769165,12.547582808822204 L24.296073245333513,12.671562509013619 M24.296073245333513,12.671562509013619 A0.3767373308220892,0.3767373308220892 0 0,0 24.302562284333973,12.698852868247624 M24.302562284333973,12.698852868247624 A0.31376053794175435,0.31376053794175435 0 0,0 24.39125455769056,12.844744020772644 M24.39125455769056,12.844744020772646 A0.14977894382022738,0.14977894382022738 0 0,0 24.6066438231475,12.832896036033237 M24.6066438231475,12.832896036033235 A0.12335740713800063,0.12335740713800063 0 0,1 24.802085077692006,12.844167951302067 M24.802085077692002,12.844167951302069 A0.12597945602859642,0.12597945602859642 0 0,1 24.75682147241491,13.026290600763588 M24.75682147241491,13.02629060076359 A0.134710635232925,0.134710635232925 0 0,0 24.70325613615358,13.212808702117163 M24.70325613615358,13.212808702117165 A0.29453666277257085,0.29453666277257085 0 0,0 24.975909013088092,13.359304103075946 M24.975909013088092,13.359304103075944 A0.22898867731893205,0.22898867731893205 0 0,0 25.184893315525464,13.18378763970716 M25.184893315525464,13.183787639707159 A4.991724655905287,4.991724655905287 0 0,0 25.2147175430299,13.050510311091475 M25.214717543029895,13.050510311091472 A5.145961554035449,5.145961554035449 0 0,0 25.24131378305251,12.914417327137832 M25.241313783052515,12.914417327137832 A5.400068998071554,5.400068998071554 0 0,0 25.276529587358038,12.69468323138426 M25.27652958735804,12.694683231384262 A6.18389377190009,6.18389377190009 0 0,1 25.311745391663596,12.474949135630713 M25.31174539166359,12.47494913563071 A0.19991936779732472,0.19991936779732472 0 1,1 25.562090954772433,12.702747363881155 M25.562090954772433,12.702747363881155 A0.18528407261802748,0.18528407261802748 0 0,0 25.48932733308585,13.020369072460191 M25.48932733308585,13.020369072460191 A0.2954701269650324,0.2954701269650324 0 0,0 25.70227304951255,13.093471639969676 M25.70227304951255,13.093471639969675 A0.18062702189377874,0.18062702189377874 0 0,0 25.850555430722668,12.998602776806212 M25.850555430722668,12.998602776806212 A0.11461126608084278,0.11461126608084278 0 0,0 25.83892255126683,12.87261376824728 M25.83892255126683,12.87261376824728 A0.09463218243272688,0.09463218243272688 0 0,1 25.836169238879325,12.757677457176388 M25.836169238879325,12.75767745717639 A0.09633569134670544,0.09633569134670544 0 0,1 26.01032974234098,12.818259090115548 M26.01032974234098,12.818259090115548 A0.10666729304207676,0.10666729304207676 0 0,0 26.183386195432135,12.90600904046024 M26.183386195432135,12.906009040460239 A0.16530842437790816,0.16530842437790816 0 0,0 26.2421602187582,12.810619063452524 M26.242160218758205,12.810619063452524 A0.39866245463706856,0.39866245463706856 0 0,0 26.239806662959165,12.636638727890992 M26.239806662959165,12.636638727890992 A0.15489433941711975,0.15489433941711975 0 0,0 26.04996728124111,12.52261689486907 M26.04996728124111,12.522616894869069 A0.09810895134514588,0.09810895134514588 0 0,1 25.93499818041783,12.38903670636128 M25.93499818041783,12.38903670636128 A0.19935800730830072,0.19935800730830072 0 0,1 26.050206021582575,12.280193183123512 M26.050206021582575,12.28019318312351 A0.3300818637868007,0.3300818637868007 0 0,0 26.167426836887866,12.206825597051475 M26.167426836887866,12.206825597051477 L26.277004583102915,12.04188366868204 M26.277004583102915,12.04188366868204 L26.208140319592527,11.800694087311747 M26.208140319592527,11.800694087311747 L26.490187247181687,11.765272353760373 M26.490187247181687,11.765272353760373 A0.3767373308222505,0.3767373308222505 0 0,0 26.508446933102043,11.786566841412373 M26.50844693310204,11.786566841412375 A0.31376053794175396,0.31376053794175396 0 0,0 26.654075865778662,11.87568901433083 M26.654075865778662,11.875689014330828 A0.14977894382022164,0.14977894382022164 0 0,0 26.840159947478117,11.766576114293605 M26.840159947478117,11.766576114293605 A0.12335740713800532,0.12335740713800532 0 0,1 27.019089317416476,11.68714928869153 M27.019089317416476,11.68714928869153 A0.12597945602859761,0.12597945602859761 0 0,1 27.06219788077533,11.869794039984034 M27.06219788077533,11.869794039984034 A0.13471063523292431,0.13471063523292431 0 0,0 27.09993691537369,12.060146378159628 M27.09993691537369,12.060146378159628 A0.2945366627725809,0.2945366627725809 0 0,0 27.409405214421373,12.065611328962742 M27.409405214421373,12.065611328962744 A0.22898867731893205,0.22898867731893205 0 0,0 27.514887284444878,11.813909123008408 M27.51488728444487,11.813909123008406 A4.9917246559056645,4.9917246559056645 0 0,0 27.480406643580555,11.681759903280257 M27.480406643580558,11.681759903280254 A5.145961554035318,5.145961554035318 0 0,0 27.441767278954394,11.548584606148875 M27.44176727895439,11.54858460614887 A5.400068998071567,5.400068998071567 0 0,0 27.37251114736151,11.337097457730074 M27.37251114736151,11.337097457730076 A6.183893771899066,6.183893771899066 0 0,1 27.303255015768656,11.125610309311327 M27.303255015768652,11.12561030931133 A0.1999193677973136,0.1999193677973136 0 1,1 27.63009986926581,11.213572662080768 M27.63009986926581,11.21357266208077 A0.18528407261802635,0.18528407261802635 0 0,0 27.7107724072259,11.529278278154814 M27.7107724072259,11.529278278154814 A0.2954701269650419,0.2954701269650419 0 0,0 27.933563766957967,11.49681485951631 M27.933563766957967,11.49681485951631 A0.18062702189378793,0.18062702189378793 0 0,0 28.021985145197135,11.344599795723134 M28.021985145197135,11.344599795723134 A0.1146112660808503,0.1146112660808503 0 0,0 27.95397990837431,11.23790470714465 M27.95397990837431,11.23790470714465 A0.09463218243271566,0.09463218243271566 0 0,1 27.898928222273366,11.13697280837559 M27.898928222273366,11.13697280837559 A0.09633569134670034,0.09633569134670034 0 0,1 28.081504383936178,11.111127878349325 M28.08150438393618,11.111127878349325 A0.10666729304208097,0.10666729304208097 0 0,0 28.27553321793987,11.109944105922025 M28.27553321793987,11.109944105922025 A0.16530842437792276,0.16530842437792276 0 0,0 28.284132538152154,10.998231594432244 M28.284132538152157,10.998231594432244 A0.3986624546370826,0.3986624546370826 0 0,0 28.202413212449393,10.844619589062575 M28.202413212449393,10.844619589062576 A0.15489433941710692,0.15489433941710692 0 0,0 28.152145346830007,10.805950498134372 " style="stroke:#000000;stroke-width:0.25;" stroke="param(outline) #000000" stroke-width="param(outline-width) 0.25"/>
                <!-- Polyline -->
                <path d="M24.512910904781112,15.980579930486616 A0.37673733082218847,0.37673733082218847 0 0,0 24.492771013611584,16.000105711340414 M24.492771013611584,16.000105711340414 A0.31376053794175496,0.31376053794175496 0 0,0 24.412706669901798,16.15090441360459 M24.412706669901798,16.15090441360459 A0.14977894382021922,0.14977894382021922 0 0,0 24.53297759694691,16.329979298845846 M24.53297759694691,16.32997929884585 A0.1233574071379974,0.1233574071379974 0 0,1 24.623180994206123,16.503725341029988 M24.623180994206123,16.503725341029988 A0.12597945602859859,0.12597945602859859 0 0,1 24.44350904549478,16.557905081300994 M24.44350904549478,16.557905081300994 A0.13471063523291948,0.13471063523291948 0 0,0 24.255816046453496,16.60719590694044 M24.255816046453496,16.60719590694044 A0.2945366627725784,0.2945366627725784 0 0,0 24.269256264964888,16.916420508693133 M24.269256264964888,16.916420508693133 A0.22898867731892705,0.22898867731892705 0 0,0 24.526929216400603,17.00633779110939 M24.526929216400603,17.00633779110939 A4.991724655905491,4.991724655905491 0 0,0 24.656726630287835,16.963852944194777 M24.656726630287835,16.963852944194777 A5.145961554035298,5.145961554035298 0 0,0 24.787294291180018,16.91715448390014 M24.787294291180018,16.91715448390014 A5.400068998071784,5.400068998071784 0 0,0 24.994158354097188,16.835114949632022 M24.994158354097188,16.835114949632025 A6.183893771899112,6.183893771899112 0 0,1 25.201022417014304,16.753075415363945 M25.201022417014308,16.753075415363945 A0.19991936779732505,0.19991936779732505 0 1,1 25.13318009397992,17.08468113450585 M25.133180093979924,17.084681134505846 A0.18528407261801688,0.18528407261801688 0 0,0 24.822989043951832,17.184478964562782 M24.82298904395183,17.184478964562782 A0.2954701269650472,0.2954701269650472 0 0,0 24.86899470118157,17.40487257387082 M24.86899470118157,17.40487257387082 A0.18062702189377194,0.18062702189377194 0 0,0 25.026324459100007,17.48383530589419 M25.026324459100007,17.483835305894196 A0.11461126608083841,0.11461126608083841 0 0,0 25.1286683448501,17.409442542726886 M25.128668344850105,17.409442542726886 A0.09463218243273536,0.09463218243273536 0 0,1 25.226050688236604,17.348331041941492 M25.226050688236604,17.348331041941492 A0.09633569134670025,0.09633569134670025 0 0,1 25.26299481564643,17.528988581683166 M25.26299481564643,17.528988581683166 A0.10666729304207646,0.10666729304207646 0 0,0 25.27602305232984,17.722583144599867 M25.27602305232984,17.722583144599867 A0.16530842437791785,0.16530842437791785 0 0,0 25.388052187023618,17.724345674381325 M25.388052187023618,17.72434567438133 A0.3986624546370662,0.3986624546370662 0 0,0 25.536388127109177,17.63339983739064 M25.536388127109173,17.633399837390638 A0.15489433941712064,0.15489433941712064 0 0,0 25.537363084993704,17.411952284426295 M25.537363084993707,17.41195228442629 A0.09810895134514004,0.09810895134514004 0 0,1 25.593415635989277,17.2448604760311 M25.593415635989277,17.2448604760311 A0.19935800730830272,0.19935800730830272 0 0,1 25.7458521406894,17.288252540414597 M25.7458521406894,17.2882525404146 A0.33008186378679,0.33008186378679 0 0,0 25.86882536277238,17.351506859456098 M25.86882536277238,17.351506859456098 A0.330081863786798,0.330081863786798 0 0,1 25.990973963777748,17.416339270326787 M25.990973963777748,17.416339270326787 A0.19935800730829392,0.19935800730829392 0 0,0 26.142839140521424,17.461690425871737 M26.142839140521424,17.461690425871737 A0.09810895134514722,0.09810895134514722 0 0,0 26.20103842679984,17.295334169654623 M26.20103842679984,17.295334169654623 A0.15489433941712238,0.15489433941712238 0 0,1 26.204864539923868,17.07391752593709 M26.204864539923868,17.07391752593709 A0.39866245463707806,0.39866245463707806 0 0,1 26.354359152379583,16.984889119045135 M26.354359152379583,16.984889119045135 A0.16530842437791035,0.16530842437791035 0 0,1 26.466356307397714,16.98809392782427 M26.466356307397714,16.98809392782427 A0.10666729304207868,0.10666729304207868 0 0,1 26.476890847763958,17.18184018766239 M26.476890847763958,17.18184018766239 A0.09633569134669809,0.09633569134669809 0 0,0 26.511505866366715,17.36295842446564 M26.511505866366715,17.36295842446564 A0.09463218243272661,0.09463218243272661 0 0,0 26.609666975377625,17.303105830458062 M26.609666975377625,17.303105830458062 A0.11461126608084729,0.11461126608084729 0 0,1 26.712960217659365,17.230036957050682 M26.712960217659365,17.230036957050682 A0.18062702189377822,0.18062702189377822 0 0,1 26.869260253792135,17.31101883453056 M26.869260253792135,17.31101883453056 A0.2954701269650361,0.2954701269650361 0 0,1 26.912424431460398,17.531986518337906 M26.912424431460394,17.531986518337906 A0.18528407261802257,0.18528407261802257 0 0,1 26.60097415219425,17.627782227775494 M26.600974152194254,17.62778222777549 A0.19991936779732122,0.19991936779732122 0 1,0 26.52886788114673,17.958486959277685 M26.52886788114673,17.95848695927769 A6.183893771898901,6.183893771898901 0 0,0 26.736771092299634,17.879117692544213 M26.736771092299634,17.879117692544213 A5.400068998071781,5.400068998071781 0 0,1 26.944674303452604,17.799748425810723 M26.944674303452604,17.799748425810723 A5.145961554035322,5.145961554035322 0 0,1 27.07583240484459,17.754734953338634 M27.07583240484459,17.754734953338634 A4.9917246559054025,4.9917246559054025 0 0,1 27.20616607092652,17.713924827697873 M27.20616607092652,17.71392482769787 A0.22898867731893144,0.22898867731893144 0 0,1 27.462659938204975,17.807152310916415 M27.462659938204975,17.807152310916415 A0.294536662772576,0.294536662772576 0 0,1 27.472117637904326,18.11652432923601 M27.472117637904322,18.11652432923601 A0.1347106352329256,0.1347106352329256 0 0,1 27.28380555573582,18.163394437948224 M27.28380555573582,18.163394437948224 A0.12597945602859217,0.12597945602859217 0 0,0 27.103450912059078,18.21525633064216 M27.10345091205908,18.21525633064216 A0.123357407138,0.123357407138 0 0,0 27.19140977435921,18.390149379659622 M27.19140977435921,18.390149379659615 A0.1497789438202268,0.1497789438202268 0 0,1 27.30936506285566,18.570757962878094 M27.30936506285566,18.570757962878094 A0.31376053794174946,0.31376053794174946 0 0,1 27.227365755259903,18.720513300986802 M27.227365755259907,18.720513300986806 A0.3767373308221675,0.3767373308221675 0 0,1 27.20697613038508,18.739778153224357 " style="stroke:#000000;stroke-width:0.25;" stroke="param(outline) #000000" stroke-width="param(outline-width) 0.25"/>
                <!-- Polyline -->
                <path d="M31.33966187667187,16.032235747789738 A0.37673733082195343,0.37673733082195343 0 0,0 31.36664164450472,16.03991451474514 M31.36664164450472,16.03991451474514 A0.31376053794176034,0.31376053794176034 0 0,0 31.53726932337812,16.033852919203053 M31.53726932337812,16.033852919203053 A0.1497789438202366,0.1497789438202366 0 0,0 31.63221725965429,15.84015779842463 M31.632217259654286,15.840157798424631 A0.12335740713800722,0.12335740713800722 0 0,1 31.737584047363153,15.675166343798406 M31.737584047363153,15.675166343798406 A0.12597945602859684,0.12597945602859684 0 0,1 31.874341053163956,15.803676945594383 M31.874341053163953,15.803676945594383 A0.13471063523292312,0.13471063523292312 0 0,0 32.01087465986186,15.941578438056908 M32.01087465986186,15.941578438056911 A0.29453666277257956,0.29453666277257956 0 0,0 32.27195091119912,15.775326566517275 M32.27195091119912,15.775326566517277 A0.2289886773189305,0.2289886773189305 0 0,0 32.220985086293005,15.507216603497698 M32.220985086293005,15.507216603497696 A4.991724655905031,4.991724655905031 0 0,0 32.11929342264545,15.416051169183147 M32.11929342264545,15.416051169183149 A5.145961554035462,5.145961554035462 0 0,0 32.01356753926658,15.326325488085118 M32.01356753926658,15.32632548808512 A5.400068998071673,5.400068998071673 0 0,0 31.83908718701717,15.188195721602842 M31.83908718701717,15.188195721602842 A6.183893771899066,6.183893771899066 0 0,1 31.66460683476781,15.050065955120596 M31.66460683476781,15.050065955120598 A0.1999193677973225,0.1999193677973225 0 1,1 31.985706973102097,14.943016270749167 M31.985706973102097,14.943016270749167 A0.18528407261801494,0.18528407261801494 0 0,0 32.227229954188005,15.161750685071599 M32.227229954188005,15.161750685071599 A0.29547012696504116,0.29547012696504116 0 0,0 32.39509359006564,15.011711812538831 M32.395093590065635,15.01171181253883 A0.18062702189378374,0.18062702189378374 0 0,0 32.384812442990885,14.835978879398509 M32.384812442990885,14.835978879398509 A0.11461126608084035,0.11461126608084035 0 0,0 32.26921447735523,14.78454285600057 M32.26921447735523,14.78454285600057 A0.0946321824327281,0.0946321824327281 0 0,1 32.16759919351844,14.730763023140495 M32.16759919351844,14.730763023140499 A0.09633569134669587,0.09633569134669587 0 0,1 32.305581148615005,14.608439700412106 M32.305581148615005,14.608439700412106 A0.10666729304208228,0.10666729304208228 0 0,0 32.46672483979371,14.500359635019393 M32.46672483979371,14.500359635019393 A0.16530842437791565,0.16530842437791565 0 0,0 32.4122366680125,14.402458293519862 M32.4122366680125,14.402458293519864 A0.3986624546370698,0.3986624546370698 0 0,0 32.259307292767346,14.319468519606865 M32.259307292767346,14.319468519606865 A0.15489433941712683,0.15489433941712683 0 0,0 32.067040607352055,14.429347957793428 M32.067040607352055,14.429347957793428 A0.09810895134514115,0.09810895134514115 0 0,1 31.89430858101975,14.464350928881938 M31.89430858101975,14.464350928881938 A0.19935800730830056,0.19935800730830056 0 0,1 31.85566895874846,14.310641011155775 M31.855668958748456,14.310641011155775 A0.3300818637868031,0.3300818637868031 0 0,0 31.848962194895993,14.172515917325935 M31.84896219489599,14.172515917325935 A0.33008186378678983,0.33008186378678983 0 0,1 31.84403440919591,14.034315920383216 M31.844034409195913,14.034315920383216 A0.19935800730829736,0.19935800730829736 0 0,0 31.807377073616983,13.8801212416005 M31.807377073616983,13.880121241600502 A0.09810895134514443,0.09810895134514443 0 0,0 31.634208686515287,13.912897309309823 M31.634208686515287,13.912897309309823 A0.15489433941712277,0.15489433941712277 0 0,1 31.440543191673203,14.020292120005433 M31.440543191673203,14.020292120005431 A0.3986624546370752,0.3986624546370752 0 0,1 31.28869502341845,13.935340191335857 M31.28869502341845,13.935340191335857 A0.16530842437791873,0.16530842437791873 0 0,1 31.235471891726394,13.836745405549 M31.23547189172639,13.836745405549 A0.10666729304207928,0.10666729304207928 0 0,1 31.397993804451303,13.730749096055577 M31.397993804451303,13.730749096055577 A0.09633569134670206,0.09633569134670206 0 0,0 31.537539289310182,13.610212492191483 M31.537539289310182,13.610212492191483 A0.094632182432728,0.094632182432728 0 0,0 31.436624867911767,13.555128775128171 M31.436624867911767,13.55512877512817 A0.11461126608084088,0.11461126608084088 0 0,1 31.3216987461742,13.502208639976624 M31.3216987461742,13.502208639976624 A0.18062702189378302,0.18062702189378302 0 0,1 31.31368109125155,13.326357899333276 M31.31368109125155,13.326357899333276 A0.29547012696504277,0.29547012696504277 0 0,1 31.48346263000999,13.178492783035418 M31.48346263000999,13.178492783035418 A0.18528407261801683,0.18528407261801683 0 0,1 31.722149287589552,13.400318782176859 M31.722149287589552,13.400318782176859 A0.19991936779731956,0.19991936779731956 0 1,0 32.04460112174593,13.297412278925083 M32.04460112174593,13.297412278925083 A6.183893771898888,6.183893771898888 0 0,0 31.87191371489855,13.157047449905038 M31.87191371489855,13.157047449905038 A5.400068998071704,5.400068998071704 0 0,1 31.699226308051117,13.016682620884959 M31.699226308051117,13.016682620884959 A5.145961554035266,5.145961554035266 0 0,1 31.594664446681747,12.925603109403406 M31.594664446681747,12.925603109403406 A4.991724655905298,4.991724655905298 0 0,1 31.49415500810425,12.83313590642848 M31.49415500810425,12.833135906428476 A0.22898867731893102,0.22898867731893102 0 0,1 31.446645443263172,12.564391959841151 M31.446645443263172,12.564391959841151 A0.29453666277257745,0.29453666277257745 0 0,1 31.709840620498326,12.401515342480339 M31.709840620498326,12.401515342480339 A0.1347106352329256,0.1347106352329256 0 0,1 31.84458736640549,12.541163335121702 M31.84458736640549,12.541163335121702 A0.12597945602859373,0.12597945602859373 0 0,0 31.97967840480515,12.671424091889293 M31.97967840480515,12.671424091889293 A0.12335740713800646,0.12335740713800646 0 0,0 32.08716079704951,12.50780295814066 M32.08716079704952,12.507802958140658 A0.1497789438202233,0.1497789438202233 0 0,1 32.184594774010016,12.315346390182782 M32.184594774010016,12.31534639018278 A0.3137605379417546,0.3137605379417546 0 0,1 32.35528635496237,12.311482204599082 M32.35528635496237,12.31148220459908 A0.37673733082207356,0.37673733082207356 0 0,1 32.38216501883765,12.319507711595538 " style="stroke:#000000;stroke-width:0.25;" stroke="param(outline) #000000" stroke-width="param(outline-width) 0.25"/>
                <!-- Polyline -->
                <path d="M29.939803939839994,14.43437363009032 L29.682985181133887,14.299037178135242 M29.682985181133887,14.299037178135242 L30.238127213369268,14.181090256513453 M30.238127213369268,14.181090256513453 L30.447806058545265,14.207368223661742 " style="stroke:#000000;stroke-width:0.25;" stroke="param(outline) #000000" stroke-width="param(outline-width) 0.25"/>
                <!-- Polyline -->
                <path d="M30.4782118230121,17.72566678736176 L30.268471002021364,17.267359355461167 M30.268471002021364,17.267359355461167 L29.919037000806174,16.961611409751296 M29.919037000806174,16.961611409751296 L29.331089258618174,16.663852106768616 M29.331089258618174,16.663852106768616 L28.921798412954338,16.402450596945844 M28.921798412954338,16.402450596945844 L28.400742762628838,15.686549711993665 M28.400742762628838,15.686549711993665 L28.29959865682133,14.818771341805432 M28.29959865682133,14.818771341805432 L28.011524530794734,14.382656744204231 M28.011524530794734,14.382656744204231 L28.25834523669382,14.027078394653328 M28.25834523669382,14.027078394653328 L29.188803471978478,14.24325897826702 M29.188803471978478,14.24325897826702 L29.740256116335164,14.436104699016324 M29.740256116335164,14.436104699016324 L29.913364367321062,14.565570264531516 " style="stroke:#000000;stroke-width:0.25;" stroke="param(outline) #000000" stroke-width="param(outline-width) 0.25"/>
                <!-- Polyline -->
                <path d="M29.242910012028112,10.808523301052821 L29.009824335017893,11.279637642230831 M29.009824335017893,11.279637642230831 L28.663501007006055,11.643223551683292 M28.663501007006055,11.643223551683292 L29.24491485452774,11.310906926747908 M29.24491485452774,11.310906926747908 L29.64921817099127,11.252026006415878 M29.64921817099127,11.252026006415878 L30.054817412994417,11.089432998855525 M30.054817412994417,11.089432998855525 L30.61940603310788,10.95586474559696 M30.61940603310788,10.95586474559696 L30.818996621273122,10.785352137760956 " style="stroke:#000000;stroke-width:0.25;" stroke="param(outline) #000000" stroke-width="param(outline-width) 0.25"/>
                <!-- Polyline -->
                <path d="M30.825529905239783,10.935089863769733 L30.745070470432143,11.007799979765796 M30.745070470432143,11.007799979765796 L30.65260022665674,11.100565034093291 M30.65260022665674,11.100565034093291 L30.35772299242234,11.138780004761912 M30.35772299242234,11.138780004761912 L29.897056182697202,11.227887253035362 M29.897056182697202,11.227887253035362 L29.819338409896275,11.3291696504328 M29.819338409896275,11.3291696504328 L30.100370615123477,11.449731185532682 M30.100370615123477,11.449731185532682 L30.66668773548994,11.617299641615965 " style="stroke:#000000;stroke-width:0.25;" stroke="param(outline) #000000" stroke-width="param(outline-width) 0.25"/>
                <!-- Polyline -->
                <path d="M30.409643156036623,13.253921325401963 L30.299995250918204,13.297742494503238 M30.299995250918204,13.297742494503238 L29.571432075495384,13.378332478371071 M29.571432075495384,13.378332478371071 L28.829732924280243,13.785336436244643 M28.829732924280243,13.785336436244643 L28.597943309060785,13.714280445450811 M28.597943309060785,13.714280445450811 L28.43664452993926,13.499543287789363 M28.43664452993926,13.499543287789363 L28.2188807407308,13.34018312866853 M28.2188807407308,13.34018312866853 L28.104509018572482,12.962850117905706 M28.104509018572482,12.962850117905706 L28.174615265967624,12.733531055317988 M28.174615265967624,12.733531055317988 L28.306755871449965,12.12632803965999 M28.306755871449965,12.12632803965999 L28.8097428929479,11.727656343898614 M28.8097428929479,11.727656343898614 L29.29868649672975,11.488104773292864 M29.29868649672975,11.488104773292864 L29.83778013247865,11.465352595845415 M29.83778013247865,11.465352595845415 L30.474780506112946,11.64482151517322 M30.474780506112946,11.64482151517322 L30.64181983824713,11.703100275797464 " style="stroke:#000000;stroke-width:0.25;" stroke="param(outline) #000000" stroke-width="param(outline-width) 0.25"/>
                <!-- Polyline -->
                <path d="M30.65719384623797,16.001620729996535 A0.3767373308222919,0.3767373308222919 0 0,0 30.632668249100355,16.015235663684027 M30.632668249100355,16.015235663684027 A0.3137605379417523,0.3137605379417523 0 0,0 30.516134721139977,16.140017411545426 M30.516134721139977,16.140017411545426 A0.14977894382022716,0.14977894382022716 0 0,0 30.585685276052196,16.344212491622955 M30.585685276052196,16.344212491622955 A0.12335740713800303,0.12335740713800303 0 0,1 30.627589427433,16.535441103888 M30.627589427432998,16.535441103887997 A0.12597945602859767,0.12597945602859767 0 0,1 30.440009239157046,16.541020205600987 M30.440009239157046,16.541020205600987 A0.1347106352329213,0.1347106352329213 0 0,0 30.245955794020592,16.539792275634305 M30.245955794020592,16.539792275634305 A0.29453666277257984,0.29453666277257984 0 0,0 30.178498967896513,16.841868541520938 M30.178498967896513,16.841868541520938 A0.22898867731892328,0.22898867731892328 0 0,0 30.403913149569757,16.99571558984913 M30.403913149569757,16.995715589849127 A4.991724655905499,4.991724655905499 0 0,0 30.54029358729153,16.9884556259381 M30.54029358729153,16.988455625938105 A5.145961554035839,5.145961554035839 0 0,0 30.678513788023558,16.97732744664644 M30.678513788023558,16.97732744664644 A5.40006899807145,5.40006899807145 0 0,0 30.899596853289502,16.95192067664046 M30.8995968532895,16.95192067664045 A6.183893771899147,6.183893771899147 0 0,1 31.120679918555403,16.926513906634497 M31.120679918555403,16.9265139066345 A0.19991936779731928,0.19991936779731928 0 1,1 30.968916822423182,17.22905794708924 M30.968916822423182,17.22905794708924 A0.18528407261802732,0.18528407261802732 0 0,0 30.64344434354308,17.2447346780386 M30.643444343543084,17.2447346780386 A0.29547012696504976,0.29547012696504976 0 0,0 30.63053836407415,17.469508562675834 M30.630538364074155,17.469508562675834 A0.18062702189378485,0.18062702189378485 0 0,0 30.76191289805927,17.58667723423725 M30.76191289805927,17.586677234237253 A0.11461126608085238,0.11461126608085238 0 0,0 30.88008460609759,17.541466598526117 M30.880084606097586,17.541466598526114 A0.09463218243271584,0.09463218243271584 0 0,1 30.99001088725684,17.50778946916238 M30.99001088725684,17.507789469162375 A0.09633569134670156,0.09633569134670156 0 0,1 30.978691304681362,17.691838055861396 M30.978691304681362,17.691838055861396 A0.10666729304207957,0.10666729304207957 0 0,0 30.940913949694867,17.882157422170277 M30.940913949694867,17.882157422170277 A0.16530842437792298,0.16530842437792298 0 0,0 31.04862827194011,17.912999897990414 M31.04862827194011,17.912999897990414 A0.39866245463708333,0.39866245463708333 0 0,0 31.215514588148583,17.863769278967588 M31.215514588148583,17.863769278967588 A0.15489433941712194,0.15489433941712194 0 0,0 31.27405812938926,17.65019815958162 M31.27405812938926,17.65019815958162 A0.09810895134515105,0.09810895134515105 0 0,1 31.371644520669285,17.503438297416125 M31.371644520669285,17.503438297416125 A0.19935800730830097,0.19935800730830097 0 0,1 31.497362564188787,17.571947881102858 M31.497362564188787,17.571947881102858 L31.539346749375103,17.684681907354836 M31.539346749375103,17.684681907354836 L31.554781516654067,17.764489577084095 M31.554781516654067,17.764489577084095 A0.3363106221358805,0.3363106221358805 0 0,0 31.57006934249052,17.852673096288367 M31.57006934249052,17.852673096288367 A0.3032498995074291,0.3032498995074291 0 0,0 31.76452159173854,18.049630427235314 M31.76452159173854,18.049630427235314 A0.3916032006578468,0.3916032006578468 0 0,0 31.960735902527738,18.06223592520023 M31.960735902527738,18.06223592520023 A0.26867449623054956,0.26867449623054956 0 0,0 32.10385191009058,17.984510275084766 M32.10385191009058,17.98451027508476 A0.39522790682107495,0.39522790682107495 0 0,0 32.196162104738534,17.828303500317528 M32.19616210473854,17.828303500317528 A0.6805663788829119,0.6805663788829119 0 0,0 32.22615376174982,17.59210363184906 M32.22615376174981,17.59210363184906 A0.26025288263400603,0.26025288263400603 0 0,0 32.140946211442795,17.412109603314814 M32.140946211442795,17.41210960331481 A0.17463549117554275,0.17463549117554275 0 0,1 32.085196610790156,17.258801078990352 M32.08519661079016,17.258801078990352 A0.22204694938031022,0.22204694938031022 0 0,1 32.206705724401886,17.090139306603284 M32.206705724401886,17.090139306603284 A0.31420363699237264,0.31420363699237264 0 0,1 32.45360849024678,17.076561517304203 M32.45360849024678,17.076561517304203 A0.15414165776317265,0.15414165776317265 0 0,1 32.53686585164382,17.148906768001577 M32.53686585164382,17.148906768001577 A0.14093877191902215,0.14093877191902215 0 0,0 32.61768317792952,17.216672143494097 M32.61768317792952,17.2166721434941 A0.24798214027635068,0.24798214027635068 0 0,0 32.80429485416981,17.2031110106233 M32.80429485416981,17.203111010623296 A0.4356766538221262,0.4356766538221262 0 0,0 32.986096466453965,17.034430931737766 M32.986096466453965,17.034430931737766 A0.3767373308220725,0.3767373308220725 0 0,0 33.03839008976687,16.85480100917124 M33.03839008976687,16.85480100917124 A0.31376053794174075,0.31376053794174075 0 0,0 32.997277409440635,16.68908952720747 M32.997277409440635,16.68908952720747 A0.1497789438202701,0.1497789438202701 0 0,0 32.788167222348214,16.636119346250016 M32.788167222348214,16.636119346250016 A0.1233574071380019,0.1233574071380019 0 0,1 32.60499569071363,16.567035845684405 M32.60499569071363,16.567035845684405 A0.12597945602862343,0.12597945602862343 0 0,1 32.70254729845222,16.406720103359465 M32.70254729845222,16.40672010335946 A0.13471063523292548,0.13471063523292548 0 0,0 32.80814262769029,16.30874163869737 M32.80814262769029,16.30874163869737 L32.8412289948933,16.19670060012622 M32.8412289948933,16.19670060012622 L32.88545319809871,16.05976916845669 M32.88545319809871,16.05976916845669 L32.90867385267886,15.911952570305537 M32.90867385267886,15.911952570305537 L33.05837607109965,15.898189157914809 M33.05837607109965,15.898189157914807 A0.33631062213590085,0.33631062213590085 0 0,0 33.16833594863619,15.94893723808966 M33.16833594863619,15.948937238089663 A0.30324989950743664,0.30324989950743664 0 0,0 33.438285094439735,15.887852656309152 M33.438285094439735,15.887852656309153 A0.39160320065784127,0.39160320065784127 0 0,0 33.55262661370172,15.72789962785928 M33.55262661370171,15.727899627859278 A0.26867449623054834,0.26867449623054834 0 0,0 33.562219585131416,15.565322128783455 M33.562219585131416,15.565322128783455 A0.3952279068210499,0.3952279068210499 0 0,0 33.47833706022965,15.404432568726797 M33.47833706022965,15.404432568726795 A0.6805663788828982,0.6805663788828982 0 0,0 33.29361431271762,15.25420812362411 M33.29361431271762,15.254208123624114 A0.26025288263400714,0.26025288263400714 0 0,0 33.095770807236754,15.231489754924876 M33.095770807236754,15.231489754924874 A0.17463549117552446,0.17463549117552446 0 0,1 32.93614601795043,15.19785274779341 M32.93614601795043,15.197852747793412 A0.2220469493803267,0.2220469493803267 0 0,1 32.8571100920765,15.005590997627879 M32.8571100920765,15.005590997627879 A0.3142036369923627,0.3142036369923627 0 0,1 32.97599162598403,14.788767306487133 M32.97599162598403,14.788767306487133 A0.1541416577631769,0.1541416577631769 0 0,1 33.08139746334437,14.756282956784105 M33.08139746334437,14.756282956784105 A0.14093877191903922,0.14093877191903922 0 0,0 33.181625605224475,14.723451479222513 M33.181625605224475,14.723451479222511 A0.24798214027635454,0.24798214027635454 0 0,0 33.26867631640409,14.55783144505673 M33.26867631640409,14.55783144505673 A0.4356766538221356,0.4356766538221356 0 0,0 33.22147055638833,14.314363969891598 M33.221470556388326,14.3143639698916 A0.3767373308221063,0.3767373308221063 0 0,0 33.15735316753758,14.2256624623674 M33.15735316753758,14.225662462367398 L33.14084565322113,14.122040175142123 M33.14084565322113,14.122040175142123 L33.209293692087996,14.016691889397103 M33.209293692087996,14.016691889397103 L33.28539019105075,13.93496214552481 M33.28539019105075,13.93496214552481 A0.3916032006578628,0.3916032006578628 0 0,0 33.32793091436499,13.886816620425613 M33.32793091436499,13.886816620425614 A0.26867449623053413,0.26867449623053413 0 0,0 33.381262814739536,13.732936223009188 M33.381262814739536,13.732936223009188 A0.3952279068210559,0.3952279068210559 0 0,0 33.34416577441343,13.555325586733751 M33.34416577441343,13.555325586733751 A0.6805663788829281,0.6805663788829281 0 0,0 33.20711614408776,13.360627676672028 M33.20711614408776,13.360627676672026 A0.2602528826340009,0.2602528826340009 0 0,0 33.02285208285953,13.285096671932328 M33.02285208285953,13.285096671932326 A0.1746354911755465,0.1746354911755465 0 0,1 32.878335557355115,13.209423060550254 M32.878335557355115,13.209423060550252 A0.22204694938031191,0.22204694938031191 0 0,1 32.85441301203299,13.002931002638173 M32.85441301203299,13.002931002638173 A0.3142036369923638,0.3142036369923638 0 0,1 33.027650326034205,12.826482241855473 M33.027650326034205,12.826482241855471 A0.15414165776318953,0.15414165776318953 0 0,1 33.13791575561358,12.823806692389969 M33.13791575561358,12.82380669238997 A0.14093877191901677,0.14093877191901677 0 0,0 33.2432917590907,12.819392597375064 M33.2432917590907,12.819392597375066 A0.24798214027635782,0.24798214027635782 0 0,0 33.37200277981564,12.683593866976375 M33.372002779815645,12.683593866976377 A0.4356766538221537,0.4356766538221537 0 0,0 33.392606456470475,12.436449610012438 M33.392606456470475,12.436449610012438 A0.3767373308220761,0.3767373308220761 0 0,0 33.31016105148399,12.268508288959332 M33.31016105148399,12.268508288959328 A0.3137605379417,0.3137605379417 0 0,0 33.168097029969,12.173806855341795 M33.168097029969,12.173806855341795 A0.14977894382026433,0.14977894382026433 0 0,0 32.977922379780644,12.275622928936421 M32.977922379780644,12.275622928936421 A0.1233574071380104,0.1233574071380104 0 0,1 32.79604803936311,12.348052649006638 M32.79604803936311,12.348052649006638 A0.1259794560286249,0.1259794560286249 0 0,1 32.76005332515408,12.163873839262978 M32.76005332515408,12.163873839262978 A0.13471063523291546,0.13471063523291546 0 0,0 32.772017482569986,12.020322412827145 M32.772017482569986,12.020322412827145 L32.720940145650246,11.915255730800993 M32.720940145650246,11.915255730800993 L32.661313661807554,11.784295127745047 M32.661313661807554,11.784295127745047 L32.57883480635745,11.65945048872618 M32.57883480635745,11.65945048872618 L32.680144167711646,11.548380245083926 M32.680144167711646,11.548380245083926 A0.33631062213587976,0.33631062213587976 0 0,0 32.79557792234525,11.511752515145115 M32.79557792234525,11.511752515145117 A0.30324989950743425,0.30324989950743425 0 0,0 32.9538190002955,11.284676253284683 M32.95381900029549,11.284676253284683 A0.3916032006578504,0.3916032006578504 0 0,0 32.9304716091754,11.089448556311869 M32.930471609175406,11.089448556311867 A0.2686744962305421,0.2686744962305421 0 0,0 32.827976650682494,10.962885323933206 M32.827976650682494,10.962885323933202 A0.395227906821056,0.395227906821056 0 0,0 32.65756829365978,10.900573845247965 M32.65756829365978,10.900573845247965 A0.6805663788828913,0.6805663788828913 0 0,0 32.419856999330015,10.914109646032147 M32.419856999330015,10.914109646032145 A0.26025288263402,0.26025288263402 0 0,0 32.258395628871256,11.03067895068348 M32.258395628871256,11.03067895068348 A0.1746354911755292,0.1746354911755292 0 0,1 32.11780729639725,11.113422182283696 M32.11780729639725,11.113422182283696 A0.22204694938032002,0.22204694938032002 0 0,1 31.92983350847312,11.024669079752504 M31.92983350847312,11.024669079752503 A0.31420363699236187,0.31420363699236187 0 0,1 31.871507591732747,10.78437047472014 M31.871507591732747,10.78437047472014 A0.15414165776318367,0.15414165776318367 0 0,1 31.927476467372525,10.68932780806519 M31.927476467372525,10.689327808065192 A0.14093877191902177,0.14093877191902177 0 0,0 31.979386564092426,10.597518613524864 M31.979386564092422,10.597518613524864 A0.2479821402763597,0.2479821402763597 0 0,0 31.93205952440048,10.416499351157706 M31.93205952440048,10.416499351157706 A0.4356766538221445,0.4356766538221445 0 0,0 31.733084980291714,10.268465821041517 M31.733084980291714,10.268465821041517 A0.37673733082207655,0.37673733082207655 0 0,0 31.546934696681532,10.249768119784465 M31.546934696681532,10.249768119784465 A0.31376053794170483,0.31376053794170483 0 0,0 31.39148468595943,10.320378614080477 M31.39148468595943,10.320378614080479 A0.14977894382026788,0.14977894382026788 0 0,0 31.377491809926404,10.535639176740744 M31.377491809926404,10.535639176740746 A0.12335740713800793,0.12335740713800793 0 0,1 31.342930270143242,10.728330224845164 M31.342930270143242,10.728330224845164 A0.12597945602862148,0.12597945602862148 0 0,1 31.167526926623914,10.66161350661188 M31.167526926623914,10.66161350661188 A0.1347106352329163,0.1347106352329163 0 0,0 30.98875237509443,10.586129024055806 M30.98875237509443,10.586129024055806 A0.29453666277256335,0.29453666277256335 0 0,0 30.810704783649165,10.839307911373204 M30.81070478364916,10.839307911373204 A0.22898867731889921,0.22898867731889921 0 0,0 30.959971924422188,11.067780641177324 M30.959971924422188,11.067780641177322 A4.991724655903898,4.991724655903898 0 0,0 31.088726634615234,11.113327929485896 M31.088726634615234,11.113327929485898 A5.145961554037084,5.145961554037084 0 0,0 31.154550949195553,11.13511193419091 M31.154550949195553,11.13511193419091 L31.18541783379111,11.179277577065358 M31.18541783379111,11.179277577065358 L31.21279169598533,11.28130243395334 M31.21279169598533,11.28130243395334 L31.1765234742631,11.408170276124341 M31.1765234742631,11.408170276124341 L31.117853415250533,11.509789799217174 M31.117853415250533,11.509789799217174 L30.94513361904901,11.560989861328306 M30.94513361904901,11.560989861328304 A0.37673733082207356,0.37673733082207356 0 0,0 30.91825495517373,11.552964354331847 M30.91825495517373,11.552964354331849 A0.3137605379417547,0.3137605379417547 0 0,0 30.74756337422138,11.55682853991555 M30.74756337422138,11.55682853991555 A0.1497789438202233,0.1497789438202233 0 0,0 30.65012939726089,11.74928510787343 M30.650129397260887,11.74928510787343 A0.1233574071380046,0.1233574071380046 0 0,1 30.542647005016516,11.91290624162206 M30.542647005016516,11.91290624162206 A0.12597945602859373,0.12597945602859373 0 0,1 30.407555966616858,11.78264548485447 M30.407555966616858,11.78264548485447 A0.1347106352329256,0.1347106352329256 0 0,0 30.272809220709693,11.642997492213107 M30.272809220709693,11.642997492213105 A0.2945366627725812,0.2945366627725812 0 0,0 30.009614043474535,11.80587410957392 M30.009614043474535,11.80587410957392 A0.22898867731892958,0.22898867731892958 0 0,0 30.057123608315614,12.074618056161246 M30.057123608315614,12.074618056161246 A4.991724655905386,4.991724655905386 0 0,0 30.15763304689311,12.167085259136178 M30.15763304689311,12.167085259136178 A5.145961554035323,5.145961554035323 0 0,0 30.262194908262483,12.258164770617727 M30.262194908262483,12.258164770617729 A5.400068998071637,5.400068998071637 0 0,0 30.434882315109913,12.39852959963781 M30.43488231510991,12.39852959963781 A6.183893771899042,6.183893771899042 0 0,1 30.607569721957294,12.538894428657853 M30.607569721957297,12.538894428657855 A0.19991936779732183,0.19991936779732183 0 1,1 30.285117887800915,12.64180093190963 M30.285117887800915,12.64180093190963 A0.18528407261801902,0.18528407261801902 0 0,0 30.04643123022135,12.419974932768188 M30.04643123022135,12.419974932768188 A0.29547012696503927,0.29547012696503927 0 0,0 29.876649691462916,12.567840049066046 M29.87664969146292,12.567840049066048 A0.18062702189378302,0.18062702189378302 0 0,0 29.88466734638557,12.743690789709392 M29.884667346385566,12.743690789709394 A0.11461126608084088,0.11461126608084088 0 0,0 29.999593468123134,12.79661092486094 M29.999593468123134,12.79661092486094 A0.09463218243272682,0.09463218243272682 0 0,1 30.10050788952154,12.851694641924256 M30.100507889521545,12.851694641924256 A0.09633569134670085,0.09633569134670085 0 0,1 29.960962404662666,12.972231245788349 M29.960962404662666,12.972231245788347 A0.10666729304207766,0.10666729304207766 0 0,0 29.798440491937757,13.078227555281769 M29.798440491937757,13.078227555281769 A0.16530842437791626,0.16530842437791626 0 0,0 29.851663623629815,13.176822341068629 M29.851663623629815,13.176822341068629 A0.3986624546370824,0.3986624546370824 0 0,0 30.00351179188457,13.261774269738204 M30.00351179188457,13.261774269738202 A0.1548943394171212,0.1548943394171212 0 0,0 30.19717728672665,13.154379459042591 M30.19717728672665,13.154379459042591 A0.09810895134514423,0.09810895134514423 0 0,1 30.370345673828346,13.12160339133327 M30.370345673828346,13.12160339133327 A0.19935800730829953,0.19935800730829953 0 0,1 30.407003009407276,13.275798070115988 M30.407003009407273,13.275798070115988 A0.33008186378678983,0.33008186378678983 0 0,0 30.411930795107352,13.413998067058706 M30.411930795107356,13.413998067058706 L30.499985822116948,13.591366143155108 M30.499985822116948,13.591366143155108 L30.74329425846696,13.652322732227345 M30.74329425846696,13.652322732227345 L30.632946915773942,13.914293403354595 M30.632946915773942,13.914293403354595 A0.3767373308221614,0.3767373308221614 0 0,0 30.605375505546565,13.919459511400746 M30.605375505546565,13.919459511400746 A0.31376053794176184,0.31376053794176184 0 0,0 30.4553789734204,14.001016780165488 M30.455378973420405,14.00101678016549 A0.14977894382022341,0.14977894382022341 0 0,0 30.456831475883494,14.216726772175727 M30.456831475883494,14.216726772175729 A0.12335740713800548,0.12335740713800548 0 0,1 30.436152439627666,14.411397564826531 M30.436152439627666,14.411397564826528 A0.12597945602859836,0.12597945602859836 0 0,1 30.256423163461033,14.3574083001697 M30.256423163461037,14.357408300169698 A0.13471063523292304,0.13471063523292304 0 0,0 30.07270368563203,14.29491509375838 M30.07270368563203,14.294915093758382 A0.2945366627725821,0.2945366627725821 0 0,0 29.91323674988226,14.560190026998082 M29.91323674988226,14.560190026998079 A0.2289886773189308,0.2289886773189308 0 0,0 30.078476219415542,14.77739128225937 M30.078476219415542,14.77739128225937 A4.991724655905567,4.991724655905567 0 0,0 30.21016112122257,14.813604781196172 M30.21016112122257,14.813604781196172 A5.145961554035422,5.145961554035422 0 0,0 30.344813994007975,14.846729758409506 M30.344813994007975,14.84672975840951 A5.400068998071497,5.400068998071497 0 0,0 30.56259530290902,14.892495763291635 M30.56259530290902,14.892495763291635 A6.183893771899008,6.183893771899008 0 0,1 30.78037661181001,14.938261768173756 M30.780376611810013,14.938261768173756 A0.19991936779732095,0.19991936779732095 0 1,1 30.540776552986443,15.177336538013783 M30.540776552986443,15.177336538013783 A0.18528407261802635,0.18528407261802635 0 0,0 30.22703120036886,15.089348197237967 M30.22703120036886,15.089348197237966 A0.2954701269651072,0.2954701269651072 0 0,0 30.143749665737435,15.29852288382891 M30.143749665737438,15.29852288382891 A0.18062702189375657,0.18062702189375657 0 0,0 30.231361088701426,15.451205575518205 M30.231361088701426,15.451205575518204 A0.11461126608085731,0.11461126608085731 0 0,0 30.357764364280843,15.445658857128498 M30.357764364280843,15.445658857128496 A0.09463218243271924,0.09463218243271924 0 0,1 30.472699795717524,15.448448647828432 M30.472699795717524,15.44844864782843 A0.09633569134670902,0.09633569134670902 0 0,1 30.403794080847888,15.619486706967027 M30.403794080847888,15.61948670696703 A0.10666729304208272,0.10666729304208272 0 0,0 30.307804840840383,15.78811249249455 M30.307804840840383,15.78811249249455 A0.16530842437791238,0.16530842437791238 0 0,0 30.40025105360495,15.851415977998546 M30.40025105360495,15.851415977998546 A0.3986624546370737,0.3986624546370737 0 0,0 30.57414261543273,15.857450968644667 M30.57414261543273,15.857450968644667 A0.1548943394171231,0.1548943394171231 0 0,0 30.632764963327503,15.833252265488351 " style="stroke:#000000;stroke-width:0.25;" stroke="param(outline) #000000" stroke-width="param(outline-width) 0.25"/>
                <!-- Polyline -->
                <path d="M30.44843624399807,14.008267369842253 L30.025885287682783,13.97470919592706 M30.025885287682783,13.97470919592706 L29.64526193542634,14.026644587402162 M29.64526193542634,14.026644587402162 L29.446476555158753,13.932492957141601 M29.446476555158753,13.932492957141601 L29.282181293967987,13.879329528105528 M29.282181293967987,13.879329528105528 L29.594402850236463,13.64220772602045 M29.594402850236463,13.64220772602045 L30.060696248903817,13.577424312096891 M30.060696248903817,13.577424312096891 L30.443580878661784,13.477750411688913 " style="stroke:#000000;stroke-width:0.25;" stroke="param(outline) #000000" stroke-width="param(outline-width) 0.25"/>
                <!-- Polyline -->
                <path d="M30.632764963327503,15.833252265488351 L30.727387775980493,15.852664572539213 M30.727387775980493,15.852664572539213 L30.727151948051624,15.908663323958807 M30.727151948051624,15.908663323958807 L30.65719384623797,16.001620729996535 " style="stroke:#000000;stroke-width:0.25;" stroke="param(outline) #000000" stroke-width="param(outline-width) 0.25"/>
                <!-- Polyline -->
                <path d="M29.40397241912539,9.75336585122379 L29.36495311163504,10.023143592448768 M29.36495311163504,10.023143592448768 L29.242910012028112,10.808523301052821 " style="stroke:#000000;stroke-width:0.25;" stroke="param(outline) #000000" stroke-width="param(outline-width) 0.25"/>
                <!-- Line -->
                <path d="M29.40397241912539,9.75336585122379 L29.322299909341687,9.697954638440493 " style="stroke:#000000;stroke-width:0.25;" stroke="param(outline) #000000" stroke-width="param(outline-width) 0.25"/>
                <!-- Polyline -->
                <path d="M29.825468947729615,18.034661421351863 L29.735003818987433,17.75289361196066 M29.735003818987433,17.75289361196066 L29.87179925330602,17.414489491126538 M29.87179925330602,17.414489491126538 L29.892765185511887,17.17598111307867 M29.892765185511887,17.17598111307867 L30.047812247561016,17.244422254380304 M30.047812247561016,17.244422254380304 L30.128564758272155,17.374887865835095 M30.128564758272155,17.374887865835095 L30.40358189096885,17.74213150267943 " style="stroke:#000000;stroke-width:0.25;" stroke="param(outline) #000000" stroke-width="param(outline-width) 0.25"/>
                <!-- Line -->
                <path d="M23.830167240527892,13.466817977141933 L23.84755356009681,13.312807473095852 " style="stroke:#000000;stroke-width:0.25;" stroke="param(outline) #000000" stroke-width="param(outline-width) 0.25"/>
                <!-- Line -->
                <path d="M29.754673689418475,18.05655556585706 L29.825468947729615,18.034661421351863 " style="stroke:#000000;stroke-width:0.25;" stroke="param(outline) #000000" stroke-width="param(outline-width) 0.25"/>
                <!-- Line -->
                <path d="M30.59299455326595,17.65395992952074 L30.72162842492397,17.528989915559265 " style="stroke:#000000;stroke-width:0.25;" stroke="param(outline) #000000" stroke-width="param(outline-width) 0.25"/>
                <!-- Line -->
                <path d="M30.40358189096885,17.74213150267943 L30.4782118230121,17.72566678736176 " style="stroke:#000000;stroke-width:0.25;" stroke="param(outline) #000000" stroke-width="param(outline-width) 0.25"/>
            </g>
        </g>
    </g>
</svg>
